# by drummyfish, released under CC0 1.0, public domain 
v -0.039888 -1.124434 0.154415
v 0.047941 1.929904 0.175112
v 0.530720 1.930097 0.174027
v -0.264449 1.934397 0.167095
v -0.264449 2.454063 0.167095
v 0.540457 2.454063 0.174112
v -0.144892 1.018526 0.000000
v 0.156258 -1.137028 -0.000606
v -0.264463 1.930097 0.000000
v -0.245882 -1.110949 0.000000
v 0.274585 1.930446 0.000502
v -0.040271 -1.124414 -0.153913
v 0.048243 1.929887 -0.175510
v 0.530720 1.930097 -0.174027
v -0.264449 1.934397 -0.167094
v 1.216323 1.401055 0.000000
v -0.264449 2.454063 -0.167094
v 0.540457 2.454063 -0.174112
v 1.275337 2.631845 0.000000
vn -0.0647 -0.9979 0.0000
vn -0.0647 -0.9979 -0.0008
vn -0.0647 -0.9979 0.0009
vn -0.9989 0.0474 -0.0003
vn 0.0213 0.0016 0.9998
vn -1.0000 0.0100 0.0000
vn 0.0607 -0.0449 0.9971
vn -0.9915 -0.1301 0.0003
vn 0.9993 -0.0378 0.0021
vn 0.9993 -0.0385 -0.0033
vn 0.0187 0.0020 -0.9998
vn 0.0628 -0.0453 -0.9970
vn -0.0150 -0.9996 0.0257
vn 0.0004 -1.0000 -0.0026
vn -0.0000 -1.0000 0.0000
vn -0.0007 -1.0000 -0.0010
vn 0.0004 -1.0000 0.0026
vn -0.0007 -1.0000 0.0010
vn 0.2377 -0.0114 0.9713
vn 0.2353 -0.0087 0.9719
vn 0.2355 -0.0088 0.9718
vn 0.2316 -0.0045 0.9728
vn -0.0257 0.0000 0.9997
vn -0.0114 0.0041 0.9999
vn -0.0145 0.0066 0.9999
vn -0.0035 0.0052 1.0000
vn 0.0022 -0.0002 1.0000
vn 0.0000 1.0000 0.0000
vn -0.0151 -0.9996 -0.0257
vn -0.6109 -0.7917 0.0000
vn 0.2377 -0.0114 -0.9713
vn 0.2355 -0.0088 -0.9718
vn 0.2353 -0.0087 -0.9719
vn 0.2316 -0.0045 -0.9728
vn -0.0269 0.0000 -0.9996
vn -0.0149 0.0071 -0.9999
vn -0.0116 0.0044 -0.9999
vn -0.0031 0.0056 -1.0000
vn 0.0031 -0.0002 -1.0000
vn -0.2351 0.9720 0.0000
vn -1.0000 0.0000 0.0000
vn -1.0000 0.0000 0.0001
vn -1.0000 0.0000 -0.0001
s 1
f 8//1 1//2 10//1
f 8//1 10//1 12//3
s 2
f 10//4 1//5 7//6
f 1//5 2//7 7//6
f 7//6 2//7 9//8
f 2//7 1//5 11//9
f 11//9 1//5 8//10
f 10//4 7//6 12//11
f 12//11 7//6 13//12
f 7//6 9//8 13//12
f 13//12 11//9 12//11
f 11//9 8//10 12//11
s 3
f 2//13 4//13 9//13
s 4
f 2//14 11//15 3//16
f 13//17 14//18 11//15
f 3//16 11//15 14//18
s 5
f 16//19 19//20 3//21
f 19//20 6//22 3//21
s 6
f 4//23 2//24 5//25
f 5//25 2//24 6//26
f 2//24 3//27 6//26
s 7
f 6//28 18//28 5//28
f 17//28 5//28 18//28
s 8
f 13//29 9//29 15//29
s 9
f 16//30 3//30 14//30
s 10
f 16//31 14//32 19//33
f 19//33 14//32 18//34
s 11
f 15//35 17//36 13//37
f 17//36 18//38 13//37
f 13//37 18//38 14//39
s 12
f 19//40 18//40 6//40
s 13
f 5//41 17//41 4//42
f 4//42 17//41 9//41
f 15//43 9//41 17//41
