{
	"asset":{
		"generator":"Khronos glTF Blender I/O v5.0.21",
		"version":"2.0"
	},
	"scene":0,
	"scenes":[
		{
			"name":"Scene",
			"nodes":[
				0,
				1,
				2
			]
		}
	],
	"nodes":[
		{
			"mesh":0,
			"name":"BaseballBatHigh",
			"translation":[
				0,
				0.3037238121032715,
				0
			]
		},
		{
			"mesh":1,
			"name":"BaseballBat"
		},
		{
			"mesh":2,
			"name":"BaseballBatLow"
		}
	],
	"materials":[
		{
			"doubleSided":true,
			"name":"Material.001",
			"pbrMetallicRoughness":{
				"metallicFactor":0
			}
		},
		{
			"name":"Material",
			"normalTexture":{
				"index":0
			},
			"occlusionTexture":{
				"index":1
			},
			"pbrMetallicRoughness":{
				"baseColorTexture":{
					"index":2
				},
				"metallicRoughnessTexture":{
					"index":1
				}
			}
		},
		{
			"doubleSided":true,
			"name":"LowMaterial",
			"pbrMetallicRoughness":{
				"baseColorTexture":{
					"index":3
				},
				"metallicFactor":0,
				"roughnessFactor":0.699999988079071
			}
		}
	],
	"meshes":[
		{
			"name":"Cylinder",
			"primitives":[
				{
					"attributes":{
						"POSITION":0,
						"NORMAL":1,
						"TEXCOORD_0":2
					},
					"indices":3,
					"material":0
				}
			]
		},
		{
			"name":"BaseballBat",
			"primitives":[
				{
					"attributes":{
						"POSITION":4,
						"NORMAL":5,
						"TEXCOORD_0":6
					},
					"indices":7,
					"material":1
				}
			]
		},
		{
			"name":"BaseballBat.001",
			"primitives":[
				{
					"attributes":{
						"POSITION":8,
						"NORMAL":9,
						"TEXCOORD_0":10
					},
					"indices":11,
					"material":2
				}
			]
		}
	],
	"textures":[
		{
			"sampler":0,
			"source":0
		},
		{
			"sampler":0,
			"source":1
		},
		{
			"sampler":0,
			"source":2
		},
		{
			"sampler":1,
			"source":3
		}
	],
	"images":[
		{
			"mimeType":"image/png",
			"name":"BaseballBat_NORMAL",
			"uri":"BaseballBat_NORMAL.png"
		},
		{
			"mimeType":"image/png",
			"name":"BaseballBat_AO-BaseballBat_ROUGHNESS-BaseballBat_METALNESS",
			"uri":"BaseballBat_AO-BaseballBat_ROUGHNESS-BaseballBat_METALNESS.png"
		},
		{
			"mimeType":"image/png",
			"name":"BaseballBat_BASE_COLOR",
			"uri":"BaseballBat_BASE_COLOR.png"
		},
		{
			"mimeType":"image/png",
			"name":"Combined",
			"uri":"Combined.png"
		}
	],
	"accessors":[
		{
			"bufferView":0,
			"componentType":5126,
			"count":393,
			"max":[
				0.035564836114645004,
				0.36938515305519104,
				0.0355648398399353
			],
			"min":[
				-0.035564836114645004,
				-0.4427114427089691,
				-0.035564832389354706
			],
			"type":"VEC3"
		},
		{
			"bufferView":1,
			"componentType":5126,
			"count":393,
			"type":"VEC3"
		},
		{
			"bufferView":2,
			"componentType":5126,
			"count":393,
			"type":"VEC2"
		},
		{
			"bufferView":3,
			"componentType":5123,
			"count":2004,
			"type":"SCALAR"
		},
		{
			"bufferView":4,
			"componentType":5126,
			"count":255,
			"max":[
				0.035564836114645004,
				0.6731090545654297,
				0.0355648398399353
			],
			"min":[
				-0.035564836114645004,
				-0.13898763060569763,
				-0.035564832389354706
			],
			"type":"VEC3"
		},
		{
			"bufferView":5,
			"componentType":5126,
			"count":255,
			"type":"VEC3"
		},
		{
			"bufferView":6,
			"componentType":5126,
			"count":255,
			"type":"VEC2"
		},
		{
			"bufferView":7,
			"componentType":5123,
			"count":1248,
			"type":"SCALAR"
		},
		{
			"bufferView":8,
			"componentType":5126,
			"count":60,
			"max":[
				0.035564836114645004,
				0.6716626882553101,
				0.0355648398399353
			],
			"min":[
				-0.035564836114645004,
				-0.13898763060569763,
				-0.035564832389354706
			],
			"type":"VEC3"
		},
		{
			"bufferView":9,
			"componentType":5126,
			"count":60,
			"type":"VEC3"
		},
		{
			"bufferView":10,
			"componentType":5126,
			"count":60,
			"type":"VEC2"
		},
		{
			"bufferView":11,
			"componentType":5123,
			"count":252,
			"type":"SCALAR"
		}
	],
	"bufferViews":[
		{
			"buffer":0,
			"byteLength":4716,
			"byteOffset":0,
			"target":34962
		},
		{
			"buffer":0,
			"byteLength":4716,
			"byteOffset":4716,
			"target":34962
		},
		{
			"buffer":0,
			"byteLength":3144,
			"byteOffset":9432,
			"target":34962
		},
		{
			"buffer":0,
			"byteLength":4008,
			"byteOffset":12576,
			"target":34963
		},
		{
			"buffer":0,
			"byteLength":3060,
			"byteOffset":16584,
			"target":34962
		},
		{
			"buffer":0,
			"byteLength":3060,
			"byteOffset":19644,
			"target":34962
		},
		{
			"buffer":0,
			"byteLength":2040,
			"byteOffset":22704,
			"target":34962
		},
		{
			"buffer":0,
			"byteLength":2496,
			"byteOffset":24744,
			"target":34963
		},
		{
			"buffer":0,
			"byteLength":720,
			"byteOffset":27240,
			"target":34962
		},
		{
			"buffer":0,
			"byteLength":720,
			"byteOffset":27960,
			"target":34962
		},
		{
			"buffer":0,
			"byteLength":480,
			"byteOffset":28680,
			"target":34962
		},
		{
			"buffer":0,
			"byteLength":504,
			"byteOffset":29160,
			"target":34963
		}
	],
	"samplers":[
		{
			"magFilter":9729,
			"minFilter":9987
		},
		{
			"magFilter":9728,
			"minFilter":9984
		}
	],
	"buffers":[
		{
			"byteLength":29664,
			"uri":"model.bin"
		}
	]
}
