{
	"asset":{
		"generator":"Khronos glTF Blender I/O v5.0.21",
		"version":"2.0"
	},
	"scene":0,
	"scenes":[
		{
			"name":"Scene",
			"nodes":[
				0
			]
		}
	],
	"nodes":[
		{
			"mesh":0,
			"name":"Chair"
		}
	],
	"materials":[
		{
			"doubleSided":true,
			"name":"Material",
			"pbrMetallicRoughness":{
				"metallicFactor":0
			}
		}
	],
	"meshes":[
		{
			"name":"Cube.012",
			"primitives":[
				{
					"attributes":{
						"POSITION":0,
						"NORMAL":1,
						"TEXCOORD_0":2
					},
					"indices":3,
					"material":0
				}
			]
		}
	],
	"accessors":[
		{
			"bufferView":0,
			"componentType":5126,
			"count":281,
			"max":[
				1.100000023841858,
				3.9000000953674316,
				0.7300000190734863
			],
			"min":[
				-0.6699999570846558,
				1.1920928955078125e-07,
				-0.8299999237060547
			],
			"type":"VEC3"
		},
		{
			"bufferView":1,
			"componentType":5126,
			"count":281,
			"type":"VEC3"
		},
		{
			"bufferView":2,
			"componentType":5126,
			"count":281,
			"type":"VEC2"
		},
		{
			"bufferView":3,
			"componentType":5123,
			"count":780,
			"type":"SCALAR"
		}
	],
	"bufferViews":[
		{
			"buffer":0,
			"byteLength":3372,
			"byteOffset":0,
			"target":34962
		},
		{
			"buffer":0,
			"byteLength":3372,
			"byteOffset":3372,
			"target":34962
		},
		{
			"buffer":0,
			"byteLength":2248,
			"byteOffset":6744,
			"target":34962
		},
		{
			"buffer":0,
			"byteLength":1560,
			"byteOffset":8992,
			"target":34963
		}
	],
	"buffers":[
		{
			"byteLength":10552,
			"uri":"model.bin"
		}
	]
}
