# by drummyfish, released under CC0 1.0, public domain 
v -21.815792 1.904025 12.971251
v 3.837730 1.496118 14.676157
v -35.306213 2.606400 8.890907
v 36.626682 1.782537 12.852757
v -20.266731 1.808734 9.634291
v -1.902466 1.708945 11.727041
v -1.917220 -4.700169 10.385993
v -32.866161 -2.325963 8.239353
v -19.452950 -7.513138 10.334356
v 3.802911 -6.952646 12.462595
v 36.620907 -3.347225 11.323290
v -18.503366 15.720529 8.544184
v -2.083649 15.723185 10.487082
v 34.325268 1.679437 10.908175
v 3.837817 1.353826 12.281608
v -1.710159 14.899600 9.440225
v 4.230981 -4.734626 11.175651
v 33.690559 -1.653056 10.341034
v -17.972166 14.916156 7.476631
v -19.880104 -4.398391 8.017987
v 42.198765 -3.342522 10.710177
v 42.198765 -6.253625 9.602724
v 28.097033 -1.624711 10.597512
v 28.367640 -4.534055 10.065318
v -21.815792 1.904025 -12.971401
v 3.837730 1.496118 -14.676309
v -40.629181 3.034324 -0.000075
v -35.306213 2.606400 -8.891060
v 36.626682 1.782537 -12.852906
v -24.085337 1.775667 -0.000075
v -20.266731 1.808734 -9.634441
v -1.902466 1.708945 -11.727192
v -1.917220 -4.700169 -10.386145
v -33.844513 -5.693613 -0.000075
v -19.703503 -12.222707 -0.000075
v 3.506736 -13.714397 -0.000075
v -32.866161 -2.325963 -8.239503
v -19.452950 -7.513138 -10.334507
v 3.802911 -6.952646 -12.462745
v 36.620907 -3.347225 -11.323441
v -22.302681 15.726015 -0.000075
v -18.503366 15.720529 -8.544334
v -2.083649 15.723185 -10.487232
v 34.325268 1.679437 -10.908325
v 3.837817 1.353826 -12.281757
v -1.710159 14.899600 -9.440375
v 4.230981 -4.734626 -11.175802
v 33.690559 -1.653056 -10.341185
v -17.972166 14.916156 -7.476780
v -19.880104 -4.398391 -8.018138
v -20.525625 14.884360 -0.000075
v -22.641558 -4.368220 -0.000075
v 42.198765 -3.342522 -10.710329
v 42.198765 -6.253625 -9.602875
v 32.638725 -12.960286 -0.000075
v 28.097033 -1.624711 -10.597663
v 28.367640 -4.534055 -10.065467
vn -0.5629 -0.7396 0.3691
vn -0.5139 -0.5613 0.6487
vn -0.7612 -0.5318 0.3712
vn -0.6247 -0.3978 0.6720
vn -0.1852 -0.3000 0.9358
vn -0.1964 -0.6632 0.7222
vn -0.0113 -0.2575 0.9662
vn -0.0048 -0.6058 0.7956
vn 0.0631 -0.2800 0.9579
vn 0.0745 -0.3531 0.9326
vn -0.0053 -0.8837 0.4680
vn -0.2161 -0.8867 0.4088
vn 0.2396 -0.7105 0.6617
vn 0.1986 -0.9801 0.0000
vn 0.1025 -0.3537 0.9297
vn -0.5629 -0.7396 -0.3691
vn -0.7612 -0.5318 -0.3712
vn -0.5139 -0.5613 -0.6487
vn -0.6247 -0.3978 -0.6720
vn -0.1852 -0.3000 -0.9358
vn -0.1964 -0.6632 -0.7222
vn -0.0113 -0.2575 -0.9662
vn -0.0048 -0.6058 -0.7956
vn 0.0631 -0.2800 -0.9579
vn 0.0745 -0.3531 -0.9326
vn -0.0053 -0.8837 -0.4680
vn -0.2161 -0.8867 -0.4088
vn 0.2396 -0.7105 -0.6617
vn 0.1025 -0.3537 -0.9297
vn -0.1123 0.0861 0.9899
vn -0.1143 0.0887 0.9895
vn -0.1149 0.0895 0.9893
vn -0.1170 0.0923 0.9888
vn -0.9075 0.1160 0.4036
vn -0.9156 0.1342 0.3791
vn -0.9128 0.1278 0.3878
vn -0.9200 0.1451 0.3641
vn 0.0616 0.9981 -0.0000
vn 0.0759 0.9971 0.0000
vn 0.0671 0.9977 -0.0063
vn 0.0333 0.9993 -0.0189
vn 0.0348 0.9993 -0.0093
vn 0.0191 0.9994 0.0305
vn 0.0196 0.9988 -0.0445
vn 0.0276 0.9979 -0.0593
vn -0.0275 0.9994 -0.0209
vn -0.0290 0.9994 -0.0186
vn 0.0671 0.9977 0.0063
vn 0.0333 0.9993 0.0189
vn 0.0348 0.9993 0.0093
vn 0.0191 0.9994 -0.0305
vn 0.0196 0.9988 0.0445
vn 0.0276 0.9979 0.0593
vn -0.0275 0.9994 0.0209
vn -0.0290 0.9994 0.0186
vn 0.1169 0.1939 -0.9740
vn 0.1066 0.2034 -0.9733
vn 0.0391 0.1864 -0.9817
vn 0.0369 0.1809 -0.9828
vn -0.0462 0.1776 -0.9830
vn -0.0449 0.1771 -0.9832
vn -0.0442 0.1758 -0.9834
vn -0.0467 0.1755 -0.9834
vn 1.0000 -0.0011 0.0000
vn 0.9994 -0.0090 0.0321
vn 0.9596 0.2430 0.1420
vn 0.9991 -0.0075 0.0406
vn 0.9620 0.1996 0.1862
vn 0.9620 0.1996 -0.1862
vn 0.9596 0.2430 -0.1420
vn 0.9994 -0.0090 -0.0321
vn 0.9991 -0.0075 -0.0406
vn 0.0014 1.0000 0.0000
vn 0.0002 1.0000 0.0000
vn -0.0002 1.0000 0.0000
vn 0.1197 -0.0491 -0.9916
vn 0.1253 -0.0444 -0.9911
vn 0.1245 -0.0451 -0.9912
vn 0.1299 -0.0406 -0.9907
vn 0.0012 -1.0000 0.0000
vn -0.0010 -1.0000 0.0000
vn 0.0125 -0.9999 0.0000
vn 0.9404 -0.1020 -0.3243
vn 0.9407 -0.1024 -0.3235
vn 0.9411 -0.1031 -0.3219
vn 0.9414 -0.1035 -0.3211
vn -0.0083 1.0000 0.0000
vn -0.0015 1.0000 0.0000
vn 0.0107 0.9999 0.0000
vn 0.0106 0.9999 0.0001
vn 0.0158 0.9999 -0.0004
vn 0.0160 0.9999 -0.0008
vn 0.0171 0.9999 0.0021
vn 1.0000 0.0000 0.0000
vn 0.0051 1.0000 0.0000
vn -0.1123 0.0861 -0.9899
vn -0.1149 0.0895 -0.9893
vn -0.1143 0.0887 -0.9895
vn -0.1170 0.0923 -0.9888
vn -0.9075 0.1160 -0.4036
vn -0.9128 0.1278 -0.3878
vn -0.9156 0.1342 -0.3791
vn -0.9200 0.1451 -0.3641
vn 0.1169 0.1939 0.9740
vn 0.0391 0.1864 0.9817
vn 0.1066 0.2034 0.9733
vn 0.0369 0.1809 0.9828
vn -0.0462 0.1776 0.9830
vn -0.0449 0.1771 0.9832
vn -0.0442 0.1758 0.9834
vn -0.0467 0.1755 0.9834
vn -0.0008 1.0000 0.0000
vn 0.1197 -0.0491 0.9916
vn 0.1245 -0.0451 0.9912
vn 0.1253 -0.0444 0.9911
vn 0.1299 -0.0406 0.9907
vn 0.9404 -0.1020 0.3243
vn 0.9411 -0.1031 0.3219
vn 0.9407 -0.1024 0.3235
vn 0.9414 -0.1035 0.3211
vn -0.9957 -0.0926 0.0000
vn -0.9823 0.1871 0.0000
s 1
f 34//1 8//2 27//3
f 3//4 27//3 8//2
f 1//5 3//4 8//2
f 8//2 9//6 1//5
f 1//5 9//6 2//7
f 9//6 10//8 2//7
f 4//9 2//7 10//8
f 10//8 11//10 4//9
f 10//8 9//6 36//11
f 36//11 9//6 35//12
f 9//6 8//2 35//12
f 35//12 8//2 34//1
f 22//13 10//8 55//14
f 21//15 11//10 22//13
f 10//8 36//11 55//14
f 11//10 10//8 22//13
f 34//16 27//17 37//18
f 28//19 37//18 27//17
f 25//20 37//18 28//19
f 37//18 25//20 38//21
f 25//20 26//22 38//21
f 38//21 26//22 39//23
f 29//24 39//23 26//22
f 39//23 29//24 40//25
f 39//23 36//26 38//21
f 36//26 35//27 38//21
f 38//21 35//27 37//18
f 35//27 34//16 37//18
f 54//28 55//14 39//23
f 53//29 54//28 40//25
f 55//14 54//28 22//13
f 39//23 55//14 36//26
f 40//25 54//28 39//23
s 2
f 6//30 13//31 5//32
f 12//33 5//32 13//31
s 3
f 41//34 30//35 12//36
f 30//35 5//37 12//36
s 4
f 30//38 27//39 3//40
f 30//38 3//40 5//41
f 3//40 1//42 5//41
f 5//41 1//42 6//43
f 1//42 2//44 6//43
f 6//43 2//44 15//45
f 14//46 15//45 2//44
f 2//44 4//47 14//46
f 30//38 28//48 27//39
f 30//38 31//49 28//48
f 28//48 31//49 25//50
f 31//49 32//51 25//50
f 25//50 32//51 26//52
f 32//51 45//53 26//52
f 44//54 26//52 45//53
f 26//52 44//54 29//55
f 14//46 4//47 29//55
f 29//55 44//54 14//46
s 5
f 7//56 6//57 15//58
f 15//58 17//59 7//56
f 23//60 15//58 14//61
f 18//62 23//60 14//61
f 15//58 23//60 17//59
f 23//60 24//63 17//59
s 6
f 11//64 40//64 4//64
f 29//64 4//64 40//64
s 7
f 7//65 16//66 6//67
f 6//67 16//66 13//68
f 43//69 16//66 46//70
f 33//71 32//72 46//70
f 32//72 43//69 46//70
f 16//66 43//69 13//68
s 8
f 41//73 12//74 42//74
f 43//75 42//74 13//75
f 12//74 13//75 42//74
s 9
f 16//76 7//77 19//78
f 19//78 7//77 20//79
s 10
f 19//80 46//81 16//81
f 51//82 49//80 19//80
f 19//80 49//80 46//81
s 11
f 20//83 52//84 19//85
f 51//86 19//85 52//84
s 12
f 57//87 47//88 17//88
f 7//89 17//88 47//88
f 47//88 33//90 7//89
f 57//87 17//88 24//87
f 52//91 20//92 33//90
f 33//90 20//92 7//89
f 33//90 50//93 52//91
s 13
f 22//94 54//94 53//94
f 53//94 21//94 22//94
s 14
f 18//95 48//95 23//95
f 56//95 23//95 48//95
s 15
f 32//96 31//97 43//98
f 42//99 43//98 31//97
s 16
f 41//100 42//101 30//102
f 30//102 42//101 31//103
s 17
f 33//104 45//105 32//106
f 45//105 33//104 47//107
f 56//108 44//109 45//105
f 48//110 44//109 56//108
f 45//105 47//107 56//108
f 56//108 47//107 57//111
s 18
f 21//112 40//112 11//112
f 40//112 21//112 53//112
s 19
f 46//113 49//114 33//115
f 49//114 50//116 33//115
s 20
f 50//117 49//118 52//119
f 51//120 52//119 49//118
s 21
f 23//121 56//121 24//121
f 57//121 24//121 56//121
s 22
f 18//122 14//122 44//122
f 44//122 48//122 18//122
