{
	"asset":{
		"generator":"Khronos glTF Blender I/O v5.0.21",
		"version":"2.0"
	},
	"scene":0,
	"scenes":[
		{
			"name":"Scene",
			"nodes":[
				0,
				1,
				2,
				3
			]
		}
	],
	"nodes":[
		{
			"mesh":0,
			"name":"Sphere.001",
			"scale":[
				0.5264399647712708,
				0.11133567988872528,
				0.5264399647712708
			],
			"translation":[
				0.015375742688775063,
				5.24560546875,
				-0.17978829145431519
			]
		},
		{
			"mesh":1,
			"name":"Cube",
			"scale":[
				0.09437746554613113,
				0.240861713886261,
				0.1042189970612526
			],
			"translation":[
				-0.055764202028512955,
				4.749621868133545,
				0.2195332944393158
			]
		},
		{
			"mesh":2,
			"name":"Circle.002",
			"translation":[
				0,
				4.338817119598389,
				0
			]
		},
		{
			"mesh":3,
			"name":"Cube.001",
			"scale":[
				0.09437746554613113,
				0.240861713886261,
				0.1042189970612526
			],
			"translation":[
				0.13614106178283691,
				4.749621868133545,
				0.2195332944393158
			]
		}
	],
	"materials":[
		{
			"doubleSided":true,
			"name":"Materiale.001",
			"pbrMetallicRoughness":{
				"baseColorFactor":[
					0.2561003863811493,
					0.2561003863811493,
					0.2561003863811493,
					1
				],
				"metallicFactor":0,
				"roughnessFactor":0.48636364936828613
			}
		},
		{
			"doubleSided":true,
			"name":"Materiale",
			"pbrMetallicRoughness":{
				"baseColorFactor":[
					0.13597814738750458,
					0.13597814738750458,
					0.13597814738750458,
					1
				],
				"metallicFactor":0,
				"roughnessFactor":0.5
			}
		},
		{
			"doubleSided":true,
			"name":"Materiale.002",
			"pbrMetallicRoughness":{
				"baseColorFactor":[
					0.7293504476547241,
					0.7293504476547241,
					0.7293504476547241,
					1
				],
				"roughnessFactor":0.4318181872367859
			}
		},
		{
			"doubleSided":true,
			"name":"Materiale.003",
			"pbrMetallicRoughness":{
				"baseColorFactor":[
					0.13597814738750458,
					0.13597814738750458,
					0.13597814738750458,
					1
				],
				"metallicFactor":0,
				"roughnessFactor":0.5
			}
		}
	],
	"meshes":[
		{
			"name":"Sphere.001",
			"primitives":[
				{
					"attributes":{
						"POSITION":0,
						"NORMAL":1,
						"TEXCOORD_0":2
					},
					"indices":3,
					"material":0
				}
			]
		},
		{
			"name":"Cube.001",
			"primitives":[
				{
					"attributes":{
						"POSITION":4,
						"NORMAL":5,
						"TEXCOORD_0":6
					},
					"indices":7,
					"material":1
				}
			]
		},
		{
			"name":"Circle.002",
			"primitives":[
				{
					"attributes":{
						"POSITION":8,
						"NORMAL":9,
						"TEXCOORD_0":10
					},
					"indices":11,
					"material":2
				}
			]
		},
		{
			"name":"Cube.002",
			"primitives":[
				{
					"attributes":{
						"POSITION":12,
						"NORMAL":13,
						"TEXCOORD_0":14
					},
					"indices":7,
					"material":3
				}
			]
		}
	],
	"accessors":[
		{
			"bufferView":0,
			"componentType":5126,
			"count":4352,
			"max":[
				2.1422274112701416,
				1,
				2.496520519256592
			],
			"min":[
				-2.058145523071289,
				-47.1152229309082,
				-1.7038534879684448
			],
			"type":"VEC3"
		},
		{
			"bufferView":1,
			"componentType":5126,
			"count":4352,
			"type":"VEC3"
		},
		{
			"bufferView":2,
			"componentType":5126,
			"count":4352,
			"type":"VEC2"
		},
		{
			"bufferView":3,
			"componentType":5123,
			"count":6720,
			"type":"SCALAR"
		},
		{
			"bufferView":4,
			"componentType":5126,
			"count":24,
			"max":[
				1,
				1,
				1
			],
			"min":[
				-1,
				-1,
				-1
			],
			"type":"VEC3"
		},
		{
			"bufferView":5,
			"componentType":5126,
			"count":24,
			"type":"VEC3"
		},
		{
			"bufferView":6,
			"componentType":5126,
			"count":24,
			"type":"VEC2"
		},
		{
			"bufferView":7,
			"componentType":5123,
			"count":36,
			"type":"SCALAR"
		},
		{
			"bufferView":8,
			"componentType":5126,
			"count":736,
			"max":[
				1.0550060272216797,
				0.28672853112220764,
				1.0468676090240479
			],
			"min":[
				-0.9477142691612244,
				0.06315362453460693,
				-0.9723511338233948
			],
			"type":"VEC3"
		},
		{
			"bufferView":9,
			"componentType":5126,
			"count":736,
			"type":"VEC3"
		},
		{
			"bufferView":10,
			"componentType":5126,
			"count":736,
			"type":"VEC2"
		},
		{
			"bufferView":11,
			"componentType":5123,
			"count":3072,
			"type":"SCALAR"
		},
		{
			"bufferView":12,
			"componentType":5126,
			"count":24,
			"max":[
				1,
				1,
				1
			],
			"min":[
				-1,
				-1,
				-1
			],
			"type":"VEC3"
		},
		{
			"bufferView":13,
			"componentType":5126,
			"count":24,
			"type":"VEC3"
		},
		{
			"bufferView":14,
			"componentType":5126,
			"count":24,
			"type":"VEC2"
		}
	],
	"bufferViews":[
		{
			"buffer":0,
			"byteLength":52224,
			"byteOffset":0,
			"target":34962
		},
		{
			"buffer":0,
			"byteLength":52224,
			"byteOffset":52224,
			"target":34962
		},
		{
			"buffer":0,
			"byteLength":34816,
			"byteOffset":104448,
			"target":34962
		},
		{
			"buffer":0,
			"byteLength":13440,
			"byteOffset":139264,
			"target":34963
		},
		{
			"buffer":0,
			"byteLength":288,
			"byteOffset":152704,
			"target":34962
		},
		{
			"buffer":0,
			"byteLength":288,
			"byteOffset":152992,
			"target":34962
		},
		{
			"buffer":0,
			"byteLength":192,
			"byteOffset":153280,
			"target":34962
		},
		{
			"buffer":0,
			"byteLength":72,
			"byteOffset":153472,
			"target":34963
		},
		{
			"buffer":0,
			"byteLength":8832,
			"byteOffset":153544,
			"target":34962
		},
		{
			"buffer":0,
			"byteLength":8832,
			"byteOffset":162376,
			"target":34962
		},
		{
			"buffer":0,
			"byteLength":5888,
			"byteOffset":171208,
			"target":34962
		},
		{
			"buffer":0,
			"byteLength":6144,
			"byteOffset":177096,
			"target":34963
		},
		{
			"buffer":0,
			"byteLength":288,
			"byteOffset":183240,
			"target":34962
		},
		{
			"buffer":0,
			"byteLength":288,
			"byteOffset":183528,
			"target":34962
		},
		{
			"buffer":0,
			"byteLength":192,
			"byteOffset":183816,
			"target":34962
		}
	],
	"buffers":[
		{
			"byteLength":184008,
			"uri":"model.bin"
		}
	]
}
