{
	"asset":{
		"generator":"Khronos glTF Blender I/O v5.0.21",
		"version":"2.0"
	},
	"scene":0,
	"scenes":[
		{
			"name":"Scene",
			"nodes":[
				0,
				1
			]
		}
	],
	"nodes":[
		{
			"mesh":0,
			"name":"Car"
		},
		{
			"mesh":1,
			"name":"Plane",
			"scale":[
				22.384614944458008,
				22.384614944458008,
				22.384614944458008
			],
			"translation":[
				0,
				-0.4300715923309326,
				-1.3428096771240234
			]
		}
	],
	"materials":[
		{
			"doubleSided":true,
			"name":"JeepColor",
			"pbrMetallicRoughness":{
				"baseColorFactor":[
					0.018243631348013878,
					0.1073315367102623,
					0.33952826261520386,
					1
				],
				"metallicFactor":0,
				"roughnessFactor":0.5
			}
		},
		{
			"doubleSided":true,
			"emissiveFactor":[
				0.10000000149011612,
				0.03445103815870043,
				0
			],
			"name":"JeepGlass",
			"pbrMetallicRoughness":{
				"baseColorFactor":[
					0.6212412118911743,
					0.6212412118911743,
					0.6212412118911743,
					1
				],
				"metallicFactor":0.6000000238418579,
				"roughnessFactor":0.10769230872392654
			}
		},
		{
			"doubleSided":true,
			"name":"Tires",
			"pbrMetallicRoughness":{
				"baseColorFactor":[
					0,
					0,
					0,
					1
				],
				"metallicFactor":0,
				"roughnessFactor":0.5
			}
		},
		{
			"doubleSided":true,
			"name":"JeepColor.001",
			"pbrMetallicRoughness":{
				"baseColorFactor":[
					0.00395970419049263,
					0.014572431333363056,
					0.03820085898041725,
					1
				],
				"roughnessFactor":0.5
			}
		}
	],
	"meshes":[
		{
			"name":"Plane",
			"primitives":[
				{
					"attributes":{
						"POSITION":0,
						"NORMAL":1,
						"TEXCOORD_0":2
					},
					"indices":3,
					"material":0
				},
				{
					"attributes":{
						"POSITION":4,
						"NORMAL":5,
						"TEXCOORD_0":6
					},
					"indices":7,
					"material":1
				},
				{
					"attributes":{
						"POSITION":8,
						"NORMAL":9,
						"TEXCOORD_0":10
					},
					"indices":11,
					"material":2
				},
				{
					"attributes":{
						"POSITION":12,
						"NORMAL":13,
						"TEXCOORD_0":14
					},
					"indices":15,
					"material":3
				}
			]
		},
		{
			"name":"Plane.001",
			"primitives":[
				{
					"attributes":{
						"POSITION":16,
						"NORMAL":17,
						"TEXCOORD_0":18
					},
					"indices":19
				}
			]
		}
	],
	"accessors":[
		{
			"bufferView":0,
			"componentType":5126,
			"count":1330,
			"max":[
				1.699077844619751,
				2.393551826477051,
				4.910267353057861
			],
			"min":[
				-1.6990759372711182,
				-0.060979750007390976,
				-1.8997974395751953
			],
			"type":"VEC3"
		},
		{
			"bufferView":1,
			"componentType":5126,
			"count":1330,
			"type":"VEC3"
		},
		{
			"bufferView":2,
			"componentType":5126,
			"count":1330,
			"type":"VEC2"
		},
		{
			"bufferView":3,
			"componentType":5123,
			"count":3822,
			"type":"SCALAR"
		},
		{
			"bufferView":4,
			"componentType":5126,
			"count":86,
			"max":[
				1.6741756200790405,
				2.2434630393981934,
				5.004951477050781
			],
			"min":[
				-1.6741737127304077,
				0.5419305562973022,
				-1.62054443359375
			],
			"type":"VEC3"
		},
		{
			"bufferView":5,
			"componentType":5126,
			"count":86,
			"type":"VEC3"
		},
		{
			"bufferView":6,
			"componentType":5126,
			"count":86,
			"type":"VEC2"
		},
		{
			"bufferView":7,
			"componentType":5123,
			"count":204,
			"type":"SCALAR"
		},
		{
			"bufferView":8,
			"componentType":5126,
			"count":5064,
			"max":[
				1.3601425886154175,
				0.7628920078277588,
				5.004951477050781
			],
			"min":[
				-1.3607646226882935,
				-0.45370879769325256,
				-1.2204408645629883
			],
			"type":"VEC3"
		},
		{
			"bufferView":9,
			"componentType":5126,
			"count":5064,
			"type":"VEC3"
		},
		{
			"bufferView":10,
			"componentType":5126,
			"count":5064,
			"type":"VEC2"
		},
		{
			"bufferView":11,
			"componentType":5123,
			"count":21672,
			"type":"SCALAR"
		},
		{
			"bufferView":12,
			"componentType":5126,
			"count":470,
			"max":[
				1.3389124870300293,
				2.197953224182129,
				4.061337947845459
			],
			"min":[
				-1.3389116525650024,
				0.07726874947547913,
				-2.059739589691162
			],
			"type":"VEC3"
		},
		{
			"bufferView":13,
			"componentType":5126,
			"count":470,
			"type":"VEC3"
		},
		{
			"bufferView":14,
			"componentType":5126,
			"count":470,
			"type":"VEC2"
		},
		{
			"bufferView":15,
			"componentType":5123,
			"count":1020,
			"type":"SCALAR"
		},
		{
			"bufferView":16,
			"componentType":5126,
			"count":12,
			"max":[
				1.3762624263763428,
				0.4157300889492035,
				2.1287872791290283
			],
			"min":[
				-2.1287872791290283,
				0,
				-1.3762624263763428
			],
			"type":"VEC3"
		},
		{
			"bufferView":17,
			"componentType":5126,
			"count":12,
			"type":"VEC3"
		},
		{
			"bufferView":18,
			"componentType":5126,
			"count":12,
			"type":"VEC2"
		},
		{
			"bufferView":19,
			"componentType":5123,
			"count":18,
			"type":"SCALAR"
		}
	],
	"bufferViews":[
		{
			"buffer":0,
			"byteLength":15960,
			"byteOffset":0,
			"target":34962
		},
		{
			"buffer":0,
			"byteLength":15960,
			"byteOffset":15960,
			"target":34962
		},
		{
			"buffer":0,
			"byteLength":10640,
			"byteOffset":31920,
			"target":34962
		},
		{
			"buffer":0,
			"byteLength":7644,
			"byteOffset":42560,
			"target":34963
		},
		{
			"buffer":0,
			"byteLength":1032,
			"byteOffset":50204,
			"target":34962
		},
		{
			"buffer":0,
			"byteLength":1032,
			"byteOffset":51236,
			"target":34962
		},
		{
			"buffer":0,
			"byteLength":688,
			"byteOffset":52268,
			"target":34962
		},
		{
			"buffer":0,
			"byteLength":408,
			"byteOffset":52956,
			"target":34963
		},
		{
			"buffer":0,
			"byteLength":60768,
			"byteOffset":53364,
			"target":34962
		},
		{
			"buffer":0,
			"byteLength":60768,
			"byteOffset":114132,
			"target":34962
		},
		{
			"buffer":0,
			"byteLength":40512,
			"byteOffset":174900,
			"target":34962
		},
		{
			"buffer":0,
			"byteLength":43344,
			"byteOffset":215412,
			"target":34963
		},
		{
			"buffer":0,
			"byteLength":5640,
			"byteOffset":258756,
			"target":34962
		},
		{
			"buffer":0,
			"byteLength":5640,
			"byteOffset":264396,
			"target":34962
		},
		{
			"buffer":0,
			"byteLength":3760,
			"byteOffset":270036,
			"target":34962
		},
		{
			"buffer":0,
			"byteLength":2040,
			"byteOffset":273796,
			"target":34963
		},
		{
			"buffer":0,
			"byteLength":144,
			"byteOffset":275836,
			"target":34962
		},
		{
			"buffer":0,
			"byteLength":144,
			"byteOffset":275980,
			"target":34962
		},
		{
			"buffer":0,
			"byteLength":96,
			"byteOffset":276124,
			"target":34962
		},
		{
			"buffer":0,
			"byteLength":36,
			"byteOffset":276220,
			"target":34963
		}
	],
	"buffers":[
		{
			"byteLength":276256,
			"uri":"model.bin"
		}
	]
}
