# by drummyfish, released under CC0 1.0, public domain 
v -4.762307 9.313564 5.266727
v 8.185081 8.645340 4.773076
v -8.177125 4.663145 7.605977
v 13.549493 5.444763 5.738345
v 16.381117 2.065176 6.010819
v 17.095507 -1.737614 5.858660
v 15.328105 -1.737615 7.746488
v 13.733090 -5.004587 7.746488
v 9.734649 -5.004587 7.746488
v 8.098816 -1.737615 7.746488
v -7.536004 -1.737615 8.015657
v -9.120297 -5.004587 8.015657
v -13.124184 -5.004587 8.015657
v -14.653263 -1.737615 8.015657
v -17.775015 -1.737614 6.003489
v -17.135954 3.110034 6.013699
v -13.124184 1.369645 8.015658
v -9.120297 1.369645 8.015658
v 9.734649 1.369645 7.746489
v 13.733090 1.369645 7.746489
v 6.181483 4.436293 7.746054
v -4.762307 9.313566 -5.258786
v 8.185081 8.645342 -4.765133
v -8.177125 4.663147 -7.598033
v 13.549493 5.444764 -5.730400
v 16.381117 2.065179 -6.002878
v 17.095507 -1.737612 -5.850719
v 15.328105 -1.737612 -7.738547
v 13.733090 -5.004585 -7.738547
v 9.734649 -5.004585 -7.738547
v 8.098816 -1.737612 -7.738547
v -7.536004 -1.737612 -8.007716
v -9.120297 -5.004585 -8.007716
v -13.124184 -5.004585 -8.007716
v -14.653263 -1.737612 -8.007716
v -17.775015 -1.737612 -5.995550
v -17.135954 3.110037 -6.005759
v -13.124184 1.369648 -8.007716
v -9.120297 1.369648 -8.007716
v 9.734649 1.369648 -7.738547
v 13.733090 1.369648 -7.738547
v 6.181483 4.436296 -7.738109
v 13.733090 -5.004585 -5.833475
v 9.734649 -5.004585 -5.833475
v -9.120297 -5.004585 -6.035545
v -13.124184 -5.004585 -6.035545
v 13.733090 -5.004586 5.841383
v 9.734649 -5.004586 5.841383
v -9.120297 -5.004586 6.043453
v -13.124184 -5.004586 6.043453
v 15.328105 -1.737615 5.841383
v 8.098816 -1.737615 5.841383
v -7.536004 -1.737615 6.043453
v -14.653263 -1.737615 6.043453
v 15.328105 -1.737612 -5.833475
v 8.098816 -1.737612 -5.833475
v -7.536004 -1.737612 -6.035545
v -14.653263 -1.737612 -6.035545
v -6.554510 5.342657 -7.557865
v -6.674069 3.901945 7.862356
v -6.554510 5.342654 7.565810
v -6.674069 3.901947 -7.854411
v -6.458783 5.011307 9.106746
v -6.458783 5.011309 -9.352643
vn 0.1129 0.5368 0.8361
vn 0.0847 0.5241 0.8474
vn 0.1581 0.5184 0.8404
vn 0.0066 0.5148 0.8573
vn -0.0919 0.4430 0.8918
vn 0.0005 0.2016 0.9795
vn -0.2148 0.5602 0.8001
vn 0.2651 0.4358 0.8601
vn 0.3412 0.3364 0.8777
vn 0.8043 0.4065 0.4334
vn 0.0103 0.0035 0.9999
vn -0.0000 0.0001 1.0000
vn 0.0409 0.0843 0.9956
vn 0.8043 0.4065 -0.4334
vn 0.6293 0.1717 -0.7579
vn 0.3412 0.3364 -0.8777
vn 0.9262 0.1603 -0.3413
vn -0.0046 0.0813 0.9967
vn 0.0172 0.0088 0.9998
vn -0.0943 0.2019 0.9749
vn -0.2558 0.3148 0.9140
vn -0.7881 0.2211 0.5745
vn -0.4605 0.1270 0.8785
vn -0.8809 0.1152 0.4591
vn 0.2651 0.4358 -0.8601
vn 0.0103 0.0035 -0.9999
vn 0.0409 0.0843 -0.9956
vn -0.0000 0.0001 -1.0000
vn 0.6293 0.1717 0.7579
vn 0.9262 0.1603 0.3413
vn -0.0046 0.0813 -0.9967
vn 0.0172 0.0088 -0.9998
vn -0.2558 0.3148 -0.9140
vn -0.0943 0.2019 -0.9749
vn -0.7881 0.2211 -0.5745
vn -0.4605 0.1270 -0.8785
vn -0.8809 0.1152 -0.4591
vn -0.0280 0.0874 0.9958
vn -0.0280 0.0874 -0.9958
vn 0.7665 0.6422 0.0000
vn -0.4310 -0.6352 0.6409
vn -0.6652 0.2498 0.7037
vn -0.6676 0.1718 0.7245
vn -0.3725 0.9023 0.2172
vn 0.0000 -0.0000 1.0000
vn 0.1129 0.5368 -0.8361
vn 0.1581 0.5184 -0.8404
vn 0.0847 0.5241 -0.8474
vn 0.0066 0.5148 -0.8573
vn -0.0919 0.4430 -0.8918
vn -0.2148 0.5602 -0.8001
vn 0.0005 0.2016 -0.9795
vn -0.0000 0.0000 -1.0000
vn 0.0000 -1.0000 0.0000
vn 0.8998 -0.4363 0.0000
vn 0.5309 -0.8474 -0.0000
vn -0.5367 -0.8438 -0.0000
vn -0.9057 -0.4239 -0.0000
vn -0.5255 -0.8508 -0.0000
vn -0.8942 -0.4477 -0.0000
vn 0.5298 -0.8482 -0.0000
vn 0.8986 -0.4387 -0.0000
vn 0.9928 -0.0970 0.0709
vn -0.4459 -0.6875 -0.5731
vn -0.7208 0.1682 -0.6725
vn -0.7183 0.2210 -0.6596
vn -0.3755 0.9077 -0.1876
vn -0.8060 0.5919 0.0000
vn 0.9916 -0.0994 -0.0830
vn -0.1708 0.9853 0.0000
vn 0.0515 0.9987 0.0000
vn 0.5124 0.8588 0.0000
s 1
f 2//1 21//2 4//3
f 1//4 21//2 2//1
f 21//2 61//5 60//6
f 21//2 1//4 61//5
f 61//5 1//4 3//7
s 2
f 4//8 20//9 5//10
f 10//11 19//12 21//13
f 19//12 20//9 21//13
f 21//13 20//9 4//8
f 26//14 28//15 41//16
f 26//14 27//17 28//15
f 10//11 18//18 11//19
f 21//13 18//18 10//11
f 18//18 3//20 17//21
f 3//20 16//22 17//21
f 17//21 16//22 14//23
f 15//24 14//23 16//22
f 25//25 26//14 41//16
f 31//26 42//27 40//28
f 40//28 42//27 41//16
f 42//27 25//25 41//16
f 20//9 7//29 5//10
f 6//30 5//10 7//29
f 42//27 31//26 39//31
f 31//26 32//32 39//31
f 39//31 38//33 24//34
f 24//34 38//33 37//35
f 38//33 35//36 37//35
f 36//37 37//35 35//36
f 16//22 37//35 15//24
f 36//37 15//24 37//35
f 18//18 60//38 3//20
f 60//38 18//18 21//13
f 39//31 24//34 62//39
f 62//39 42//27 39//31
f 25//40 4//40 26//14
f 5//10 26//14 4//40
f 26//14 5//10 27//17
f 6//30 27//17 5//10
s 3
f 60//41 63//42 3//43
f 63//42 61//44 3//43
s 4
f 11//45 18//45 12//45
f 13//45 17//45 14//45
f 17//45 13//45 18//45
f 13//45 12//45 18//45
s 5
f 9//45 19//45 10//45
f 7//45 20//45 8//45
f 19//45 9//45 20//45
f 9//45 8//45 20//45
s 6
f 23//46 25//47 42//48
f 22//49 23//46 42//48
f 59//50 24//51 22//49
f 59//50 22//49 42//48
f 62//52 59//50 42//48
s 7
f 32//53 33//53 39//53
f 34//53 35//53 38//53
f 38//53 39//53 34//53
f 34//53 39//53 33//53
s 8
f 30//53 31//53 40//53
f 28//53 29//53 41//53
f 40//53 41//53 30//53
f 30//53 41//53 29//53
s 9
f 32//54 31//54 57//54
f 57//54 31//54 56//54
f 14//54 15//54 54//54
f 15//54 36//54 54//54
f 54//54 36//54 58//54
f 36//54 35//54 58//54
f 27//54 55//54 28//54
f 6//54 55//54 27//54
f 51//54 55//54 6//54
f 6//54 7//54 51//54
f 10//54 11//54 53//54
f 10//54 53//54 52//54
f 58//54 53//54 54//54
f 57//54 53//54 58//54
f 53//54 57//54 52//54
f 57//54 56//54 52//54
f 52//54 56//54 51//54
f 55//54 51//54 56//54
s 10
f 32//55 57//55 33//56
f 33//56 57//55 45//56
f 33//56 45//56 34//57
f 34//57 45//56 46//57
f 34//57 46//57 35//58
f 58//58 35//58 46//57
s 11
f 30//59 56//60 31//60
f 30//59 44//59 56//60
f 30//59 29//61 44//59
f 29//61 43//61 44//59
f 29//61 28//62 43//61
f 55//62 43//61 28//62
s 12
f 11//55 12//56 53//55
f 49//56 53//55 12//56
f 12//56 13//57 49//56
f 50//57 49//56 13//57
f 13//57 14//58 50//57
f 54//58 50//57 14//58
s 13
f 10//60 52//60 9//59
f 48//59 9//59 52//60
f 8//61 9//59 48//59
f 47//61 8//61 48//59
f 7//62 8//61 47//61
f 51//62 7//62 47//61
s 14
f 45//45 57//45 46//45
f 46//45 57//45 58//45
s 15
f 44//45 43//45 56//45
f 43//45 55//45 56//45
s 16
f 48//53 52//53 47//53
f 47//53 52//53 51//53
s 17
f 49//53 50//53 53//53
f 50//53 54//53 53//53
s 18
f 64//63 59//63 62//63
s 19
f 62//64 24//65 64//66
f 59//67 64//66 24//65
s 20
f 24//68 3//68 22//68
f 22//68 3//68 1//68
s 21
f 60//69 61//69 63//69
s 22
f 37//70 16//70 24//70
f 16//70 3//70 24//70
s 23
f 22//71 1//71 23//71
f 1//71 2//71 23//71
s 24
f 23//72 2//72 25//72
f 4//72 25//72 2//72
