{
	"asset":{
		"generator":"Khronos glTF Blender I/O v5.0.21",
		"version":"2.0"
	},
	"extensionsUsed":[
		"KHR_materials_specular"
	],
	"scene":0,
	"scenes":[
		{
			"name":"Scene",
			"nodes":[
				0
			]
		}
	],
	"nodes":[
		{
			"mesh":0,
			"name":"Car",
			"rotation":[
				0.70710688829422,
				0,
				0,
				0.7071066498756409
			]
		}
	],
	"materials":[
		{
			"doubleSided":true,
			"extensions":{
				"KHR_materials_specular":{
					"specularFactor":0
				}
			},
			"name":"car_mat",
			"pbrMetallicRoughness":{
				"metallicFactor":0,
				"roughnessFactor":0.8945907354354858
			}
		}
	],
	"meshes":[
		{
			"name":"Car",
			"primitives":[
				{
					"attributes":{
						"POSITION":0,
						"NORMAL":1,
						"TEXCOORD_0":2
					},
					"indices":3,
					"material":0
				}
			]
		}
	],
	"accessors":[
		{
			"bufferView":0,
			"componentType":5126,
			"count":906,
			"max":[
				1.3505909442901611,
				3.068229913711548,
				0.039128001779317856
			],
			"min":[
				-1.2073659896850586,
				-3.082115888595581,
				-2.1352739334106445
			],
			"type":"VEC3"
		},
		{
			"bufferView":1,
			"componentType":5126,
			"count":906,
			"type":"VEC3"
		},
		{
			"bufferView":2,
			"componentType":5126,
			"count":906,
			"type":"VEC2"
		},
		{
			"bufferView":3,
			"componentType":5123,
			"count":1314,
			"type":"SCALAR"
		}
	],
	"bufferViews":[
		{
			"buffer":0,
			"byteLength":10872,
			"byteOffset":0,
			"target":34962
		},
		{
			"buffer":0,
			"byteLength":10872,
			"byteOffset":10872,
			"target":34962
		},
		{
			"buffer":0,
			"byteLength":7248,
			"byteOffset":21744,
			"target":34962
		},
		{
			"buffer":0,
			"byteLength":2628,
			"byteOffset":28992,
			"target":34963
		}
	],
	"buffers":[
		{
			"byteLength":31620,
			"uri":"model.bin"
		}
	]
}
