{
	"asset":{
		"generator":"Khronos glTF Blender I/O v5.0.21",
		"version":"2.0"
	},
	"extensionsUsed":[
		"KHR_materials_specular"
	],
	"scene":0,
	"scenes":[
		{
			"name":"Scene",
			"nodes":[
				0
			]
		}
	],
	"nodes":[
		{
			"mesh":0,
			"name":"Car4",
			"rotation":[
				0.70710688829422,
				0,
				0,
				0.7071066498756409
			]
		}
	],
	"materials":[
		{
			"doubleSided":true,
			"extensions":{
				"KHR_materials_specular":{
					"specularFactor":0
				}
			},
			"name":"car4_mat",
			"pbrMetallicRoughness":{
				"metallicFactor":0,
				"roughnessFactor":0.8945907354354858
			}
		}
	],
	"meshes":[
		{
			"name":"Car4",
			"primitives":[
				{
					"attributes":{
						"POSITION":0,
						"NORMAL":1,
						"TEXCOORD_0":2
					},
					"indices":3,
					"material":0
				}
			]
		}
	],
	"accessors":[
		{
			"bufferView":0,
			"componentType":5126,
			"count":994,
			"max":[
				1.6976710557937622,
				3.1513350009918213,
				0.03599800169467926
			],
			"min":[
				-1.6976710557937622,
				-3.1470439434051514,
				-2.706636905670166
			],
			"type":"VEC3"
		},
		{
			"bufferView":1,
			"componentType":5126,
			"count":994,
			"type":"VEC3"
		},
		{
			"bufferView":2,
			"componentType":5126,
			"count":994,
			"type":"VEC2"
		},
		{
			"bufferView":3,
			"componentType":5123,
			"count":1428,
			"type":"SCALAR"
		}
	],
	"bufferViews":[
		{
			"buffer":0,
			"byteLength":11928,
			"byteOffset":0,
			"target":34962
		},
		{
			"buffer":0,
			"byteLength":11928,
			"byteOffset":11928,
			"target":34962
		},
		{
			"buffer":0,
			"byteLength":7952,
			"byteOffset":23856,
			"target":34962
		},
		{
			"buffer":0,
			"byteLength":2856,
			"byteOffset":31808,
			"target":34963
		}
	],
	"buffers":[
		{
			"byteLength":34664,
			"uri":"model.bin"
		}
	]
}
