{
	"asset":{
		"generator":"Khronos glTF Blender I/O v5.0.21",
		"version":"2.0"
	},
	"extensionsUsed":[
		"KHR_materials_specular"
	],
	"scene":0,
	"scenes":[
		{
			"name":"Scene",
			"nodes":[
				0
			]
		}
	],
	"nodes":[
		{
			"mesh":0,
			"name":"Car8",
			"rotation":[
				0.70710688829422,
				0,
				0,
				0.7071066498756409
			]
		}
	],
	"materials":[
		{
			"doubleSided":true,
			"extensions":{
				"KHR_materials_specular":{
					"specularFactor":0
				}
			},
			"name":"car8_mat",
			"pbrMetallicRoughness":{
				"metallicFactor":0,
				"roughnessFactor":0.8945907354354858
			}
		}
	],
	"meshes":[
		{
			"name":"Car8",
			"primitives":[
				{
					"attributes":{
						"POSITION":0,
						"NORMAL":1,
						"TEXCOORD_0":2
					},
					"indices":3,
					"material":0
				}
			]
		}
	],
	"accessors":[
		{
			"bufferView":0,
			"componentType":5126,
			"count":633,
			"max":[
				1.583251953125,
				3.12477707862854,
				0.03883599862456322
			],
			"min":[
				-1.583251953125,
				-3.767357110977173,
				-3.1957290172576904
			],
			"type":"VEC3"
		},
		{
			"bufferView":1,
			"componentType":5126,
			"count":633,
			"type":"VEC3"
		},
		{
			"bufferView":2,
			"componentType":5126,
			"count":633,
			"type":"VEC2"
		},
		{
			"bufferView":3,
			"componentType":5123,
			"count":1128,
			"type":"SCALAR"
		}
	],
	"bufferViews":[
		{
			"buffer":0,
			"byteLength":7596,
			"byteOffset":0,
			"target":34962
		},
		{
			"buffer":0,
			"byteLength":7596,
			"byteOffset":7596,
			"target":34962
		},
		{
			"buffer":0,
			"byteLength":5064,
			"byteOffset":15192,
			"target":34962
		},
		{
			"buffer":0,
			"byteLength":2256,
			"byteOffset":20256,
			"target":34963
		}
	],
	"buffers":[
		{
			"byteLength":22512,
			"uri":"model.bin"
		}
	]
}
