{
	"asset":{
		"generator":"Khronos glTF Blender I/O v5.0.21",
		"version":"2.0"
	},
	"scene":0,
	"scenes":[
		{
			"name":"Scene",
			"nodes":[
				0,
				1,
				2,
				3,
				4,
				5,
				6,
				7,
				8,
				9,
				10,
				11,
				12
			]
		}
	],
	"nodes":[
		{
			"mesh":0,
			"name":"CastIronStove"
		},
		{
			"mesh":1,
			"name":"CastIronPan",
			"rotation":[
				0,
				-0.4007700979709625,
				0,
				0.9161787033081055
			],
			"translation":[
				-0.34675392508506775,
				1.078012228012085,
				0.10891684889793396
			]
		},
		{
			"mesh":2,
			"name":"CastIronPot",
			"rotation":[
				0,
				0.11240912228822708,
				0,
				0.9936619997024536
			],
			"translation":[
				0.11236950755119324,
				1.0787451267242432,
				0.14795126020908356
			]
		},
		{
			"mesh":3,
			"name":"FriedEgg",
			"rotation":[
				0,
				-0.4007700979709625,
				0,
				0.9161787033081055
			],
			"translation":[
				-0.3359322249889374,
				1.1041768789291382,
				0.1347443163394928
			]
		},
		{
			"mesh":4,
			"name":"PotLadle",
			"rotation":[
				0,
				0,
				-0.0325239822268486,
				0.9994709491729736
			],
			"translation":[
				0.14574235677719116,
				1.12012779712677,
				0.14436373114585876
			]
		},
		{
			"mesh":5,
			"name":"StewFloatingIngredients",
			"rotation":[
				0,
				0.23371712863445282,
				0,
				0.97230464220047
			],
			"translation":[
				0.10540488362312317,
				1.1947193145751953,
				0.1480010598897934
			]
		},
		{
			"mesh":6,
			"name":"StewPotLiquid",
			"translation":[
				0.11236952990293503,
				1.1956778764724731,
				0.14795123040676117
			]
		},
		{
			"mesh":7,
			"name":"CastIronStove_AshChamberDoor",
			"translation":[
				-0.5585387945175171,
				0.2745856046676636,
				0.37565019726753235
			]
		},
		{
			"mesh":8,
			"name":"CastIronStove_OvenDoor",
			"translation":[
				0.5719169974327087,
				0.7335510849952698,
				0.37565019726753235
			]
		},
		{
			"mesh":9,
			"name":"CastIronStove_SmallOvenDoor",
			"translation":[
				0.5719169974327087,
				0.2745856046676636,
				0.37565019726753235
			]
		},
		{
			"mesh":10,
			"name":"CastIronStove_Tray",
			"scale":[
				1,
				1,
				0.9544171094894409
			],
			"translation":[
				0.2640107274055481,
				0.5925748944282532,
				0.07719269394874573
			]
		},
		{
			"mesh":11,
			"name":"CastIronStove_WithoutDoors"
		},
		{
			"mesh":12,
			"name":"FireChamberDoor",
			"translation":[
				-0.5585387945175171,
				0.7335507869720459,
				0.37565019726753235
			]
		}
	],
	"materials":[
		{
			"doubleSided":true,
			"name":"StoveBodyMaterial",
			"pbrMetallicRoughness":{
				"baseColorTexture":{
					"index":0
				},
				"metallicFactor":0
			}
		},
		{
			"doubleSided":true,
			"name":"StoveGlassMaterial"
		},
		{
			"doubleSided":true,
			"name":"OvenGlassMaterial"
		},
		{
			"doubleSided":true,
			"name":"FriedEggMaterial",
			"pbrMetallicRoughness":{
				"baseColorTexture":{
					"index":1
				},
				"metallicFactor":0
			}
		}
	],
	"meshes":[
		{
			"name":"CastIronStove",
			"primitives":[
				{
					"attributes":{
						"POSITION":0,
						"NORMAL":1,
						"TEXCOORD_0":2
					},
					"indices":3,
					"material":0
				},
				{
					"attributes":{
						"POSITION":4,
						"NORMAL":5,
						"TEXCOORD_0":6
					},
					"indices":7,
					"material":1
				},
				{
					"attributes":{
						"POSITION":8,
						"NORMAL":9,
						"TEXCOORD_0":10
					},
					"indices":11,
					"material":2
				}
			]
		},
		{
			"name":"CastIronPan",
			"primitives":[
				{
					"attributes":{
						"POSITION":12,
						"NORMAL":13,
						"TEXCOORD_0":14
					},
					"indices":15,
					"material":0
				}
			]
		},
		{
			"name":"CastIronPot",
			"primitives":[
				{
					"attributes":{
						"POSITION":16,
						"NORMAL":17,
						"TEXCOORD_0":18
					},
					"indices":19,
					"material":0
				}
			]
		},
		{
			"name":"FriedEgg",
			"primitives":[
				{
					"attributes":{
						"POSITION":20,
						"NORMAL":21,
						"TEXCOORD_0":22
					},
					"indices":23,
					"material":3
				}
			]
		},
		{
			"name":"PotLadle",
			"primitives":[
				{
					"attributes":{
						"POSITION":24,
						"NORMAL":25,
						"TEXCOORD_0":26
					},
					"indices":27,
					"material":0
				}
			]
		},
		{
			"name":"StewFloatingIngredients",
			"primitives":[
				{
					"attributes":{
						"POSITION":28,
						"NORMAL":29,
						"TEXCOORD_0":30
					},
					"indices":31,
					"material":3
				}
			]
		},
		{
			"name":"StewPotLiquid",
			"primitives":[
				{
					"attributes":{
						"POSITION":32,
						"NORMAL":33,
						"TEXCOORD_0":34
					},
					"indices":35,
					"material":3
				}
			]
		},
		{
			"name":"CastIronStove_AshChamberDoor",
			"primitives":[
				{
					"attributes":{
						"POSITION":36,
						"NORMAL":37,
						"TEXCOORD_0":38
					},
					"indices":39,
					"material":0
				}
			]
		},
		{
			"name":"CastIronStove_OvenDoor",
			"primitives":[
				{
					"attributes":{
						"POSITION":40,
						"NORMAL":41,
						"TEXCOORD_0":42
					},
					"indices":43,
					"material":0
				},
				{
					"attributes":{
						"POSITION":44,
						"NORMAL":45,
						"TEXCOORD_0":46
					},
					"indices":47,
					"material":2
				}
			]
		},
		{
			"name":"CastIronStove_SmallOvenDoor",
			"primitives":[
				{
					"attributes":{
						"POSITION":48,
						"NORMAL":49,
						"TEXCOORD_0":50
					},
					"indices":51,
					"material":0
				}
			]
		},
		{
			"name":"CastIronStove_Tray",
			"primitives":[
				{
					"attributes":{
						"POSITION":52,
						"NORMAL":53,
						"TEXCOORD_0":54
					},
					"indices":55,
					"material":0
				}
			]
		},
		{
			"name":"CastIronStove_WithoutDoors",
			"primitives":[
				{
					"attributes":{
						"POSITION":56,
						"NORMAL":57,
						"TEXCOORD_0":58
					},
					"indices":59,
					"material":0
				}
			]
		},
		{
			"name":"CastIronStove_FireChamberDoor",
			"primitives":[
				{
					"attributes":{
						"POSITION":60,
						"NORMAL":61,
						"TEXCOORD_0":62
					},
					"indices":63,
					"material":0
				},
				{
					"attributes":{
						"POSITION":64,
						"NORMAL":65,
						"TEXCOORD_0":66
					},
					"indices":67,
					"material":1
				}
			]
		}
	],
	"textures":[
		{
			"sampler":0,
			"source":0
		},
		{
			"sampler":0,
			"source":1
		}
	],
	"images":[
		{
			"mimeType":"image/png",
			"name":"CastIronStoveTex",
			"uri":"CastIronStoveTex.png"
		},
		{
			"mimeType":"image/png",
			"name":"FriedEggTexture",
			"uri":"FriedEggTexture.png"
		}
	],
	"accessors":[
		{
			"bufferView":0,
			"componentType":5126,
			"count":2298,
			"max":[
				0.6301386952400208,
				3.599807024002075,
				0.44969063997268677
			],
			"min":[
				-0.6301386952400208,
				0,
				-0.36579644680023193
			],
			"type":"VEC3"
		},
		{
			"bufferView":1,
			"componentType":5126,
			"count":2298,
			"type":"VEC3"
		},
		{
			"bufferView":2,
			"componentType":5126,
			"count":2298,
			"type":"VEC2"
		},
		{
			"bufferView":3,
			"componentType":5123,
			"count":6312,
			"type":"SCALAR"
		},
		{
			"bufferView":4,
			"componentType":5126,
			"count":4,
			"max":[
				-0.19141583144664764,
				0.8996821045875549,
				0.3683607578277588
			],
			"min":[
				-0.4174516797065735,
				0.5796296000480652,
				0.3683607578277588
			],
			"type":"VEC3"
		},
		{
			"bufferView":5,
			"componentType":5126,
			"count":4,
			"type":"VEC3"
		},
		{
			"bufferView":6,
			"componentType":5126,
			"count":4,
			"type":"VEC2"
		},
		{
			"bufferView":7,
			"componentType":5123,
			"count":6,
			"type":"SCALAR"
		},
		{
			"bufferView":8,
			"componentType":5126,
			"count":4,
			"max":[
				0.41649675369262695,
				0.8996821045875549,
				0.36495766043663025
			],
			"min":[
				0.10632708668708801,
				0.5796296000480652,
				0.36495766043663025
			],
			"type":"VEC3"
		},
		{
			"bufferView":9,
			"componentType":5126,
			"count":4,
			"type":"VEC3"
		},
		{
			"bufferView":10,
			"componentType":5126,
			"count":4,
			"type":"VEC2"
		},
		{
			"bufferView":11,
			"componentType":5123,
			"count":6,
			"type":"SCALAR"
		},
		{
			"bufferView":12,
			"componentType":5126,
			"count":146,
			"max":[
				0.3925536572933197,
				0.09294344484806061,
				0.159231036901474
			],
			"min":[
				-0.159231036901474,
				-2.4959444999694824e-07,
				-0.159231036901474
			],
			"type":"VEC3"
		},
		{
			"bufferView":13,
			"componentType":5126,
			"count":146,
			"type":"VEC3"
		},
		{
			"bufferView":14,
			"componentType":5126,
			"count":146,
			"type":"VEC2"
		},
		{
			"bufferView":15,
			"componentType":5123,
			"count":354,
			"type":"SCALAR"
		},
		{
			"bufferView":16,
			"componentType":5126,
			"count":258,
			"max":[
				0.22132568061351776,
				0.1789710819721222,
				0.15876612067222595
			],
			"min":[
				-0.2213255912065506,
				1.418371482486691e-07,
				-0.15876616537570953
			],
			"type":"VEC3"
		},
		{
			"bufferView":17,
			"componentType":5126,
			"count":258,
			"type":"VEC3"
		},
		{
			"bufferView":18,
			"componentType":5126,
			"count":258,
			"type":"VEC2"
		},
		{
			"bufferView":19,
			"componentType":5123,
			"count":516,
			"type":"SCALAR"
		},
		{
			"bufferView":20,
			"componentType":5126,
			"count":52,
			"max":[
				0.06483516842126846,
				0.012910818681120872,
				0.06617482751607895
			],
			"min":[
				-0.09503956139087677,
				-1.6917104517233383e-07,
				-0.064560167491436
			],
			"type":"VEC3"
		},
		{
			"bufferView":21,
			"componentType":5126,
			"count":52,
			"type":"VEC3"
		},
		{
			"bufferView":22,
			"componentType":5126,
			"count":52,
			"type":"VEC2"
		},
		{
			"bufferView":23,
			"componentType":5123,
			"count":171,
			"type":"SCALAR"
		},
		{
			"bufferView":24,
			"componentType":5126,
			"count":166,
			"max":[
				0.13279272615909576,
				0.2665734589099884,
				0.05390092730522156
			],
			"min":[
				-0.05390092730522156,
				-0.027919184416532516,
				-0.05390092730522156
			],
			"type":"VEC3"
		},
		{
			"bufferView":25,
			"componentType":5126,
			"count":166,
			"type":"VEC3"
		},
		{
			"bufferView":26,
			"componentType":5126,
			"count":166,
			"type":"VEC2"
		},
		{
			"bufferView":27,
			"componentType":5123,
			"count":684,
			"type":"SCALAR"
		},
		{
			"bufferView":28,
			"componentType":5126,
			"count":93,
			"max":[
				0.08301449567079544,
				0.029299769550561905,
				0.1077365130186081
			],
			"min":[
				-0.07539448887109756,
				-0.02045339345932007,
				-0.10856979340314865
			],
			"type":"VEC3"
		},
		{
			"bufferView":29,
			"componentType":5126,
			"count":93,
			"type":"VEC3"
		},
		{
			"bufferView":30,
			"componentType":5126,
			"count":93,
			"type":"VEC2"
		},
		{
			"bufferView":31,
			"componentType":5123,
			"count":228,
			"type":"SCALAR"
		},
		{
			"bufferView":32,
			"componentType":5126,
			"count":12,
			"max":[
				0.14560307562351227,
				2.152398437260672e-08,
				0.14560307562351227
			],
			"min":[
				-0.14560307562351227,
				2.152398437260672e-08,
				-0.14560310542583466
			],
			"type":"VEC3"
		},
		{
			"bufferView":33,
			"componentType":5126,
			"count":12,
			"type":"VEC3"
		},
		{
			"bufferView":34,
			"componentType":5126,
			"count":12,
			"type":"VEC2"
		},
		{
			"bufferView":35,
			"componentType":5123,
			"count":30,
			"type":"SCALAR"
		},
		{
			"bufferView":36,
			"componentType":5126,
			"count":260,
			"max":[
				0.4800460934638977,
				0.1609615683555603,
				0.06513431668281555
			],
			"min":[
				-0.017357051372528076,
				-0.16049471497535706,
				-0.01735702157020569
			],
			"type":"VEC3"
		},
		{
			"bufferView":37,
			"componentType":5126,
			"count":260,
			"type":"VEC3"
		},
		{
			"bufferView":38,
			"componentType":5126,
			"count":260,
			"type":"VEC2"
		},
		{
			"bufferView":39,
			"componentType":5123,
			"count":546,
			"type":"SCALAR"
		},
		{
			"bufferView":40,
			"componentType":5126,
			"count":568,
			"max":[
				0.017357051372528076,
				0.2783048748970032,
				0.06513431668281555
			],
			"min":[
				-0.5911211967468262,
				-0.26609528064727783,
				-0.020224930718541145
			],
			"type":"VEC3"
		},
		{
			"bufferView":41,
			"componentType":5126,
			"count":568,
			"type":"VEC3"
		},
		{
			"bufferView":42,
			"componentType":5126,
			"count":568,
			"type":"VEC2"
		},
		{
			"bufferView":43,
			"componentType":5123,
			"count":1428,
			"type":"SCALAR"
		},
		{
			"bufferView":44,
			"componentType":5126,
			"count":8,
			"max":[
				-0.14964674413204193,
				0.171904519200325,
				-0.0106925368309021
			],
			"min":[
				-0.4713634252548218,
				-0.15969498455524445,
				-0.016466040164232254
			],
			"type":"VEC3"
		},
		{
			"bufferView":45,
			"componentType":5126,
			"count":8,
			"type":"VEC3"
		},
		{
			"bufferView":46,
			"componentType":5126,
			"count":8,
			"type":"VEC2"
		},
		{
			"bufferView":47,
			"componentType":5123,
			"count":12,
			"type":"SCALAR"
		},
		{
			"bufferView":48,
			"componentType":5126,
			"count":504,
			"max":[
				0.017357051372528076,
				0.1609615683555603,
				0.06513431668281555
			],
			"min":[
				-0.5911211967468262,
				-0.16049471497535706,
				-0.020028745755553246
			],
			"type":"VEC3"
		},
		{
			"bufferView":49,
			"componentType":5126,
			"count":504,
			"type":"VEC3"
		},
		{
			"bufferView":50,
			"componentType":5126,
			"count":504,
			"type":"VEC2"
		},
		{
			"bufferView":51,
			"componentType":5123,
			"count":1356,
			"type":"SCALAR"
		},
		{
			"bufferView":52,
			"componentType":5126,
			"count":56,
			"max":[
				0.221072256565094,
				0.010667681694030762,
				0.2615644931793213
			],
			"min":[
				-0.2210935354232788,
				-0.010744035243988037,
				-0.2615644931793213
			],
			"type":"VEC3"
		},
		{
			"bufferView":53,
			"componentType":5126,
			"count":56,
			"type":"VEC3"
		},
		{
			"bufferView":54,
			"componentType":5126,
			"count":56,
			"type":"VEC2"
		},
		{
			"bufferView":55,
			"componentType":5123,
			"count":84,
			"type":"SCALAR"
		},
		{
			"bufferView":56,
			"componentType":5126,
			"count":1340,
			"max":[
				0.6301386952400208,
				3.599807024002075,
				0.44969063997268677
			],
			"min":[
				-0.6301386952400208,
				0,
				-0.36579644680023193
			],
			"type":"VEC3"
		},
		{
			"bufferView":57,
			"componentType":5126,
			"count":1340,
			"type":"VEC3"
		},
		{
			"bufferView":58,
			"componentType":5126,
			"count":1340,
			"type":"VEC2"
		},
		{
			"bufferView":59,
			"componentType":5123,
			"count":3978,
			"type":"SCALAR"
		},
		{
			"bufferView":60,
			"componentType":5126,
			"count":752,
			"max":[
				0.4802688658237457,
				0.27830517292022705,
				0.06513431668281555
			],
			"min":[
				-0.017357051372528076,
				-0.26609498262405396,
				-0.020018890500068665
			],
			"type":"VEC3"
		},
		{
			"bufferView":61,
			"componentType":5126,
			"count":752,
			"type":"VEC3"
		},
		{
			"bufferView":62,
			"componentType":5126,
			"count":752,
			"type":"VEC2"
		},
		{
			"bufferView":63,
			"componentType":5123,
			"count":1416,
			"type":"SCALAR"
		},
		{
			"bufferView":64,
			"componentType":5126,
			"count":8,
			"max":[
				0.3728964626789093,
				0.1719048172235489,
				-0.00728943943977356
			],
			"min":[
				0.13531361520290375,
				-0.15969468653202057,
				-0.01306294184178114
			],
			"type":"VEC3"
		},
		{
			"bufferView":65,
			"componentType":5126,
			"count":8,
			"type":"VEC3"
		},
		{
			"bufferView":66,
			"componentType":5126,
			"count":8,
			"type":"VEC2"
		},
		{
			"bufferView":67,
			"componentType":5123,
			"count":12,
			"type":"SCALAR"
		}
	],
	"bufferViews":[
		{
			"buffer":0,
			"byteLength":27576,
			"byteOffset":0,
			"target":34962
		},
		{
			"buffer":0,
			"byteLength":27576,
			"byteOffset":27576,
			"target":34962
		},
		{
			"buffer":0,
			"byteLength":18384,
			"byteOffset":55152,
			"target":34962
		},
		{
			"buffer":0,
			"byteLength":12624,
			"byteOffset":73536,
			"target":34963
		},
		{
			"buffer":0,
			"byteLength":48,
			"byteOffset":86160,
			"target":34962
		},
		{
			"buffer":0,
			"byteLength":48,
			"byteOffset":86208,
			"target":34962
		},
		{
			"buffer":0,
			"byteLength":32,
			"byteOffset":86256,
			"target":34962
		},
		{
			"buffer":0,
			"byteLength":12,
			"byteOffset":86288,
			"target":34963
		},
		{
			"buffer":0,
			"byteLength":48,
			"byteOffset":86300,
			"target":34962
		},
		{
			"buffer":0,
			"byteLength":48,
			"byteOffset":86348,
			"target":34962
		},
		{
			"buffer":0,
			"byteLength":32,
			"byteOffset":86396,
			"target":34962
		},
		{
			"buffer":0,
			"byteLength":12,
			"byteOffset":86428,
			"target":34963
		},
		{
			"buffer":0,
			"byteLength":1752,
			"byteOffset":86440,
			"target":34962
		},
		{
			"buffer":0,
			"byteLength":1752,
			"byteOffset":88192,
			"target":34962
		},
		{
			"buffer":0,
			"byteLength":1168,
			"byteOffset":89944,
			"target":34962
		},
		{
			"buffer":0,
			"byteLength":708,
			"byteOffset":91112,
			"target":34963
		},
		{
			"buffer":0,
			"byteLength":3096,
			"byteOffset":91820,
			"target":34962
		},
		{
			"buffer":0,
			"byteLength":3096,
			"byteOffset":94916,
			"target":34962
		},
		{
			"buffer":0,
			"byteLength":2064,
			"byteOffset":98012,
			"target":34962
		},
		{
			"buffer":0,
			"byteLength":1032,
			"byteOffset":100076,
			"target":34963
		},
		{
			"buffer":0,
			"byteLength":624,
			"byteOffset":101108,
			"target":34962
		},
		{
			"buffer":0,
			"byteLength":624,
			"byteOffset":101732,
			"target":34962
		},
		{
			"buffer":0,
			"byteLength":416,
			"byteOffset":102356,
			"target":34962
		},
		{
			"buffer":0,
			"byteLength":342,
			"byteOffset":102772,
			"target":34963
		},
		{
			"buffer":0,
			"byteLength":1992,
			"byteOffset":103116,
			"target":34962
		},
		{
			"buffer":0,
			"byteLength":1992,
			"byteOffset":105108,
			"target":34962
		},
		{
			"buffer":0,
			"byteLength":1328,
			"byteOffset":107100,
			"target":34962
		},
		{
			"buffer":0,
			"byteLength":1368,
			"byteOffset":108428,
			"target":34963
		},
		{
			"buffer":0,
			"byteLength":1116,
			"byteOffset":109796,
			"target":34962
		},
		{
			"buffer":0,
			"byteLength":1116,
			"byteOffset":110912,
			"target":34962
		},
		{
			"buffer":0,
			"byteLength":744,
			"byteOffset":112028,
			"target":34962
		},
		{
			"buffer":0,
			"byteLength":456,
			"byteOffset":112772,
			"target":34963
		},
		{
			"buffer":0,
			"byteLength":144,
			"byteOffset":113228,
			"target":34962
		},
		{
			"buffer":0,
			"byteLength":144,
			"byteOffset":113372,
			"target":34962
		},
		{
			"buffer":0,
			"byteLength":96,
			"byteOffset":113516,
			"target":34962
		},
		{
			"buffer":0,
			"byteLength":60,
			"byteOffset":113612,
			"target":34963
		},
		{
			"buffer":0,
			"byteLength":3120,
			"byteOffset":113672,
			"target":34962
		},
		{
			"buffer":0,
			"byteLength":3120,
			"byteOffset":116792,
			"target":34962
		},
		{
			"buffer":0,
			"byteLength":2080,
			"byteOffset":119912,
			"target":34962
		},
		{
			"buffer":0,
			"byteLength":1092,
			"byteOffset":121992,
			"target":34963
		},
		{
			"buffer":0,
			"byteLength":6816,
			"byteOffset":123084,
			"target":34962
		},
		{
			"buffer":0,
			"byteLength":6816,
			"byteOffset":129900,
			"target":34962
		},
		{
			"buffer":0,
			"byteLength":4544,
			"byteOffset":136716,
			"target":34962
		},
		{
			"buffer":0,
			"byteLength":2856,
			"byteOffset":141260,
			"target":34963
		},
		{
			"buffer":0,
			"byteLength":96,
			"byteOffset":144116,
			"target":34962
		},
		{
			"buffer":0,
			"byteLength":96,
			"byteOffset":144212,
			"target":34962
		},
		{
			"buffer":0,
			"byteLength":64,
			"byteOffset":144308,
			"target":34962
		},
		{
			"buffer":0,
			"byteLength":24,
			"byteOffset":144372,
			"target":34963
		},
		{
			"buffer":0,
			"byteLength":6048,
			"byteOffset":144396,
			"target":34962
		},
		{
			"buffer":0,
			"byteLength":6048,
			"byteOffset":150444,
			"target":34962
		},
		{
			"buffer":0,
			"byteLength":4032,
			"byteOffset":156492,
			"target":34962
		},
		{
			"buffer":0,
			"byteLength":2712,
			"byteOffset":160524,
			"target":34963
		},
		{
			"buffer":0,
			"byteLength":672,
			"byteOffset":163236,
			"target":34962
		},
		{
			"buffer":0,
			"byteLength":672,
			"byteOffset":163908,
			"target":34962
		},
		{
			"buffer":0,
			"byteLength":448,
			"byteOffset":164580,
			"target":34962
		},
		{
			"buffer":0,
			"byteLength":168,
			"byteOffset":165028,
			"target":34963
		},
		{
			"buffer":0,
			"byteLength":16080,
			"byteOffset":165196,
			"target":34962
		},
		{
			"buffer":0,
			"byteLength":16080,
			"byteOffset":181276,
			"target":34962
		},
		{
			"buffer":0,
			"byteLength":10720,
			"byteOffset":197356,
			"target":34962
		},
		{
			"buffer":0,
			"byteLength":7956,
			"byteOffset":208076,
			"target":34963
		},
		{
			"buffer":0,
			"byteLength":9024,
			"byteOffset":216032,
			"target":34962
		},
		{
			"buffer":0,
			"byteLength":9024,
			"byteOffset":225056,
			"target":34962
		},
		{
			"buffer":0,
			"byteLength":6016,
			"byteOffset":234080,
			"target":34962
		},
		{
			"buffer":0,
			"byteLength":2832,
			"byteOffset":240096,
			"target":34963
		},
		{
			"buffer":0,
			"byteLength":96,
			"byteOffset":242928,
			"target":34962
		},
		{
			"buffer":0,
			"byteLength":96,
			"byteOffset":243024,
			"target":34962
		},
		{
			"buffer":0,
			"byteLength":64,
			"byteOffset":243120,
			"target":34962
		},
		{
			"buffer":0,
			"byteLength":24,
			"byteOffset":243184,
			"target":34963
		}
	],
	"samplers":[
		{
			"magFilter":9729,
			"minFilter":9987
		}
	],
	"buffers":[
		{
			"byteLength":243208,
			"uri":"CastIronStove.bin"
		}
	]
}
