{
	"asset":{
		"generator":"Khronos glTF Blender I/O v5.0.21",
		"version":"2.0"
	},
	"scene":0,
	"scenes":[
		{
			"name":"Scene",
			"nodes":[
				0,
				1,
				2,
				3
			]
		}
	],
	"nodes":[
		{
			"mesh":0,
			"name":"Cube.005",
			"scale":[
				0.12951377034187317,
				0.12951377034187317,
				0.12951377034187317
			],
			"translation":[
				-3.657761573791504,
				0.7676102519035339,
				2.8712122440338135
			]
		},
		{
			"mesh":1,
			"name":"Cube.004",
			"scale":[
				0.12951377034187317,
				0.12951377034187317,
				0.12951377034187317
			],
			"translation":[
				-3.657761573791504,
				0.7676102519035339,
				2.8712122440338135
			]
		},
		{
			"mesh":2,
			"name":"Circle",
			"rotation":[
				0.05855763331055641,
				0,
				0,
				0.9982840418815613
			],
			"scale":[
				0.08267616480588913,
				0.08881509304046631,
				0.0714048370718956
			],
			"translation":[
				-3.6536295413970947,
				0.6251029372215271,
				1.5331943035125732
			]
		},
		{
			"mesh":3,
			"name":"Cube.003",
			"scale":[
				0.15282322466373444,
				0.16417080163955688,
				0.13198867440223694
			],
			"translation":[
				-3.657938241958618,
				0.36380475759506226,
				2.2357518672943115
			]
		}
	],
	"materials":[
		{
			"doubleSided":true,
			"name":"Material.002",
			"pbrMetallicRoughness":{
				"metallicFactor":0,
				"roughnessFactor":0.5
			}
		},
		{
			"doubleSided":true,
			"name":"Material.001",
			"pbrMetallicRoughness":{
				"baseColorFactor":[
					0.23301513493061066,
					0.23301513493061066,
					0.23301513493061066,
					1
				],
				"metallicFactor":0,
				"roughnessFactor":0.5
			}
		},
		{
			"doubleSided":true,
			"name":"Material",
			"pbrMetallicRoughness":{
				"baseColorFactor":[
					1,
					0.6663305163383484,
					0.44263696670532227,
					1
				],
				"metallicFactor":0,
				"roughnessFactor":0.5
			}
		},
		{
			"doubleSided":true,
			"name":"Material.003",
			"pbrMetallicRoughness":{
				"metallicFactor":0,
				"roughnessFactor":0.5
			}
		}
	],
	"meshes":[
		{
			"name":"Cube.006",
			"primitives":[
				{
					"attributes":{
						"POSITION":0,
						"NORMAL":1
					},
					"indices":2,
					"material":0
				},
				{
					"attributes":{
						"POSITION":3,
						"NORMAL":4
					},
					"indices":5,
					"material":1
				},
				{
					"attributes":{
						"POSITION":6,
						"NORMAL":7
					},
					"indices":8,
					"material":2
				},
				{
					"attributes":{
						"POSITION":9,
						"NORMAL":10
					},
					"indices":11,
					"material":3
				}
			]
		},
		{
			"name":"Cube.001",
			"primitives":[
				{
					"attributes":{
						"POSITION":12,
						"NORMAL":13
					},
					"indices":14,
					"material":0
				},
				{
					"attributes":{
						"POSITION":15,
						"NORMAL":16
					},
					"indices":17,
					"material":1
				},
				{
					"attributes":{
						"POSITION":18,
						"NORMAL":19
					},
					"indices":20,
					"material":2
				}
			]
		},
		{
			"name":"Circle.002",
			"primitives":[
				{
					"attributes":{
						"POSITION":21,
						"NORMAL":22
					},
					"indices":23
				}
			]
		},
		{
			"name":"Cube.004",
			"primitives":[
				{
					"attributes":{
						"POSITION":24,
						"NORMAL":25
					},
					"indices":26,
					"material":1
				},
				{
					"attributes":{
						"POSITION":27,
						"NORMAL":28
					},
					"indices":29,
					"material":0
				}
			]
		}
	],
	"accessors":[
		{
			"bufferView":0,
			"componentType":5126,
			"count":64,
			"max":[
				1.9331328868865967,
				3.1331520080566406,
				-1.1561496257781982
			],
			"min":[
				0.37221330404281616,
				0.7135765552520752,
				-2.6229805946350098
			],
			"type":"VEC3"
		},
		{
			"bufferView":1,
			"componentType":5126,
			"count":64,
			"type":"VEC3"
		},
		{
			"bufferView":2,
			"componentType":5123,
			"count":96,
			"type":"SCALAR"
		},
		{
			"bufferView":3,
			"componentType":5126,
			"count":40,
			"max":[
				1.1876156330108643,
				1.0185353755950928,
				-0.37356269359588623
			],
			"min":[
				0.24464917182922363,
				-0.14750415086746216,
				-1.0918749570846558
			],
			"type":"VEC3"
		},
		{
			"bufferView":4,
			"componentType":5126,
			"count":40,
			"type":"VEC3"
		},
		{
			"bufferView":5,
			"componentType":5123,
			"count":66,
			"type":"SCALAR"
		},
		{
			"bufferView":6,
			"componentType":5126,
			"count":64,
			"max":[
				1.110476016998291,
				0.8623136281967163,
				-0.37356269359588623
			],
			"min":[
				0.40642857551574707,
				-0.008287012577056885,
				-0.8856785297393799
			],
			"type":"VEC3"
		},
		{
			"bufferView":7,
			"componentType":5126,
			"count":64,
			"type":"VEC3"
		},
		{
			"bufferView":8,
			"componentType":5123,
			"count":96,
			"type":"SCALAR"
		},
		{
			"bufferView":9,
			"componentType":5126,
			"count":180,
			"max":[
				2.140244483947754,
				-0.4907141327857971,
				-0.05564894899725914
			],
			"min":[
				0.5718532800674438,
				-1.1786363124847412,
				-0.7185167074203491
			],
			"type":"VEC3"
		},
		{
			"bufferView":10,
			"componentType":5126,
			"count":180,
			"type":"VEC3"
		},
		{
			"bufferView":11,
			"componentType":5123,
			"count":270,
			"type":"SCALAR"
		},
		{
			"bufferView":12,
			"componentType":5126,
			"count":100,
			"max":[
				1.0923479795455933,
				-0.34672823548316956,
				0.2719845473766327
			],
			"min":[
				0,
				-1.2400498390197754,
				-1.5480470657348633
			],
			"type":"VEC3"
		},
		{
			"bufferView":13,
			"componentType":5126,
			"count":100,
			"type":"VEC3"
		},
		{
			"bufferView":14,
			"componentType":5123,
			"count":150,
			"type":"SCALAR"
		},
		{
			"bufferView":15,
			"componentType":5126,
			"count":350,
			"max":[
				1.7472827434539795,
				2.0384116172790527,
				0.3890971839427948
			],
			"min":[
				0,
				-1.45833158493042,
				-3.58940052986145
			],
			"type":"VEC3"
		},
		{
			"bufferView":16,
			"componentType":5126,
			"count":350,
			"type":"VEC3"
		},
		{
			"bufferView":17,
			"componentType":5123,
			"count":528,
			"type":"SCALAR"
		},
		{
			"bufferView":18,
			"componentType":5126,
			"count":16,
			"max":[
				0.3479265868663788,
				-0.2781807780265808,
				0.4587906301021576
			],
			"min":[
				0,
				-0.685793936252594,
				0.15398816764354706
			],
			"type":"VEC3"
		},
		{
			"bufferView":19,
			"componentType":5126,
			"count":16,
			"type":"VEC3"
		},
		{
			"bufferView":20,
			"componentType":5123,
			"count":24,
			"type":"SCALAR"
		},
		{
			"bufferView":21,
			"componentType":5126,
			"count":144,
			"max":[
				0.6134089231491089,
				0.5651984214782715,
				2.2015397548675537
			],
			"min":[
				-0.6134089231491089,
				-7.867541313171387,
				-8.014496803283691
			],
			"type":"VEC3"
		},
		{
			"bufferView":22,
			"componentType":5126,
			"count":144,
			"type":"VEC3"
		},
		{
			"bufferView":23,
			"componentType":5123,
			"count":216,
			"type":"SCALAR"
		},
		{
			"bufferView":24,
			"componentType":5126,
			"count":640,
			"max":[
				1.4889862537384033,
				3.4778802394866943,
				3.286327600479126
			],
			"min":[
				0,
				-4.382089614868164,
				-6.216158390045166
			],
			"type":"VEC3"
		},
		{
			"bufferView":25,
			"componentType":5126,
			"count":640,
			"type":"VEC3"
		},
		{
			"bufferView":26,
			"componentType":5123,
			"count":960,
			"type":"SCALAR"
		},
		{
			"bufferView":27,
			"componentType":5126,
			"count":80,
			"max":[
				1.3608729839324951,
				-3.8714239597320557,
				1.415406346321106
			],
			"min":[
				0.39082375168800354,
				-4.471525192260742,
				-5.432052135467529
			],
			"type":"VEC3"
		},
		{
			"bufferView":28,
			"componentType":5126,
			"count":80,
			"type":"VEC3"
		},
		{
			"bufferView":29,
			"componentType":5123,
			"count":120,
			"type":"SCALAR"
		}
	],
	"bufferViews":[
		{
			"buffer":0,
			"byteLength":768,
			"byteOffset":0,
			"target":34962
		},
		{
			"buffer":0,
			"byteLength":768,
			"byteOffset":768,
			"target":34962
		},
		{
			"buffer":0,
			"byteLength":192,
			"byteOffset":1536,
			"target":34963
		},
		{
			"buffer":0,
			"byteLength":480,
			"byteOffset":1728,
			"target":34962
		},
		{
			"buffer":0,
			"byteLength":480,
			"byteOffset":2208,
			"target":34962
		},
		{
			"buffer":0,
			"byteLength":132,
			"byteOffset":2688,
			"target":34963
		},
		{
			"buffer":0,
			"byteLength":768,
			"byteOffset":2820,
			"target":34962
		},
		{
			"buffer":0,
			"byteLength":768,
			"byteOffset":3588,
			"target":34962
		},
		{
			"buffer":0,
			"byteLength":192,
			"byteOffset":4356,
			"target":34963
		},
		{
			"buffer":0,
			"byteLength":2160,
			"byteOffset":4548,
			"target":34962
		},
		{
			"buffer":0,
			"byteLength":2160,
			"byteOffset":6708,
			"target":34962
		},
		{
			"buffer":0,
			"byteLength":540,
			"byteOffset":8868,
			"target":34963
		},
		{
			"buffer":0,
			"byteLength":1200,
			"byteOffset":9408,
			"target":34962
		},
		{
			"buffer":0,
			"byteLength":1200,
			"byteOffset":10608,
			"target":34962
		},
		{
			"buffer":0,
			"byteLength":300,
			"byteOffset":11808,
			"target":34963
		},
		{
			"buffer":0,
			"byteLength":4200,
			"byteOffset":12108,
			"target":34962
		},
		{
			"buffer":0,
			"byteLength":4200,
			"byteOffset":16308,
			"target":34962
		},
		{
			"buffer":0,
			"byteLength":1056,
			"byteOffset":20508,
			"target":34963
		},
		{
			"buffer":0,
			"byteLength":192,
			"byteOffset":21564,
			"target":34962
		},
		{
			"buffer":0,
			"byteLength":192,
			"byteOffset":21756,
			"target":34962
		},
		{
			"buffer":0,
			"byteLength":48,
			"byteOffset":21948,
			"target":34963
		},
		{
			"buffer":0,
			"byteLength":1728,
			"byteOffset":21996,
			"target":34962
		},
		{
			"buffer":0,
			"byteLength":1728,
			"byteOffset":23724,
			"target":34962
		},
		{
			"buffer":0,
			"byteLength":432,
			"byteOffset":25452,
			"target":34963
		},
		{
			"buffer":0,
			"byteLength":7680,
			"byteOffset":25884,
			"target":34962
		},
		{
			"buffer":0,
			"byteLength":7680,
			"byteOffset":33564,
			"target":34962
		},
		{
			"buffer":0,
			"byteLength":1920,
			"byteOffset":41244,
			"target":34963
		},
		{
			"buffer":0,
			"byteLength":960,
			"byteOffset":43164,
			"target":34962
		},
		{
			"buffer":0,
			"byteLength":960,
			"byteOffset":44124,
			"target":34962
		},
		{
			"buffer":0,
			"byteLength":240,
			"byteOffset":45084,
			"target":34963
		}
	],
	"buffers":[
		{
			"byteLength":45324,
			"uri":"model.bin"
		}
	]
}
