# by drummyfish, released under CC0 1.0, public domain 
v 1.774885 -3.052960 -2.110211
v -1.774884 -3.052960 -2.110211
v -2.242638 1.653401 -1.631393
v 2.242638 1.653401 -1.631393
v -2.242638 6.952113 -1.631393
v 2.242638 6.952113 -1.631393
v -1.774884 1.202105 -2.110211
v 1.774885 1.202105 -2.110211
v -2.242638 1.202105 -1.631393
v 2.242638 1.202105 -1.631393
v 2.242638 -3.052960 -2.110211
v -2.242638 -3.052960 -2.110211
v -2.242638 6.952113 -2.149057
v 2.242638 6.952113 -2.149057
v -2.242638 -3.052960 -1.631393
v 2.242638 -3.052960 -1.631393
v -1.774884 1.202105 -1.631393
v 1.774885 1.202105 -1.631393
v -1.774884 -3.052960 -1.631393
v 1.774885 -3.052960 -1.631393
v 1.774885 1.202105 2.044134
v 1.774885 -3.052960 2.044134
v -1.774884 1.202105 2.044134
v -1.774884 -3.052960 2.044134
v -2.242638 1.202105 2.044134
v -2.242638 -3.052960 2.044134
v 2.242638 1.202105 2.044134
v 2.242638 -3.052960 2.044134
v 1.774885 1.202105 2.522879
v 1.774885 -3.052960 2.522879
v -1.774884 1.202105 2.522879
v -1.774884 -3.052960 2.522879
v -2.242638 1.653401 2.522879
v -2.242638 -3.052960 2.522879
v 2.242638 1.653401 2.522879
v 2.242638 -3.052960 2.522879
vn 0.0000 -1.0000 0.0000
vn 0.0000 0.0000 1.0000
vn 0.0000 1.0000 0.0000
vn 0.0221 -0.0048 -0.9997
vn 0.0000 0.0000 -1.0000
vn 0.0025 -0.0003 -1.0000
vn -0.0018 -0.0066 -1.0000
vn -0.0221 -0.0048 -0.9997
vn 0.0018 -0.0066 -1.0000
vn -0.0025 -0.0003 -1.0000
vn 1.0000 0.0000 0.0000
vn -1.0000 0.0000 0.0000
s 1
f 20//1 1//1 11//1
f 16//1 20//1 11//1
s 2
f 3//2 4//2 6//2
f 6//2 5//2 3//2
s 3
f 33//3 4//3 3//3
f 33//3 35//3 4//3
s 4
f 7//4 2//5 12//6
f 14//7 8//8 13//9
f 7//4 13//9 8//8
f 8//8 11//10 1//5
f 8//8 14//7 11//10
f 7//4 12//6 13//9
s 5
f 24//11 23//11 31//11
f 24//11 31//11 32//11
s 6
f 2//11 7//11 19//11
f 7//11 17//11 19//11
s 7
f 6//3 14//3 5//3
f 14//3 13//3 5//3
s 8
f 12//1 2//1 15//1
f 2//1 19//1 15//1
s 9
f 27//1 21//1 18//1
f 10//1 27//1 18//1
f 17//1 25//1 9//1
f 25//1 17//1 23//1
f 31//1 23//1 29//1
f 29//1 23//1 21//1
f 7//1 8//1 17//1
f 8//1 18//1 17//1
f 18//1 21//1 17//1
f 23//1 17//1 21//1
s 10
f 29//2 30//2 36//2
f 36//2 35//2 29//2
f 33//2 31//2 35//2
f 29//2 35//2 31//2
f 34//2 31//2 33//2
f 32//2 31//2 34//2
s 11
f 35//11 36//11 27//11
f 27//11 36//11 28//11
f 35//11 27//11 4//11
f 27//11 10//11 4//11
f 16//11 11//11 10//11
f 10//11 11//11 4//11
f 11//11 14//11 4//11
f 4//11 14//11 6//11
s 12
f 24//5 26//5 25//5
f 24//5 25//5 23//5
s 13
f 21//5 27//5 22//5
f 28//5 22//5 27//5
s 14
f 9//12 25//12 3//12
f 3//12 25//12 33//12
f 15//12 9//12 12//12
f 9//12 3//12 12//12
f 12//12 3//12 13//12
f 3//12 5//12 13//12
f 33//12 25//12 34//12
f 26//12 34//12 25//12
s 15
f 1//12 20//12 8//12
f 8//12 20//12 18//12
s 16
f 21//12 22//12 29//12
f 30//12 29//12 22//12
s 17
f 19//2 9//2 15//2
f 19//2 17//2 9//2
s 18
f 36//1 30//1 28//1
f 22//1 28//1 30//1
s 19
f 34//1 24//1 32//1
f 34//1 26//1 24//1
s 20
f 18//2 20//2 10//2
f 16//2 10//2 20//2
