# by drummyfish, released under CC0 1.0, public domain 
v -0.000331 0.056860 -0.133327
v -0.131624 0.056860 -0.057525
v -0.131624 0.056860 0.094079
v -0.000331 0.056860 0.169880
v 0.130962 0.056860 0.094078
v 0.130962 0.056860 -0.057525
v -0.000331 0.143062 -0.100355
v -0.066866 0.128182 -0.058483
v -0.079078 0.128182 0.057772
v -0.000331 0.128182 0.100442
v 0.078415 0.128182 0.057772
v 0.066203 0.128182 -0.058483
v -0.000331 0.000357 -0.133327
v -0.131624 0.000357 -0.057525
v -0.131624 0.000357 0.094079
v -0.000331 0.000357 0.169880
v 0.130962 0.000357 0.094078
v 0.130962 0.000357 -0.057525
v 0.046254 0.433268 0.121091
v 0.036085 0.438737 -0.069614
v 0.034509 0.304818 -0.125555
v 0.047806 0.365559 -0.174189
v 0.030966 0.315367 0.004539
v 0.053262 0.319656 0.151430
v 0.037127 0.504996 -0.006188
v 0.030739 0.345285 -0.010584
v -0.045509 0.433268 0.121091
v -0.035339 0.438737 -0.069614
v -0.033763 0.304818 -0.125555
v -0.047060 0.365559 -0.174189
v -0.030221 0.315367 0.004539
v -0.052517 0.319656 0.151430
v -0.036382 0.504996 -0.006188
v -0.029994 0.345285 -0.010584
vn 0.0000 0.3573 -0.9340
vn 0.0000 0.4075 -0.9132
vn -0.6605 0.5186 -0.5429
vn 0.6356 0.6707 0.3824
vn 0.0000 0.6890 0.7248
vn -0.0000 0.6976 0.7165
vn -0.6301 0.6876 0.3610
vn -0.7017 0.6328 -0.3273
vn 0.7135 0.6039 -0.3552
vn 0.6422 0.6834 0.3472
vn 0.6408 0.5270 -0.5582
vn -0.6776 0.6621 0.3201
vn -0.8660 0.0000 -0.5000
vn -0.8660 0.0000 0.5000
vn 0.8660 0.0000 0.5000
vn 0.8660 0.0000 -0.5000
vn -0.0000 0.0000 1.0000
vn 0.0000 0.0000 -1.0000
vn 0.0000 0.8193 -0.5733
vn 0.0000 0.7607 -0.6491
vn 0.0000 0.9917 -0.1287
vn 0.9534 -0.0031 0.3018
vn 0.6908 0.0424 0.7218
vn -0.0011 -0.3634 0.9316
vn 0.9708 0.2171 -0.1020
vn 0.9877 0.0924 -0.1258
vn 0.0000 0.5995 0.8003
vn -0.6899 0.0444 0.7226
vn -0.9826 -0.0813 0.1671
vn -0.9918 -0.0589 0.1131
vn -0.9975 -0.0446 0.0552
vn -0.9874 0.0958 -0.1258
vn -0.9929 -0.0115 -0.1184
vn -0.9983 -0.0387 -0.0447
vn -0.9987 -0.0361 -0.0370
vn -0.9535 0.0042 0.3013
vn 0.9826 -0.0813 0.1671
vn 0.9975 -0.0446 0.0552
vn 0.9918 -0.0589 0.1131
vn 0.9987 -0.0361 -0.0370
vn 0.9983 -0.0387 -0.0447
vn 0.9929 -0.0115 -0.1184
vn -0.9692 0.2240 -0.1018
vn 0.0000 -1.0000 0.0000
vn -0.5532 0.3611 -0.7507
vn -0.1245 0.5001 -0.8570
vn -0.0011 0.4421 -0.8969
vn 0.1250 0.4993 -0.8574
vn 0.5534 0.3575 -0.7523
vn 0.0000 -0.6250 -0.7806
vn 0.0000 -0.9433 0.3320
vn 0.0000 -0.4511 -0.8925
s 1
f 7//1 1//2 8//3
f 5//4 10//5 4//6
f 3//7 8//3 2//8
f 6//9 11//10 5//4
f 10//5 3//7 4//6
f 6//9 1//2 12//11
f 1//2 2//8 8//3
f 5//4 11//10 10//5
f 3//7 9//12 8//3
f 6//9 12//11 11//10
f 10//5 9//12 3//7
f 12//11 1//2 7//1
s 2
f 2//13 15//14 3//14
f 5//15 18//16 6//16
f 3//14 16//17 4//17
f 1//18 14//13 2//13
f 6//16 13//18 1//18
f 4//17 17//15 5//15
f 2//13 14//13 15//14
f 5//15 17//15 18//16
f 3//14 15//14 16//17
f 1//18 13//18 14//13
f 6//16 18//16 13//18
f 4//17 16//17 17//15
s 3
f 22//19 28//20 20//20
f 28//20 33//21 20//20
f 25//21 20//20 33//21
f 11//22 24//23 10//24
f 11//22 12//25 23//26
f 27//27 25//21 33//21
f 19//27 25//21 27//27
f 27//27 32//28 19//27
f 30//29 29//30 28//31
f 31//32 32//28 27//33
f 33//34 28//31 34//35
f 34//35 28//31 29//30
f 27//33 34//35 31//32
f 27//33 33//34 34//35
f 32//28 31//32 9//36
f 24//23 19//27 32//28
f 22//37 20//38 21//39
f 21//39 20//38 26//40
f 20//38 25//41 26//40
f 19//42 26//40 25//41
f 26//40 19//42 23//26
f 11//22 23//26 24//23
f 24//23 32//28 10//24
f 9//36 10//24 32//28
f 9//36 31//32 8//43
f 24//23 23//26 19//42
f 30//19 28//20 22//19
s 4
f 15//44 14//44 16//44
f 13//44 16//44 14//44
f 16//44 13//44 17//44
f 18//44 17//44 13//44
s 5
f 8//45 31//46 7//47
f 7//47 31//46 23//48
f 12//49 7//47 23//48
s 6
f 22//50 21//50 30//50
f 21//50 29//50 30//50
s 7
f 21//51 26//51 29//51
f 26//51 34//51 29//51
s 8
f 26//52 23//52 34//52
f 23//52 31//52 34//52
