# by drummyfish, released under CC0 1.0, public domain 
v -0.000430 0.057223 -0.149843
v -0.130198 0.057223 -0.074922
v -0.130198 0.057223 0.074920
v -0.000430 0.057223 0.149842
v 0.129337 0.057223 0.074920
v 0.129337 0.057223 -0.074922
v -0.000430 0.155222 -0.069269
v -0.060418 0.155222 -0.034635
v -0.060418 0.155222 0.034633
v -0.000430 0.155222 0.069267
v 0.059557 0.155222 0.034633
v 0.059557 0.155222 -0.034635
v -0.000308 0.211321 -0.059598
v -0.051920 0.211321 -0.029799
v -0.051920 0.211321 0.029798
v -0.000308 0.211321 0.059596
v 0.051304 0.211321 0.029798
v 0.051304 0.211321 -0.029799
v 0.000738 0.283539 -0.116665
v -0.100296 0.283539 -0.058333
v -0.100296 0.283539 0.058331
v 0.000738 0.283539 0.116664
v 0.101773 0.283539 0.058331
v 0.101773 0.283539 -0.058333
v 0.000738 0.355883 -0.091004
v -0.078073 0.355883 -0.045502
v -0.078073 0.355883 0.045501
v 0.000738 0.355883 0.091002
v 0.079549 0.355883 0.045501
v 0.079549 0.355883 -0.045502
v -0.000430 0.001375 -0.149843
v -0.130198 0.001375 -0.074922
v -0.130198 0.001375 0.074920
v -0.000430 0.001375 0.149842
v 0.129337 0.001375 0.074920
v 0.129337 0.001375 -0.074922
v 0.000738 0.395979 -0.000001
vn -0.0000 0.6351 -0.7724
vn -0.6689 0.6351 -0.3862
vn 0.6689 0.6351 0.3862
vn 0.0000 0.6351 0.7724
vn -0.6689 0.6351 0.3862
vn 0.6689 0.6351 -0.3862
vn -0.8533 0.1717 0.4923
vn -0.8530 0.1717 -0.4929
vn -0.8533 0.1717 -0.4923
vn 0.8535 0.1681 -0.4932
vn 0.8539 0.1681 0.4926
vn 0.8535 0.1681 0.4932
vn -0.0006 0.1699 0.9855
vn 0.0007 0.1699 0.9855
vn 0.0007 0.1699 -0.9855
vn -0.0006 0.1699 -0.9855
vn 0.8539 0.1681 -0.4926
vn -0.8530 0.1717 0.4929
vn 0.8570 -0.1461 0.4941
vn 0.6744 -0.6260 -0.3916
vn 0.8570 -0.1461 -0.4941
vn 0.6744 -0.6260 0.3916
vn 0.0012 -0.1429 0.9897
vn -0.0040 -0.6200 0.7846
vn 0.0012 -0.1429 -0.9897
vn -0.0040 -0.6200 -0.7846
vn -0.6847 -0.6139 -0.3929
vn -0.8572 -0.1396 -0.4956
vn -0.8572 -0.1396 0.4956
vn -0.6847 -0.6139 0.3929
vn 0.6778 0.6225 0.3913
vn -0.6778 0.6225 0.3913
vn 0.6778 0.6225 -0.3913
vn 0.0000 0.6225 -0.7826
vn 0.0000 0.6225 0.7826
vn -0.6778 0.6225 -0.3913
vn 0.0000 1.0000 0.0000
vn -0.8660 0.0000 -0.5000
vn -0.8660 0.0000 0.5000
vn 0.8660 0.0000 0.5000
vn 0.8660 0.0000 -0.5000
vn 0.0000 0.0000 1.0000
vn 0.0000 0.0000 -1.0000
vn 0.0000 -1.0000 0.0000
s 1
f 1//1 2//2 7//1
f 5//3 10//4 4//4
f 3//5 8//2 2//2
f 6//6 11//3 5//3
f 10//4 3//5 4//4
f 6//6 1//1 12//6
f 8//2 7//1 2//2
f 5//3 11//3 10//4
f 3//5 9//5 8//2
f 6//6 12//6 11//3
f 10//4 9//5 3//5
f 12//6 1//1 7//1
s 2
f 9//7 14//8 8//9
f 12//10 17//11 11//12
f 10//13 11//12 16//14
f 8//9 13//15 7//16
f 7//16 18//17 12//10
f 9//7 10//13 15//18
f 9//7 15//18 14//8
f 12//10 18//17 17//11
f 16//14 11//12 17//11
f 8//9 14//8 13//15
f 7//16 13//15 18//17
f 16//14 15//18 10//13
s 3
f 23//19 18//20 24//21
f 17//22 22//23 16//24
f 19//25 24//21 13//26
f 19//25 14//27 20//28
f 16//24 21//29 15//30
f 21//29 20//28 15//30
f 24//21 29//31 23//19
f 22//23 27//32 21//29
f 30//33 19//25 25//34
f 23//19 28//35 22//23
f 21//29 26//36 20//28
f 28//35 37//37 27//32
f 26//36 27//32 37//37
f 25//34 26//36 37//37
f 30//33 25//34 37//37
f 29//31 30//33 37//37
f 28//35 29//31 37//37
f 18//20 23//19 17//22
f 17//22 23//19 22//23
f 13//26 24//21 18//20
f 14//27 19//25 13//26
f 16//24 22//23 21//29
f 15//30 20//28 14//27
f 24//21 30//33 29//31
f 22//23 28//35 27//32
f 24//21 19//25 30//33
f 23//19 29//31 28//35
f 21//29 27//32 26//36
f 19//25 20//28 25//34
f 26//36 25//34 20//28
s 4
f 2//38 33//39 3//39
f 5//40 36//41 6//41
f 3//39 34//42 4//42
f 1//43 32//38 2//38
f 6//41 31//43 1//43
f 4//42 35//40 5//40
f 2//38 32//38 33//39
f 5//40 35//40 36//41
f 3//39 33//39 34//42
f 1//43 31//43 32//38
f 6//41 36//41 31//43
f 4//42 34//42 35//40
s 5
f 33//44 32//44 34//44
f 31//44 34//44 32//44
f 34//44 31//44 35//44
f 36//44 35//44 31//44
