# by drummyfish, released under CC0 1.0, public domain 
v -0.000001 0.052749 -0.145599
v -0.126096 0.052749 -0.072798
v -0.126096 0.052749 0.072804
v -0.000001 0.052749 0.145605
v 0.126094 0.052749 0.072804
v 0.126094 0.052749 -0.072798
v -0.000001 0.102374 -0.102194
v -0.088506 0.102374 -0.051096
v -0.088506 0.102374 0.051101
v -0.000001 0.102374 0.102200
v 0.088504 0.102374 0.051101
v 0.088504 0.102374 -0.051096
v -0.035290 0.493044 0.061128
v -0.070580 0.493044 0.000004
v -0.070580 0.551701 0.000004
v -0.035290 0.551701 0.061128
v 0.035290 0.551701 0.061128
v 0.070580 0.551701 0.000004
v 0.035290 0.551701 -0.061120
v -0.035290 0.551701 -0.061120
v -0.053625 0.537715 -0.092877
v 0.053625 0.537715 -0.092877
v 0.107250 0.537715 0.000004
v 0.053625 0.537715 0.092884
v -0.053625 0.537715 0.092884
v -0.107249 0.537715 0.000004
v -0.095005 0.422636 0.000004
v -0.047502 0.422636 0.082281
v 0.047503 0.422636 0.082280
v 0.095005 0.422636 0.000004
v -0.000001 -0.001518 -0.145599
v -0.126096 -0.001518 -0.072798
v -0.126096 -0.001518 0.072804
v -0.000001 -0.001518 0.145605
v 0.126094 -0.001518 0.072804
v 0.126094 -0.001518 -0.072798
v 0.047503 0.422636 -0.082273
v -0.047502 0.422636 -0.082273
v -0.029821 0.373164 -0.051648
v 0.029821 0.373164 -0.051648
v 0.059642 0.373164 0.000004
v 0.029821 0.373164 0.051655
v -0.029821 0.373164 0.051655
v -0.059642 0.373164 0.000004
v 0.035290 0.493044 0.061128
v 0.070580 0.493044 0.000004
v 0.035290 0.493044 -0.061120
v -0.035290 0.493044 -0.061120
v -0.051502 0.474028 0.089207
v 0.051502 0.474028 -0.089200
v 0.103004 0.474028 0.000004
v -0.103003 0.474028 0.000004
v -0.051502 0.474028 -0.089200
v 0.051502 0.474028 0.089207
v 0.000000 0.539304 0.000004
vn -0.0000 0.6584 -0.7527
vn -0.6519 0.6584 -0.3764
vn -0.0000 0.6584 0.7527
vn 0.6519 0.6584 0.3764
vn -0.6519 0.6584 0.3764
vn 0.6519 0.6584 -0.3764
vn -0.4856 0.8280 -0.2804
vn -0.8660 0.0000 0.5000
vn 0.8660 0.0000 0.5000
vn 0.6572 -0.1210 0.7440
vn -0.6572 -0.1210 0.7440
vn -0.4941 -0.1538 0.8557
vn -0.9881 -0.1538 -0.0000
vn -0.8646 -0.0576 0.4992
vn -0.9729 -0.1210 0.1972
vn -0.3157 -0.1210 -0.9411
vn 0.4941 -0.1538 -0.8557
vn -0.4941 -0.1538 -0.8557
vn 0.4941 -0.1538 0.8557
vn 0.9881 -0.1538 -0.0000
vn 0.9729 -0.1210 0.1972
vn 0.3157 -0.1210 -0.9411
vn 0.0000 -0.0576 -0.9983
vn 0.8646 -0.0576 0.4992
vn 0.0000 0.8280 0.5607
vn 0.4856 0.8280 -0.2804
vn 0.0000 0.9152 -0.4030
vn 0.3490 0.9152 0.2015
vn -0.8660 0.0000 -0.5000
vn 0.8660 0.0000 -0.5000
vn 0.0000 0.0000 1.0000
vn 0.0000 0.0000 -1.0000
vn 0.9803 0.1975 0.0000
vn 0.8590 0.1272 -0.4959
vn 0.4902 0.1975 -0.8490
vn -0.4901 0.1975 0.8490
vn -0.9803 0.1975 0.0000
vn -0.8590 0.1272 0.4959
vn -0.8590 0.1272 -0.4959
vn -0.4901 0.1975 -0.8490
vn -0.0000 0.1272 -0.9919
vn 0.4902 0.1975 0.8490
vn 0.8590 0.1272 0.4959
vn -0.0000 0.1272 0.9919
vn 0.0000 -1.0000 0.0000
vn 0.2741 0.8364 -0.4747
vn 0.0000 1.0000 0.0000
vn 0.5482 0.8364 -0.0000
vn 0.2741 0.8364 0.4747
vn -0.2741 0.8364 0.4747
vn -0.5482 0.8364 0.0000
vn -0.2741 0.8364 -0.4747
vn -0.3490 0.9152 0.2015
vn 0.4068 -0.5815 0.7045
vn 0.8135 -0.5815 -0.0000
vn 0.4068 -0.5815 -0.7045
vn -0.4068 -0.5815 -0.7045
vn -0.8135 -0.5815 0.0000
vn -0.4068 -0.5815 0.7045
s 1
f 1//1 2//2 7//1
f 4//3 5//4 10//3
f 3//5 8//2 2//2
f 6//6 11//4 5//4
f 3//5 4//3 9//5
f 6//6 1//1 12//6
f 8//2 7//1 2//2
f 10//3 5//4 11//4
f 3//5 9//5 8//2
f 6//6 12//6 11//4
f 10//3 9//5 4//3
f 12//6 1//1 7//1
s 2
f 52//7 14//7 53//7
f 14//7 48//7 53//7
s 3
f 48//8 20//8 53//8
f 20//8 21//8 53//8
s 4
f 49//9 13//9 16//9
f 16//9 25//9 49//9
s 5
f 54//10 49//11 28//12
f 27//13 28//12 49//11
f 26//14 52//15 25//14
f 49//11 25//14 52//15
f 53//16 37//17 38//18
f 52//15 53//16 38//18
f 52//15 38//18 27//13
f 29//19 30//20 51//21
f 28//12 29//19 54//10
f 54//10 29//19 51//21
f 51//21 30//20 50//22
f 27//13 49//11 52//15
f 37//17 53//16 50//22
f 22//23 50//22 21//23
f 53//16 21//23 50//22
f 23//24 24//24 54//10
f 51//21 23//24 54//10
f 37//17 50//22 30//20
s 6
f 47//9 50//9 19//9
f 19//9 50//9 22//9
s 7
f 49//25 54//25 45//25
f 45//25 13//25 49//25
s 8
f 54//8 24//8 17//8
f 17//8 45//8 54//8
s 9
f 47//26 46//26 51//26
f 47//26 51//26 50//26
s 10
f 20//27 22//27 21//27
f 19//27 22//27 20//27
s 11
f 17//28 24//28 18//28
f 18//28 24//28 23//28
s 12
f 2//29 33//8 3//8
f 5//9 36//30 6//30
f 3//8 34//31 4//31
f 1//32 32//29 2//29
f 6//30 31//32 1//32
f 4//31 35//9 5//9
f 2//29 32//29 33//8
f 5//9 35//9 36//30
f 3//8 33//8 34//31
f 1//32 31//32 32//29
f 6//30 36//30 31//32
f 4//31 34//31 35//9
s 13
f 41//33 12//34 40//35
f 43//36 44//37 9//38
f 9//38 44//37 8//39
f 44//37 39//40 8//39
f 8//39 39//40 7//41
f 39//40 40//35 7//41
f 7//41 40//35 12//34
f 42//42 11//43 41//33
f 9//38 10//44 43//36
f 10//44 42//42 43//36
f 10//44 11//43 42//42
f 11//43 12//34 41//33
s 14
f 33//45 32//45 34//45
f 31//45 34//45 32//45
f 34//45 31//45 35//45
f 36//45 35//45 31//45
s 15
f 15//32 52//32 26//32
f 52//32 15//32 14//32
s 16
f 51//32 18//32 23//32
f 18//32 51//32 46//32
s 17
f 47//46 55//47 46//48
f 45//49 46//48 55//47
f 45//49 55//47 13//50
f 14//51 13//50 55//47
f 14//51 55//47 48//52
f 47//46 48//52 55//47
s 18
f 16//53 26//53 25//53
f 15//53 26//53 16//53
s 19
f 48//31 19//31 20//31
f 47//31 19//31 48//31
s 20
f 13//30 15//30 16//30
f 14//30 15//30 13//30
s 21
f 46//29 17//29 18//29
f 45//29 17//29 46//29
s 22
f 42//54 41//55 30//55
f 29//54 42//54 30//55
f 30//55 41//55 37//56
f 40//56 37//56 41//55
f 37//56 40//56 38//57
f 38//57 40//56 39//57
f 38//57 39//57 27//58
f 44//58 27//58 39//57
f 27//58 44//58 28//59
f 28//59 44//58 43//59
f 28//59 43//59 29//54
f 29//54 43//59 42//54
