{
	"asset":{
		"generator":"Khronos glTF Blender I/O v5.0.21",
		"version":"2.0"
	},
	"scene":0,
	"scenes":[
		{
			"name":"Scene",
			"nodes":[
				0
			]
		}
	],
	"nodes":[
		{
			"mesh":0,
			"name":"ClassicalGuitar",
			"translation":[
				0.21858590841293335,
				4.812353134155273,
				0.24349752068519592
			]
		}
	],
	"materials":[
		{
			"doubleSided":true,
			"name":"Material",
			"pbrMetallicRoughness":{
				"baseColorFactor":[
					0.5274454355239868,
					0.22066529095172882,
					0.017983054742217064,
					1
				],
				"metallicFactor":0
			}
		},
		{
			"doubleSided":true,
			"name":"Material.011",
			"pbrMetallicRoughness":{
				"baseColorFactor":[
					0.1651313155889511,
					0.03310481458902359,
					0,
					1
				],
				"metallicFactor":0
			}
		},
		{
			"doubleSided":true,
			"name":"Material.012",
			"pbrMetallicRoughness":{
				"baseColorFactor":[
					1,
					0.41132527589797974,
					0.03624068200588226,
					1
				],
				"metallicFactor":0
			}
		},
		{
			"doubleSided":true,
			"name":"Material.001",
			"pbrMetallicRoughness":{
				"baseColorFactor":[
					0.09202483296394348,
					0.019925421103835106,
					0,
					1
				],
				"metallicFactor":0
			}
		},
		{
			"doubleSided":true,
			"name":"Material.003",
			"pbrMetallicRoughness":{
				"baseColorFactor":[
					0.4336879253387451,
					0.4336879253387451,
					0.4336879253387451,
					1
				],
				"metallicFactor":0
			}
		},
		{
			"doubleSided":true,
			"name":"Material.005",
			"pbrMetallicRoughness":{
				"baseColorFactor":[
					0.0956459641456604,
					0.0956459641456604,
					0.0956459641456604,
					1
				],
				"metallicFactor":0
			}
		},
		{
			"doubleSided":true,
			"name":"Material.006",
			"pbrMetallicRoughness":{
				"baseColorFactor":[
					0.800000011920929,
					0.800000011920929,
					0.800000011920929,
					1
				],
				"metallicFactor":0
			}
		},
		{
			"doubleSided":true,
			"name":"Material.007",
			"pbrMetallicRoughness":{
				"baseColorFactor":[
					0.01860329695045948,
					0.01860329695045948,
					0.01860329695045948,
					1
				],
				"metallicFactor":0
			}
		},
		{
			"doubleSided":true,
			"name":"Material.004",
			"pbrMetallicRoughness":{
				"baseColorFactor":[
					0,
					0,
					0,
					1
				],
				"metallicFactor":0
			}
		},
		{
			"doubleSided":true,
			"name":"Material.009",
			"pbrMetallicRoughness":{
				"metallicFactor":0
			}
		}
	],
	"meshes":[
		{
			"name":"Cube",
			"primitives":[
				{
					"attributes":{
						"POSITION":0,
						"NORMAL":1,
						"TEXCOORD_0":2
					},
					"indices":3,
					"material":0
				},
				{
					"attributes":{
						"POSITION":4,
						"NORMAL":5,
						"TEXCOORD_0":6
					},
					"indices":7,
					"material":1
				},
				{
					"attributes":{
						"POSITION":8,
						"NORMAL":9,
						"TEXCOORD_0":10
					},
					"indices":11,
					"material":2
				},
				{
					"attributes":{
						"POSITION":12,
						"NORMAL":13,
						"TEXCOORD_0":14
					},
					"indices":15,
					"material":3
				},
				{
					"attributes":{
						"POSITION":16,
						"NORMAL":17,
						"TEXCOORD_0":18
					},
					"indices":19,
					"material":4
				},
				{
					"attributes":{
						"POSITION":20,
						"NORMAL":21,
						"TEXCOORD_0":22
					},
					"indices":23,
					"material":5
				},
				{
					"attributes":{
						"POSITION":24,
						"NORMAL":25,
						"TEXCOORD_0":26
					},
					"indices":27,
					"material":6
				},
				{
					"attributes":{
						"POSITION":28,
						"NORMAL":29,
						"TEXCOORD_0":30
					},
					"indices":31,
					"material":7
				},
				{
					"attributes":{
						"POSITION":32,
						"NORMAL":33,
						"TEXCOORD_0":34
					},
					"indices":35,
					"material":8
				},
				{
					"attributes":{
						"POSITION":36,
						"NORMAL":37,
						"TEXCOORD_0":38
					},
					"indices":39,
					"material":9
				}
			]
		}
	],
	"accessors":[
		{
			"bufferView":0,
			"componentType":5126,
			"count":194,
			"max":[
				0.26684078574180603,
				-2.114482879638672,
				2.372448205947876
			],
			"min":[
				0.23916590213775635,
				-8.00597858428955,
				-2.223485231399536
			],
			"type":"VEC3"
		},
		{
			"bufferView":1,
			"componentType":5126,
			"count":194,
			"type":"VEC3"
		},
		{
			"bufferView":2,
			"componentType":5126,
			"count":194,
			"type":"VEC2"
		},
		{
			"bufferView":3,
			"componentType":5123,
			"count":582,
			"type":"SCALAR"
		},
		{
			"bufferView":4,
			"componentType":5126,
			"count":461,
			"max":[
				0.26684078574180603,
				-2.042823314666748,
				2.417262077331543
			],
			"min":[
				-0.9429898858070374,
				-8.077635765075684,
				-2.268550157546997
			],
			"type":"VEC3"
		},
		{
			"bufferView":5,
			"componentType":5126,
			"count":461,
			"type":"VEC3"
		},
		{
			"bufferView":6,
			"componentType":5126,
			"count":461,
			"type":"VEC2"
		},
		{
			"bufferView":7,
			"componentType":5123,
			"count":1548,
			"type":"SCALAR"
		},
		{
			"bufferView":8,
			"componentType":5126,
			"count":706,
			"max":[
				0.26684078574180603,
				-2.042823314666748,
				2.417262077331543
			],
			"min":[
				0.24089926481246948,
				-8.077635765075684,
				-2.268550157546997
			],
			"type":"VEC3"
		},
		{
			"bufferView":9,
			"componentType":5126,
			"count":706,
			"type":"VEC3"
		},
		{
			"bufferView":10,
			"componentType":5126,
			"count":706,
			"type":"VEC2"
		},
		{
			"bufferView":11,
			"componentType":5123,
			"count":1350,
			"type":"SCALAR"
		},
		{
			"bufferView":12,
			"componentType":5126,
			"count":555,
			"max":[
				0.3058493137359619,
				3.430791139602661,
				0.4283026158809662
			],
			"min":[
				-0.8949520587921143,
				-3.6905617713928223,
				-0.31575676798820496
			],
			"type":"VEC3"
		},
		{
			"bufferView":13,
			"componentType":5126,
			"count":555,
			"type":"VEC3"
		},
		{
			"bufferView":14,
			"componentType":5126,
			"count":555,
			"type":"VEC2"
		},
		{
			"bufferView":15,
			"componentType":5123,
			"count":1857,
			"type":"SCALAR"
		},
		{
			"bufferView":16,
			"componentType":5126,
			"count":583,
			"max":[
				0.3732015788555145,
				3.2589669227600098,
				0.44473057985305786
			],
			"min":[
				-0.20503206551074982,
				-6.138243198394775,
				-0.3277266323566437
			],
			"type":"VEC3"
		},
		{
			"bufferView":17,
			"componentType":5126,
			"count":583,
			"type":"VEC3"
		},
		{
			"bufferView":18,
			"componentType":5126,
			"count":583,
			"type":"VEC2"
		},
		{
			"bufferView":19,
			"componentType":5123,
			"count":1578,
			"type":"SCALAR"
		},
		{
			"bufferView":20,
			"componentType":5126,
			"count":1446,
			"max":[
				0.3239530920982361,
				3.127922534942627,
				0.4417177438735962
			],
			"min":[
				-0.24226802587509155,
				-3.2871806621551514,
				-0.3398216664791107
			],
			"type":"VEC3"
		},
		{
			"bufferView":21,
			"componentType":5126,
			"count":1446,
			"type":"VEC3"
		},
		{
			"bufferView":22,
			"componentType":5126,
			"count":1446,
			"type":"VEC2"
		},
		{
			"bufferView":23,
			"componentType":5123,
			"count":3426,
			"type":"SCALAR"
		},
		{
			"bufferView":24,
			"componentType":5126,
			"count":296,
			"max":[
				-0.02852998673915863,
				3.195721387863159,
				0.4457054138183594
			],
			"min":[
				-0.35817086696624756,
				2.2285473346710205,
				-0.3438092768192291
			],
			"type":"VEC3"
		},
		{
			"bufferView":25,
			"componentType":5126,
			"count":296,
			"type":"VEC3"
		},
		{
			"bufferView":26,
			"componentType":5126,
			"count":296,
			"type":"VEC2"
		},
		{
			"bufferView":27,
			"componentType":5123,
			"count":786,
			"type":"SCALAR"
		},
		{
			"bufferView":28,
			"componentType":5126,
			"count":14,
			"max":[
				0.35392066836357117,
				-6.188238143920898,
				0.44473057985305786
			],
			"min":[
				0.26281896233558655,
				-6.293634414672852,
				-0.32772669196128845
			],
			"type":"VEC3"
		},
		{
			"bufferView":29,
			"componentType":5126,
			"count":14,
			"type":"VEC3"
		},
		{
			"bufferView":30,
			"componentType":5126,
			"count":14,
			"type":"VEC2"
		},
		{
			"bufferView":31,
			"componentType":5123,
			"count":36,
			"type":"SCALAR"
		},
		{
			"bufferView":32,
			"componentType":5126,
			"count":41,
			"max":[
				0.3267844319343567,
				-5.968723297119141,
				1.0981223583221436
			],
			"min":[
				0.253338485956192,
				-6.431056976318359,
				-0.9018764495849609
			],
			"type":"VEC3"
		},
		{
			"bufferView":33,
			"componentType":5126,
			"count":41,
			"type":"VEC3"
		},
		{
			"bufferView":34,
			"componentType":5126,
			"count":41,
			"type":"VEC2"
		},
		{
			"bufferView":35,
			"componentType":5123,
			"count":96,
			"type":"SCALAR"
		},
		{
			"bufferView":36,
			"componentType":5126,
			"count":1392,
			"max":[
				0.36531534790992737,
				3.0391042232513428,
				0.38906601071357727
			],
			"min":[
				-0.15283077955245972,
				-6.300723075866699,
				-0.2661401927471161
			],
			"type":"VEC3"
		},
		{
			"bufferView":37,
			"componentType":5126,
			"count":1392,
			"type":"VEC3"
		},
		{
			"bufferView":38,
			"componentType":5126,
			"count":1392,
			"type":"VEC2"
		},
		{
			"bufferView":39,
			"componentType":5123,
			"count":3528,
			"type":"SCALAR"
		}
	],
	"bufferViews":[
		{
			"buffer":0,
			"byteLength":2328,
			"byteOffset":0,
			"target":34962
		},
		{
			"buffer":0,
			"byteLength":2328,
			"byteOffset":2328,
			"target":34962
		},
		{
			"buffer":0,
			"byteLength":1552,
			"byteOffset":4656,
			"target":34962
		},
		{
			"buffer":0,
			"byteLength":1164,
			"byteOffset":6208,
			"target":34963
		},
		{
			"buffer":0,
			"byteLength":5532,
			"byteOffset":7372,
			"target":34962
		},
		{
			"buffer":0,
			"byteLength":5532,
			"byteOffset":12904,
			"target":34962
		},
		{
			"buffer":0,
			"byteLength":3688,
			"byteOffset":18436,
			"target":34962
		},
		{
			"buffer":0,
			"byteLength":3096,
			"byteOffset":22124,
			"target":34963
		},
		{
			"buffer":0,
			"byteLength":8472,
			"byteOffset":25220,
			"target":34962
		},
		{
			"buffer":0,
			"byteLength":8472,
			"byteOffset":33692,
			"target":34962
		},
		{
			"buffer":0,
			"byteLength":5648,
			"byteOffset":42164,
			"target":34962
		},
		{
			"buffer":0,
			"byteLength":2700,
			"byteOffset":47812,
			"target":34963
		},
		{
			"buffer":0,
			"byteLength":6660,
			"byteOffset":50512,
			"target":34962
		},
		{
			"buffer":0,
			"byteLength":6660,
			"byteOffset":57172,
			"target":34962
		},
		{
			"buffer":0,
			"byteLength":4440,
			"byteOffset":63832,
			"target":34962
		},
		{
			"buffer":0,
			"byteLength":3714,
			"byteOffset":68272,
			"target":34963
		},
		{
			"buffer":0,
			"byteLength":6996,
			"byteOffset":71988,
			"target":34962
		},
		{
			"buffer":0,
			"byteLength":6996,
			"byteOffset":78984,
			"target":34962
		},
		{
			"buffer":0,
			"byteLength":4664,
			"byteOffset":85980,
			"target":34962
		},
		{
			"buffer":0,
			"byteLength":3156,
			"byteOffset":90644,
			"target":34963
		},
		{
			"buffer":0,
			"byteLength":17352,
			"byteOffset":93800,
			"target":34962
		},
		{
			"buffer":0,
			"byteLength":17352,
			"byteOffset":111152,
			"target":34962
		},
		{
			"buffer":0,
			"byteLength":11568,
			"byteOffset":128504,
			"target":34962
		},
		{
			"buffer":0,
			"byteLength":6852,
			"byteOffset":140072,
			"target":34963
		},
		{
			"buffer":0,
			"byteLength":3552,
			"byteOffset":146924,
			"target":34962
		},
		{
			"buffer":0,
			"byteLength":3552,
			"byteOffset":150476,
			"target":34962
		},
		{
			"buffer":0,
			"byteLength":2368,
			"byteOffset":154028,
			"target":34962
		},
		{
			"buffer":0,
			"byteLength":1572,
			"byteOffset":156396,
			"target":34963
		},
		{
			"buffer":0,
			"byteLength":168,
			"byteOffset":157968,
			"target":34962
		},
		{
			"buffer":0,
			"byteLength":168,
			"byteOffset":158136,
			"target":34962
		},
		{
			"buffer":0,
			"byteLength":112,
			"byteOffset":158304,
			"target":34962
		},
		{
			"buffer":0,
			"byteLength":72,
			"byteOffset":158416,
			"target":34963
		},
		{
			"buffer":0,
			"byteLength":492,
			"byteOffset":158488,
			"target":34962
		},
		{
			"buffer":0,
			"byteLength":492,
			"byteOffset":158980,
			"target":34962
		},
		{
			"buffer":0,
			"byteLength":328,
			"byteOffset":159472,
			"target":34962
		},
		{
			"buffer":0,
			"byteLength":192,
			"byteOffset":159800,
			"target":34963
		},
		{
			"buffer":0,
			"byteLength":16704,
			"byteOffset":159992,
			"target":34962
		},
		{
			"buffer":0,
			"byteLength":16704,
			"byteOffset":176696,
			"target":34962
		},
		{
			"buffer":0,
			"byteLength":11136,
			"byteOffset":193400,
			"target":34962
		},
		{
			"buffer":0,
			"byteLength":7056,
			"byteOffset":204536,
			"target":34963
		}
	],
	"buffers":[
		{
			"byteLength":211592,
			"uri":"model.bin"
		}
	]
}
