{
	"asset":{
		"generator":"Khronos glTF Blender I/O v5.0.21",
		"version":"2.0"
	},
	"extensionsUsed":[
		"KHR_materials_specular",
		"KHR_materials_ior"
	],
	"scene":0,
	"scenes":[
		{
			"name":"Scene",
			"nodes":[
				0,
				1,
				2,
				3
			]
		}
	],
	"nodes":[
		{
			"mesh":0,
			"name":"corpo.015_Cube.006_Cube.000",
			"rotation":[
				0.70710688829422,
				0,
				0,
				0.7071066498756409
			]
		},
		{
			"mesh":1,
			"name":"NurbsPath.004",
			"rotation":[
				0.70710688829422,
				0,
				0,
				0.7071066498756409
			]
		},
		{
			"mesh":2,
			"name":"corpo.015_Cube.006_Cube.001",
			"rotation":[
				0.70710688829422,
				0,
				0,
				0.7071066498756409
			]
		},
		{
			"mesh":3,
			"name":"corpo.015_Cube.006_Cube.002",
			"rotation":[
				0.70710688829422,
				0,
				0,
				0.7071066498756409
			]
		}
	],
	"materials":[
		{
			"doubleSided":true,
			"extensions":{
				"KHR_materials_specular":{
					"specularColorFactor":[
						1.600000023841858,
						1.600000023841858,
						1.600000023841858
					]
				},
				"KHR_materials_ior":{
					"ior":1
				}
			},
			"name":"cabelo",
			"pbrMetallicRoughness":{
				"metallicFactor":0
			}
		},
		{
			"doubleSided":true,
			"extensions":{
				"KHR_materials_specular":{
					"specularColorFactor":[
						1.600000023841858,
						1.600000023841858,
						1.600000023841858
					]
				},
				"KHR_materials_ior":{
					"ior":1
				}
			},
			"name":"cabelo_cabelo",
			"pbrMetallicRoughness":{
				"metallicFactor":0
			}
		}
	],
	"meshes":[
		{
			"name":"corpo.015_Cube.006_Cube.000",
			"primitives":[
				{
					"attributes":{
						"POSITION":0,
						"NORMAL":1,
						"TEXCOORD_0":2
					},
					"indices":3,
					"material":0
				}
			]
		},
		{
			"name":"NurbsPath.004",
			"primitives":[
				{
					"attributes":{
						"POSITION":4,
						"NORMAL":5,
						"TEXCOORD_0":6
					},
					"indices":7,
					"material":1
				}
			]
		},
		{
			"name":"corpo.015_Cube.006_Cube.001",
			"primitives":[
				{
					"attributes":{
						"POSITION":8,
						"NORMAL":9,
						"TEXCOORD_0":10
					},
					"indices":11,
					"material":0
				}
			]
		},
		{
			"name":"corpo.015_Cube.006_Cube.002",
			"primitives":[
				{
					"attributes":{
						"POSITION":12,
						"NORMAL":13,
						"TEXCOORD_0":14
					},
					"indices":15,
					"material":0
				}
			]
		}
	],
	"accessors":[
		{
			"bufferView":0,
			"componentType":5126,
			"count":3857,
			"max":[
				0.9538310170173645,
				0.18465299904346466,
				-0.01054299995303154
			],
			"min":[
				-0.9465429782867432,
				-0.11574699729681015,
				-2.0518059730529785
			],
			"type":"VEC3"
		},
		{
			"bufferView":1,
			"componentType":5126,
			"count":3857,
			"type":"VEC3"
		},
		{
			"bufferView":2,
			"componentType":5126,
			"count":3857,
			"type":"VEC2"
		},
		{
			"bufferView":3,
			"componentType":5123,
			"count":21639,
			"type":"SCALAR"
		},
		{
			"bufferView":4,
			"componentType":5126,
			"count":2695,
			"max":[
				0.10601600259542465,
				0.14246611297130585,
				-1.7804973125457764
			],
			"min":[
				-0.10274100303649902,
				-0.0979389175772667,
				-2.0646650791168213
			],
			"type":"VEC3"
		},
		{
			"bufferView":5,
			"componentType":5126,
			"count":2695,
			"type":"VEC3"
		},
		{
			"bufferView":6,
			"componentType":5126,
			"count":2695,
			"type":"VEC2"
		},
		{
			"bufferView":7,
			"componentType":5123,
			"count":15120,
			"type":"SCALAR"
		},
		{
			"bufferView":8,
			"componentType":5126,
			"count":628,
			"max":[
				0.21996699273586273,
				0.18052899837493896,
				-1.3844380378723145
			],
			"min":[
				-0.21236200630664825,
				-0.06305599957704544,
				-1.7673970460891724
			],
			"type":"VEC3"
		},
		{
			"bufferView":9,
			"componentType":5126,
			"count":628,
			"type":"VEC3"
		},
		{
			"bufferView":10,
			"componentType":5126,
			"count":628,
			"type":"VEC2"
		},
		{
			"bufferView":11,
			"componentType":5123,
			"count":3504,
			"type":"SCALAR"
		},
		{
			"bufferView":12,
			"componentType":5126,
			"count":857,
			"max":[
				0.21365900337696075,
				0.11848899722099304,
				-0.19977299869060516
			],
			"min":[
				-0.2070769965648651,
				-0.1478710025548935,
				-1.3507369756698608
			],
			"type":"VEC3"
		},
		{
			"bufferView":13,
			"componentType":5126,
			"count":857,
			"type":"VEC3"
		},
		{
			"bufferView":14,
			"componentType":5126,
			"count":857,
			"type":"VEC2"
		},
		{
			"bufferView":15,
			"componentType":5123,
			"count":4800,
			"type":"SCALAR"
		}
	],
	"bufferViews":[
		{
			"buffer":0,
			"byteLength":46284,
			"byteOffset":0,
			"target":34962
		},
		{
			"buffer":0,
			"byteLength":46284,
			"byteOffset":46284,
			"target":34962
		},
		{
			"buffer":0,
			"byteLength":30856,
			"byteOffset":92568,
			"target":34962
		},
		{
			"buffer":0,
			"byteLength":43278,
			"byteOffset":123424,
			"target":34963
		},
		{
			"buffer":0,
			"byteLength":32340,
			"byteOffset":166704,
			"target":34962
		},
		{
			"buffer":0,
			"byteLength":32340,
			"byteOffset":199044,
			"target":34962
		},
		{
			"buffer":0,
			"byteLength":21560,
			"byteOffset":231384,
			"target":34962
		},
		{
			"buffer":0,
			"byteLength":30240,
			"byteOffset":252944,
			"target":34963
		},
		{
			"buffer":0,
			"byteLength":7536,
			"byteOffset":283184,
			"target":34962
		},
		{
			"buffer":0,
			"byteLength":7536,
			"byteOffset":290720,
			"target":34962
		},
		{
			"buffer":0,
			"byteLength":5024,
			"byteOffset":298256,
			"target":34962
		},
		{
			"buffer":0,
			"byteLength":7008,
			"byteOffset":303280,
			"target":34963
		},
		{
			"buffer":0,
			"byteLength":10284,
			"byteOffset":310288,
			"target":34962
		},
		{
			"buffer":0,
			"byteLength":10284,
			"byteOffset":320572,
			"target":34962
		},
		{
			"buffer":0,
			"byteLength":6856,
			"byteOffset":330856,
			"target":34962
		},
		{
			"buffer":0,
			"byteLength":9600,
			"byteOffset":337712,
			"target":34963
		}
	],
	"buffers":[
		{
			"byteLength":347312,
			"uri":"model.bin"
		}
	]
}
