{
	"asset":{
		"generator":"Khronos glTF Blender I/O v5.0.21",
		"version":"2.0"
	},
	"scene":0,
	"scenes":[
		{
			"name":"Scene",
			"nodes":[
				0,
				1,
				2,
				3,
				4,
				5
			]
		}
	],
	"nodes":[
		{
			"mesh":0,
			"name":"Cube.003",
			"scale":[
				0.07104122638702393,
				0.07104122638702393,
				0.07104122638702393
			],
			"translation":[
				-0.3850190341472626,
				0.5542251467704773,
				-0.5087724328041077
			]
		},
		{
			"mesh":1,
			"name":"Cube.002",
			"scale":[
				0.07104122638702393,
				0.07104122638702393,
				0.07104122638702393
			],
			"translation":[
				-0.3850190341472626,
				0.5542251467704773,
				-0.5087724328041077
			]
		},
		{
			"mesh":2,
			"name":"Cube.001",
			"scale":[
				0.07104122638702393,
				0.07104122638702393,
				0.07104122638702393
			],
			"translation":[
				-0.3850190341472626,
				0.5542251467704773,
				-0.5087724328041077
			]
		},
		{
			"mesh":3,
			"name":"Cube",
			"scale":[
				0.07104122638702393,
				0.07104122638702393,
				0.07104122638702393
			],
			"translation":[
				-0.3850190341472626,
				0.5542251467704773,
				-0.5087724328041077
			]
		},
		{
			"mesh":4,
			"name":"Circle",
			"rotation":[
				0.8099389672279358,
				0,
				0,
				0.5865143537521362
			],
			"scale":[
				0.03834391385316849,
				0.038343917578458786,
				0.038343917578458786
			],
			"translation":[
				-0.38279175758361816,
				0.6783089637756348,
				-1.9893993139266968
			]
		},
		{
			"mesh":5,
			"name":"Cube.005",
			"scale":[
				0.23125842213630676,
				0.21607376635074615,
				0.21018753945827484
			],
			"translation":[
				-0.3778668940067291,
				0.3730659782886505,
				-1.0694799423217773
			]
		}
	],
	"materials":[
		{
			"doubleSided":true,
			"name":"Material",
			"pbrMetallicRoughness":{
				"baseColorFactor":[
					0.800000011920929,
					0.800000011920929,
					0.800000011920929,
					1
				],
				"metallicFactor":0,
				"roughnessFactor":0.5
			}
		},
		{
			"doubleSided":true,
			"name":"Material.001",
			"pbrMetallicRoughness":{
				"baseColorFactor":[
					0.25979867577552795,
					0.07830604165792465,
					0.020298052579164505,
					1
				],
				"metallicFactor":0,
				"roughnessFactor":0.5
			}
		},
		{
			"doubleSided":true,
			"name":"Material.002",
			"pbrMetallicRoughness":{
				"baseColorFactor":[
					0.06997790932655334,
					0.06997790932655334,
					0.06997790932655334,
					1
				],
				"metallicFactor":0,
				"roughnessFactor":0.5
			}
		},
		{
			"doubleSided":true,
			"name":"Material.003",
			"pbrMetallicRoughness":{
				"baseColorFactor":[
					0.13286367058753967,
					0.13286367058753967,
					0.13286367058753967,
					1
				],
				"metallicFactor":0,
				"roughnessFactor":0.5
			}
		},
		{
			"doubleSided":true,
			"name":"Material.004",
			"pbrMetallicRoughness":{
				"baseColorFactor":[
					0.5647115707397461,
					0.3662526309490204,
					0.2746773064136505,
					1
				],
				"metallicFactor":0,
				"roughnessFactor":0.5
			}
		}
	],
	"meshes":[
		{
			"name":"Cube.003",
			"primitives":[
				{
					"attributes":{
						"POSITION":0,
						"NORMAL":1
					},
					"indices":2,
					"material":0
				},
				{
					"attributes":{
						"POSITION":3,
						"NORMAL":4
					},
					"indices":5,
					"material":1
				},
				{
					"attributes":{
						"POSITION":6,
						"NORMAL":7
					},
					"indices":8,
					"material":2
				}
			]
		},
		{
			"name":"Cube.002",
			"primitives":[
				{
					"attributes":{
						"POSITION":9,
						"NORMAL":10
					},
					"indices":11,
					"material":0
				},
				{
					"attributes":{
						"POSITION":12,
						"NORMAL":13
					},
					"indices":14,
					"material":3
				}
			]
		},
		{
			"name":"Cube.001",
			"primitives":[
				{
					"attributes":{
						"POSITION":15,
						"NORMAL":16
					},
					"indices":17,
					"material":3
				}
			]
		},
		{
			"name":"Cube.005",
			"primitives":[
				{
					"attributes":{
						"POSITION":18,
						"NORMAL":19
					},
					"indices":20,
					"material":0
				},
				{
					"attributes":{
						"POSITION":21,
						"NORMAL":22
					},
					"indices":23,
					"material":3
				},
				{
					"attributes":{
						"POSITION":24,
						"NORMAL":25
					},
					"indices":26,
					"material":4
				}
			]
		},
		{
			"name":"Circle",
			"primitives":[
				{
					"attributes":{
						"POSITION":27,
						"NORMAL":28
					},
					"indices":29,
					"material":0
				},
				{
					"attributes":{
						"POSITION":30,
						"NORMAL":31
					},
					"indices":32,
					"material":3
				}
			]
		},
		{
			"name":"Cube.004",
			"primitives":[
				{
					"attributes":{
						"POSITION":33,
						"NORMAL":34
					},
					"indices":35,
					"material":0
				},
				{
					"attributes":{
						"POSITION":36,
						"NORMAL":37
					},
					"indices":38,
					"material":3
				},
				{
					"attributes":{
						"POSITION":39,
						"NORMAL":40
					},
					"indices":41,
					"material":2
				}
			]
		}
	],
	"accessors":[
		{
			"bufferView":0,
			"componentType":5126,
			"count":28,
			"max":[
				1.7846800088882446,
				2.7672951221466064,
				-0.7961215376853943
			],
			"min":[
				1.2508783340454102,
				1.9358856678009033,
				-1.390252947807312
			],
			"type":"VEC3"
		},
		{
			"bufferView":1,
			"componentType":5126,
			"count":28,
			"type":"VEC3"
		},
		{
			"bufferView":2,
			"componentType":5123,
			"count":42,
			"type":"SCALAR"
		},
		{
			"bufferView":3,
			"componentType":5126,
			"count":20,
			"max":[
				1.7846800088882446,
				2.6907598972320557,
				-0.7961215376853943
			],
			"min":[
				1.4057033061981201,
				2.012420892715454,
				-1.2449917793273926
			],
			"type":"VEC3"
		},
		{
			"bufferView":4,
			"componentType":5126,
			"count":20,
			"type":"VEC3"
		},
		{
			"bufferView":5,
			"componentType":5123,
			"count":30,
			"type":"SCALAR"
		},
		{
			"bufferView":6,
			"componentType":5126,
			"count":6,
			"max":[
				1.7466038465499878,
				2.515307903289795,
				-0.8616098165512085
			],
			"min":[
				1.5636712312698364,
				2.187872886657715,
				-1.0782800912857056
			],
			"type":"VEC3"
		},
		{
			"bufferView":7,
			"componentType":5126,
			"count":6,
			"type":"VEC3"
		},
		{
			"bufferView":8,
			"componentType":5123,
			"count":12,
			"type":"SCALAR"
		},
		{
			"bufferView":9,
			"componentType":5126,
			"count":102,
			"max":[
				2.670813798904419,
				6.106456756591797,
				-1.8172321319580078
			],
			"min":[
				1.437112808227539,
				3.8369789123535156,
				-2.8515913486480713
			],
			"type":"VEC3"
		},
		{
			"bufferView":10,
			"componentType":5126,
			"count":102,
			"type":"VEC3"
		},
		{
			"bufferView":11,
			"componentType":5123,
			"count":156,
			"type":"SCALAR"
		},
		{
			"bufferView":12,
			"componentType":5126,
			"count":24,
			"max":[
				1.8531906604766846,
				4.726531028747559,
				-1.8172321319580078
			],
			"min":[
				1.013383388519287,
				3.615663528442383,
				-2.8773937225341797
			],
			"type":"VEC3"
		},
		{
			"bufferView":13,
			"componentType":5126,
			"count":24,
			"type":"VEC3"
		},
		{
			"bufferView":14,
			"componentType":5123,
			"count":36,
			"type":"SCALAR"
		},
		{
			"bufferView":15,
			"componentType":5126,
			"count":64,
			"max":[
				4.538002967834473,
				3.9871253967285156,
				-2.6709060668945312
			],
			"min":[
				1.7741892337799072,
				2.286926507949829,
				-3.8320488929748535
			],
			"type":"VEC3"
		},
		{
			"bufferView":16,
			"componentType":5126,
			"count":64,
			"type":"VEC3"
		},
		{
			"bufferView":17,
			"componentType":5123,
			"count":96,
			"type":"SCALAR"
		},
		{
			"bufferView":18,
			"componentType":5126,
			"count":154,
			"max":[
				2.0514397621154785,
				4.772209167480469,
				1.8390599489212036
			],
			"min":[
				0,
				-2.058565855026245,
				-5.206428050994873
			],
			"type":"VEC3"
		},
		{
			"bufferView":19,
			"componentType":5126,
			"count":154,
			"type":"VEC3"
		},
		{
			"bufferView":20,
			"componentType":5123,
			"count":234,
			"type":"SCALAR"
		},
		{
			"bufferView":21,
			"componentType":5126,
			"count":128,
			"max":[
				2.1176669597625732,
				4.4009528160095215,
				1.3821097612380981
			],
			"min":[
				0.5150383114814758,
				-0.37232398986816406,
				-5.206428050994873
			],
			"type":"VEC3"
		},
		{
			"bufferView":22,
			"componentType":5126,
			"count":128,
			"type":"VEC3"
		},
		{
			"bufferView":23,
			"componentType":5123,
			"count":198,
			"type":"SCALAR"
		},
		{
			"bufferView":24,
			"componentType":5126,
			"count":136,
			"max":[
				1.2698091268539429,
				0.5636181235313416,
				2.14018177986145
			],
			"min":[
				-4.775082396569359e-17,
				-1.5599734783172607,
				0.7762433886528015
			],
			"type":"VEC3"
		},
		{
			"bufferView":25,
			"componentType":5126,
			"count":136,
			"type":"VEC3"
		},
		{
			"bufferView":26,
			"componentType":5123,
			"count":204,
			"type":"SCALAR"
		},
		{
			"bufferView":27,
			"componentType":5126,
			"count":170,
			"max":[
				0.866025447845459,
				0,
				20.227231979370117
			],
			"min":[
				-0.866025447845459,
				-4.416125774383545,
				-1
			],
			"type":"VEC3"
		},
		{
			"bufferView":28,
			"componentType":5126,
			"count":170,
			"type":"VEC3"
		},
		{
			"bufferView":29,
			"componentType":5123,
			"count":264,
			"type":"SCALAR"
		},
		{
			"bufferView":30,
			"componentType":5126,
			"count":48,
			"max":[
				0.9595890045166016,
				-0.5875636339187622,
				20.227231979370117
			],
			"min":[
				-0.959588885307312,
				-2.801858901977539,
				15.624585151672363
			],
			"type":"VEC3"
		},
		{
			"bufferView":31,
			"componentType":5126,
			"count":48,
			"type":"VEC3"
		},
		{
			"bufferView":32,
			"componentType":5123,
			"count":72,
			"type":"SCALAR"
		},
		{
			"bufferView":33,
			"componentType":5126,
			"count":600,
			"max":[
				1.2332656383514404,
				1.8946988582611084,
				1.8968364000320435
			],
			"min":[
				0,
				-3.366978168487549,
				-5.080514907836914
			],
			"type":"VEC3"
		},
		{
			"bufferView":34,
			"componentType":5126,
			"count":600,
			"type":"VEC3"
		},
		{
			"bufferView":35,
			"componentType":5123,
			"count":900,
			"type":"SCALAR"
		},
		{
			"bufferView":36,
			"componentType":5126,
			"count":52,
			"max":[
				1.2164292335510254,
				1.8229575157165527,
				1.479379653930664
			],
			"min":[
				0,
				-1.0845321416854858,
				-4.892778396606445
			],
			"type":"VEC3"
		},
		{
			"bufferView":37,
			"componentType":5126,
			"count":52,
			"type":"VEC3"
		},
		{
			"bufferView":38,
			"componentType":5123,
			"count":78,
			"type":"SCALAR"
		},
		{
			"bufferView":39,
			"componentType":5126,
			"count":120,
			"max":[
				0.9771451950073242,
				-3.211301803588867,
				0.48578834533691406
			],
			"min":[
				0.48351407051086426,
				-3.6018805503845215,
				-4.756827354431152
			],
			"type":"VEC3"
		},
		{
			"bufferView":40,
			"componentType":5126,
			"count":120,
			"type":"VEC3"
		},
		{
			"bufferView":41,
			"componentType":5123,
			"count":180,
			"type":"SCALAR"
		}
	],
	"bufferViews":[
		{
			"buffer":0,
			"byteLength":336,
			"byteOffset":0,
			"target":34962
		},
		{
			"buffer":0,
			"byteLength":336,
			"byteOffset":336,
			"target":34962
		},
		{
			"buffer":0,
			"byteLength":84,
			"byteOffset":672,
			"target":34963
		},
		{
			"buffer":0,
			"byteLength":240,
			"byteOffset":756,
			"target":34962
		},
		{
			"buffer":0,
			"byteLength":240,
			"byteOffset":996,
			"target":34962
		},
		{
			"buffer":0,
			"byteLength":60,
			"byteOffset":1236,
			"target":34963
		},
		{
			"buffer":0,
			"byteLength":72,
			"byteOffset":1296,
			"target":34962
		},
		{
			"buffer":0,
			"byteLength":72,
			"byteOffset":1368,
			"target":34962
		},
		{
			"buffer":0,
			"byteLength":24,
			"byteOffset":1440,
			"target":34963
		},
		{
			"buffer":0,
			"byteLength":1224,
			"byteOffset":1464,
			"target":34962
		},
		{
			"buffer":0,
			"byteLength":1224,
			"byteOffset":2688,
			"target":34962
		},
		{
			"buffer":0,
			"byteLength":312,
			"byteOffset":3912,
			"target":34963
		},
		{
			"buffer":0,
			"byteLength":288,
			"byteOffset":4224,
			"target":34962
		},
		{
			"buffer":0,
			"byteLength":288,
			"byteOffset":4512,
			"target":34962
		},
		{
			"buffer":0,
			"byteLength":72,
			"byteOffset":4800,
			"target":34963
		},
		{
			"buffer":0,
			"byteLength":768,
			"byteOffset":4872,
			"target":34962
		},
		{
			"buffer":0,
			"byteLength":768,
			"byteOffset":5640,
			"target":34962
		},
		{
			"buffer":0,
			"byteLength":192,
			"byteOffset":6408,
			"target":34963
		},
		{
			"buffer":0,
			"byteLength":1848,
			"byteOffset":6600,
			"target":34962
		},
		{
			"buffer":0,
			"byteLength":1848,
			"byteOffset":8448,
			"target":34962
		},
		{
			"buffer":0,
			"byteLength":468,
			"byteOffset":10296,
			"target":34963
		},
		{
			"buffer":0,
			"byteLength":1536,
			"byteOffset":10764,
			"target":34962
		},
		{
			"buffer":0,
			"byteLength":1536,
			"byteOffset":12300,
			"target":34962
		},
		{
			"buffer":0,
			"byteLength":396,
			"byteOffset":13836,
			"target":34963
		},
		{
			"buffer":0,
			"byteLength":1632,
			"byteOffset":14232,
			"target":34962
		},
		{
			"buffer":0,
			"byteLength":1632,
			"byteOffset":15864,
			"target":34962
		},
		{
			"buffer":0,
			"byteLength":408,
			"byteOffset":17496,
			"target":34963
		},
		{
			"buffer":0,
			"byteLength":2040,
			"byteOffset":17904,
			"target":34962
		},
		{
			"buffer":0,
			"byteLength":2040,
			"byteOffset":19944,
			"target":34962
		},
		{
			"buffer":0,
			"byteLength":528,
			"byteOffset":21984,
			"target":34963
		},
		{
			"buffer":0,
			"byteLength":576,
			"byteOffset":22512,
			"target":34962
		},
		{
			"buffer":0,
			"byteLength":576,
			"byteOffset":23088,
			"target":34962
		},
		{
			"buffer":0,
			"byteLength":144,
			"byteOffset":23664,
			"target":34963
		},
		{
			"buffer":0,
			"byteLength":7200,
			"byteOffset":23808,
			"target":34962
		},
		{
			"buffer":0,
			"byteLength":7200,
			"byteOffset":31008,
			"target":34962
		},
		{
			"buffer":0,
			"byteLength":1800,
			"byteOffset":38208,
			"target":34963
		},
		{
			"buffer":0,
			"byteLength":624,
			"byteOffset":40008,
			"target":34962
		},
		{
			"buffer":0,
			"byteLength":624,
			"byteOffset":40632,
			"target":34962
		},
		{
			"buffer":0,
			"byteLength":156,
			"byteOffset":41256,
			"target":34963
		},
		{
			"buffer":0,
			"byteLength":1440,
			"byteOffset":41412,
			"target":34962
		},
		{
			"buffer":0,
			"byteLength":1440,
			"byteOffset":42852,
			"target":34962
		},
		{
			"buffer":0,
			"byteLength":360,
			"byteOffset":44292,
			"target":34963
		}
	],
	"buffers":[
		{
			"byteLength":44652,
			"uri":"model.bin"
		}
	]
}
