{
	"asset":{
		"generator":"Khronos glTF Blender I/O v5.0.21",
		"version":"2.0"
	},
	"extensionsUsed":[
		"KHR_materials_specular",
		"KHR_materials_ior"
	],
	"scene":0,
	"scenes":[
		{
			"name":"Scene",
			"nodes":[
				0,
				1
			]
		}
	],
	"nodes":[
		{
			"mesh":0,
			"name":"tree"
		},
		{
			"mesh":1,
			"name":"canopy"
		}
	],
	"materials":[
		{
			"doubleSided":true,
			"name":"bark",
			"pbrMetallicRoughness":{
				"metallicFactor":0,
				"metallicRoughnessTexture":{
					"index":0
				}
			}
		},
		{
			"alphaMode":"BLEND",
			"doubleSided":true,
			"extensions":{
				"KHR_materials_specular":{
					"specularFactor":0
				},
				"KHR_materials_ior":{
					"ior":1.4500000476837158
				}
			},
			"name":"canopy",
			"pbrMetallicRoughness":{
				"baseColorTexture":{
					"index":1
				},
				"metallicFactor":0,
				"roughnessFactor":0.5
			}
		}
	],
	"meshes":[
		{
			"name":"tree",
			"primitives":[
				{
					"attributes":{
						"POSITION":0,
						"NORMAL":1,
						"TEXCOORD_0":2
					},
					"indices":3,
					"material":0
				}
			]
		},
		{
			"name":"Plane",
			"primitives":[
				{
					"attributes":{
						"POSITION":4,
						"NORMAL":5,
						"TEXCOORD_0":6
					},
					"indices":7,
					"material":1
				}
			]
		}
	],
	"textures":[
		{
			"sampler":0,
			"source":0
		},
		{
			"sampler":0,
			"source":0
		}
	],
	"images":[
		{
			"mimeType":"image/png",
			"name":"Image",
			"uri":"Image.png"
		}
	],
	"accessors":[
		{
			"bufferView":0,
			"componentType":5126,
			"count":305,
			"max":[
				10.166172981262207,
				26.442665100097656,
				8.480003356933594
			],
			"min":[
				-8.488301277160645,
				0,
				-9.412110328674316
			],
			"type":"VEC3"
		},
		{
			"bufferView":1,
			"componentType":5126,
			"count":305,
			"type":"VEC3"
		},
		{
			"bufferView":2,
			"componentType":5126,
			"count":305,
			"type":"VEC2"
		},
		{
			"bufferView":3,
			"componentType":5123,
			"count":1440,
			"type":"SCALAR"
		},
		{
			"bufferView":4,
			"componentType":5126,
			"count":120,
			"max":[
				16.880861282348633,
				26.248098373413086,
				16.68739128112793
			],
			"min":[
				-16.735801696777344,
				4.977693557739258,
				-17.07107162475586
			],
			"type":"VEC3"
		},
		{
			"bufferView":5,
			"componentType":5126,
			"count":120,
			"type":"VEC3"
		},
		{
			"bufferView":6,
			"componentType":5126,
			"count":120,
			"type":"VEC2"
		},
		{
			"bufferView":7,
			"componentType":5123,
			"count":240,
			"type":"SCALAR"
		}
	],
	"bufferViews":[
		{
			"buffer":0,
			"byteLength":3660,
			"byteOffset":0,
			"target":34962
		},
		{
			"buffer":0,
			"byteLength":3660,
			"byteOffset":3660,
			"target":34962
		},
		{
			"buffer":0,
			"byteLength":2440,
			"byteOffset":7320,
			"target":34962
		},
		{
			"buffer":0,
			"byteLength":2880,
			"byteOffset":9760,
			"target":34963
		},
		{
			"buffer":0,
			"byteLength":1440,
			"byteOffset":12640,
			"target":34962
		},
		{
			"buffer":0,
			"byteLength":1440,
			"byteOffset":14080,
			"target":34962
		},
		{
			"buffer":0,
			"byteLength":960,
			"byteOffset":15520,
			"target":34962
		},
		{
			"buffer":0,
			"byteLength":480,
			"byteOffset":16480,
			"target":34963
		}
	],
	"samplers":[
		{
			"magFilter":9729,
			"minFilter":9987
		}
	],
	"buffers":[
		{
			"byteLength":16960,
			"uri":"model.bin"
		}
	]
}
