{
	"asset":{
		"generator":"Khronos glTF Blender I/O v5.0.21",
		"version":"2.0"
	},
	"scene":0,
	"scenes":[
		{
			"name":"Scene",
			"nodes":[
				0,
				1,
				2,
				3,
				4,
				5,
				6
			]
		}
	],
	"nodes":[
		{
			"mesh":0,
			"name":"Cube.003",
			"scale":[
				0.21721859276294708,
				0.21721859276294708,
				0.21721859276294708
			],
			"translation":[
				-4.224868297576904,
				0.1355295479297638,
				2.533677577972412
			]
		},
		{
			"mesh":1,
			"name":"Cube.005",
			"rotation":[
				-0.06021970883011818,
				0,
				0,
				0.9981851577758789
			],
			"scale":[
				0.12710605561733246,
				0.10941842943429947,
				0.10236389189958572
			],
			"translation":[
				-4.225866317749023,
				0.6708619594573975,
				3.3590705394744873
			]
		},
		{
			"mesh":2,
			"name":"Cube.004",
			"rotation":[
				-0.06021971255540848,
				0,
				0,
				0.9981851577758789
			],
			"scale":[
				0.12388445436954498,
				0.1066451221704483,
				0.09976938366889954
			],
			"translation":[
				-4.225866317749023,
				0.6694540977478027,
				3.380093812942505
			]
		},
		{
			"mesh":3,
			"name":"Cube.002"
		},
		{
			"mesh":4,
			"name":"Cube"
		},
		{
			"mesh":5,
			"name":"Circle",
			"scale":[
				0.07324710488319397,
				0.07324710488319397,
				0.07324710488319397
			],
			"translation":[
				-4.218744277954102,
				0.45297715067863464,
				1.5650838613510132
			]
		},
		{
			"mesh":6,
			"name":"Cube.001",
			"scale":[
				0.038132693618535995,
				0.038132693618535995,
				0.038132693618535995
			],
			"translation":[
				-4.224185466766357,
				0.6353152394294739,
				3.4723737239837646
			]
		}
	],
	"materials":[
		{
			"doubleSided":true,
			"name":"Material.007",
			"pbrMetallicRoughness":{
				"baseColorFactor":[
					0.47698986530303955,
					0.2562970519065857,
					0.1190386712551117,
					1
				],
				"metallicFactor":0,
				"roughnessFactor":0.5
			}
		},
		{
			"doubleSided":true,
			"name":"Material.006",
			"pbrMetallicRoughness":{
				"baseColorFactor":[
					0.08353158086538315,
					0.08353158086538315,
					0.08353158086538315,
					1
				],
				"metallicFactor":0,
				"roughnessFactor":0.5
			}
		},
		{
			"doubleSided":true,
			"name":"Material.002",
			"pbrMetallicRoughness":{
				"metallicFactor":0,
				"roughnessFactor":0.5
			}
		},
		{
			"doubleSided":true,
			"name":"Material",
			"pbrMetallicRoughness":{
				"baseColorFactor":[
					0.5595999360084534,
					0.38688287138938904,
					0.2153259664773941,
					1
				],
				"metallicFactor":0,
				"roughnessFactor":0.5
			}
		},
		{
			"doubleSided":true,
			"name":"Material.001",
			"pbrMetallicRoughness":{
				"baseColorFactor":[
					0.23301513493061066,
					0.23301513493061066,
					0.23301513493061066,
					1
				],
				"metallicFactor":0,
				"roughnessFactor":0.5
			}
		},
		{
			"doubleSided":true,
			"name":"Material.003",
			"pbrMetallicRoughness":{
				"metallicFactor":0,
				"roughnessFactor":0.5
			}
		},
		{
			"doubleSided":true,
			"name":"Material.004",
			"pbrMetallicRoughness":{
				"baseColorFactor":[
					0.3505552411079407,
					0.04676330089569092,
					0.00918331928551197,
					1
				],
				"metallicFactor":0,
				"roughnessFactor":0.5
			}
		}
	],
	"meshes":[
		{
			"name":"Cube.004",
			"primitives":[
				{
					"attributes":{
						"POSITION":0,
						"NORMAL":1
					},
					"indices":2,
					"material":0
				}
			]
		},
		{
			"name":"Cube.005",
			"primitives":[
				{
					"attributes":{
						"POSITION":3,
						"NORMAL":4
					},
					"indices":5,
					"material":0
				},
				{
					"attributes":{
						"POSITION":6,
						"NORMAL":7
					},
					"indices":8,
					"material":1
				},
				{
					"attributes":{
						"POSITION":9,
						"NORMAL":10
					},
					"indices":11,
					"material":2
				},
				{
					"attributes":{
						"POSITION":12,
						"NORMAL":13
					},
					"indices":14,
					"material":3
				}
			]
		},
		{
			"name":"Cube.001",
			"primitives":[
				{
					"attributes":{
						"POSITION":15,
						"NORMAL":16
					},
					"indices":17,
					"material":0
				},
				{
					"attributes":{
						"POSITION":18,
						"NORMAL":19
					},
					"indices":20,
					"material":1
				},
				{
					"attributes":{
						"POSITION":21,
						"NORMAL":22
					},
					"indices":23,
					"material":3
				}
			]
		},
		{
			"name":"Cube.003",
			"primitives":[
				{
					"attributes":{
						"POSITION":24,
						"NORMAL":25
					},
					"indices":26,
					"material":4
				}
			]
		},
		{
			"name":"Cube",
			"primitives":[
				{
					"attributes":{
						"POSITION":27,
						"NORMAL":28
					},
					"indices":29,
					"material":3
				},
				{
					"attributes":{
						"POSITION":30,
						"NORMAL":31
					},
					"indices":32,
					"material":4
				},
				{
					"attributes":{
						"POSITION":33,
						"NORMAL":34
					},
					"indices":35,
					"material":5
				},
				{
					"attributes":{
						"POSITION":36,
						"NORMAL":37
					},
					"indices":38,
					"material":6
				}
			]
		},
		{
			"name":"Circle.002",
			"primitives":[
				{
					"attributes":{
						"POSITION":39,
						"NORMAL":40
					},
					"indices":41,
					"material":3
				}
			]
		},
		{
			"name":"Cube.002",
			"primitives":[
				{
					"attributes":{
						"POSITION":42,
						"NORMAL":43
					},
					"indices":44,
					"material":3
				}
			]
		}
	],
	"accessors":[
		{
			"bufferView":0,
			"componentType":5126,
			"count":652,
			"max":[
				1.4889862537384033,
				3.496065139770508,
				2.9680604934692383
			],
			"min":[
				0,
				-4.299752712249756,
				-5.811990261077881
			],
			"type":"VEC3"
		},
		{
			"bufferView":1,
			"componentType":5126,
			"count":652,
			"type":"VEC3"
		},
		{
			"bufferView":2,
			"componentType":5123,
			"count":978,
			"type":"SCALAR"
		},
		{
			"bufferView":3,
			"componentType":5126,
			"count":32,
			"max":[
				1.0406763553619385,
				1.565529465675354,
				-0.7507414817810059
			],
			"min":[
				0.6007542014122009,
				1.0813976526260376,
				-0.9908120036125183
			],
			"type":"VEC3"
		},
		{
			"bufferView":4,
			"componentType":5126,
			"count":32,
			"type":"VEC3"
		},
		{
			"bufferView":5,
			"componentType":5123,
			"count":48,
			"type":"SCALAR"
		},
		{
			"bufferView":6,
			"componentType":5126,
			"count":64,
			"max":[
				1.0406763553619385,
				1.683315396308899,
				-0.7508754730224609
			],
			"min":[
				0.4036988317966461,
				0.9839015007019043,
				-1.2524313926696777
			],
			"type":"VEC3"
		},
		{
			"bufferView":7,
			"componentType":5126,
			"count":64,
			"type":"VEC3"
		},
		{
			"bufferView":8,
			"componentType":5123,
			"count":102,
			"type":"SCALAR"
		},
		{
			"bufferView":9,
			"componentType":5126,
			"count":8,
			"max":[
				1.0406763553619385,
				1.592010736465454,
				-0.7537935376167297
			],
			"min":[
				0.782281219959259,
				1.3343511819839478,
				-1.2524313926696777
			],
			"type":"VEC3"
		},
		{
			"bufferView":10,
			"componentType":5126,
			"count":8,
			"type":"VEC3"
		},
		{
			"bufferView":11,
			"componentType":5123,
			"count":12,
			"type":"SCALAR"
		},
		{
			"bufferView":12,
			"componentType":5126,
			"count":32,
			"max":[
				1.0019967555999756,
				1.4978822469711304,
				-0.7507414817810059
			],
			"min":[
				0.6800210475921631,
				1.1435494422912598,
				-0.9034311175346375
			],
			"type":"VEC3"
		},
		{
			"bufferView":13,
			"componentType":5126,
			"count":32,
			"type":"VEC3"
		},
		{
			"bufferView":14,
			"componentType":5123,
			"count":48,
			"type":"SCALAR"
		},
		{
			"bufferView":15,
			"componentType":5126,
			"count":448,
			"max":[
				1.6105148792266846,
				3.0242249965667725,
				1.0415732860565186
			],
			"min":[
				0,
				-1.6518738269805908,
				-5.81911563873291
			],
			"type":"VEC3"
		},
		{
			"bufferView":16,
			"componentType":5126,
			"count":448,
			"type":"VEC3"
		},
		{
			"bufferView":17,
			"componentType":5123,
			"count":672,
			"type":"SCALAR"
		},
		{
			"bufferView":18,
			"componentType":5126,
			"count":104,
			"max":[
				1.1750178337097168,
				1.6358463764190674,
				1.2932283878326416
			],
			"min":[
				0,
				-1.1209262609481812,
				-1.4463483095169067
			],
			"type":"VEC3"
		},
		{
			"bufferView":19,
			"componentType":5126,
			"count":104,
			"type":"VEC3"
		},
		{
			"bufferView":20,
			"componentType":5123,
			"count":156,
			"type":"SCALAR"
		},
		{
			"bufferView":21,
			"componentType":5126,
			"count":4,
			"max":[
				0.9838159680366516,
				-0.7389721274375916,
				-1.0151616334915161
			],
			"min":[
				0.8736764192581177,
				-0.9187171459197998,
				-1.3413523435592651
			],
			"type":"VEC3"
		},
		{
			"bufferView":22,
			"componentType":5126,
			"count":4,
			"type":"VEC3"
		},
		{
			"bufferView":23,
			"componentType":5123,
			"count":6,
			"type":"SCALAR"
		},
		{
			"bufferView":24,
			"componentType":5126,
			"count":116,
			"max":[
				1.509660243988037,
				1.2062788009643555,
				2.729358673095703
			],
			"min":[
				0,
				-1.483846664428711,
				0.9563077688217163
			],
			"type":"VEC3"
		},
		{
			"bufferView":25,
			"componentType":5126,
			"count":116,
			"type":"VEC3"
		},
		{
			"bufferView":26,
			"componentType":5123,
			"count":174,
			"type":"SCALAR"
		},
		{
			"bufferView":27,
			"componentType":5126,
			"count":226,
			"max":[
				5.227113723754883,
				7.7747673988342285,
				0.7058049440383911
			],
			"min":[
				0,
				-3.5291104316711426,
				-13.21556568145752
			],
			"type":"VEC3"
		},
		{
			"bufferView":28,
			"componentType":5126,
			"count":226,
			"type":"VEC3"
		},
		{
			"bufferView":29,
			"componentType":5123,
			"count":342,
			"type":"SCALAR"
		},
		{
			"bufferView":30,
			"componentType":5126,
			"count":20,
			"max":[
				3.685380220413208,
				4.158924579620361,
				-3.6288814544677734
			],
			"min":[
				0,
				-2.737027168273926,
				-5.568478584289551
			],
			"type":"VEC3"
		},
		{
			"bufferView":31,
			"componentType":5126,
			"count":20,
			"type":"VEC3"
		},
		{
			"bufferView":32,
			"componentType":5123,
			"count":30,
			"type":"SCALAR"
		},
		{
			"bufferView":33,
			"componentType":5126,
			"count":40,
			"max":[
				4.010747909545898,
				-1.8354504108428955,
				-0.14723145961761475
			],
			"min":[
				0,
				-3.6888442039489746,
				-6.994514465332031
			],
			"type":"VEC3"
		},
		{
			"bufferView":34,
			"componentType":5126,
			"count":40,
			"type":"VEC3"
		},
		{
			"bufferView":35,
			"componentType":5123,
			"count":60,
			"type":"SCALAR"
		},
		{
			"bufferView":36,
			"componentType":5126,
			"count":8,
			"max":[
				3.0257341861724854,
				-2.3371164798736572,
				-0.1494840383529663
			],
			"min":[
				0,
				-3.3609771728515625,
				-3.721238136291504
			],
			"type":"VEC3"
		},
		{
			"bufferView":37,
			"componentType":5126,
			"count":8,
			"type":"VEC3"
		},
		{
			"bufferView":38,
			"componentType":5123,
			"count":12,
			"type":"SCALAR"
		},
		{
			"bufferView":39,
			"componentType":5126,
			"count":140,
			"max":[
				0.6134090423583984,
				1.0432472229003906,
				2.131542205810547
			],
			"min":[
				-0.6134090423583984,
				-9.09643268585205,
				-6.955193996429443
			],
			"type":"VEC3"
		},
		{
			"bufferView":40,
			"componentType":5126,
			"count":140,
			"type":"VEC3"
		},
		{
			"bufferView":41,
			"componentType":5123,
			"count":216,
			"type":"SCALAR"
		},
		{
			"bufferView":42,
			"componentType":5126,
			"count":72,
			"max":[
				8.730570793151855,
				7.017709732055664,
				-8.166210174560547
			],
			"min":[
				3.332916736602783,
				-1.1085801124572754,
				-13.111376762390137
			],
			"type":"VEC3"
		},
		{
			"bufferView":43,
			"componentType":5126,
			"count":72,
			"type":"VEC3"
		},
		{
			"bufferView":44,
			"componentType":5123,
			"count":108,
			"type":"SCALAR"
		}
	],
	"bufferViews":[
		{
			"buffer":0,
			"byteLength":7824,
			"byteOffset":0,
			"target":34962
		},
		{
			"buffer":0,
			"byteLength":7824,
			"byteOffset":7824,
			"target":34962
		},
		{
			"buffer":0,
			"byteLength":1956,
			"byteOffset":15648,
			"target":34963
		},
		{
			"buffer":0,
			"byteLength":384,
			"byteOffset":17604,
			"target":34962
		},
		{
			"buffer":0,
			"byteLength":384,
			"byteOffset":17988,
			"target":34962
		},
		{
			"buffer":0,
			"byteLength":96,
			"byteOffset":18372,
			"target":34963
		},
		{
			"buffer":0,
			"byteLength":768,
			"byteOffset":18468,
			"target":34962
		},
		{
			"buffer":0,
			"byteLength":768,
			"byteOffset":19236,
			"target":34962
		},
		{
			"buffer":0,
			"byteLength":204,
			"byteOffset":20004,
			"target":34963
		},
		{
			"buffer":0,
			"byteLength":96,
			"byteOffset":20208,
			"target":34962
		},
		{
			"buffer":0,
			"byteLength":96,
			"byteOffset":20304,
			"target":34962
		},
		{
			"buffer":0,
			"byteLength":24,
			"byteOffset":20400,
			"target":34963
		},
		{
			"buffer":0,
			"byteLength":384,
			"byteOffset":20424,
			"target":34962
		},
		{
			"buffer":0,
			"byteLength":384,
			"byteOffset":20808,
			"target":34962
		},
		{
			"buffer":0,
			"byteLength":96,
			"byteOffset":21192,
			"target":34963
		},
		{
			"buffer":0,
			"byteLength":5376,
			"byteOffset":21288,
			"target":34962
		},
		{
			"buffer":0,
			"byteLength":5376,
			"byteOffset":26664,
			"target":34962
		},
		{
			"buffer":0,
			"byteLength":1344,
			"byteOffset":32040,
			"target":34963
		},
		{
			"buffer":0,
			"byteLength":1248,
			"byteOffset":33384,
			"target":34962
		},
		{
			"buffer":0,
			"byteLength":1248,
			"byteOffset":34632,
			"target":34962
		},
		{
			"buffer":0,
			"byteLength":312,
			"byteOffset":35880,
			"target":34963
		},
		{
			"buffer":0,
			"byteLength":48,
			"byteOffset":36192,
			"target":34962
		},
		{
			"buffer":0,
			"byteLength":48,
			"byteOffset":36240,
			"target":34962
		},
		{
			"buffer":0,
			"byteLength":12,
			"byteOffset":36288,
			"target":34963
		},
		{
			"buffer":0,
			"byteLength":1392,
			"byteOffset":36300,
			"target":34962
		},
		{
			"buffer":0,
			"byteLength":1392,
			"byteOffset":37692,
			"target":34962
		},
		{
			"buffer":0,
			"byteLength":348,
			"byteOffset":39084,
			"target":34963
		},
		{
			"buffer":0,
			"byteLength":2712,
			"byteOffset":39432,
			"target":34962
		},
		{
			"buffer":0,
			"byteLength":2712,
			"byteOffset":42144,
			"target":34962
		},
		{
			"buffer":0,
			"byteLength":684,
			"byteOffset":44856,
			"target":34963
		},
		{
			"buffer":0,
			"byteLength":240,
			"byteOffset":45540,
			"target":34962
		},
		{
			"buffer":0,
			"byteLength":240,
			"byteOffset":45780,
			"target":34962
		},
		{
			"buffer":0,
			"byteLength":60,
			"byteOffset":46020,
			"target":34963
		},
		{
			"buffer":0,
			"byteLength":480,
			"byteOffset":46080,
			"target":34962
		},
		{
			"buffer":0,
			"byteLength":480,
			"byteOffset":46560,
			"target":34962
		},
		{
			"buffer":0,
			"byteLength":120,
			"byteOffset":47040,
			"target":34963
		},
		{
			"buffer":0,
			"byteLength":96,
			"byteOffset":47160,
			"target":34962
		},
		{
			"buffer":0,
			"byteLength":96,
			"byteOffset":47256,
			"target":34962
		},
		{
			"buffer":0,
			"byteLength":24,
			"byteOffset":47352,
			"target":34963
		},
		{
			"buffer":0,
			"byteLength":1680,
			"byteOffset":47376,
			"target":34962
		},
		{
			"buffer":0,
			"byteLength":1680,
			"byteOffset":49056,
			"target":34962
		},
		{
			"buffer":0,
			"byteLength":432,
			"byteOffset":50736,
			"target":34963
		},
		{
			"buffer":0,
			"byteLength":864,
			"byteOffset":51168,
			"target":34962
		},
		{
			"buffer":0,
			"byteLength":864,
			"byteOffset":52032,
			"target":34962
		},
		{
			"buffer":0,
			"byteLength":216,
			"byteOffset":52896,
			"target":34963
		}
	],
	"buffers":[
		{
			"byteLength":53112,
			"uri":"model.bin"
		}
	]
}
