# by drummyfish, released under CC0 1.0, public domain 
v -5.823244 2.558681 -0.189142
v -7.566961 2.558681 0.817594
v -7.566961 2.558681 2.831065
v -5.823244 2.558681 3.837802
v -4.079526 2.558681 2.831065
v -4.079526 2.558681 0.817594
v -1.972267 1.178021 0.050681
v -3.854159 1.178021 1.137192
v -3.854159 1.178021 3.310213
v -1.972267 1.178021 4.396723
v -0.090375 1.178021 3.310212
v -0.090375 1.178021 1.137192
v -1.731593 3.223938 -2.850813
v -2.970841 3.016363 -2.163652
v -2.969089 2.638099 -0.782373
v -1.728088 2.467411 -0.088256
v -0.488838 2.674987 -0.775418
v -0.490593 3.053250 -2.156696
v 4.036379 1.178021 0.038494
v 1.605360 1.178021 1.442043
v 1.605360 1.178021 4.249143
v 4.036379 1.178021 5.652691
v 6.467397 1.178021 4.249142
v 6.467397 1.178021 1.442043
v -5.674333 5.383066 -6.536885
v -8.293461 5.502478 -5.061943
v -8.361948 5.092247 -2.082587
v -5.811308 4.562603 -0.578173
v -3.192181 4.443191 -2.053115
v -3.123693 4.853423 -5.032471
v -5.863706 -5.224349 -3.720878
v -5.863706 -5.224349 -3.303773
v -5.492808 -5.224349 -3.493365
v -5.727941 5.397670 -3.540765
v -5.638669 5.807734 -3.440177
v 6.235293 4.116817 -4.203855
v 3.469323 3.309606 -2.653652
v 3.519442 2.667296 0.554185
v 6.335531 2.832199 2.211822
v 9.101500 3.639410 0.661619
v 9.051380 4.281720 -2.546218
v 0.002157 1.638530 -0.253699
v -2.970906 -0.077969 -0.253699
v -2.970905 -3.510966 -0.253699
v 0.002157 -5.227465 -0.253699
v 2.975220 -3.510966 -0.253699
v 2.975220 -0.077969 -0.253699
v -1.972267 -0.185338 0.050681
v -3.854159 -0.185338 1.137192
v -3.854159 -0.185338 3.310213
v -1.972267 -0.185338 4.396723
v -0.090375 -0.185338 3.310212
v -0.090375 -0.185338 1.137192
v -1.712714 2.016904 -3.181384
v -2.951963 1.809328 -2.494223
v -2.950209 1.431064 -1.112945
v -1.709208 1.260376 -0.418828
v -0.469960 1.467952 -1.105989
v -0.471714 1.846216 -2.487267
v 4.036379 -3.054412 0.038494
v 1.605360 -3.054412 1.442043
v 1.605360 -3.054412 4.249143
v 4.036379 -3.054412 5.652691
v 6.467397 -3.054412 4.249142
v 6.467397 -3.054412 1.442043
v 0.002157 1.638530 -4.827035
v -2.970906 -0.077969 -4.827035
v -2.970905 -3.510966 -4.827035
v 0.002157 -5.227465 -4.827035
v 2.975220 -3.510966 -4.827035
v 2.975220 -0.077969 -4.827035
v -5.823244 3.030753 1.824330
v -5.823244 2.041267 1.824330
v -6.023547 -5.224349 2.084724
v -5.490330 -5.224349 1.899257
v -5.919222 -5.224349 1.563099
v 6.204065 3.931369 -0.903268
v 6.273789 3.720844 -0.982766
v 6.099039 -5.224349 -0.633259
v 6.632782 -5.224349 -0.942269
v 6.099039 -5.224349 -1.265324
v 1.881680 3.305915 -2.885502
v 0.543842 3.081826 -2.143675
v 0.545738 2.673470 -0.652511
v 1.885462 2.489204 0.096825
v 3.223303 2.713293 -0.645002
v 3.221406 3.121648 -2.136166
v 1.902062 2.002858 -3.242371
v 0.564225 1.778768 -2.500543
v 0.566120 1.370412 -1.009380
v 1.905844 1.186146 -0.260044
v 3.243680 1.410235 -1.001871
v 3.241789 1.818591 -2.493035
v -1.972267 -0.185338 2.223702
v -1.808331 -5.224349 2.423276
v -2.007906 -5.224349 2.002744
v -2.178970 -5.224349 2.423276
v 1.605360 -5.224349 4.249142
v 1.508283 -1.825186 4.508167
v 1.326622 -1.825186 4.256077
v 6.467397 -5.224349 4.249142
v 6.599663 -1.825186 4.464820
v 6.743933 -1.825186 4.252964
v 4.154383 -1.825186 -0.155858
v 3.913113 -1.825186 -0.154371
v 4.034983 -5.224349 0.038517
v -0.071974 -5.224349 0.192378
v 1.001582 -5.224349 0.192378
v 0.053567 -5.224349 1.306577
v 0.866976 -5.224349 1.306577
v 0.131241 -3.294512 -0.115054
v 0.798368 -3.294512 -0.115054
vn 0.8660 0.0000 -0.5000
vn 0.8660 0.0000 0.5000
vn 0.0000 0.0000 1.0000
vn -0.8660 0.0000 0.5000
vn -0.0000 0.0000 -1.0000
vn -0.8660 0.0000 -0.5000
vn 0.0000 1.0000 0.0000
vn -0.0151 0.9644 0.2641
vn 1.0000 0.0000 0.0000
vn 0.5000 0.0000 -0.8660
vn -0.5000 0.0000 -0.8660
vn -1.0000 0.0000 0.0000
vn -0.5000 0.0000 0.8660
vn 0.5000 0.0000 0.8660
vn -0.1977 0.9736 -0.1141
vn -0.1977 0.9736 0.1141
vn 0.0000 0.9736 0.2283
vn 0.1977 0.9736 0.1141
vn 0.1977 0.9736 -0.1141
vn -0.0000 0.9736 -0.2283
vn 0.0151 -0.9644 -0.2641
vn -0.0000 -1.0000 0.0000
vn -0.2155 -0.9685 0.1244
vn -0.2155 -0.9685 -0.1244
vn 0.0000 -0.9685 0.2489
vn 0.2155 -0.9685 0.1244
vn 0.2155 -0.9685 -0.1244
vn -0.0000 -0.9685 -0.2489
vn -0.6551 0.0451 0.7542
vn 0.9851 0.0468 0.1655
vn -0.0019 1.0000 -0.0033
vn -0.3467 0.0383 -0.9372
vn 0.8665 -0.1192 0.4847
vn 0.8653 0.1449 -0.4798
vn -0.0012 0.2641 -0.9645
vn -0.8665 0.1192 -0.4847
vn -0.8653 -0.1449 0.4798
vn 0.0012 -0.2641 0.9645
vn -0.8660 0.5000 0.0000
vn 0.8660 0.5000 0.0000
vn 0.8660 -0.5000 0.0000
vn -0.8660 -0.5000 0.0000
vn -0.2933 0.9483 0.1215
vn -0.2911 0.9202 0.2618
vn -0.1719 0.9654 0.1960
vn -0.1679 0.9274 0.3343
vn -0.0469 0.9627 0.2665
vn -0.0491 0.9908 0.1262
vn -0.1723 0.9836 0.0536
vn 0.2330 -0.9449 -0.2301
vn 0.1711 -0.9658 -0.1951
vn 0.1705 -0.9485 -0.2671
vn 0.1078 -0.9664 -0.2332
vn 0.1081 -0.9812 -0.1600
vn 0.1727 -0.9774 -0.1222
vn 0.2350 -0.9590 -0.1583
vn -0.4978 0.0436 0.8662
vn 0.9991 0.0402 0.0119
vn -0.0004 1.0000 -0.0040
vn -0.4914 0.0371 -0.8702
vn 0.1118 0.9087 0.4021
vn 0.3484 0.8980 0.2689
vn 0.1226 0.9828 0.1381
vn 0.3546 0.9350 -0.0003
vn 0.1242 0.9829 -0.1362
vn -0.1124 0.9937 -0.0030
vn -0.1186 0.9566 0.2662
vn -0.1187 -0.9548 -0.2725
vn -0.1206 -0.9834 -0.1358
vn -0.2370 -0.9496 -0.2052
vn -0.2421 -0.9678 -0.0695
vn -0.1250 -0.9922 0.0026
vn -0.0015 -0.9978 -0.0662
vn -0.0003 -0.9786 -0.2056
vn 0.9989 0.0223 0.0408
vn 0.0005 1.0000 -0.0023
vn -0.5214 0.0257 0.8529
vn -0.4897 0.0210 -0.8716
vn 0.8397 0.0487 0.5408
vn 0.0051 0.9999 -0.0119
vn -0.8256 0.0561 0.5615
vn -0.0316 0.0440 -0.9985
vn 0.0368 -0.9990 -0.0260
vn 0.9364 -0.0000 0.3509
vn 0.1112 0.0046 0.9938
vn -0.9051 0.0047 -0.4252
vn -0.0249 0.0000 -0.9997
vn 0.0416 0.9987 -0.0294
vn -0.0455 0.9987 -0.0243
vn -0.8525 0.0000 0.5228
vn -0.0021 0.0041 1.0000
vn -0.0401 -0.9990 -0.0214
vn 0.8969 0.0046 -0.4421
vn 0.0138 0.0000 -0.9999
vn 0.8562 -0.0005 0.5166
vn 0.8608 0.0038 -0.5090
vn 0.0007 0.9991 0.0428
vn -0.0001 -0.9993 0.0383
vn -0.8696 0.0038 -0.4937
vn -0.8411 0.0005 0.5409
vn 0.0000 -0.1573 -0.9875
vn -0.9863 0.1216 0.1111
vn 0.9853 0.1227 0.1190
vn 0.0000 0.5931 0.8051
s 1
f 53//1 12//1 52//2
f 11//2 52//2 12//1
f 51//3 52//2 11//2
f 10//3 51//3 11//2
f 10//3 9//4 50//4
f 51//3 10//3 50//4
f 12//1 53//1 7//5
f 53//1 48//5 7//5
f 7//5 48//5 8//6
f 49//6 8//6 48//5
f 8//6 49//6 9//4
f 49//6 50//4 9//4
s 2
f 7//7 8//7 12//7
f 12//7 8//7 11//7
f 8//7 9//7 11//7
f 10//7 11//7 9//7
s 3
f 13//8 14//8 18//8
f 18//8 14//8 17//8
f 14//8 15//8 17//8
f 16//8 17//8 15//8
s 4
f 65//1 24//1 64//9
f 23//9 64//9 24//1
f 65//1 60//10 19//10
f 24//1 65//1 19//10
s 5
f 61//6 20//6 60//11
f 19//11 60//11 20//6
f 61//6 62//12 21//12
f 20//6 61//6 21//12
s 6
f 19//7 20//7 24//7
f 20//7 21//7 24//7
f 24//7 21//7 23//7
f 22//7 23//7 21//7
s 7
f 63//3 22//3 62//13
f 21//13 62//13 22//3
f 63//3 64//14 23//14
f 22//3 63//3 23//14
s 8
f 2//15 3//16 72//7
f 3//16 4//17 72//7
f 5//18 72//7 4//17
f 5//18 6//19 72//7
f 6//19 1//20 72//7
f 1//20 2//15 72//7
s 9
f 42//3 43//3 47//3
f 47//3 43//3 46//3
f 43//3 44//3 46//3
f 45//3 46//3 44//3
s 10
f 67//5 71//5 70//5
f 67//5 70//5 68//5
f 69//5 68//5 70//5
f 67//5 66//5 71//5
s 11
f 58//21 55//21 59//21
f 55//21 58//21 56//21
f 57//21 56//21 58//21
f 54//21 59//21 55//21
s 12
f 73//22 3//23 2//24
f 3//23 73//22 4//25
f 4//25 73//22 5//26
f 5//26 73//22 6//27
f 6//27 73//22 1//28
f 2//24 1//28 73//22
s 13
f 74//29 75//30 73//31
f 74//29 73//31 76//32
f 75//30 76//32 73//31
s 14
f 17//33 58//33 18//34
f 58//33 59//34 18//34
f 18//34 59//34 13//35
f 59//34 54//35 13//35
f 13//35 54//35 14//36
f 55//36 14//36 54//35
f 14//36 55//36 15//37
f 55//36 56//37 15//37
f 15//37 56//37 16//38
f 57//38 16//38 56//37
f 16//38 57//38 17//33
f 58//33 17//33 57//38
s 15
f 42//7 67//39 43//39
f 67//39 42//7 66//7
f 42//7 47//40 66//7
f 66//7 47//40 71//40
f 47//40 46//41 71//40
f 71//40 46//41 70//41
f 45//22 70//41 46//41
f 70//41 45//22 69//22
f 44//42 69//22 45//22
f 69//22 44//42 68//42
f 44//42 43//39 68//42
f 68//42 43//39 67//39
s 16
f 49//22 94//22 50//22
f 94//22 52//22 50//22
f 51//22 50//22 52//22
f 48//22 53//22 49//22
f 52//22 94//22 53//22
f 53//22 94//22 49//22
s 17
f 63//22 62//22 64//22
f 64//22 61//22 65//22
f 61//22 64//22 62//22
f 60//22 65//22 61//22
s 18
f 37//43 38//44 77//45
f 38//44 39//46 77//45
f 40//47 77//45 39//46
f 40//47 41//48 77//45
f 41//48 36//49 77//45
f 36//49 37//43 77//45
s 19
f 38//50 78//51 39//52
f 39//52 78//51 40//53
f 41//54 40//53 78//51
f 41//54 78//51 36//55
f 36//55 78//51 37//56
f 37//56 78//51 38//50
s 20
f 79//57 80//58 78//59
f 80//58 81//60 78//59
f 78//59 81//60 79//57
s 21
f 82//8 83//8 87//8
f 87//8 83//8 86//8
f 83//8 84//8 86//8
f 85//8 86//8 84//8
s 22
f 92//21 89//21 93//21
f 89//21 92//21 90//21
f 91//21 90//21 92//21
f 88//21 93//21 89//21
s 23
f 86//33 92//33 87//34
f 92//33 93//34 87//34
f 87//34 93//34 82//35
f 93//34 88//35 82//35
f 82//35 88//35 83//36
f 89//36 83//36 88//35
f 83//36 89//36 84//37
f 89//36 90//37 84//37
f 84//37 90//37 85//38
f 91//38 85//38 90//37
f 85//38 91//38 86//33
f 92//33 86//33 91//38
s 24
f 28//61 29//62 35//63
f 29//62 30//64 35//63
f 30//64 25//65 35//63
f 25//65 26//66 35//63
f 26//66 27//67 35//63
f 28//61 35//63 27//67
s 25
f 28//68 34//69 29//70
f 29//70 34//69 30//71
f 30//71 34//69 25//72
f 25//72 34//69 26//73
f 26//73 34//69 27//74
f 28//68 27//74 34//69
s 26
f 33//75 34//76 32//77
f 34//76 31//78 32//77
f 34//76 33//75 31//78
s 27
f 95//79 94//80 97//81
f 97//81 94//80 96//82
f 94//80 95//79 96//82
s 28
f 98//83 62//84 99//85
f 98//83 100//86 62//87
f 99//85 100//86 98//83
f 99//85 62//84 21//88
f 21//88 62//87 100//86
f 99//85 21//88 100//86
s 29
f 23//89 64//90 102//91
f 101//92 102//91 64//90
f 102//91 101//92 103//93
f 102//91 103//93 23//89
f 64//94 23//89 103//93
f 101//92 64//94 103//93
s 30
f 60//95 104//96 19//97
f 104//96 60//95 106//98
f 105//99 104//96 106//98
f 104//96 105//99 19//97
f 105//99 60//100 19//97
f 105//99 106//98 60//100
s 31
f 112//101 108//101 107//101
f 112//101 107//101 111//101
s 32
f 107//102 109//102 111//102
s 33
f 110//103 108//103 112//103
s 34
f 109//104 110//104 112//104
f 111//104 109//104 112//104
s 35
f 107//22 108//22 109//22
f 110//22 109//22 108//22
s 36
f 96//22 95//22 97//22
s 37
f 75//22 74//22 76//22
s 38
f 33//22 32//22 31//22
s 39
f 80//22 79//22 81//22
