# by drummyfish, released under CC0 1.0, public domain 
v -2.417289 1.785607 0.153959
v -0.710691 0.212645 0.153959
v -1.573108 1.035171 0.153959
v 0.713783 1.721611 0.033735
v -4.252769 1.000402 0.036367
v 4.938942 0.166607 0.153959
v -2.876386 -0.118555 0.153959
v -4.003541 -1.236745 0.036367
v -2.387883 -1.685660 0.153959
v 0.240359 -1.349353 0.033734
v -0.730645 -0.235038 0.153959
v 4.883336 -0.188999 0.153959
v -1.153216 -1.073413 0.153959
v 6.038677 0.733950 0.099113
v 5.396308 -0.666587 0.067422
v -2.417289 1.785607 -0.240448
v -1.573108 1.035171 -0.240448
v 4.928319 0.116500 -0.004612
v -2.876386 -0.118555 -0.240448
v -2.387883 -1.685660 -0.240448
v 4.893960 -0.138893 -0.004612
v -1.153216 -1.073413 -0.240448
v -0.753676 0.133775 -0.240448
v -0.766599 -0.156168 -0.240448
vn 0.0399 0.0419 0.9983
vn 0.0101 0.0106 0.9999
vn 0.0162 0.0170 0.9997
vn -0.0347 -0.0016 0.9994
vn -0.0330 0.0080 0.9994
vn -0.0712 0.0172 0.9973
vn 0.0237 -0.0120 0.9996
vn 0.0268 -0.0135 0.9996
vn 0.0781 -0.0394 0.9962
vn -0.0329 -0.0103 0.9994
vn -0.0794 -0.0248 0.9965
vn 0.0000 -0.0000 1.0000
vn 0.0542 -0.0085 0.9985
vn 0.0861 -0.0486 0.9951
vn 0.0884 -0.0515 0.9948
vn 0.1027 -0.0695 0.9923
vn 0.0082 -0.9800 -0.1989
vn 0.0154 -0.9537 -0.3003
vn 0.0151 -0.9551 -0.2959
vn 0.0080 -0.9804 -0.1968
vn -0.6809 -0.6840 -0.2617
vn -0.6308 -0.7759 0.0000
vn -0.4545 0.8577 -0.2406
vn -0.2677 -0.9635 0.0000
vn 0.1094 -0.0254 -0.9937
vn 0.1080 -0.0235 -0.9939
vn 0.1004 -0.0135 -0.9949
vn 0.1121 -0.0289 -0.9933
vn -0.7043 0.7099 0.0000
vn -0.0810 -0.0037 -0.9967
vn -0.1657 0.0399 -0.9854
vn -0.0772 0.0186 -0.9968
vn 0.0254 0.0230 -0.9994
vn 0.0362 0.0329 -0.9988
vn 0.0645 -0.0272 -0.9975
vn -0.0769 -0.0240 -0.9967
vn -0.1841 -0.0574 -0.9812
vn 0.0934 0.0849 -0.9920
vn 0.0509 -0.0214 -0.9985
vn 0.1782 -0.0751 -0.9811
vn 0.4443 -0.8959 0.0000
vn 0.1538 -0.9881 0.0000
vn 0.1414 -0.9900 0.0000
vn -0.1942 -0.9810 0.0000
vn 0.1725 0.9850 0.0000
vn 0.6644 0.7474 0.0000
vn 0.1892 0.9819 0.0000
vn -0.3933 0.9194 0.0000
vn 0.7558 0.6519 0.0615
vn 0.7283 -0.6829 0.0572
vn -0.2875 0.9578 0.0000
vn 0.0080 0.9804 -0.1969
vn 0.0151 0.9546 -0.2974
vn 0.0081 0.9799 -0.1991
vn 0.0154 0.9531 -0.3022
vn 0.0416 -0.0020 -0.9991
vn 0.0415 -0.0055 -0.9991
vn 0.0416 -0.0019 -0.9991
vn 0.0415 -0.0056 -0.9991
s 1
f 4//1 3//2 2//3
f 7//4 2//3 3//2
f 3//2 1//5 7//4
f 1//5 5//6 7//4
f 2//3 7//4 11//7
f 11//7 7//4 13//8
f 11//7 13//8 10//9
f 13//8 7//4 9//10
f 8//11 9//10 7//4
s 2
f 2//12 11//12 6//12
f 11//12 12//12 6//12
s 3
f 6//13 12//14 14//15
f 15//16 14//15 12//14
s 4
f 24//17 21//18 12//19
f 12//19 11//20 24//17
s 5
f 12//21 21//21 15//21
s 6
f 7//22 5//22 19//22
s 7
f 14//23 18//23 6//23
s 8
f 9//24 8//24 20//24
s 9
f 14//25 21//26 18//27
f 14//25 15//28 21//26
s 10
f 7//29 19//29 8//29
s 11
f 19//30 5//31 16//32
f 17//33 23//34 19//30
f 19//30 22//35 20//36
f 20//36 8//37 19//30
f 17//33 19//30 16//32
f 23//34 17//33 4//38
f 19//30 24//39 22//35
f 19//30 23//34 24//39
f 24//39 10//40 22//35
s 12
f 9//41 22//42 13//43
f 13//43 22//42 10//44
f 9//41 20//41 22//42
s 13
f 1//45 17//46 16//47
f 1//45 16//47 5//48
f 1//45 3//46 17//46
s 14
f 11//49 10//49 24//49
s 15
f 2//50 23//50 4//50
s 16
f 4//51 17//51 3//51
s 17
f 2//52 6//53 23//54
f 18//55 23//54 6//53
s 18
f 23//56 21//57 24//58
f 23//56 18//59 21//57
