{
	"asset":{
		"generator":"Khronos glTF Blender I/O v5.0.21",
		"version":"2.0"
	},
	"scene":0,
	"scenes":[
		{
			"name":"Scene",
			"nodes":[
				0
			]
		}
	],
	"nodes":[
		{
			"mesh":0,
			"name":"Plane",
			"scale":[
				0.08990675210952759,
				0.08990675210952759,
				0.08990675210952759
			],
			"translation":[
				0.5057153701782227,
				0.03077518753707409,
				-0.0011516809463500977
			]
		}
	],
	"materials":[
		{
			"doubleSided":true,
			"name":"lama",
			"pbrMetallicRoughness":{
				"metallicFactor":0.590673565864563,
				"roughnessFactor":0.12643024325370789
			}
		},
		{
			"doubleSided":true,
			"name":"impugnatura",
			"pbrMetallicRoughness":{
				"metallicFactor":0
			}
		}
	],
	"meshes":[
		{
			"name":"Plane",
			"primitives":[
				{
					"attributes":{
						"POSITION":0,
						"NORMAL":1,
						"TEXCOORD_0":2
					},
					"indices":3,
					"material":0
				},
				{
					"attributes":{
						"POSITION":4,
						"NORMAL":5,
						"TEXCOORD_0":6
					},
					"indices":7,
					"material":1
				}
			]
		}
	],
	"accessors":[
		{
			"bufferView":0,
			"componentType":5126,
			"count":1038,
			"max":[
				4.167431831359863,
				-0.16863258183002472,
				1.6878929138183594
			],
			"min":[
				-15.456860542297363,
				-0.3423011898994446,
				-1.757567048072815
			],
			"type":"VEC3"
		},
		{
			"bufferView":1,
			"componentType":5126,
			"count":1038,
			"type":"VEC3"
		},
		{
			"bufferView":2,
			"componentType":5126,
			"count":1038,
			"type":"VEC2"
		},
		{
			"bufferView":3,
			"componentType":5123,
			"count":2172,
			"type":"SCALAR"
		},
		{
			"bufferView":4,
			"componentType":5126,
			"count":1442,
			"max":[
				3.9133472442626953,
				0.050860024988651276,
				1.0675407648086548
			],
			"min":[
				-3.9766788482666016,
				-0.55950927734375,
				-1.1499700546264648
			],
			"type":"VEC3"
		},
		{
			"bufferView":5,
			"componentType":5126,
			"count":1442,
			"type":"VEC3"
		},
		{
			"bufferView":6,
			"componentType":5126,
			"count":1442,
			"type":"VEC2"
		},
		{
			"bufferView":7,
			"componentType":5123,
			"count":2832,
			"type":"SCALAR"
		}
	],
	"bufferViews":[
		{
			"buffer":0,
			"byteLength":12456,
			"byteOffset":0,
			"target":34962
		},
		{
			"buffer":0,
			"byteLength":12456,
			"byteOffset":12456,
			"target":34962
		},
		{
			"buffer":0,
			"byteLength":8304,
			"byteOffset":24912,
			"target":34962
		},
		{
			"buffer":0,
			"byteLength":4344,
			"byteOffset":33216,
			"target":34963
		},
		{
			"buffer":0,
			"byteLength":17304,
			"byteOffset":37560,
			"target":34962
		},
		{
			"buffer":0,
			"byteLength":17304,
			"byteOffset":54864,
			"target":34962
		},
		{
			"buffer":0,
			"byteLength":11536,
			"byteOffset":72168,
			"target":34962
		},
		{
			"buffer":0,
			"byteLength":5664,
			"byteOffset":83704,
			"target":34963
		}
	],
	"buffers":[
		{
			"byteLength":89368,
			"uri":"model.bin"
		}
	]
}
