{
	"asset":{
		"generator":"Khronos glTF Blender I/O v5.0.21",
		"version":"2.0"
	},
	"scene":0,
	"scenes":[
		{
			"name":"Scene",
			"nodes":[
				0,
				1
			]
		}
	],
	"nodes":[
		{
			"mesh":0,
			"name":"Circle.016",
			"rotation":[
				0.0006071983370929956,
				0.7071065306663513,
				-0.7071065306663513,
				0.0006071983370929956
			],
			"scale":[
				0.12854160368442535,
				0.12854160368442535,
				0.12854160368442535
			],
			"translation":[
				0,
				1,
				0
			]
		},
		{
			"mesh":1,
			"name":"Circle.000"
		}
	],
	"materials":[
		{
			"doubleSided":true,
			"name":"Material",
			"pbrMetallicRoughness":{
				"baseColorFactor":[
					0.800000011920929,
					0.800000011920929,
					0.800000011920929,
					1
				],
				"metallicFactor":0,
				"roughnessFactor":0.5
			}
		}
	],
	"meshes":[
		{
			"name":"Circle.016",
			"primitives":[
				{
					"attributes":{
						"POSITION":0,
						"NORMAL":1,
						"TEXCOORD_0":2
					},
					"indices":3,
					"material":0
				}
			]
		},
		{
			"name":"Circle.000",
			"primitives":[
				{
					"attributes":{
						"POSITION":4,
						"NORMAL":5
					},
					"indices":6
				}
			]
		}
	],
	"accessors":[
		{
			"bufferView":0,
			"componentType":5126,
			"count":1269,
			"max":[
				9.874650001525879,
				21.253971099853516,
				12.07448959350586
			],
			"min":[
				-9.874650001525879,
				-3.916055679321289,
				-13.252388954162598
			],
			"type":"VEC3"
		},
		{
			"bufferView":1,
			"componentType":5126,
			"count":1269,
			"type":"VEC3"
		},
		{
			"bufferView":2,
			"componentType":5126,
			"count":1269,
			"type":"VEC2"
		},
		{
			"bufferView":3,
			"componentType":5123,
			"count":7104,
			"type":"SCALAR"
		},
		{
			"bufferView":4,
			"componentType":5126,
			"count":588,
			"max":[
				8.758746147155762,
				32.68988037109375,
				12.461604118347168
			],
			"min":[
				-9.888116836547852,
				-4.3462677001953125,
				-14.508443832397461
			],
			"type":"VEC3"
		},
		{
			"bufferView":5,
			"componentType":5126,
			"count":588,
			"type":"VEC3"
		},
		{
			"bufferView":6,
			"componentType":5123,
			"count":882,
			"type":"SCALAR"
		}
	],
	"bufferViews":[
		{
			"buffer":0,
			"byteLength":15228,
			"byteOffset":0,
			"target":34962
		},
		{
			"buffer":0,
			"byteLength":15228,
			"byteOffset":15228,
			"target":34962
		},
		{
			"buffer":0,
			"byteLength":10152,
			"byteOffset":30456,
			"target":34962
		},
		{
			"buffer":0,
			"byteLength":14208,
			"byteOffset":40608,
			"target":34963
		},
		{
			"buffer":0,
			"byteLength":7056,
			"byteOffset":54816,
			"target":34962
		},
		{
			"buffer":0,
			"byteLength":7056,
			"byteOffset":61872,
			"target":34962
		},
		{
			"buffer":0,
			"byteLength":1764,
			"byteOffset":68928,
			"target":34963
		}
	],
	"buffers":[
		{
			"byteLength":70692,
			"uri":"model.bin"
		}
	]
}
