{
	"asset":{
		"generator":"Khronos glTF Blender I/O v5.0.21",
		"version":"2.0"
	},
	"scene":0,
	"scenes":[
		{
			"name":"Scene",
			"nodes":[
				0
			]
		}
	],
	"nodes":[
		{
			"mesh":0,
			"name":"Plane",
			"rotation":[
				0.8655162453651428,
				0,
				0,
				0.5008808374404907
			],
			"scale":[
				0.004704726859927177,
				0.004704727791249752,
				0.004704727791249752
			],
			"translation":[
				0.005191472824662924,
				1.8467037677764893,
				0.16500762104988098
			]
		}
	],
	"meshes":[
		{
			"name":"Plane",
			"primitives":[
				{
					"attributes":{
						"POSITION":0,
						"NORMAL":1
					},
					"indices":2
				}
			]
		}
	],
	"accessors":[
		{
			"bufferView":0,
			"componentType":5126,
			"count":660,
			"max":[
				18.671724319458008,
				1.7705988883972168,
				21.687110900878906
			],
			"min":[
				0,
				-30.442825317382812,
				-22.35390281677246
			],
			"type":"VEC3"
		},
		{
			"bufferView":1,
			"componentType":5126,
			"count":660,
			"type":"VEC3"
		},
		{
			"bufferView":2,
			"componentType":5123,
			"count":990,
			"type":"SCALAR"
		}
	],
	"bufferViews":[
		{
			"buffer":0,
			"byteLength":7920,
			"byteOffset":0,
			"target":34962
		},
		{
			"buffer":0,
			"byteLength":7920,
			"byteOffset":7920,
			"target":34962
		},
		{
			"buffer":0,
			"byteLength":1980,
			"byteOffset":15840,
			"target":34963
		}
	],
	"buffers":[
		{
			"byteLength":17820,
			"uri":"model.bin"
		}
	]
}
