{
	"asset":{
		"generator":"Khronos glTF Blender I/O v5.0.21",
		"version":"2.0"
	},
	"scene":0,
	"scenes":[
		{
			"name":"Scene",
			"nodes":[
				0
			]
		}
	],
	"nodes":[
		{
			"mesh":0,
			"name":"Cube.000",
			"scale":[
				3.7966935634613037,
				3.7966935634613037,
				0.3208625912666321
			],
			"translation":[
				-0.005389213562011719,
				-0.008318901062011719,
				-3.202852725982666
			]
		}
	],
	"materials":[
		{
			"doubleSided":true,
			"name":"Material.001",
			"pbrMetallicRoughness":{
				"baseColorFactor":[
					0.8844221830368042,
					0.8844221830368042,
					1,
					1
				],
				"metallicFactor":0,
				"roughnessFactor":0.5
			}
		},
		{
			"doubleSided":true,
			"name":"Material.003",
			"pbrMetallicRoughness":{
				"baseColorFactor":[
					0.11714911460876465,
					0.21403466165065765,
					0.20878799259662628,
					1
				],
				"metallicFactor":0,
				"roughnessFactor":0.5
			}
		},
		{
			"doubleSided":true,
			"name":"Material",
			"pbrMetallicRoughness":{
				"baseColorFactor":[
					0.800000011920929,
					0.3878510594367981,
					0.23295855522155762,
					1
				],
				"metallicFactor":0,
				"roughnessFactor":0.5
			}
		},
		{
			"doubleSided":true,
			"name":"Material.004",
			"pbrMetallicRoughness":{
				"baseColorFactor":[
					0.13286346197128296,
					0.13286346197128296,
					0.13286346197128296,
					1
				],
				"metallicFactor":0,
				"roughnessFactor":0.5
			}
		}
	],
	"meshes":[
		{
			"name":"Cube.001",
			"primitives":[
				{
					"attributes":{
						"POSITION":0,
						"NORMAL":1
					},
					"indices":2,
					"material":0
				},
				{
					"attributes":{
						"POSITION":3,
						"NORMAL":4
					},
					"indices":5,
					"material":1
				},
				{
					"attributes":{
						"POSITION":6,
						"NORMAL":7
					},
					"indices":8,
					"material":2
				},
				{
					"attributes":{
						"POSITION":9,
						"NORMAL":10
					},
					"indices":11,
					"material":3
				}
			]
		}
	],
	"accessors":[
		{
			"bufferView":0,
			"componentType":5126,
			"count":108,
			"max":[
				0.3544968068599701,
				1.0675582885742188,
				2.3849613666534424
			],
			"min":[
				0.011828755959868431,
				0.040373072028160095,
				-1.3297568559646606
			],
			"type":"VEC3"
		},
		{
			"bufferView":1,
			"componentType":5126,
			"count":108,
			"type":"VEC3"
		},
		{
			"bufferView":2,
			"componentType":5123,
			"count":354,
			"type":"SCALAR"
		},
		{
			"bufferView":3,
			"componentType":5126,
			"count":119,
			"max":[
				0.7176064848899841,
				1.664839267730713,
				2.3849613666534424
			],
			"min":[
				0,
				0.045591093599796295,
				-1.2506625652313232
			],
			"type":"VEC3"
		},
		{
			"bufferView":4,
			"componentType":5126,
			"count":119,
			"type":"VEC3"
		},
		{
			"bufferView":5,
			"componentType":5123,
			"count":510,
			"type":"SCALAR"
		},
		{
			"bufferView":6,
			"componentType":5126,
			"count":88,
			"max":[
				0.8720580339431763,
				1.2510935068130493,
				1.1766859292984009
			],
			"min":[
				0.7301238775253296,
				1.1420960426330566,
				-0.6369578838348389
			],
			"type":"VEC3"
		},
		{
			"bufferView":7,
			"componentType":5126,
			"count":88,
			"type":"VEC3"
		},
		{
			"bufferView":8,
			"componentType":5123,
			"count":456,
			"type":"SCALAR"
		},
		{
			"bufferView":9,
			"componentType":5126,
			"count":286,
			"max":[
				0.8121027946472168,
				1.6669303178787231,
				2.6531982421875
			],
			"min":[
				-5.4070667943051376e-08,
				0.025345884263515472,
				-1.5539162158966064
			],
			"type":"VEC3"
		},
		{
			"bufferView":10,
			"componentType":5126,
			"count":286,
			"type":"VEC3"
		},
		{
			"bufferView":11,
			"componentType":5123,
			"count":1242,
			"type":"SCALAR"
		}
	],
	"bufferViews":[
		{
			"buffer":0,
			"byteLength":1296,
			"byteOffset":0,
			"target":34962
		},
		{
			"buffer":0,
			"byteLength":1296,
			"byteOffset":1296,
			"target":34962
		},
		{
			"buffer":0,
			"byteLength":708,
			"byteOffset":2592,
			"target":34963
		},
		{
			"buffer":0,
			"byteLength":1428,
			"byteOffset":3300,
			"target":34962
		},
		{
			"buffer":0,
			"byteLength":1428,
			"byteOffset":4728,
			"target":34962
		},
		{
			"buffer":0,
			"byteLength":1020,
			"byteOffset":6156,
			"target":34963
		},
		{
			"buffer":0,
			"byteLength":1056,
			"byteOffset":7176,
			"target":34962
		},
		{
			"buffer":0,
			"byteLength":1056,
			"byteOffset":8232,
			"target":34962
		},
		{
			"buffer":0,
			"byteLength":912,
			"byteOffset":9288,
			"target":34963
		},
		{
			"buffer":0,
			"byteLength":3432,
			"byteOffset":10200,
			"target":34962
		},
		{
			"buffer":0,
			"byteLength":3432,
			"byteOffset":13632,
			"target":34962
		},
		{
			"buffer":0,
			"byteLength":2484,
			"byteOffset":17064,
			"target":34963
		}
	],
	"buffers":[
		{
			"byteLength":19548,
			"uri":"model.bin"
		}
	]
}
