{
	"asset":{
		"generator":"Khronos glTF Blender I/O v5.0.21",
		"version":"2.0"
	},
	"extensionsUsed":[
		"KHR_materials_specular",
		"KHR_materials_ior"
	],
	"scene":0,
	"scenes":[
		{
			"name":"Scene",
			"nodes":[
				0,
				1,
				2
			]
		}
	],
	"nodes":[
		{
			"mesh":0,
			"name":"Slide",
			"rotation":[
				0,
				1,
				0,
				0
			],
			"scale":[
				-0.18335579335689545,
				-0.29692310094833374,
				-2.388822078704834
			],
			"translation":[
				-0.002703797072172165,
				1.2718504667282104,
				0.9459960460662842
			]
		},
		{
			"mesh":1,
			"name":"Base",
			"rotation":[
				0.34918633103370667,
				0,
				0,
				0.9370533227920532
			],
			"scale":[
				0.10760079324245453,
				0.20398065447807312,
				0.10760080069303513
			],
			"translation":[
				-0.0035376660525798798,
				0.29038476943969727,
				0.11143054068088531
			]
		},
		{
			"mesh":2,
			"name":"Canon",
			"rotation":[
				0.7071068286895752,
				0,
				0,
				0.7071068286895752
			],
			"scale":[
				0.14359605312347412,
				1.1916314363479614,
				0.14359605312347412
			],
			"translation":[
				0,
				1.2645213603973389,
				-1.2802107334136963
			]
		}
	],
	"materials":[
		{
			"doubleSided":true,
			"extensions":{
				"KHR_materials_specular":{
					"specularColorFactor":[
						1.9822622537612915,
						1.9822622537612915,
						1.9822622537612915
					]
				},
				"KHR_materials_ior":{
					"ior":1.4500000476837158
				}
			},
			"name":"Material.001",
			"pbrMetallicRoughness":{
				"baseColorFactor":[
					0.0005154914688318968,
					0.0005154914688318968,
					0.0005154914688318968,
					1
				],
				"metallicFactor":0.3611111044883728,
				"roughnessFactor":0.4444444477558136
			}
		}
	],
	"meshes":[
		{
			"name":"Cube.007",
			"primitives":[
				{
					"attributes":{
						"POSITION":0,
						"NORMAL":1,
						"TEXCOORD_0":2
					},
					"indices":3,
					"material":0
				}
			]
		},
		{
			"name":"Cube.010",
			"primitives":[
				{
					"attributes":{
						"POSITION":4,
						"NORMAL":5,
						"TEXCOORD_0":6
					},
					"indices":7,
					"material":0
				}
			]
		},
		{
			"name":"Cylinder",
			"primitives":[
				{
					"attributes":{
						"POSITION":8,
						"NORMAL":9,
						"TEXCOORD_0":10
					},
					"indices":11,
					"material":0
				}
			]
		}
	],
	"accessors":[
		{
			"bufferView":0,
			"componentType":5126,
			"count":72,
			"max":[
				1,
				1,
				1
			],
			"min":[
				-1,
				-1.8166595697402954,
				-1
			],
			"type":"VEC3"
		},
		{
			"bufferView":1,
			"componentType":5126,
			"count":72,
			"type":"VEC3"
		},
		{
			"bufferView":2,
			"componentType":5126,
			"count":72,
			"type":"VEC2"
		},
		{
			"bufferView":3,
			"componentType":5123,
			"count":108,
			"type":"SCALAR"
		},
		{
			"bufferView":4,
			"componentType":5126,
			"count":180,
			"max":[
				1.80801522731781,
				9.495655059814453,
				25.60000228881836
			],
			"min":[
				-1.7925199270248413,
				-7.9444427490234375,
				-22.398094177246094
			],
			"type":"VEC3"
		},
		{
			"bufferView":5,
			"componentType":5126,
			"count":180,
			"type":"VEC3"
		},
		{
			"bufferView":6,
			"componentType":5126,
			"count":180,
			"type":"VEC2"
		},
		{
			"bufferView":7,
			"componentType":5123,
			"count":288,
			"type":"SCALAR"
		},
		{
			"bufferView":8,
			"componentType":5126,
			"count":192,
			"max":[
				1,
				1,
				1
			],
			"min":[
				-1,
				-1,
				-1
			],
			"type":"VEC3"
		},
		{
			"bufferView":9,
			"componentType":5126,
			"count":192,
			"type":"VEC3"
		},
		{
			"bufferView":10,
			"componentType":5126,
			"count":192,
			"type":"VEC2"
		},
		{
			"bufferView":11,
			"componentType":5123,
			"count":372,
			"type":"SCALAR"
		}
	],
	"bufferViews":[
		{
			"buffer":0,
			"byteLength":864,
			"byteOffset":0,
			"target":34962
		},
		{
			"buffer":0,
			"byteLength":864,
			"byteOffset":864,
			"target":34962
		},
		{
			"buffer":0,
			"byteLength":576,
			"byteOffset":1728,
			"target":34962
		},
		{
			"buffer":0,
			"byteLength":216,
			"byteOffset":2304,
			"target":34963
		},
		{
			"buffer":0,
			"byteLength":2160,
			"byteOffset":2520,
			"target":34962
		},
		{
			"buffer":0,
			"byteLength":2160,
			"byteOffset":4680,
			"target":34962
		},
		{
			"buffer":0,
			"byteLength":1440,
			"byteOffset":6840,
			"target":34962
		},
		{
			"buffer":0,
			"byteLength":576,
			"byteOffset":8280,
			"target":34963
		},
		{
			"buffer":0,
			"byteLength":2304,
			"byteOffset":8856,
			"target":34962
		},
		{
			"buffer":0,
			"byteLength":2304,
			"byteOffset":11160,
			"target":34962
		},
		{
			"buffer":0,
			"byteLength":1536,
			"byteOffset":13464,
			"target":34962
		},
		{
			"buffer":0,
			"byteLength":744,
			"byteOffset":15000,
			"target":34963
		}
	],
	"buffers":[
		{
			"byteLength":15744,
			"uri":"model.bin"
		}
	]
}
