{
	"asset":{
		"generator":"Khronos glTF Blender I/O v5.0.21",
		"version":"2.0"
	},
	"scene":0,
	"scenes":[
		{
			"name":"Scene",
			"nodes":[
				0,
				1,
				18
			]
		}
	],
	"nodes":[
		{
			"mesh":0,
			"name":"Cube",
			"translation":[
				0,
				3.241255521774292,
				0
			]
		},
		{
			"mesh":1,
			"name":"mirror",
			"rotation":[
				-0.7071068286895752,
				0,
				0,
				0.7071068286895752
			],
			"translation":[
				0,
				0,
				0.3697511851787567
			]
		},
		{
			"name":"Bone.005",
			"rotation":[
				0.06615637242794037,
				-0.02242000587284565,
				0.1337403953075409,
				0.9885515570640564
			],
			"scale":[
				1,
				1,
				1.0000001192092896
			],
			"translation":[
				0,
				0.860682487487793,
				-2.123415470123291e-07
			]
		},
		{
			"children":[
				2
			],
			"name":"Bone.004",
			"rotation":[
				0.0755133256316185,
				0.0040420894511044025,
				-0.15393668413162231,
				0.9851827025413513
			],
			"scale":[
				0.9999999403953552,
				1,
				0.9999998807907104
			],
			"translation":[
				-1.4901161193847656e-08,
				2.3683598041534424,
				-5.42961061000824e-07
			]
		},
		{
			"children":[
				3
			],
			"name":"Bone.003",
			"rotation":[
				-0.6965615153312683,
				-0.22857768833637238,
				0.25233525037765503,
				0.6315704584121704
			],
			"scale":[
				1,
				1.0000001192092896,
				0.9999998807907104
			],
			"translation":[
				-1.3483804650604725e-07,
				0.2575480043888092,
				1.6763806343078613e-08
			]
		},
		{
			"name":"Bone.009",
			"rotation":[
				0.13295994699001312,
				0.0003955722786486149,
				0.0006498372531495988,
				0.9911211133003235
			],
			"scale":[
				1,
				1.0000001192092896,
				1
			],
			"translation":[
				2.2351741790771484e-08,
				1.4806774854660034,
				-4.675239324569702e-07
			]
		},
		{
			"children":[
				5
			],
			"name":"Bone.008",
			"rotation":[
				-0.07144332677125931,
				0.00876714289188385,
				-0.06231768801808357,
				0.9954574108123779
			],
			"scale":[
				1.0000001192092896,
				0.9999998807907104,
				0.9999998807907104
			],
			"translation":[
				7.450580596923828e-09,
				1.828726053237915,
				1.1082738637924194e-07
			]
		},
		{
			"children":[
				6
			],
			"name":"Bone.007",
			"rotation":[
				0.7219247817993164,
				0.18614628911018372,
				0.21892833709716797,
				0.6294795870780945
			],
			"scale":[
				1,
				1,
				1.0000001192092896
			],
			"translation":[
				-1.3483804650604725e-07,
				0.2575480043888092,
				1.6763806343078613e-08
			]
		},
		{
			"name":"Bone.017",
			"rotation":[
				0.024941066280007362,
				-0.0014197640120983124,
				0.3071138858795166,
				0.9513448476791382
			],
			"scale":[
				1,
				0.9999999403953552,
				0.9999998807907104
			],
			"translation":[
				-1.3483804650604725e-07,
				0.2575480043888092,
				1.6763806343078613e-08
			]
		},
		{
			"children":[
				4,
				7,
				8
			],
			"name":"Bone.002",
			"rotation":[
				-0.015845218673348427,
				0.006287492346018553,
				-0.4015387296676636,
				0.915683388710022
			],
			"scale":[
				0.9999999403953552,
				0.9999999403953552,
				1
			],
			"translation":[
				2.3442844110377337e-08,
				0.8660145998001099,
				-6.554607523412415e-09
			]
		},
		{
			"children":[
				9
			],
			"name":"Bone.001",
			"rotation":[
				6.021949161549855e-08,
				1.515348628799984e-07,
				0.1987965703010559,
				0.9800407886505127
			],
			"translation":[
				5.4544887717611346e-08,
				1.0249849557876587,
				7.31009563992302e-09
			]
		},
		{
			"children":[
				10
			],
			"name":"Bone",
			"rotation":[
				2.3426260042924696e-08,
				6.161106824720264e-08,
				-0.11039968580007553,
				0.9938873052597046
			],
			"scale":[
				1.0000001192092896,
				1.0000001192092896,
				1
			],
			"translation":[
				0.10496272146701813,
				-1.1920928955078125e-07,
				2.9802322387695312e-08
			]
		},
		{
			"name":"Bone.013",
			"rotation":[
				0.010546461679041386,
				0.00017285200010519475,
				0.12812526524066925,
				0.9917019009590149
			],
			"scale":[
				0.9999999403953552,
				0.9999998807907104,
				1
			],
			"translation":[
				-3.259629011154175e-08,
				1.620898962020874,
				2.0023435354232788e-08
			]
		},
		{
			"children":[
				12
			],
			"name":"Bone.012",
			"rotation":[
				-0.7050384283065796,
				-0.08328291028738022,
				-0.03333371505141258,
				0.7034725546836853
			],
			"translation":[
				7.772150922846777e-09,
				0.5172398686408997,
				1.2185325637403821e-08
			]
		},
		{
			"children":[
				13
			],
			"name":"Bone.011",
			"rotation":[
				-0.7070637941360474,
				-0.007786072790622711,
				-0.007786072790622711,
				0.7070640325546265
			],
			"translation":[
				0.09993928670883179,
				-1.1920928955078125e-07,
				2.9802322387695312e-08
			]
		},
		{
			"name":"Bone.016",
			"rotation":[
				-0.012354357168078423,
				0.0003123171045444906,
				-0.14310216903686523,
				0.9896307587623596
			],
			"scale":[
				0.9999999403953552,
				1,
				1.0000001192092896
			],
			"translation":[
				2.7939677238464355e-09,
				1.6179088354110718,
				4.0978193283081055e-08
			]
		},
		{
			"children":[
				15
			],
			"name":"Bone.015",
			"rotation":[
				-0.6843646168708801,
				-0.027357051149010658,
				0.17610639333724976,
				0.7070242762565613
			],
			"translation":[
				-4.842877388000488e-08,
				0.4852091073989868,
				-1.399093889631331e-07
			]
		},
		{
			"children":[
				16
			],
			"name":"Bone.014",
			"rotation":[
				-0.08140988647937775,
				0.690686821937561,
				0.7134872078895569,
				0.0852070078253746
			],
			"scale":[
				0.9999969005584717,
				0.9999999403953552,
				0.9999999403953552
			],
			"translation":[
				0.13662123680114746,
				-1.1920928955078125e-07,
				2.9802322387695312e-08
			]
		},
		{
			"children":[
				11,
				14,
				17
			],
			"name":"Armature",
			"scale":[
				1.4151240587234497,
				1.4151240587234497,
				1.4151240587234497
			],
			"translation":[
				0.0178995281457901,
				2.370314598083496,
				0.36589112877845764
			]
		}
	],
	"materials":[
		{
			"doubleSided":true,
			"name":"suit",
			"pbrMetallicRoughness":{
				"baseColorFactor":[
					0.05161155015230179,
					0.047909218817949295,
					1,
					1
				],
				"metallicFactor":0
			}
		},
		{
			"doubleSided":true,
			"name":"vest",
			"pbrMetallicRoughness":{
				"baseColorFactor":[
					0.01779044419527054,
					0.01779044419527054,
					0.01779044419527054,
					1
				],
				"metallicFactor":0,
				"roughnessFactor":0.6904761791229248
			}
		},
		{
			"doubleSided":true,
			"name":"pads",
			"pbrMetallicRoughness":{
				"baseColorFactor":[
					0.04518423229455948,
					0.04518423229455948,
					0.04518423229455948,
					1
				],
				"metallicFactor":0.511904776096344,
				"roughnessFactor":0.5
			}
		},
		{
			"doubleSided":true,
			"name":"boots",
			"pbrMetallicRoughness":{
				"baseColorFactor":[
					0.03665934503078461,
					0.03665934503078461,
					0.03665934503078461,
					1
				],
				"metallicFactor":0,
				"roughnessFactor":0.369047611951828
			}
		},
		{
			"doubleSided":true,
			"name":"mask",
			"pbrMetallicRoughness":{
				"baseColorFactor":[
					0.05052919685840607,
					0.05052919685840607,
					0.05052919685840607,
					1
				],
				"metallicFactor":0.2857142984867096,
				"roughnessFactor":0.3333333134651184
			}
		},
		{
			"doubleSided":true,
			"emissiveFactor":[
				0.6927596075643976,
				0.03599890958948482,
				0.05938420547574097
			],
			"name":"goggles",
			"pbrMetallicRoughness":{
				"baseColorFactor":[
					0.5852233171463013,
					0.005019668489694595,
					0.016742028295993805,
					1
				],
				"metallicFactor":0,
				"roughnessFactor":0.5
			}
		},
		{
			"doubleSided":true,
			"name":"rims",
			"pbrMetallicRoughness":{
				"baseColorFactor":[
					0.5025202631950378,
					0.5025202631950378,
					0.5025202631950378,
					1
				],
				"roughnessFactor":0.4166666865348816
			}
		},
		{
			"doubleSided":true,
			"name":"helmet",
			"pbrMetallicRoughness":{
				"baseColorFactor":[
					0.059207573533058167,
					0.059207573533058167,
					0.059207573533058167,
					1
				],
				"metallicFactor":0.2976190447807312,
				"roughnessFactor":0.380952388048172
			}
		},
		{
			"doubleSided":true,
			"name":"gloves",
			"pbrMetallicRoughness":{
				"baseColorFactor":[
					0.067057766020298,
					0.067057766020298,
					0.067057766020298,
					1
				],
				"metallicFactor":0,
				"roughnessFactor":0.6428571343421936
			}
		}
	],
	"meshes":[
		{
			"name":"Cube",
			"primitives":[
				{
					"attributes":{
						"POSITION":0,
						"NORMAL":1,
						"TEXCOORD_0":2
					},
					"indices":3,
					"material":0
				},
				{
					"attributes":{
						"POSITION":4,
						"NORMAL":5,
						"TEXCOORD_0":6
					},
					"indices":7,
					"material":1
				},
				{
					"attributes":{
						"POSITION":8,
						"NORMAL":9,
						"TEXCOORD_0":10
					},
					"indices":11,
					"material":2
				},
				{
					"attributes":{
						"POSITION":12,
						"NORMAL":13,
						"TEXCOORD_0":14
					},
					"indices":15,
					"material":3
				},
				{
					"attributes":{
						"POSITION":16,
						"NORMAL":17,
						"TEXCOORD_0":18
					},
					"indices":19,
					"material":4
				},
				{
					"attributes":{
						"POSITION":20,
						"NORMAL":21,
						"TEXCOORD_0":22
					},
					"indices":23,
					"material":5
				},
				{
					"attributes":{
						"POSITION":24,
						"NORMAL":25,
						"TEXCOORD_0":26
					},
					"indices":27,
					"material":6
				},
				{
					"attributes":{
						"POSITION":28,
						"NORMAL":29,
						"TEXCOORD_0":30
					},
					"indices":31,
					"material":7
				},
				{
					"attributes":{
						"POSITION":32,
						"NORMAL":33,
						"TEXCOORD_0":34
					},
					"indices":35,
					"material":8
				}
			]
		},
		{
			"name":"Plane",
			"primitives":[
				{
					"attributes":{
						"POSITION":36,
						"NORMAL":37,
						"TEXCOORD_0":38
					},
					"indices":39
				}
			]
		}
	],
	"skins":[
		{
			"inverseBindMatrices":40,
			"joints":[
				11,
				10,
				9,
				4,
				3,
				2,
				7,
				6,
				5,
				8,
				14,
				13,
				12,
				17,
				16,
				15
			],
			"name":"Armature"
		}
	],
	"accessors":[
		{
			"bufferView":0,
			"componentType":5126,
			"count":806,
			"max":[
				1.3852009773254395,
				3.9336133003234863,
				4.9685893058776855
			],
			"min":[
				-0.16900888085365295,
				-4.324871063232422,
				-4.229085922241211
			],
			"type":"VEC3"
		},
		{
			"bufferView":1,
			"componentType":5126,
			"count":806,
			"type":"VEC3"
		},
		{
			"bufferView":2,
			"componentType":5126,
			"count":806,
			"type":"VEC2"
		},
		{
			"bufferView":3,
			"componentType":5123,
			"count":4026,
			"type":"SCALAR"
		},
		{
			"bufferView":4,
			"componentType":5126,
			"count":437,
			"max":[
				1.3962069749832153,
				2.4739208221435547,
				1.7993429899215698
			],
			"min":[
				-0.20480342209339142,
				-0.47192925214767456,
				-0.8810961246490479
			],
			"type":"VEC3"
		},
		{
			"bufferView":5,
			"componentType":5126,
			"count":437,
			"type":"VEC3"
		},
		{
			"bufferView":6,
			"componentType":5126,
			"count":437,
			"type":"VEC2"
		},
		{
			"bufferView":7,
			"componentType":5123,
			"count":2376,
			"type":"SCALAR"
		},
		{
			"bufferView":8,
			"componentType":5126,
			"count":282,
			"max":[
				1.2567769289016724,
				-2.559532403945923,
				1.6502315998077393
			],
			"min":[
				0.03324782848358154,
				-3.3590874671936035,
				-0.9107292890548706
			],
			"type":"VEC3"
		},
		{
			"bufferView":9,
			"componentType":5126,
			"count":282,
			"type":"VEC3"
		},
		{
			"bufferView":10,
			"componentType":5126,
			"count":282,
			"type":"VEC2"
		},
		{
			"bufferView":11,
			"componentType":5123,
			"count":1440,
			"type":"SCALAR"
		},
		{
			"bufferView":12,
			"componentType":5126,
			"count":392,
			"max":[
				1.4743847846984863,
				-4.324871063232422,
				1.5048812627792358
			],
			"min":[
				-0.07386476546525955,
				-5.829672813415527,
				-0.7653790712356567
			],
			"type":"VEC3"
		},
		{
			"bufferView":13,
			"componentType":5126,
			"count":392,
			"type":"VEC3"
		},
		{
			"bufferView":14,
			"componentType":5126,
			"count":392,
			"type":"VEC2"
		},
		{
			"bufferView":15,
			"componentType":5123,
			"count":2064,
			"type":"SCALAR"
		},
		{
			"bufferView":16,
			"componentType":5126,
			"count":86,
			"max":[
				1.5309648513793945,
				3.250580310821533,
				0.9238313436508179
			],
			"min":[
				0.014460276812314987,
				2.366931676864624,
				-0.18432798981666565
			],
			"type":"VEC3"
		},
		{
			"bufferView":17,
			"componentType":5126,
			"count":86,
			"type":"VEC3"
		},
		{
			"bufferView":18,
			"componentType":5126,
			"count":86,
			"type":"VEC2"
		},
		{
			"bufferView":19,
			"componentType":5123,
			"count":384,
			"type":"SCALAR"
		},
		{
			"bufferView":20,
			"componentType":5126,
			"count":16,
			"max":[
				1.3202863931655884,
				3.4260313510894775,
				0.8016872406005859
			],
			"min":[
				1.3202861547470093,
				3.102598190307617,
				-0.062183890491724014
			],
			"type":"VEC3"
		},
		{
			"bufferView":21,
			"componentType":5126,
			"count":16,
			"type":"VEC3"
		},
		{
			"bufferView":22,
			"componentType":5126,
			"count":16,
			"type":"VEC2"
		},
		{
			"bufferView":23,
			"componentType":5123,
			"count":36,
			"type":"SCALAR"
		},
		{
			"bufferView":24,
			"componentType":5126,
			"count":154,
			"max":[
				1.5507962703704834,
				3.465186595916748,
				0.8407858610153198
			],
			"min":[
				1.1869932413101196,
				2.5313799381256104,
				-0.101282499730587
			],
			"type":"VEC3"
		},
		{
			"bufferView":25,
			"componentType":5126,
			"count":154,
			"type":"VEC3"
		},
		{
			"bufferView":26,
			"componentType":5126,
			"count":154,
			"type":"VEC2"
		},
		{
			"bufferView":27,
			"componentType":5123,
			"count":540,
			"type":"SCALAR"
		},
		{
			"bufferView":28,
			"componentType":5126,
			"count":298,
			"max":[
				1.5349022150039673,
				4.229555130004883,
				1.09956955909729
			],
			"min":[
				-0.23475022614002228,
				2.8848745822906494,
				-0.3600662350654602
			],
			"type":"VEC3"
		},
		{
			"bufferView":29,
			"componentType":5126,
			"count":298,
			"type":"VEC3"
		},
		{
			"bufferView":30,
			"componentType":5126,
			"count":298,
			"type":"VEC2"
		},
		{
			"bufferView":31,
			"componentType":5123,
			"count":1548,
			"type":"SCALAR"
		},
		{
			"bufferView":32,
			"componentType":5126,
			"count":864,
			"max":[
				0.8505957722663879,
				2.073636054992676,
				6.090243816375732
			],
			"min":[
				-0.040423810482025146,
				1.5915846824645996,
				-5.350740432739258
			],
			"type":"VEC3"
		},
		{
			"bufferView":33,
			"componentType":5126,
			"count":864,
			"type":"VEC3"
		},
		{
			"bufferView":34,
			"componentType":5126,
			"count":864,
			"type":"VEC2"
		},
		{
			"bufferView":35,
			"componentType":5123,
			"count":3240,
			"type":"SCALAR"
		},
		{
			"bufferView":36,
			"componentType":5126,
			"count":4,
			"max":[
				1,
				0,
				1
			],
			"min":[
				-1,
				0,
				-1
			],
			"type":"VEC3"
		},
		{
			"bufferView":37,
			"componentType":5126,
			"count":4,
			"type":"VEC3"
		},
		{
			"bufferView":38,
			"componentType":5126,
			"count":4,
			"type":"VEC2"
		},
		{
			"bufferView":39,
			"componentType":5123,
			"count":6,
			"type":"SCALAR"
		},
		{
			"bufferView":40,
			"componentType":5126,
			"count":16,
			"type":"MAT4"
		}
	],
	"bufferViews":[
		{
			"buffer":0,
			"byteLength":9672,
			"byteOffset":0,
			"target":34962
		},
		{
			"buffer":0,
			"byteLength":9672,
			"byteOffset":9672,
			"target":34962
		},
		{
			"buffer":0,
			"byteLength":6448,
			"byteOffset":19344,
			"target":34962
		},
		{
			"buffer":0,
			"byteLength":8052,
			"byteOffset":25792,
			"target":34963
		},
		{
			"buffer":0,
			"byteLength":5244,
			"byteOffset":33844,
			"target":34962
		},
		{
			"buffer":0,
			"byteLength":5244,
			"byteOffset":39088,
			"target":34962
		},
		{
			"buffer":0,
			"byteLength":3496,
			"byteOffset":44332,
			"target":34962
		},
		{
			"buffer":0,
			"byteLength":4752,
			"byteOffset":47828,
			"target":34963
		},
		{
			"buffer":0,
			"byteLength":3384,
			"byteOffset":52580,
			"target":34962
		},
		{
			"buffer":0,
			"byteLength":3384,
			"byteOffset":55964,
			"target":34962
		},
		{
			"buffer":0,
			"byteLength":2256,
			"byteOffset":59348,
			"target":34962
		},
		{
			"buffer":0,
			"byteLength":2880,
			"byteOffset":61604,
			"target":34963
		},
		{
			"buffer":0,
			"byteLength":4704,
			"byteOffset":64484,
			"target":34962
		},
		{
			"buffer":0,
			"byteLength":4704,
			"byteOffset":69188,
			"target":34962
		},
		{
			"buffer":0,
			"byteLength":3136,
			"byteOffset":73892,
			"target":34962
		},
		{
			"buffer":0,
			"byteLength":4128,
			"byteOffset":77028,
			"target":34963
		},
		{
			"buffer":0,
			"byteLength":1032,
			"byteOffset":81156,
			"target":34962
		},
		{
			"buffer":0,
			"byteLength":1032,
			"byteOffset":82188,
			"target":34962
		},
		{
			"buffer":0,
			"byteLength":688,
			"byteOffset":83220,
			"target":34962
		},
		{
			"buffer":0,
			"byteLength":768,
			"byteOffset":83908,
			"target":34963
		},
		{
			"buffer":0,
			"byteLength":192,
			"byteOffset":84676,
			"target":34962
		},
		{
			"buffer":0,
			"byteLength":192,
			"byteOffset":84868,
			"target":34962
		},
		{
			"buffer":0,
			"byteLength":128,
			"byteOffset":85060,
			"target":34962
		},
		{
			"buffer":0,
			"byteLength":72,
			"byteOffset":85188,
			"target":34963
		},
		{
			"buffer":0,
			"byteLength":1848,
			"byteOffset":85260,
			"target":34962
		},
		{
			"buffer":0,
			"byteLength":1848,
			"byteOffset":87108,
			"target":34962
		},
		{
			"buffer":0,
			"byteLength":1232,
			"byteOffset":88956,
			"target":34962
		},
		{
			"buffer":0,
			"byteLength":1080,
			"byteOffset":90188,
			"target":34963
		},
		{
			"buffer":0,
			"byteLength":3576,
			"byteOffset":91268,
			"target":34962
		},
		{
			"buffer":0,
			"byteLength":3576,
			"byteOffset":94844,
			"target":34962
		},
		{
			"buffer":0,
			"byteLength":2384,
			"byteOffset":98420,
			"target":34962
		},
		{
			"buffer":0,
			"byteLength":3096,
			"byteOffset":100804,
			"target":34963
		},
		{
			"buffer":0,
			"byteLength":10368,
			"byteOffset":103900,
			"target":34962
		},
		{
			"buffer":0,
			"byteLength":10368,
			"byteOffset":114268,
			"target":34962
		},
		{
			"buffer":0,
			"byteLength":6912,
			"byteOffset":124636,
			"target":34962
		},
		{
			"buffer":0,
			"byteLength":6480,
			"byteOffset":131548,
			"target":34963
		},
		{
			"buffer":0,
			"byteLength":48,
			"byteOffset":138028,
			"target":34962
		},
		{
			"buffer":0,
			"byteLength":48,
			"byteOffset":138076,
			"target":34962
		},
		{
			"buffer":0,
			"byteLength":32,
			"byteOffset":138124,
			"target":34962
		},
		{
			"buffer":0,
			"byteLength":12,
			"byteOffset":138156,
			"target":34963
		},
		{
			"buffer":0,
			"byteLength":1024,
			"byteOffset":138168
		}
	],
	"buffers":[
		{
			"byteLength":139192,
			"uri":"model.bin"
		}
	]
}
