# by drummyfish, released under CC0 1.0, public domain 
v -1.182672 0.374044 0.064220
v -1.239826 0.679903 0.084419
v -0.137484 -0.399235 0.078753
v 0.298908 -0.318629 0.078753
v 0.232999 0.374044 0.064220
v 0.231610 0.679903 0.084419
v 0.141939 0.205896 0.057277
v -0.226857 0.102788 0.057277
v -0.528790 0.140530 0.045471
v -0.590889 0.374044 0.064220
v -0.230711 0.163132 0.057277
v -0.481516 0.189407 0.045471
v -0.523206 0.374044 0.064220
v -0.251737 0.374044 0.064220
v -1.239826 0.495355 0.087726
v 0.231610 0.495355 0.087726
v -1.182672 0.374044 -0.064220
v -1.239826 0.679903 -0.084419
v -0.137484 -0.399235 -0.078753
v 0.298908 -0.318629 -0.078753
v 0.232999 0.374044 -0.064220
v 0.231610 0.679903 -0.084419
v 0.141939 0.205896 -0.057277
v -0.226857 0.102788 -0.057277
v -0.528790 0.140530 -0.045471
v -0.590889 0.374044 -0.064220
v -0.230711 0.163132 -0.057277
v -0.481516 0.189407 -0.045471
v -0.523206 0.374044 -0.064220
v -0.251737 0.374044 -0.064220
v -1.239826 0.495355 -0.087726
v 0.231610 0.495355 -0.087726
v 0.092695 -0.417714 0.078753
v 0.092695 -0.417714 -0.078753
vn 0.0000 -0.1010 0.9949
vn 0.0135 -0.0931 0.9956
vn 0.0088 -0.0182 0.9998
vn -0.0455 0.0024 0.9990
vn -0.0473 -0.0030 0.9989
vn 0.0177 -0.0171 0.9997
vn 0.0000 -0.1902 0.9817
vn 0.0005 -0.0172 0.9999
vn -0.0011 -0.0090 1.0000
vn 0.0030 -0.0396 0.9992
vn 0.0000 -0.0329 0.9995
vn -0.0063 0.0224 0.9997
vn -0.0020 0.0364 0.9993
vn -0.0172 0.0358 0.9992
vn -0.0052 0.0348 0.9994
vn -0.0000 0.0179 0.9998
vn -0.9046 -0.4262 0.0000
vn 0.0000 -0.1010 -0.9949
vn 0.0088 -0.0182 -0.9998
vn 0.0136 -0.0931 -0.9956
vn -0.0473 -0.0030 -0.9989
vn -0.0455 0.0024 -0.9990
vn 0.0177 -0.0171 -0.9997
vn 0.0000 -0.1902 -0.9817
vn 0.0005 -0.0172 -0.9999
vn 0.0030 -0.0396 -0.9992
vn -0.0011 -0.0090 -1.0000
vn 0.0000 -0.0329 -0.9995
vn -0.0063 0.0224 -0.9997
vn -0.0020 0.0364 -0.9993
vn -0.0052 0.0348 -0.9994
vn -0.0172 0.0358 -0.9992
vn -0.0000 0.0179 -0.9998
vn 0.0000 -1.0000 0.0000
vn -0.9664 -0.2570 0.0000
vn -0.6636 -0.7481 0.0000
vn -0.1240 -0.9923 0.0000
vn -0.9845 -0.1753 0.0000
vn -0.0800 -0.9968 0.0000
vn 0.1829 -0.9831 0.0000
vn 0.4331 -0.9013 0.0000
vn 0.9580 0.2867 0.0000
vn 0.9948 -0.1022 0.0000
vn 0.8793 -0.4762 0.0000
vn 0.9999 0.0114 0.0000
vn 1.0000 0.0054 0.0000
vn 1.0000 0.0000 0.0000
vn 0.0000 1.0000 0.0000
vn -1.0000 0.0000 0.0000
vn 0.6727 0.7399 0.0000
vn 0.1042 0.9946 0.0000
vn 0.9754 0.2202 0.0000
vn 0.9754 0.2203 0.0000
vn -0.9951 -0.0992 0.0000
s 1
f 13//1 10//2 12//3
f 12//3 8//4 11//5
f 8//4 12//3 9//6
f 10//2 9//6 12//3
s 2
f 14//7 5//7 16//7
f 14//7 16//7 13//7
f 10//7 15//7 1//7
f 13//7 15//7 10//7
f 16//7 15//7 13//7
s 3
f 11//8 7//9 5//10
f 14//11 11//8 5//10
f 8//12 7//9 11//8
f 8//12 3//13 7//9
f 4//14 7//9 33//15
f 7//9 3//13 33//15
s 4
f 15//16 16//16 6//16
f 2//16 15//16 6//16
s 5
f 15//17 17//17 1//17
f 17//17 15//17 31//17
s 6
f 29//18 28//19 26//20
f 28//19 27//21 24//22
f 24//22 25//23 28//19
f 26//20 28//19 25//23
s 7
f 30//24 32//24 21//24
f 30//24 29//24 32//24
f 26//24 17//24 31//24
f 29//24 26//24 31//24
f 32//24 29//24 31//24
s 8
f 27//25 21//26 23//27
f 30//28 21//26 27//25
f 24//29 27//25 23//27
f 24//29 23//27 19//30
f 34//31 23//27 20//32
f 23//27 34//31 19//30
s 9
f 31//33 22//33 32//33
f 18//33 22//33 31//33
s 10
f 17//34 26//34 1//34
f 10//34 1//34 26//34
s 11
f 26//35 25//36 10//35
f 10//35 25//36 9//36
f 25//36 24//37 9//36
f 9//36 24//37 8//37
s 12
f 24//38 19//38 8//38
f 8//38 19//38 3//38
s 13
f 3//39 19//39 34//40
f 3//39 34//40 33//40
f 33//40 20//41 4//41
f 20//41 33//40 34//40
s 14
f 20//42 23//43 4//42
f 4//42 23//43 7//43
f 23//43 21//44 7//43
f 7//43 21//44 5//44
s 15
f 21//45 32//46 5//45
f 5//45 32//46 16//46
f 32//46 22//47 16//46
f 16//46 22//47 6//47
s 16
f 22//48 18//48 6//48
f 6//48 18//48 2//48
s 17
f 18//49 31//49 2//49
f 2//49 31//49 15//49
s 18
f 12//50 11//51 28//50
f 28//50 11//51 27//51
f 28//50 29//52 12//50
f 12//50 29//52 13//53
s 19
f 11//54 14//54 27//54
f 27//54 14//54 30//54
s 20
f 14//34 13//34 30//34
f 29//34 30//34 13//34
