{
	"asset":{
		"generator":"Khronos glTF Blender I/O v5.0.21",
		"version":"2.0"
	},
	"scene":0,
	"scenes":[
		{
			"name":"Scene",
			"nodes":[
				0,
				1
			]
		}
	],
	"nodes":[
		{
			"mesh":0,
			"name":"Recurs147"
		},
		{
			"mesh":1,
			"name":"Recurs147_Tris"
		}
	],
	"materials":[
		{
			"doubleSided":true,
			"name":"Black",
			"pbrMetallicRoughness":{
				"baseColorFactor":[
					0.03853373974561691,
					0.03853373974561691,
					0.03853373974561691,
					1
				],
				"metallicFactor":0.20000000298023224,
				"roughnessFactor":0.75
			}
		},
		{
			"doubleSided":true,
			"name":"Gold",
			"pbrMetallicRoughness":{
				"baseColorFactor":[
					1,
					0.18309837579727173,
					0.020793123170733452,
					1
				],
				"metallicFactor":0.699999988079071,
				"roughnessFactor":0.75
			}
		},
		{
			"doubleSided":true,
			"name":"RubberBlack",
			"pbrMetallicRoughness":{
				"baseColorFactor":[
					0.020038360729813576,
					0.020038360729813576,
					0.020038360729813576,
					1
				],
				"metallicFactor":0
			}
		}
	],
	"meshes":[
		{
			"name":"Plane.004",
			"primitives":[
				{
					"attributes":{
						"POSITION":0,
						"NORMAL":1,
						"TEXCOORD_0":2
					},
					"indices":3,
					"material":0
				},
				{
					"attributes":{
						"POSITION":4,
						"NORMAL":5,
						"TEXCOORD_0":6
					},
					"indices":7,
					"material":1
				},
				{
					"attributes":{
						"POSITION":8,
						"NORMAL":9,
						"TEXCOORD_0":10
					},
					"indices":11,
					"material":2
				}
			]
		},
		{
			"name":"Plane.007",
			"primitives":[
				{
					"attributes":{
						"POSITION":12,
						"NORMAL":13,
						"TEXCOORD_0":14
					},
					"indices":15,
					"material":0
				},
				{
					"attributes":{
						"POSITION":16,
						"NORMAL":17,
						"TEXCOORD_0":18
					},
					"indices":19,
					"material":1
				},
				{
					"attributes":{
						"POSITION":20,
						"NORMAL":21,
						"TEXCOORD_0":22
					},
					"indices":23,
					"material":2
				}
			]
		}
	],
	"accessors":[
		{
			"bufferView":0,
			"componentType":5126,
			"count":1102,
			"max":[
				0.03587578982114792,
				0.15239734947681427,
				1.0307321548461914
			],
			"min":[
				-0.03587578982114792,
				0.006776990834623575,
				0.18762236833572388
			],
			"type":"VEC3"
		},
		{
			"bufferView":1,
			"componentType":5126,
			"count":1102,
			"type":"VEC3"
		},
		{
			"bufferView":2,
			"componentType":5126,
			"count":1102,
			"type":"VEC2"
		},
		{
			"bufferView":3,
			"componentType":5123,
			"count":2646,
			"type":"SCALAR"
		},
		{
			"bufferView":4,
			"componentType":5126,
			"count":336,
			"max":[
				0.0360078439116478,
				0.1429509073495865,
				0.8469957709312439
			],
			"min":[
				-0.0360078439116478,
				-0.03652841970324516,
				-0.3216322958469391
			],
			"type":"VEC3"
		},
		{
			"bufferView":5,
			"componentType":5126,
			"count":336,
			"type":"VEC3"
		},
		{
			"bufferView":6,
			"componentType":5126,
			"count":336,
			"type":"VEC2"
		},
		{
			"bufferView":7,
			"componentType":5123,
			"count":894,
			"type":"SCALAR"
		},
		{
			"bufferView":8,
			"componentType":5126,
			"count":92,
			"max":[
				0.03652385622262955,
				0.14215444028377533,
				0.9109424352645874
			],
			"min":[
				-0.03652385622262955,
				-0.03779963403940201,
				-0.34053441882133484
			],
			"type":"VEC3"
		},
		{
			"bufferView":9,
			"componentType":5126,
			"count":92,
			"type":"VEC3"
		},
		{
			"bufferView":10,
			"componentType":5126,
			"count":92,
			"type":"VEC2"
		},
		{
			"bufferView":11,
			"componentType":5123,
			"count":168,
			"type":"SCALAR"
		},
		{
			"bufferView":12,
			"componentType":5126,
			"count":1102,
			"max":[
				0.03587578982114792,
				0.15239734947681427,
				1.0307321548461914
			],
			"min":[
				-0.03587578982114792,
				0.006776990834623575,
				0.18762236833572388
			],
			"type":"VEC3"
		},
		{
			"bufferView":13,
			"componentType":5126,
			"count":1102,
			"type":"VEC3"
		},
		{
			"bufferView":14,
			"componentType":5126,
			"count":1102,
			"type":"VEC2"
		},
		{
			"bufferView":15,
			"componentType":5123,
			"count":2646,
			"type":"SCALAR"
		},
		{
			"bufferView":16,
			"componentType":5126,
			"count":336,
			"max":[
				0.0360078439116478,
				0.1429509073495865,
				0.8469957709312439
			],
			"min":[
				-0.0360078439116478,
				-0.03652841970324516,
				-0.3216322958469391
			],
			"type":"VEC3"
		},
		{
			"bufferView":17,
			"componentType":5126,
			"count":336,
			"type":"VEC3"
		},
		{
			"bufferView":18,
			"componentType":5126,
			"count":336,
			"type":"VEC2"
		},
		{
			"bufferView":19,
			"componentType":5123,
			"count":894,
			"type":"SCALAR"
		},
		{
			"bufferView":20,
			"componentType":5126,
			"count":92,
			"max":[
				0.03652385622262955,
				0.14215444028377533,
				0.9109424352645874
			],
			"min":[
				-0.03652385622262955,
				-0.03779963403940201,
				-0.34053441882133484
			],
			"type":"VEC3"
		},
		{
			"bufferView":21,
			"componentType":5126,
			"count":92,
			"type":"VEC3"
		},
		{
			"bufferView":22,
			"componentType":5126,
			"count":92,
			"type":"VEC2"
		},
		{
			"bufferView":23,
			"componentType":5123,
			"count":168,
			"type":"SCALAR"
		}
	],
	"bufferViews":[
		{
			"buffer":0,
			"byteLength":13224,
			"byteOffset":0,
			"target":34962
		},
		{
			"buffer":0,
			"byteLength":13224,
			"byteOffset":13224,
			"target":34962
		},
		{
			"buffer":0,
			"byteLength":8816,
			"byteOffset":26448,
			"target":34962
		},
		{
			"buffer":0,
			"byteLength":5292,
			"byteOffset":35264,
			"target":34963
		},
		{
			"buffer":0,
			"byteLength":4032,
			"byteOffset":40556,
			"target":34962
		},
		{
			"buffer":0,
			"byteLength":4032,
			"byteOffset":44588,
			"target":34962
		},
		{
			"buffer":0,
			"byteLength":2688,
			"byteOffset":48620,
			"target":34962
		},
		{
			"buffer":0,
			"byteLength":1788,
			"byteOffset":51308,
			"target":34963
		},
		{
			"buffer":0,
			"byteLength":1104,
			"byteOffset":53096,
			"target":34962
		},
		{
			"buffer":0,
			"byteLength":1104,
			"byteOffset":54200,
			"target":34962
		},
		{
			"buffer":0,
			"byteLength":736,
			"byteOffset":55304,
			"target":34962
		},
		{
			"buffer":0,
			"byteLength":336,
			"byteOffset":56040,
			"target":34963
		},
		{
			"buffer":0,
			"byteLength":13224,
			"byteOffset":56376,
			"target":34962
		},
		{
			"buffer":0,
			"byteLength":13224,
			"byteOffset":69600,
			"target":34962
		},
		{
			"buffer":0,
			"byteLength":8816,
			"byteOffset":82824,
			"target":34962
		},
		{
			"buffer":0,
			"byteLength":5292,
			"byteOffset":91640,
			"target":34963
		},
		{
			"buffer":0,
			"byteLength":4032,
			"byteOffset":96932,
			"target":34962
		},
		{
			"buffer":0,
			"byteLength":4032,
			"byteOffset":100964,
			"target":34962
		},
		{
			"buffer":0,
			"byteLength":2688,
			"byteOffset":104996,
			"target":34962
		},
		{
			"buffer":0,
			"byteLength":1788,
			"byteOffset":107684,
			"target":34963
		},
		{
			"buffer":0,
			"byteLength":1104,
			"byteOffset":109472,
			"target":34962
		},
		{
			"buffer":0,
			"byteLength":1104,
			"byteOffset":110576,
			"target":34962
		},
		{
			"buffer":0,
			"byteLength":736,
			"byteOffset":111680,
			"target":34962
		},
		{
			"buffer":0,
			"byteLength":336,
			"byteOffset":112416,
			"target":34963
		}
	],
	"buffers":[
		{
			"byteLength":112752,
			"uri":"model.bin"
		}
	]
}
