{
	"asset":{
		"generator":"Khronos glTF Blender I/O v5.0.21",
		"version":"2.0"
	},
	"scene":0,
	"scenes":[
		{
			"name":"Scene",
			"nodes":[
				0,
				1
			]
		}
	],
	"nodes":[
		{
			"mesh":0,
			"name":"HammerHigh"
		},
		{
			"mesh":1,
			"name":"Hammer"
		}
	],
	"materials":[
		{
			"doubleSided":true,
			"name":"Grip",
			"pbrMetallicRoughness":{
				"metallicFactor":0
			}
		},
		{
			"doubleSided":true,
			"name":"Bar"
		},
		{
			"doubleSided":true,
			"name":"Head"
		},
		{
			"doubleSided":true,
			"name":"Material",
			"normalTexture":{
				"index":0
			},
			"pbrMetallicRoughness":{
				"baseColorTexture":{
					"index":1
				},
				"metallicRoughnessTexture":{
					"index":2
				}
			}
		}
	],
	"meshes":[
		{
			"name":"Cube.001",
			"primitives":[
				{
					"attributes":{
						"POSITION":0,
						"NORMAL":1,
						"TEXCOORD_0":2
					},
					"indices":3,
					"material":0
				},
				{
					"attributes":{
						"POSITION":4,
						"NORMAL":5,
						"TEXCOORD_0":6
					},
					"indices":7,
					"material":1
				},
				{
					"attributes":{
						"POSITION":8,
						"NORMAL":9,
						"TEXCOORD_0":10
					},
					"indices":11,
					"material":2
				}
			]
		},
		{
			"name":"Cube.002",
			"primitives":[
				{
					"attributes":{
						"POSITION":12,
						"NORMAL":13,
						"TEXCOORD_0":14
					},
					"indices":15,
					"material":3
				}
			]
		}
	],
	"textures":[
		{
			"sampler":0,
			"source":0
		},
		{
			"sampler":0,
			"source":1
		},
		{
			"sampler":0,
			"source":2
		}
	],
	"images":[
		{
			"mimeType":"image/png",
			"name":"NormalsLow",
			"uri":"NormalsLow.png"
		},
		{
			"mimeType":"image/png",
			"name":"BaseColorLow",
			"uri":"BaseColorLow.png"
		},
		{
			"mimeType":"image/png",
			"name":"MetalnessLow-RoughnessLow",
			"uri":"MetalnessLow-RoughnessLow.png"
		}
	],
	"accessors":[
		{
			"bufferView":0,
			"componentType":5126,
			"count":192,
			"max":[
				0.02627662755548954,
				0.10578052699565887,
				0.02270876243710518
			],
			"min":[
				-0.02627662383019924,
				-0.12803825736045837,
				-0.02270876243710518
			],
			"type":"VEC3"
		},
		{
			"bufferView":1,
			"componentType":5126,
			"count":192,
			"type":"VEC3"
		},
		{
			"bufferView":2,
			"componentType":5126,
			"count":192,
			"type":"VEC2"
		},
		{
			"bufferView":3,
			"componentType":5123,
			"count":1140,
			"type":"SCALAR"
		},
		{
			"bufferView":4,
			"componentType":5126,
			"count":436,
			"max":[
				0.016575567424297333,
				0.2128695249557495,
				0.016575561836361885
			],
			"min":[
				-0.016575561836361885,
				0.06634123623371124,
				-0.016575561836361885
			],
			"type":"VEC3"
		},
		{
			"bufferView":5,
			"componentType":5126,
			"count":436,
			"type":"VEC3"
		},
		{
			"bufferView":6,
			"componentType":5126,
			"count":436,
			"type":"VEC2"
		},
		{
			"bufferView":7,
			"componentType":5123,
			"count":2292,
			"type":"SCALAR"
		},
		{
			"bufferView":8,
			"componentType":5126,
			"count":488,
			"max":[
				0.09299586713314056,
				0.2783617377281189,
				0.020099878311157227
			],
			"min":[
				-0.07509016245603561,
				0.20598405599594116,
				-0.020099878311157227
			],
			"type":"VEC3"
		},
		{
			"bufferView":9,
			"componentType":5126,
			"count":488,
			"type":"VEC3"
		},
		{
			"bufferView":10,
			"componentType":5126,
			"count":488,
			"type":"VEC2"
		},
		{
			"bufferView":11,
			"componentType":5123,
			"count":2538,
			"type":"SCALAR"
		},
		{
			"bufferView":12,
			"componentType":5126,
			"count":300,
			"max":[
				0.09299586713314056,
				0.2783617377281189,
				0.02270876243710518
			],
			"min":[
				-0.07509016245603561,
				-0.12803825736045837,
				-0.02270876243710518
			],
			"type":"VEC3"
		},
		{
			"bufferView":13,
			"componentType":5126,
			"count":300,
			"type":"VEC3"
		},
		{
			"bufferView":14,
			"componentType":5126,
			"count":300,
			"type":"VEC2"
		},
		{
			"bufferView":15,
			"componentType":5123,
			"count":1044,
			"type":"SCALAR"
		}
	],
	"bufferViews":[
		{
			"buffer":0,
			"byteLength":2304,
			"byteOffset":0,
			"target":34962
		},
		{
			"buffer":0,
			"byteLength":2304,
			"byteOffset":2304,
			"target":34962
		},
		{
			"buffer":0,
			"byteLength":1536,
			"byteOffset":4608,
			"target":34962
		},
		{
			"buffer":0,
			"byteLength":2280,
			"byteOffset":6144,
			"target":34963
		},
		{
			"buffer":0,
			"byteLength":5232,
			"byteOffset":8424,
			"target":34962
		},
		{
			"buffer":0,
			"byteLength":5232,
			"byteOffset":13656,
			"target":34962
		},
		{
			"buffer":0,
			"byteLength":3488,
			"byteOffset":18888,
			"target":34962
		},
		{
			"buffer":0,
			"byteLength":4584,
			"byteOffset":22376,
			"target":34963
		},
		{
			"buffer":0,
			"byteLength":5856,
			"byteOffset":26960,
			"target":34962
		},
		{
			"buffer":0,
			"byteLength":5856,
			"byteOffset":32816,
			"target":34962
		},
		{
			"buffer":0,
			"byteLength":3904,
			"byteOffset":38672,
			"target":34962
		},
		{
			"buffer":0,
			"byteLength":5076,
			"byteOffset":42576,
			"target":34963
		},
		{
			"buffer":0,
			"byteLength":3600,
			"byteOffset":47652,
			"target":34962
		},
		{
			"buffer":0,
			"byteLength":3600,
			"byteOffset":51252,
			"target":34962
		},
		{
			"buffer":0,
			"byteLength":2400,
			"byteOffset":54852,
			"target":34962
		},
		{
			"buffer":0,
			"byteLength":2088,
			"byteOffset":57252,
			"target":34963
		}
	],
	"samplers":[
		{
			"magFilter":9729,
			"minFilter":9987
		}
	],
	"buffers":[
		{
			"byteLength":59340,
			"uri":"model.bin"
		}
	]
}
