{
	"asset":{
		"generator":"Khronos glTF Blender I/O v5.0.21",
		"version":"2.0"
	},
	"scene":0,
	"scenes":[
		{
			"name":"Scene",
			"nodes":[
				0,
				1
			]
		}
	],
	"nodes":[
		{
			"mesh":0,
			"name":"Unbaked",
			"rotation":[
				0,
				-1,
				0,
				1.6292068494294654e-07
			]
		},
		{
			"mesh":1,
			"name":"Baked_1024",
			"rotation":[
				0,
				-1,
				0,
				1.6292068494294654e-07
			]
		}
	],
	"materials":[
		{
			"doubleSided":true,
			"name":"Leather",
			"normalTexture":{
				"index":0,
				"texCoord":1
			},
			"pbrMetallicRoughness":{
				"baseColorTexture":{
					"index":1,
					"texCoord":1
				},
				"metallicFactor":0,
				"metallicRoughnessTexture":{
					"index":2,
					"texCoord":1
				}
			}
		},
		{
			"doubleSided":true,
			"name":"Band",
			"normalTexture":{
				"index":3
			},
			"pbrMetallicRoughness":{
				"baseColorTexture":{
					"index":4
				},
				"metallicFactor":0,
				"metallicRoughnessTexture":{
					"index":5
				}
			}
		},
		{
			"doubleSided":true,
			"name":"Bakedhat_1024",
			"normalTexture":{
				"index":6
			},
			"pbrMetallicRoughness":{
				"baseColorTexture":{
					"index":7
				},
				"metallicFactor":0.2181818038225174,
				"metallicRoughnessTexture":{
					"index":8
				}
			}
		}
	],
	"meshes":[
		{
			"name":"Cylinder",
			"primitives":[
				{
					"attributes":{
						"POSITION":0,
						"NORMAL":1,
						"TEXCOORD_0":2,
						"TEXCOORD_1":3,
						"TEXCOORD_2":4
					},
					"indices":5,
					"material":0
				},
				{
					"attributes":{
						"POSITION":6,
						"NORMAL":7,
						"TEXCOORD_0":8,
						"TEXCOORD_1":9,
						"TEXCOORD_2":10
					},
					"indices":11,
					"material":1
				}
			]
		},
		{
			"name":"Cylinder.015",
			"primitives":[
				{
					"attributes":{
						"POSITION":12,
						"NORMAL":13,
						"TEXCOORD_0":14
					},
					"indices":15,
					"material":2
				}
			]
		}
	],
	"textures":[
		{
			"sampler":0,
			"source":0
		},
		{
			"sampler":0,
			"source":0
		},
		{
			"sampler":0,
			"source":1
		},
		{
			"sampler":0,
			"source":2
		},
		{
			"sampler":0,
			"source":3
		},
		{
			"sampler":0,
			"source":4
		},
		{
			"sampler":0,
			"source":5
		},
		{
			"sampler":0,
			"source":6
		},
		{
			"sampler":0,
			"source":7
		}
	],
	"images":[
		{
			"mimeType":"image/png",
			"name":"flower_normal",
			"uri":"flower_normal.png"
		},
		{
			"mimeType":"image/png",
			"name":"flower_normal",
			"uri":"flower_normal-2.png"
		},
		{
			"mimeType":"image/png",
			"name":"ribbed_corduroy_nor_gl_2k",
			"uri":"ribbed_corduroy_nor_gl_2k.png"
		},
		{
			"mimeType":"image/jpeg",
			"name":"ribbed_corduroy_diff_2k",
			"uri":"ribbed_corduroy_diff_2k.jpg"
		},
		{
			"mimeType":"image/png",
			"name":"ribbed_corduroy_rough_2k",
			"uri":"ribbed_corduroy_rough_2k.png"
		},
		{
			"mimeType":"image/png",
			"name":"hat_1024_NOR",
			"uri":"hat_1024_NOR.png"
		},
		{
			"mimeType":"image/png",
			"name":"hat2_ALB",
			"uri":"hat2_ALB.png"
		},
		{
			"mimeType":"image/png",
			"name":"hat2_RGH",
			"uri":"hat2_RGH.png"
		}
	],
	"accessors":[
		{
			"bufferView":0,
			"componentType":5126,
			"count":1172,
			"max":[
				0.3205474019050598,
				0.18872343003749847,
				0.3520769774913788
			],
			"min":[
				-0.3418409824371338,
				-0.0516478568315506,
				-0.3556394577026367
			],
			"type":"VEC3"
		},
		{
			"bufferView":1,
			"componentType":5126,
			"count":1172,
			"type":"VEC3"
		},
		{
			"bufferView":2,
			"componentType":5126,
			"count":1172,
			"type":"VEC2"
		},
		{
			"bufferView":3,
			"componentType":5126,
			"count":1172,
			"type":"VEC2"
		},
		{
			"bufferView":4,
			"componentType":5126,
			"count":1172,
			"type":"VEC2"
		},
		{
			"bufferView":5,
			"componentType":5123,
			"count":5364,
			"type":"SCALAR"
		},
		{
			"bufferView":6,
			"componentType":5126,
			"count":352,
			"max":[
				0.19023220241069794,
				0.052230168133974075,
				0.19962699711322784
			],
			"min":[
				-0.20684842765331268,
				-0.02982059307396412,
				-0.20374824106693268
			],
			"type":"VEC3"
		},
		{
			"bufferView":7,
			"componentType":5126,
			"count":352,
			"type":"VEC3"
		},
		{
			"bufferView":8,
			"componentType":5126,
			"count":352,
			"type":"VEC2"
		},
		{
			"bufferView":9,
			"componentType":5126,
			"count":352,
			"type":"VEC2"
		},
		{
			"bufferView":10,
			"componentType":5126,
			"count":352,
			"type":"VEC2"
		},
		{
			"bufferView":11,
			"componentType":5123,
			"count":1164,
			"type":"SCALAR"
		},
		{
			"bufferView":12,
			"componentType":5126,
			"count":1496,
			"max":[
				0.3205474019050598,
				0.18872343003749847,
				0.3520769774913788
			],
			"min":[
				-0.3418409824371338,
				-0.0516478568315506,
				-0.3556394577026367
			],
			"type":"VEC3"
		},
		{
			"bufferView":13,
			"componentType":5126,
			"count":1496,
			"type":"VEC3"
		},
		{
			"bufferView":14,
			"componentType":5126,
			"count":1496,
			"type":"VEC2"
		},
		{
			"bufferView":15,
			"componentType":5123,
			"count":6528,
			"type":"SCALAR"
		}
	],
	"bufferViews":[
		{
			"buffer":0,
			"byteLength":14064,
			"byteOffset":0,
			"target":34962
		},
		{
			"buffer":0,
			"byteLength":14064,
			"byteOffset":14064,
			"target":34962
		},
		{
			"buffer":0,
			"byteLength":9376,
			"byteOffset":28128,
			"target":34962
		},
		{
			"buffer":0,
			"byteLength":9376,
			"byteOffset":37504,
			"target":34962
		},
		{
			"buffer":0,
			"byteLength":9376,
			"byteOffset":46880,
			"target":34962
		},
		{
			"buffer":0,
			"byteLength":10728,
			"byteOffset":56256,
			"target":34963
		},
		{
			"buffer":0,
			"byteLength":4224,
			"byteOffset":66984,
			"target":34962
		},
		{
			"buffer":0,
			"byteLength":4224,
			"byteOffset":71208,
			"target":34962
		},
		{
			"buffer":0,
			"byteLength":2816,
			"byteOffset":75432,
			"target":34962
		},
		{
			"buffer":0,
			"byteLength":2816,
			"byteOffset":78248,
			"target":34962
		},
		{
			"buffer":0,
			"byteLength":2816,
			"byteOffset":81064,
			"target":34962
		},
		{
			"buffer":0,
			"byteLength":2328,
			"byteOffset":83880,
			"target":34963
		},
		{
			"buffer":0,
			"byteLength":17952,
			"byteOffset":86208,
			"target":34962
		},
		{
			"buffer":0,
			"byteLength":17952,
			"byteOffset":104160,
			"target":34962
		},
		{
			"buffer":0,
			"byteLength":11968,
			"byteOffset":122112,
			"target":34962
		},
		{
			"buffer":0,
			"byteLength":13056,
			"byteOffset":134080,
			"target":34963
		}
	],
	"samplers":[
		{
			"magFilter":9729,
			"minFilter":9987
		}
	],
	"buffers":[
		{
			"byteLength":147136,
			"uri":"model.bin"
		}
	]
}
