{
	"asset":{
		"generator":"Khronos glTF Blender I/O v5.0.21",
		"version":"2.0"
	},
	"extensionsUsed":[
		"KHR_materials_specular"
	],
	"scene":0,
	"scenes":[
		{
			"name":"Scene",
			"nodes":[
				3
			]
		}
	],
	"nodes":[
		{
			"name":"Muzzle",
			"translation":[
				-5.419765472412109,
				1.818022608757019,
				0
			]
		},
		{
			"children":[
				0
			],
			"mesh":0,
			"name":"turret",
			"translation":[
				-1.1493656635284424,
				-1.538442611694336,
				0
			]
		},
		{
			"children":[
				1
			],
			"name":"TurretPivot",
			"rotation":[
				0,
				-0.7071067094802856,
				0,
				0.7071068286895752
			],
			"translation":[
				0,
				1.538442611694336,
				1.1493656635284424
			]
		},
		{
			"children":[
				2
			],
			"mesh":1,
			"name":"chassis"
		}
	],
	"materials":[
		{
			"doubleSided":true,
			"extensions":{
				"KHR_materials_specular":{
					"specularFactor":0
				}
			},
			"name":"nod_tank",
			"pbrMetallicRoughness":{
				"metallicFactor":0
			}
		}
	],
	"meshes":[
		{
			"name":"turret",
			"primitives":[
				{
					"attributes":{
						"POSITION":0,
						"NORMAL":1,
						"TEXCOORD_0":2
					},
					"indices":3,
					"material":0
				}
			]
		},
		{
			"name":"chassis",
			"primitives":[
				{
					"attributes":{
						"POSITION":4,
						"NORMAL":5,
						"TEXCOORD_0":6
					},
					"indices":7,
					"material":0
				}
			]
		}
	],
	"accessors":[
		{
			"bufferView":0,
			"componentType":5126,
			"count":595,
			"max":[
				3.368837833404541,
				2.5445618629455566,
				1.450095772743225
			],
			"min":[
				-5.1607441902160645,
				1.5383820533752441,
				-1.4213154315948486
			],
			"type":"VEC3"
		},
		{
			"bufferView":1,
			"componentType":5126,
			"count":595,
			"type":"VEC3"
		},
		{
			"bufferView":2,
			"componentType":5126,
			"count":595,
			"type":"VEC2"
		},
		{
			"bufferView":3,
			"componentType":5123,
			"count":1821,
			"type":"SCALAR"
		},
		{
			"bufferView":4,
			"componentType":5126,
			"count":805,
			"max":[
				1.6156257390975952,
				1.610377311706543,
				3.5534043312072754
			],
			"min":[
				-1.658421516418457,
				-0.00022511121642310172,
				-3.785214424133301
			],
			"type":"VEC3"
		},
		{
			"bufferView":5,
			"componentType":5126,
			"count":805,
			"type":"VEC3"
		},
		{
			"bufferView":6,
			"componentType":5126,
			"count":805,
			"type":"VEC2"
		},
		{
			"bufferView":7,
			"componentType":5123,
			"count":2064,
			"type":"SCALAR"
		}
	],
	"bufferViews":[
		{
			"buffer":0,
			"byteLength":7140,
			"byteOffset":0,
			"target":34962
		},
		{
			"buffer":0,
			"byteLength":7140,
			"byteOffset":7140,
			"target":34962
		},
		{
			"buffer":0,
			"byteLength":4760,
			"byteOffset":14280,
			"target":34962
		},
		{
			"buffer":0,
			"byteLength":3642,
			"byteOffset":19040,
			"target":34963
		},
		{
			"buffer":0,
			"byteLength":9660,
			"byteOffset":22684,
			"target":34962
		},
		{
			"buffer":0,
			"byteLength":9660,
			"byteOffset":32344,
			"target":34962
		},
		{
			"buffer":0,
			"byteLength":6440,
			"byteOffset":42004,
			"target":34962
		},
		{
			"buffer":0,
			"byteLength":4128,
			"byteOffset":48444,
			"target":34963
		}
	],
	"buffers":[
		{
			"byteLength":52572,
			"uri":"model.bin"
		}
	]
}
