# by drummyfish, released under CC0 1.0, public domain 
v 23.215315 3.903610 3.066193
v 14.145124 -4.153275 5.887833
v 2.356071 -4.871594 6.380168
v -19.337992 -4.221923 6.575032
v -20.083385 -0.089495 7.458883
v -9.880599 8.333512 6.191663
v 12.206788 7.529335 5.881943
v -14.502505 2.550995 7.563698
v 4.053834 11.571341 1.925910
v 4.047289 15.392401 1.607712
v 12.097342 2.061707 6.895130
v 44.292309 2.731838 8.469667
v 58.709480 5.733362 0.889993
v 47.031902 2.904831 8.819868
v 47.260208 4.098073 1.230136
v -18.158140 -10.493175 8.483546
v -18.187208 -4.220817 6.655285
v -17.282993 -10.493175 8.454776
v 13.106673 -4.103304 6.380168
v 12.511966 -10.493175 7.614546
v 13.322249 -10.493175 7.566541
v -18.749542 -5.106503 5.385068
v -17.850777 -11.273626 7.774969
v 13.445320 -5.180810 5.487308
v 12.900870 -11.273626 6.903287
v -18.250641 -11.273626 8.928289
v 13.335436 -11.273626 7.982221
v -22.410570 -8.477947 7.733554
v -22.200832 -8.438840 6.851777
v 17.420280 -9.041807 4.855407
v 17.811422 -9.107469 6.726953
v 36.400158 13.978327 35.887329
v 38.864735 13.963827 35.380001
v 60.158039 4.335948 0.889993
v 66.192825 10.569608 2.246492
v 52.786896 -0.802677 2.246493
v 59.436234 5.038960 1.518025
v -16.144871 -7.384393 -0.083080
v -17.616257 3.348083 -0.083080
v -24.129314 0.664966 -0.083080
v -24.518799 -3.749199 -0.083080
v -12.816936 9.882775 -0.083080
v -7.724000 11.571341 -0.083080
v 14.189227 11.029984 -0.083080
v 2.860125 -7.614400 -0.083080
v 15.406178 -5.673615 -0.083080
v 23.348434 0.747211 -0.083080
v 56.931786 3.506726 -0.083080
v 23.240356 7.091461 -0.083080
v 57.113403 6.617998 -0.083080
v 60.662045 15.338136 -0.083080
v 63.193699 15.424687 -0.083080
v 23.215315 3.903610 -3.232352
v 59.480469 -4.618711 -0.083080
v 57.324543 -4.570197 -0.083080
v 43.448563 2.678560 -0.083080
v 14.145124 -4.153275 -6.053992
v 2.356071 -4.871594 -6.546328
v -19.337992 -4.221923 -6.741191
v -20.083385 -0.089495 -7.625043
v -9.880599 8.333512 -6.357822
v 12.206788 7.529335 -6.048103
v -14.502505 2.550995 -7.729857
v 1.957079 11.571341 -0.083080
v 4.053834 11.571341 -2.092071
v 6.043065 11.571341 -0.083080
v 2.390602 15.378143 -0.083080
v 5.665265 15.392401 -0.083080
v 4.047289 15.392401 -1.773873
v 12.097342 2.061707 -7.061289
v 44.292309 2.731838 -8.635828
v 46.993748 2.902421 -0.083080
v 59.663353 5.804020 -1.056154
v 47.031902 2.904831 -8.986029
v 47.260208 4.098073 -1.396297
v -18.158140 -10.493175 -8.649708
v -18.187208 -4.220817 -6.821445
v -17.282993 -10.493175 -8.620938
v 13.106673 -4.103304 -6.546328
v 12.511966 -10.493175 -7.780706
v 13.322249 -10.493175 -7.732702
v -18.749542 -5.106503 -5.551228
v -17.850777 -11.273626 -7.941130
v 13.445320 -5.180810 -5.653467
v 12.900870 -11.273626 -7.069448
v -18.250641 -11.273626 -9.094451
v 13.335436 -11.273626 -8.148383
v -22.410570 -8.477947 -7.899714
v -22.200832 -8.438840 -7.017938
v 17.420280 -9.041807 -5.021568
v 17.811422 -9.107469 -6.893113
v -29.325989 13.978327 -34.065582
v 5.693595 14.991788 -0.083080
v -28.740562 13.963827 -36.880081
v 2.354849 15.031407 -0.083080
vn -0.4879 -0.4426 0.7524
vn -0.5126 0.2852 0.8099
vn -0.8946 -0.4468 0.0000
vn -0.8428 0.5382 0.0000
vn -0.3809 0.9246 -0.0000
vn -0.0970 0.2524 0.9627
vn -0.3147 0.9492 -0.0000
vn -0.0570 0.5848 0.8092
vn -0.1681 0.9858 -0.0000
vn 0.0431 0.8749 0.4825
vn 0.0000 1.0000 0.0000
vn 0.1930 0.5233 0.8300
vn 0.0663 0.9978 0.0000
vn 0.2906 0.9568 0.0000
vn 0.2788 0.9603 0.0002
vn 0.3561 0.0648 0.9322
vn 0.1611 0.0491 0.9857
vn 0.0108 -0.5977 0.8017
vn 0.1820 -0.2623 0.9477
vn -0.0207 -0.4593 0.8880
vn 0.5923 -0.3932 0.7033
vn 0.7328 -0.6805 0.0000
vn 0.4534 -0.8913 -0.0000
vn 0.0229 -0.9997 -0.0000
vn 0.3390 -0.8369 0.4297
vn -0.2727 -0.8853 0.3765
vn -0.1523 -0.9883 -0.0000
vn 0.0672 0.1189 0.9906
vn 0.0668 -0.5128 0.8559
vn 0.0607 -0.9982 -0.0000
vn 0.1750 -0.9824 -0.0655
vn 0.0140 0.9998 -0.0119
vn 0.0956 -0.9954 0.0000
vn 0.0756 -0.9971 0.0000
vn -0.4879 -0.4426 -0.7524
vn -0.5126 0.2852 -0.8099
vn -0.0970 0.2524 -0.9627
vn -0.0570 0.5848 -0.8092
vn 0.0431 0.8749 -0.4825
vn 0.1930 0.5233 -0.8300
vn 0.3557 0.0646 -0.9324
vn 0.1611 0.0491 -0.9857
vn 0.0108 -0.5977 -0.8017
vn 0.1820 -0.2623 -0.9477
vn -0.0207 -0.4593 -0.8880
vn 0.5923 -0.3932 -0.7033
vn 0.3390 -0.8369 -0.4297
vn -0.2727 -0.8853 -0.3765
vn 0.0691 0.0823 -0.9942
vn 0.0662 -0.5270 -0.8473
vn -0.8060 0.5919 0.0000
vn -0.7024 0.5847 0.4058
vn -0.7677 0.6409 -0.0000
vn -0.6409 0.6197 0.4529
vn -0.7024 0.5847 -0.4058
vn -0.6409 0.6197 -0.4529
vn -0.1617 0.9797 0.1186
vn -0.3061 0.9505 0.0539
vn -0.3578 0.9334 0.0295
vn -0.0817 0.9849 0.1524
vn 0.9770 -0.2132 -0.0041
vn 0.0630 -0.9980 -0.0000
vn 0.6709 0.2674 0.6917
vn -0.7625 0.0419 0.6457
vn 0.9761 0.1866 0.1114
vn -0.8468 0.0229 0.5314
vn -0.1065 -0.3923 -0.9137
vn -0.0390 -0.3106 -0.9497
vn -0.0851 -0.7337 -0.6741
vn -0.5664 0.4221 -0.7078
vn 0.3169 0.7803 0.5391
vn -0.2915 -0.5531 0.7805
vn -0.8477 0.3883 0.3613
vn 0.0127 0.9252 0.3794
vn 0.2768 -0.5631 0.7786
vn 0.0201 0.8942 0.4472
vn -0.0174 -0.7244 -0.6891
vn -0.2369 0.7934 0.5607
vn 0.8907 0.2847 0.3543
vn 0.5387 0.2852 -0.7928
vn -0.9592 0.1174 0.2572
vn 0.9159 -0.0584 0.3971
vn -0.1518 0.2595 0.9537
vn 0.8267 0.0631 0.5591
vn -0.0870 -0.2616 -0.9613
vn -0.1243 -0.2004 -0.9718
vn 0.9954 0.0959 -0.0034
vn -0.0504 0.0896 0.9947
vn 0.0080 0.0918 0.9957
vn 0.9631 0.0857 -0.2550
vn -0.7127 0.0735 0.6977
vn -0.9596 0.1000 0.2631
vn 0.0619 0.0916 -0.9939
vn 0.0167 0.0884 -0.9959
vn 0.7216 0.0510 -0.6905
vn -0.9945 0.1048 0.0054
vn -0.7305 0.0753 0.6787
vn 0.0121 0.9995 0.0289
vn 0.0119 0.9995 0.0291
vn 0.0214 0.9996 0.0210
vn 0.0217 0.9995 0.0208
vn 0.7301 0.0516 -0.6814
vn -0.0099 -0.9998 -0.0197
vn -0.0131 -0.9998 -0.0170
vn -0.1391 -0.9861 0.0909
vn -0.1429 -0.9852 0.0943
vn -0.0044 1.0000 -0.0042
vn -0.0044 1.0000 0.0000
vn -0.0044 1.0000 0.0042
vn -0.2253 -0.2335 0.9459
vn -0.2713 -0.0710 0.9599
vn 0.2811 -0.1050 0.9539
vn -0.0663 -0.0875 0.9940
vn 0.0590 -0.1123 0.9919
vn -0.0493 0.1106 0.9926
vn -0.4383 0.1783 0.8810
vn -0.1292 0.1155 0.9849
vn 0.0666 0.0798 0.9946
vn -0.1056 -0.1095 -0.9884
vn 0.1072 0.1112 -0.9880
vn -0.0529 -0.0666 0.9964
vn -0.3874 0.3616 0.8481
vn -0.0847 -0.0278 0.9960
vn 0.2850 -0.4590 0.8414
vn 0.0534 0.0635 0.9966
vn 0.0758 0.0380 0.9964
vn -0.3006 0.4472 0.8424
vn 0.3989 -0.3483 0.8483
vn -0.1617 0.9797 -0.1186
vn -0.3578 0.9334 -0.0295
vn -0.3061 0.9505 -0.0539
vn -0.0817 0.9849 -0.1524
vn 0.9770 -0.2132 0.0041
vn 0.6709 0.2674 -0.6917
vn 0.9761 0.1866 -0.1114
vn -0.7625 0.0419 -0.6457
vn -0.8468 0.0229 -0.5314
vn -0.1065 -0.3923 0.9137
vn -0.0390 -0.3106 0.9497
vn -0.0851 -0.7337 0.6741
vn 0.3169 0.7803 -0.5391
vn -0.5665 0.4221 0.7078
vn -0.2915 -0.5531 -0.7805
vn -0.8477 0.3883 -0.3613
vn 0.0127 0.9252 -0.3794
vn 0.2768 -0.5631 -0.7786
vn 0.0201 0.8942 -0.4472
vn -0.0174 -0.7244 0.6891
vn -0.2369 0.7934 -0.5607
vn 0.8907 0.2847 -0.3543
vn 0.5387 0.2852 0.7928
vn -0.9592 0.1174 -0.2572
vn -0.1518 0.2595 -0.9537
vn 0.9159 -0.0584 -0.3971
vn 0.8267 0.0631 -0.5591
vn -0.0870 -0.2616 0.9613
vn -0.1243 -0.2004 0.9718
vn 0.0511 -0.0937 -0.9943
vn 0.1450 -0.0163 -0.9893
vn 0.0659 0.0764 -0.9949
vn -0.0579 -0.0803 -0.9951
vn -0.0506 0.1066 -0.9930
vn -0.3173 0.1291 -0.9395
vn -0.3238 -0.0157 -0.9460
vn -0.0257 0.9995 -0.0167
vn -0.0313 0.9994 -0.0120
vn -0.0258 0.9995 -0.0166
vn -0.0316 0.9994 -0.0117
vn 0.1298 -0.9882 -0.0810
vn 0.1265 -0.9889 -0.0782
vn 0.0283 -0.9996 0.0051
vn 0.0227 -0.9997 0.0099
s 1
f 4//1 5//2 41//3
f 41//3 5//2 40//4
f 39//5 40//4 8//6
f 8//6 40//4 5//2
f 42//7 6//8 43//9
f 9//10 43//9 6//8
f 64//11 43//9 9//10
f 6//8 7//12 9//10
f 66//13 9//10 44//14
f 9//10 7//12 44//14
f 44//14 7//12 49//15
f 1//16 49//15 7//12
f 8//6 11//17 6//8
f 7//12 6//8 11//17
f 7//12 11//17 1//16
f 3//18 19//19 11//17
f 5//2 3//18 8//6
f 11//17 8//6 3//18
f 17//20 5//2 4//1
f 2//21 1//16 11//17
f 2//21 47//22 1//16
f 46//23 47//22 2//21
f 11//17 19//19 2//21
f 45//24 24//25 3//18
f 4//1 41//3 22//26
f 5//2 17//20 3//18
f 38//27 45//24 22//26
f 1//16 13//28 49//15
f 15//29 72//30 48//31
f 1//16 15//29 13//28
f 50//32 49//15 13//28
f 47//33 56//34 1//16
f 15//29 1//16 56//34
f 48//31 13//28 15//29
f 41//3 38//27 22//26
f 2//21 24//25 46//23
f 19//19 3//18 24//25
f 46//23 24//25 45//24
f 17//20 22//26 3//18
f 45//24 3//18 22//26
f 59//35 41//3 60//36
f 41//3 40//4 60//36
f 39//5 63//37 40//4
f 63//37 60//36 40//4
f 42//7 43//9 61//38
f 65//39 61//38 43//9
f 64//11 65//39 43//9
f 61//38 65//39 62//40
f 66//13 44//14 65//39
f 65//39 44//14 62//40
f 44//14 49//15 62//40
f 53//41 62//40 49//15
f 63//37 61//38 70//42
f 62//40 70//42 61//38
f 62//40 53//41 70//42
f 58//43 70//42 79//44
f 60//36 63//37 58//43
f 70//42 58//43 63//37
f 77//45 59//35 60//36
f 57//46 70//42 53//41
f 57//46 53//41 47//22
f 46//23 57//46 47//22
f 70//42 57//46 79//44
f 45//24 58//43 84//47
f 59//35 82//48 41//3
f 60//36 58//43 77//45
f 38//27 82//48 45//24
f 53//41 49//15 73//49
f 75//50 48//31 72//30
f 53//41 73//49 75//50
f 50//32 73//49 49//15
f 47//33 53//41 56//34
f 75//50 56//34 53//41
f 48//31 75//50 73//49
f 41//3 82//48 38//27
f 57//46 46//23 84//47
f 79//44 84//47 58//43
f 46//23 45//24 84//47
f 77//45 58//43 82//48
f 45//24 82//48 58//43
s 2
f 39//51 8//52 42//53
f 8//52 6//54 42//53
f 39//51 42//53 63//55
f 63//55 42//53 61//56
s 3
f 12//57 15//58 56//59
f 14//60 15//58 12//57
s 4
f 15//61 14//61 72//61
s 5
f 72//62 12//62 56//62
f 12//62 72//62 14//62
s 6
f 17//63 4//64 18//65
f 16//66 18//65 4//64
f 22//67 16//66 4//64
f 23//68 16//66 22//67
f 23//68 22//67 17//63
f 17//63 18//65 23//68
s 7
f 23//69 29//70 16//71
f 26//72 16//71 28//73
f 28//73 16//71 29//70
f 28//73 29//70 26//72
f 26//72 29//70 23//69
f 18//74 16//71 26//72
f 26//72 27//75 18//74
f 20//76 18//74 27//75
f 26//72 23//69 27//75
f 23//69 25//77 27//75
f 23//69 18//74 25//77
f 20//76 25//77 18//74
f 21//78 20//76 27//75
f 21//78 27//75 31//79
f 25//77 21//78 30//80
f 30//80 21//78 31//79
f 27//75 25//77 31//79
f 30//80 31//79 25//77
s 8
f 20//81 21//82 19//83
f 19//83 21//82 2//84
f 25//85 20//81 24//86
f 19//83 24//86 20//81
f 24//86 2//84 25//85
f 2//84 21//82 25//85
s 9
f 66//87 10//88 9//89
f 93//90 10//88 66//87
f 67//91 95//92 10//88
f 69//93 93//90 65//94
f 66//87 65//94 93//90
f 93//90 69//93 68//95
f 10//88 95//92 9//89
f 9//89 95//92 64//96
f 95//92 69//93 64//96
f 65//94 64//96 69//93
s 10
f 67//97 92//97 95//97
s 11
f 32//98 33//99 68//100
f 10//101 32//98 68//100
s 12
f 68//102 33//102 93//102
s 13
f 33//103 32//104 93//105
f 10//106 93//105 32//104
s 14
f 10//107 68//108 67//108
f 69//109 67//108 68//108
s 15
f 13//110 48//111 34//112
f 55//113 34//112 48//111
f 55//113 54//114 34//112
f 51//115 50//116 13//117
f 52//118 51//115 13//117
f 13//117 34//112 52//118
f 52//118 34//112 54//114
s 16
f 13//119 34//119 36//119
s 17
f 35//120 34//120 13//120
s 18
f 35//121 13//122 37//123
f 35//121 37//123 34//124
s 19
f 36//125 37//126 13//127
f 36//125 34//128 37//126
s 20
f 71//129 56//130 75//131
f 74//132 71//129 75//131
s 21
f 75//133 72//133 74//133
s 22
f 72//62 56//62 71//62
f 71//62 74//62 72//62
s 23
f 77//134 78//135 59//136
f 76//137 59//136 78//135
f 82//138 59//136 76//137
f 83//139 82//138 76//137
f 83//139 77//134 82//138
f 77//134 83//139 78//135
s 24
f 83//140 76//141 89//142
f 86//143 88//144 76//141
f 88//144 89//142 76//141
f 88//144 86//143 89//142
f 86//143 83//140 89//142
f 78//145 86//143 76//141
f 86//143 78//145 87//146
f 80//147 87//146 78//145
f 86//143 87//146 83//140
f 83//140 87//146 85//148
f 83//140 85//148 78//145
f 80//147 78//145 85//148
f 81//149 87//146 80//147
f 81//149 91//150 87//146
f 85//148 90//151 81//149
f 90//151 91//150 81//149
f 87//146 91//150 85//148
f 90//151 85//148 91//150
s 25
f 80//152 79//153 81//154
f 79//153 57//155 81//154
f 85//156 84//157 80//152
f 79//153 80//152 84//157
f 84//157 85//156 57//155
f 57//155 85//156 81//154
s 26
f 54//158 73//159 52//160
f 55//161 73//159 54//158
f 51//162 73//159 50//163
f 52//160 73//159 51//162
f 55//161 48//164 73//159
s 27
f 69//165 94//166 67//167
f 67//167 94//166 92//168
s 28
f 69//169 95//170 94//171
f 92//172 94//171 95//170
