{
	"asset":{
		"generator":"Khronos glTF Blender I/O v5.0.21",
		"version":"2.0"
	},
	"scene":0,
	"scenes":[
		{
			"name":"Scene",
			"nodes":[
				0,
				1
			]
		}
	],
	"nodes":[
		{
			"mesh":0,
			"name":"Cube.001",
			"scale":[
				0.3957100808620453,
				0.3957100808620453,
				0.3957100808620453
			],
			"translation":[
				0.7940987348556519,
				-5.087289810180664,
				-4.087790489196777
			]
		},
		{
			"mesh":1,
			"name":"Cube.000",
			"scale":[
				0.3957100808620453,
				0.3957100808620453,
				0.3957100808620453
			],
			"translation":[
				0.7940987348556519,
				-5.087289810180664,
				-4.087790489196777
			]
		}
	],
	"materials":[
		{
			"doubleSided":true,
			"name":"Material.003",
			"pbrMetallicRoughness":{
				"baseColorFactor":[
					1,
					0.5006427764892578,
					0.37234121561050415,
					1
				],
				"metallicFactor":0,
				"roughnessFactor":0.5
			}
		},
		{
			"doubleSided":true,
			"name":"Material.019",
			"pbrMetallicRoughness":{
				"baseColorFactor":[
					0.012286489829421043,
					0.022173885256052017,
					0.036889463663101196,
					1
				],
				"metallicFactor":0,
				"roughnessFactor":0.5
			}
		},
		{
			"doubleSided":true,
			"name":"Material.006",
			"pbrMetallicRoughness":{
				"baseColorFactor":[
					0.800000011920929,
					0.308146208524704,
					0.21605482697486877,
					1
				],
				"metallicFactor":0,
				"roughnessFactor":0.5
			}
		},
		{
			"doubleSided":true,
			"name":"Material.010",
			"pbrMetallicRoughness":{
				"baseColorFactor":[
					0.05221778154373169,
					0.0094539113342762,
					0.008712253533303738,
					1
				],
				"metallicFactor":0,
				"roughnessFactor":0.5
			}
		},
		{
			"doubleSided":true,
			"name":"Material.012",
			"pbrMetallicRoughness":{
				"baseColorFactor":[
					1,
					0.95167076587677,
					0.9970270395278931,
					1
				],
				"metallicFactor":0,
				"roughnessFactor":0.5
			}
		},
		{
			"doubleSided":true,
			"name":"Material.018",
			"pbrMetallicRoughness":{
				"baseColorFactor":[
					0.7569808959960938,
					0.4156903624534607,
					0.9113926887512207,
					1
				],
				"metallicFactor":0,
				"roughnessFactor":0.5
			}
		},
		{
			"doubleSided":true,
			"name":"Material.021",
			"pbrMetallicRoughness":{
				"baseColorFactor":[
					0.12370985001325607,
					0.05460173636674881,
					0.022512800991535187,
					1
				],
				"metallicFactor":0,
				"roughnessFactor":0.5
			}
		}
	],
	"meshes":[
		{
			"name":"Cube.002",
			"primitives":[
				{
					"attributes":{
						"POSITION":0,
						"NORMAL":1,
						"TEXCOORD_0":2
					},
					"indices":3,
					"material":0
				},
				{
					"attributes":{
						"POSITION":4,
						"NORMAL":5,
						"TEXCOORD_0":6
					},
					"indices":7,
					"material":1
				}
			]
		},
		{
			"name":"Cube.000",
			"primitives":[
				{
					"attributes":{
						"POSITION":8,
						"NORMAL":9,
						"TEXCOORD_0":10
					},
					"indices":11,
					"material":0
				},
				{
					"attributes":{
						"POSITION":12,
						"NORMAL":13,
						"TEXCOORD_0":14
					},
					"indices":15,
					"material":2
				},
				{
					"attributes":{
						"POSITION":16,
						"NORMAL":17,
						"TEXCOORD_0":18
					},
					"indices":19,
					"material":3
				},
				{
					"attributes":{
						"POSITION":20,
						"NORMAL":21,
						"TEXCOORD_0":22
					},
					"indices":23,
					"material":4
				},
				{
					"attributes":{
						"POSITION":24,
						"NORMAL":25,
						"TEXCOORD_0":26
					},
					"indices":27,
					"material":5
				},
				{
					"attributes":{
						"POSITION":28,
						"NORMAL":29,
						"TEXCOORD_0":30
					},
					"indices":31,
					"material":1
				},
				{
					"attributes":{
						"POSITION":32,
						"NORMAL":33,
						"TEXCOORD_0":34
					},
					"indices":35,
					"material":6
				}
			]
		}
	],
	"accessors":[
		{
			"bufferView":0,
			"componentType":5126,
			"count":1252,
			"max":[
				14.646855354309082,
				23.0682373046875,
				0.9643805027008057
			],
			"min":[
				-14.646855354309082,
				20.244667053222656,
				-0.20075944066047668
			],
			"type":"VEC3"
		},
		{
			"bufferView":1,
			"componentType":5126,
			"count":1252,
			"type":"VEC3"
		},
		{
			"bufferView":2,
			"componentType":5126,
			"count":1252,
			"type":"VEC2"
		},
		{
			"bufferView":3,
			"componentType":5123,
			"count":1944,
			"type":"SCALAR"
		},
		{
			"bufferView":4,
			"componentType":5126,
			"count":2120,
			"max":[
				10.938068389892578,
				24.909412384033203,
				4.254112243652344
			],
			"min":[
				-10.938068389892578,
				-5.821381092071533,
				-1.7746042013168335
			],
			"type":"VEC3"
		},
		{
			"bufferView":5,
			"componentType":5126,
			"count":2120,
			"type":"VEC3"
		},
		{
			"bufferView":6,
			"componentType":5126,
			"count":2120,
			"type":"VEC2"
		},
		{
			"bufferView":7,
			"componentType":5123,
			"count":3180,
			"type":"SCALAR"
		},
		{
			"bufferView":8,
			"componentType":5126,
			"count":3786,
			"max":[
				1.789397954940796,
				28.666950225830078,
				3.7535881996154785
			],
			"min":[
				-1.7801275253295898,
				23.259357452392578,
				-0.2418702393770218
			],
			"type":"VEC3"
		},
		{
			"bufferView":9,
			"componentType":5126,
			"count":3786,
			"type":"VEC3"
		},
		{
			"bufferView":10,
			"componentType":5126,
			"count":3786,
			"type":"VEC2"
		},
		{
			"bufferView":11,
			"componentType":5123,
			"count":5670,
			"type":"SCALAR"
		},
		{
			"bufferView":12,
			"componentType":5126,
			"count":192,
			"max":[
				0.5505248308181763,
				25.103036880493164,
				3.4473066329956055
			],
			"min":[
				-0.5412542819976807,
				24.844566345214844,
				2.9810307025909424
			],
			"type":"VEC3"
		},
		{
			"bufferView":13,
			"componentType":5126,
			"count":192,
			"type":"VEC3"
		},
		{
			"bufferView":14,
			"componentType":5126,
			"count":192,
			"type":"VEC2"
		},
		{
			"bufferView":15,
			"componentType":5123,
			"count":288,
			"type":"SCALAR"
		},
		{
			"bufferView":16,
			"componentType":5126,
			"count":652,
			"max":[
				1.1571033000946045,
				26.853931427001953,
				3.4300684928894043
			],
			"min":[
				-1.1657928228378296,
				26.0791015625,
				2.5976204872131348
			],
			"type":"VEC3"
		},
		{
			"bufferView":17,
			"componentType":5126,
			"count":652,
			"type":"VEC3"
		},
		{
			"bufferView":18,
			"componentType":5126,
			"count":652,
			"type":"VEC2"
		},
		{
			"bufferView":19,
			"componentType":5123,
			"count":888,
			"type":"SCALAR"
		},
		{
			"bufferView":20,
			"componentType":5126,
			"count":164,
			"max":[
				1.0410103797912598,
				26.514677047729492,
				3.025178909301758
			],
			"min":[
				-1.0496999025344849,
				26.146488189697266,
				2.6373157501220703
			],
			"type":"VEC3"
		},
		{
			"bufferView":21,
			"componentType":5126,
			"count":164,
			"type":"VEC3"
		},
		{
			"bufferView":22,
			"componentType":5126,
			"count":164,
			"type":"VEC2"
		},
		{
			"bufferView":23,
			"componentType":5123,
			"count":240,
			"type":"SCALAR"
		},
		{
			"bufferView":24,
			"componentType":5126,
			"count":120,
			"max":[
				0.797420859336853,
				26.319726943969727,
				2.9973912239074707
			],
			"min":[
				-0.8061104416847229,
				26.139368057250977,
				2.8961970806121826
			],
			"type":"VEC3"
		},
		{
			"bufferView":25,
			"componentType":5126,
			"count":120,
			"type":"VEC3"
		},
		{
			"bufferView":26,
			"componentType":5126,
			"count":120,
			"type":"VEC2"
		},
		{
			"bufferView":27,
			"componentType":5123,
			"count":180,
			"type":"SCALAR"
		},
		{
			"bufferView":28,
			"componentType":5126,
			"count":148,
			"max":[
				0.797420859336853,
				26.49043083190918,
				3.0039589405059814
			],
			"min":[
				-0.8061104416847229,
				26.275924682617188,
				2.8985676765441895
			],
			"type":"VEC3"
		},
		{
			"bufferView":29,
			"componentType":5126,
			"count":148,
			"type":"VEC3"
		},
		{
			"bufferView":30,
			"componentType":5126,
			"count":148,
			"type":"VEC2"
		},
		{
			"bufferView":31,
			"componentType":5123,
			"count":216,
			"type":"SCALAR"
		},
		{
			"bufferView":32,
			"componentType":5126,
			"count":1548,
			"max":[
				1.4672828912734985,
				29.05929946899414,
				3.652796506881714
			],
			"min":[
				-1.5665868520736694,
				25.184345245361328,
				-0.3804040551185608
			],
			"type":"VEC3"
		},
		{
			"bufferView":33,
			"componentType":5126,
			"count":1548,
			"type":"VEC3"
		},
		{
			"bufferView":34,
			"componentType":5126,
			"count":1548,
			"type":"VEC2"
		},
		{
			"bufferView":35,
			"componentType":5123,
			"count":2268,
			"type":"SCALAR"
		}
	],
	"bufferViews":[
		{
			"buffer":0,
			"byteLength":15024,
			"byteOffset":0,
			"target":34962
		},
		{
			"buffer":0,
			"byteLength":15024,
			"byteOffset":15024,
			"target":34962
		},
		{
			"buffer":0,
			"byteLength":10016,
			"byteOffset":30048,
			"target":34962
		},
		{
			"buffer":0,
			"byteLength":3888,
			"byteOffset":40064,
			"target":34963
		},
		{
			"buffer":0,
			"byteLength":25440,
			"byteOffset":43952,
			"target":34962
		},
		{
			"buffer":0,
			"byteLength":25440,
			"byteOffset":69392,
			"target":34962
		},
		{
			"buffer":0,
			"byteLength":16960,
			"byteOffset":94832,
			"target":34962
		},
		{
			"buffer":0,
			"byteLength":6360,
			"byteOffset":111792,
			"target":34963
		},
		{
			"buffer":0,
			"byteLength":45432,
			"byteOffset":118152,
			"target":34962
		},
		{
			"buffer":0,
			"byteLength":45432,
			"byteOffset":163584,
			"target":34962
		},
		{
			"buffer":0,
			"byteLength":30288,
			"byteOffset":209016,
			"target":34962
		},
		{
			"buffer":0,
			"byteLength":11340,
			"byteOffset":239304,
			"target":34963
		},
		{
			"buffer":0,
			"byteLength":2304,
			"byteOffset":250644,
			"target":34962
		},
		{
			"buffer":0,
			"byteLength":2304,
			"byteOffset":252948,
			"target":34962
		},
		{
			"buffer":0,
			"byteLength":1536,
			"byteOffset":255252,
			"target":34962
		},
		{
			"buffer":0,
			"byteLength":576,
			"byteOffset":256788,
			"target":34963
		},
		{
			"buffer":0,
			"byteLength":7824,
			"byteOffset":257364,
			"target":34962
		},
		{
			"buffer":0,
			"byteLength":7824,
			"byteOffset":265188,
			"target":34962
		},
		{
			"buffer":0,
			"byteLength":5216,
			"byteOffset":273012,
			"target":34962
		},
		{
			"buffer":0,
			"byteLength":1776,
			"byteOffset":278228,
			"target":34963
		},
		{
			"buffer":0,
			"byteLength":1968,
			"byteOffset":280004,
			"target":34962
		},
		{
			"buffer":0,
			"byteLength":1968,
			"byteOffset":281972,
			"target":34962
		},
		{
			"buffer":0,
			"byteLength":1312,
			"byteOffset":283940,
			"target":34962
		},
		{
			"buffer":0,
			"byteLength":480,
			"byteOffset":285252,
			"target":34963
		},
		{
			"buffer":0,
			"byteLength":1440,
			"byteOffset":285732,
			"target":34962
		},
		{
			"buffer":0,
			"byteLength":1440,
			"byteOffset":287172,
			"target":34962
		},
		{
			"buffer":0,
			"byteLength":960,
			"byteOffset":288612,
			"target":34962
		},
		{
			"buffer":0,
			"byteLength":360,
			"byteOffset":289572,
			"target":34963
		},
		{
			"buffer":0,
			"byteLength":1776,
			"byteOffset":289932,
			"target":34962
		},
		{
			"buffer":0,
			"byteLength":1776,
			"byteOffset":291708,
			"target":34962
		},
		{
			"buffer":0,
			"byteLength":1184,
			"byteOffset":293484,
			"target":34962
		},
		{
			"buffer":0,
			"byteLength":432,
			"byteOffset":294668,
			"target":34963
		},
		{
			"buffer":0,
			"byteLength":18576,
			"byteOffset":295100,
			"target":34962
		},
		{
			"buffer":0,
			"byteLength":18576,
			"byteOffset":313676,
			"target":34962
		},
		{
			"buffer":0,
			"byteLength":12384,
			"byteOffset":332252,
			"target":34962
		},
		{
			"buffer":0,
			"byteLength":4536,
			"byteOffset":344636,
			"target":34963
		}
	],
	"buffers":[
		{
			"byteLength":349172,
			"uri":"model.bin"
		}
	]
}
