{
	"asset":{
		"generator":"Khronos glTF Blender I/O v5.0.21",
		"version":"2.0"
	},
	"scene":0,
	"scenes":[
		{
			"name":"Scene",
			"nodes":[
				0,
				1
			]
		}
	],
	"nodes":[
		{
			"mesh":0,
			"name":"CABECA",
			"translation":[
				0,
				1.0107723474502563,
				0
			]
		},
		{
			"mesh":1,
			"name":"CORPO",
			"translation":[
				0,
				1.0107723474502563,
				0
			]
		}
	],
	"materials":[
		{
			"doubleSided":true,
			"name":"Material.005",
			"pbrMetallicRoughness":{
				"baseColorFactor":[
					0.08001147210597992,
					0.08001147210597992,
					0.08001147210597992,
					1
				],
				"metallicFactor":0,
				"roughnessFactor":0.5
			}
		},
		{
			"doubleSided":true,
			"name":"Material.006",
			"pbrMetallicRoughness":{
				"baseColorFactor":[
					0.31853827834129333,
					0.31853827834129333,
					0.31853827834129333,
					1
				],
				"metallicFactor":0,
				"roughnessFactor":0.5
			}
		},
		{
			"doubleSided":true,
			"name":"Material.002",
			"pbrMetallicRoughness":{
				"baseColorFactor":[
					0.800000011920929,
					0.800000011920929,
					0.800000011920929,
					1
				],
				"metallicFactor":0,
				"roughnessFactor":0.5
			}
		},
		{
			"doubleSided":true,
			"name":"Material.003",
			"pbrMetallicRoughness":{
				"baseColorFactor":[
					0.33861157298088074,
					0.16515469551086426,
					0.8000000715255737,
					1
				],
				"metallicFactor":0,
				"roughnessFactor":0.5
			}
		},
		{
			"doubleSided":true,
			"name":"Material.004",
			"pbrMetallicRoughness":{
				"baseColorFactor":[
					0.8000000715255737,
					0.5186259150505066,
					0.4159931242465973,
					1
				],
				"metallicFactor":0,
				"roughnessFactor":0.5
			}
		}
	],
	"meshes":[
		{
			"name":"Cube.002",
			"primitives":[
				{
					"attributes":{
						"POSITION":0,
						"NORMAL":1,
						"TEXCOORD_0":2
					},
					"indices":3,
					"material":0
				},
				{
					"attributes":{
						"POSITION":4,
						"NORMAL":5,
						"TEXCOORD_0":6
					},
					"indices":7,
					"material":1
				}
			]
		},
		{
			"name":"Cube.001",
			"primitives":[
				{
					"attributes":{
						"POSITION":8,
						"NORMAL":9,
						"TEXCOORD_0":10
					},
					"indices":11,
					"material":2
				},
				{
					"attributes":{
						"POSITION":12,
						"NORMAL":13,
						"TEXCOORD_0":14
					},
					"indices":15,
					"material":3
				},
				{
					"attributes":{
						"POSITION":16,
						"NORMAL":17,
						"TEXCOORD_0":18
					},
					"indices":19,
					"material":4
				}
			]
		}
	],
	"accessors":[
		{
			"bufferView":0,
			"componentType":5126,
			"count":85,
			"max":[
				0.09157706052064896,
				1.0238661766052246,
				0.17687544226646423
			],
			"min":[
				0,
				0.7462541460990906,
				-0.056373730301856995
			],
			"type":"VEC3"
		},
		{
			"bufferView":1,
			"componentType":5126,
			"count":85,
			"type":"VEC3"
		},
		{
			"bufferView":2,
			"componentType":5126,
			"count":85,
			"type":"VEC2"
		},
		{
			"bufferView":3,
			"componentType":5123,
			"count":390,
			"type":"SCALAR"
		},
		{
			"bufferView":4,
			"componentType":5126,
			"count":6,
			"max":[
				0.0701981633901596,
				0.9113610982894897,
				0.16524384915828705
			],
			"min":[
				0,
				0.8531304001808167,
				0.10292771458625793
			],
			"type":"VEC3"
		},
		{
			"bufferView":5,
			"componentType":5126,
			"count":6,
			"type":"VEC3"
		},
		{
			"bufferView":6,
			"componentType":5126,
			"count":6,
			"type":"VEC2"
		},
		{
			"bufferView":7,
			"componentType":5123,
			"count":12,
			"type":"SCALAR"
		},
		{
			"bufferView":8,
			"componentType":5126,
			"count":64,
			"max":[
				0.30028146505355835,
				0.7391424775123596,
				0.2776987850666046
			],
			"min":[
				0,
				-0.9603419899940491,
				-0.10377349704504013
			],
			"type":"VEC3"
		},
		{
			"bufferView":9,
			"componentType":5126,
			"count":64,
			"type":"VEC3"
		},
		{
			"bufferView":10,
			"componentType":5126,
			"count":64,
			"type":"VEC2"
		},
		{
			"bufferView":11,
			"componentType":5123,
			"count":192,
			"type":"SCALAR"
		},
		{
			"bufferView":12,
			"componentType":5126,
			"count":205,
			"max":[
				0.3004682958126068,
				0.7440975904464722,
				0.2776987850666046
			],
			"min":[
				0,
				-1.0063172578811646,
				-0.12568509578704834
			],
			"type":"VEC3"
		},
		{
			"bufferView":13,
			"componentType":5126,
			"count":205,
			"type":"VEC3"
		},
		{
			"bufferView":14,
			"componentType":5126,
			"count":205,
			"type":"VEC2"
		},
		{
			"bufferView":15,
			"componentType":5123,
			"count":852,
			"type":"SCALAR"
		},
		{
			"bufferView":16,
			"componentType":5126,
			"count":90,
			"max":[
				0.7199152112007141,
				0.7816466689109802,
				0.2605799436569214
			],
			"min":[
				0,
				0.025243906304240227,
				-0.0931091457605362
			],
			"type":"VEC3"
		},
		{
			"bufferView":17,
			"componentType":5126,
			"count":90,
			"type":"VEC3"
		},
		{
			"bufferView":18,
			"componentType":5126,
			"count":90,
			"type":"VEC2"
		},
		{
			"bufferView":19,
			"componentType":5123,
			"count":456,
			"type":"SCALAR"
		}
	],
	"bufferViews":[
		{
			"buffer":0,
			"byteLength":1020,
			"byteOffset":0,
			"target":34962
		},
		{
			"buffer":0,
			"byteLength":1020,
			"byteOffset":1020,
			"target":34962
		},
		{
			"buffer":0,
			"byteLength":680,
			"byteOffset":2040,
			"target":34962
		},
		{
			"buffer":0,
			"byteLength":780,
			"byteOffset":2720,
			"target":34963
		},
		{
			"buffer":0,
			"byteLength":72,
			"byteOffset":3500,
			"target":34962
		},
		{
			"buffer":0,
			"byteLength":72,
			"byteOffset":3572,
			"target":34962
		},
		{
			"buffer":0,
			"byteLength":48,
			"byteOffset":3644,
			"target":34962
		},
		{
			"buffer":0,
			"byteLength":24,
			"byteOffset":3692,
			"target":34963
		},
		{
			"buffer":0,
			"byteLength":768,
			"byteOffset":3716,
			"target":34962
		},
		{
			"buffer":0,
			"byteLength":768,
			"byteOffset":4484,
			"target":34962
		},
		{
			"buffer":0,
			"byteLength":512,
			"byteOffset":5252,
			"target":34962
		},
		{
			"buffer":0,
			"byteLength":384,
			"byteOffset":5764,
			"target":34963
		},
		{
			"buffer":0,
			"byteLength":2460,
			"byteOffset":6148,
			"target":34962
		},
		{
			"buffer":0,
			"byteLength":2460,
			"byteOffset":8608,
			"target":34962
		},
		{
			"buffer":0,
			"byteLength":1640,
			"byteOffset":11068,
			"target":34962
		},
		{
			"buffer":0,
			"byteLength":1704,
			"byteOffset":12708,
			"target":34963
		},
		{
			"buffer":0,
			"byteLength":1080,
			"byteOffset":14412,
			"target":34962
		},
		{
			"buffer":0,
			"byteLength":1080,
			"byteOffset":15492,
			"target":34962
		},
		{
			"buffer":0,
			"byteLength":720,
			"byteOffset":16572,
			"target":34962
		},
		{
			"buffer":0,
			"byteLength":912,
			"byteOffset":17292,
			"target":34963
		}
	],
	"buffers":[
		{
			"byteLength":18204,
			"uri":"model.bin"
		}
	]
}
