{
	"asset":{
		"generator":"Khronos glTF Blender I/O v5.0.21",
		"version":"2.0"
	},
	"scene":0,
	"scenes":[
		{
			"name":"Scene",
			"nodes":[
				0,
				1,
				2,
				3
			]
		}
	],
	"nodes":[
		{
			"mesh":0,
			"name":"CORPO",
			"translation":[
				0,
				1.0107723474502563,
				0
			]
		},
		{
			"name":"Empty",
			"rotation":[
				0.70710688829422,
				0,
				0,
				0.7071066498756409
			],
			"scale":[
				0.8333107233047485,
				0.8333107233047485,
				0.8333107233047485
			],
			"translation":[
				1.2243890762329102,
				1.0115039348602295,
				-1.4511616230010986
			]
		},
		{
			"name":"Empty.001",
			"rotation":[
				0.5000000596046448,
				0.5,
				-0.5,
				0.5
			],
			"scale":[
				0.8333107233047485,
				0.8333107233047485,
				0.8333107233047485
			],
			"translation":[
				-3.5424599647521973,
				1.0115039348602295,
				1.540177583694458
			]
		},
		{
			"mesh":1,
			"name":"CABECA",
			"translation":[
				0,
				1.0107723474502563,
				0
			]
		}
	],
	"materials":[
		{
			"doubleSided":true,
			"name":"Material",
			"pbrMetallicRoughness":{
				"baseColorFactor":[
					0.800000011920929,
					0.800000011920929,
					0.800000011920929,
					1
				],
				"metallicFactor":0,
				"roughnessFactor":0.5
			}
		}
	],
	"meshes":[
		{
			"name":"Cube",
			"primitives":[
				{
					"attributes":{
						"POSITION":0,
						"NORMAL":1,
						"TEXCOORD_0":2
					},
					"indices":3,
					"material":0
				}
			]
		},
		{
			"name":"Cube.001",
			"primitives":[
				{
					"attributes":{
						"POSITION":4,
						"NORMAL":5,
						"TEXCOORD_0":6
					},
					"indices":7,
					"material":0
				}
			]
		}
	],
	"accessors":[
		{
			"bufferView":0,
			"componentType":5126,
			"count":865,
			"max":[
				0.706565260887146,
				0.7816466689109802,
				0.2776987850666046
			],
			"min":[
				0,
				-1.0063172578811646,
				-0.12272337079048157
			],
			"type":"VEC3"
		},
		{
			"bufferView":1,
			"componentType":5126,
			"count":865,
			"type":"VEC3"
		},
		{
			"bufferView":2,
			"componentType":5126,
			"count":865,
			"type":"VEC2"
		},
		{
			"bufferView":3,
			"componentType":5123,
			"count":1356,
			"type":"SCALAR"
		},
		{
			"bufferView":4,
			"componentType":5126,
			"count":268,
			"max":[
				0.09450491517782211,
				1.0161614418029785,
				0.1810925453901291
			],
			"min":[
				0,
				0.7462541460990906,
				-0.04277675971388817
			],
			"type":"VEC3"
		},
		{
			"bufferView":5,
			"componentType":5126,
			"count":268,
			"type":"VEC3"
		},
		{
			"bufferView":6,
			"componentType":5126,
			"count":268,
			"type":"VEC2"
		},
		{
			"bufferView":7,
			"componentType":5123,
			"count":402,
			"type":"SCALAR"
		}
	],
	"bufferViews":[
		{
			"buffer":0,
			"byteLength":10380,
			"byteOffset":0,
			"target":34962
		},
		{
			"buffer":0,
			"byteLength":10380,
			"byteOffset":10380,
			"target":34962
		},
		{
			"buffer":0,
			"byteLength":6920,
			"byteOffset":20760,
			"target":34962
		},
		{
			"buffer":0,
			"byteLength":2712,
			"byteOffset":27680,
			"target":34963
		},
		{
			"buffer":0,
			"byteLength":3216,
			"byteOffset":30392,
			"target":34962
		},
		{
			"buffer":0,
			"byteLength":3216,
			"byteOffset":33608,
			"target":34962
		},
		{
			"buffer":0,
			"byteLength":2144,
			"byteOffset":36824,
			"target":34962
		},
		{
			"buffer":0,
			"byteLength":804,
			"byteOffset":38968,
			"target":34963
		}
	],
	"buffers":[
		{
			"byteLength":39772,
			"uri":"model.bin"
		}
	]
}
