# by drummyfish, released under CC0 1.0, public domain 
v 0.214510 0.032372 -0.337421
v 0.404420 0.030594 -0.140485
v 0.125116 0.031063 -0.192478
v 0.250316 0.029755 -0.047590
v 0.255474 0.027888 0.159193
v 0.167293 0.025130 0.464619
v 0.403295 0.027967 0.150417
v 0.333371 0.026062 0.361415
v 0.348253 0.047513 0.501856
v 0.376789 0.048597 0.381787
v 0.117526 0.031358 -0.225097
v 0.101708 0.032189 -0.317124
v 0.196960 0.031855 -0.280198
v 0.310909 0.029798 -0.038472
v 0.267997 0.030620 -0.129430
v 0.362158 0.030575 -0.124488
v -0.214510 0.032372 -0.337421
v -0.404420 0.030594 -0.140485
v 0.000000 0.032693 -0.373001
v -0.125116 0.031063 -0.192478
v -0.250316 0.029755 -0.047590
v -0.255474 0.027888 0.159193
v -0.167293 0.025130 0.464619
v -0.403295 0.027967 0.150417
v -0.333371 0.026062 0.361415
v -0.348253 0.047513 0.501856
v -0.376789 0.048597 0.381787
v -0.117526 0.031358 -0.225097
v -0.101708 0.032189 -0.317124
v -0.196960 0.031855 -0.280198
v -0.310909 0.029798 -0.038472
v -0.267997 0.030620 -0.129430
v -0.362158 0.030575 -0.124488
v 0.214510 -0.037677 -0.337364
v 0.404420 -0.034423 -0.140447
v 0.125116 -0.035282 -0.192434
v 0.250316 -0.032888 -0.047560
v 0.255474 -0.029471 0.159203
v 0.167293 -0.024425 0.464600
v 0.403295 -0.029616 0.150428
v 0.333371 -0.026130 0.361405
v 0.348253 -0.023813 0.501628
v 0.376789 -0.025797 0.381570
v 0.117526 -0.035821 -0.225050
v 0.101708 -0.037341 -0.317069
v 0.196960 -0.036731 -0.280146
v 0.310909 -0.032737 -0.038445
v 0.267997 -0.034240 -0.129393
v 0.362158 -0.034158 -0.124452
v -0.214510 -0.037677 -0.337364
v -0.404420 -0.034423 -0.140447
v 0.000000 -0.038264 -0.372941
v -0.125116 -0.035282 -0.192434
v -0.250316 -0.032888 -0.047560
v -0.255474 -0.029471 0.159203
v -0.167293 -0.024425 0.464600
v -0.403295 -0.029616 0.150428
v -0.333371 -0.026130 0.361405
v -0.348253 -0.023813 0.501628
v -0.376789 -0.025797 0.381570
v -0.117526 -0.035821 -0.225050
v -0.101708 -0.037341 -0.317069
v -0.196960 -0.036731 -0.280146
v -0.310909 -0.032737 -0.038445
v -0.267997 -0.034240 -0.129393
v -0.362158 -0.034158 -0.124452
vn -0.2605 0.8735 -0.4112
vn -0.1589 0.9794 -0.1243
vn -0.1896 0.9596 -0.2077
vn -0.1188 0.9927 -0.0193
vn 0.0000 1.0000 0.0090
vn -0.0002 1.0000 0.0093
vn 0.0002 1.0000 0.0093
vn -0.0020 1.0000 0.0098
vn -0.0007 1.0000 0.0095
vn 0.0019 1.0000 0.0079
vn 0.0023 1.0000 0.0079
vn -0.0008 1.0000 0.0092
vn -0.0001 1.0000 0.0088
vn 0.0004 1.0000 0.0090
vn 0.0008 1.0000 0.0092
vn 0.0020 1.0000 0.0098
vn 0.0007 1.0000 0.0095
vn -0.0019 1.0000 0.0079
vn -0.0023 1.0000 0.0079
vn 0.0001 1.0000 0.0088
vn -0.0004 1.0000 0.0090
vn -0.0000 -0.9999 0.0165
vn 0.2605 0.8735 -0.4112
vn 0.1896 0.9596 -0.2077
vn 0.1589 0.9794 -0.1243
vn 0.1188 0.9927 -0.0193
vn -0.4151 0.0006 0.9098
vn 0.4144 0.0006 0.9101
vn -0.4144 0.0006 0.9101
vn 0.4150 0.0006 0.9098
vn -0.9321 0.0002 0.3623
vn -0.9316 0.0002 0.3635
vn -0.9919 -0.0000 -0.1268
vn -0.9920 -0.0000 -0.1262
vn -0.9608 0.0001 -0.2774
vn 0.9316 0.0002 0.3635
vn 0.9321 0.0002 0.3623
vn 0.9920 -0.0000 -0.1262
vn 0.9919 -0.0000 -0.1268
vn 0.9608 0.0001 -0.2774
vn -0.2015 -0.0004 0.9795
vn -0.2013 -0.0010 0.9795
vn -0.2006 -0.0027 0.9797
vn -0.2005 -0.0031 0.9797
vn 0.2005 -0.0004 0.9797
vn 0.2006 -0.0010 0.9797
vn 0.2011 -0.0027 0.9796
vn 0.2012 -0.0031 0.9795
vn -0.9729 -0.0007 0.2312
vn 0.9729 -0.0007 0.2312
vn 0.4236 0.0026 -0.9058
vn 0.4224 0.0013 -0.9064
vn 0.4227 0.0017 -0.9062
vn 0.4212 0.0002 -0.9070
vn 0.9492 -0.0001 0.3146
vn 0.9492 -0.0000 0.3146
vn 0.9871 0.0000 0.1603
vn 0.9872 0.0000 0.1596
vn 0.9272 -0.0002 -0.3745
vn 0.9267 -0.0002 -0.3758
vn 0.4645 -0.0007 -0.8856
vn 0.4640 -0.0007 -0.8858
vn -0.0000 -0.0009 -1.0000
vn -0.4645 -0.0007 -0.8856
vn -0.4640 -0.0007 -0.8858
vn -0.9272 -0.0002 -0.3745
vn -0.9267 -0.0002 -0.3758
vn -0.9871 0.0000 0.1603
vn -0.9872 0.0000 0.1596
vn -0.9492 -0.0000 0.3146
vn -0.9492 -0.0001 0.3146
vn -0.4247 0.0002 -0.9053
vn -0.4225 0.0017 -0.9064
vn -0.4229 0.0014 -0.9062
vn -0.4212 0.0026 -0.9070
vn 0.8278 0.0003 0.5610
vn 0.0485 -0.0005 -0.9988
vn 0.0487 -0.0005 -0.9988
vn 0.8262 0.0003 0.5634
vn -0.8799 0.0003 0.4752
vn -0.8784 0.0003 0.4779
vn 0.3897 -0.0006 -0.9209
vn 0.6305 0.0006 0.7762
vn 0.3886 -0.0007 -0.9214
vn 0.6288 0.0006 0.7775
vn -0.9923 0.0001 0.1235
vn -0.9919 0.0001 0.1268
vn -0.6305 0.0006 0.7762
vn 0.9923 0.0001 0.1235
vn 0.9919 0.0001 0.1268
vn -0.6288 0.0006 0.7775
vn -0.3886 -0.0006 -0.9214
vn -0.3897 -0.0007 -0.9209
vn 0.8784 0.0003 0.4779
vn -0.8278 0.0003 0.5610
vn 0.8799 0.0003 0.4751
vn -0.8262 0.0003 0.5634
vn -0.0485 -0.0005 -0.9988
vn -0.0487 -0.0005 -0.9988
s 1
f 8//1 6//2 10//3
f 6//2 9//4 10//3
s 2
f 6//5 8//5 5//6
f 8//5 7//7 5//6
f 4//8 5//6 14//9
f 5//6 7//7 14//9
f 14//9 7//7 16//10
f 7//7 2//11 16//10
f 15//12 4//8 14//9
f 13//13 16//10 2//11
f 2//11 1//5 13//13
f 16//10 13//13 15//12
f 20//14 32//15 21//16
f 19//5 12//5 1//5
f 12//5 13//13 1//5
f 23//5 22//7 25//5
f 25//5 22//7 24//6
f 21//16 31//17 22//7
f 22//7 31//17 24//6
f 31//17 33//18 24//6
f 24//6 33//18 18//19
f 32//15 31//17 21//16
f 30//20 18//19 33//18
f 18//19 30//20 17//5
f 33//18 32//15 30//20
f 3//21 4//8 15//12
f 19//5 17//5 29//5
f 29//5 17//5 30//20
f 11//5 3//21 13//13
f 13//13 3//21 15//12
f 28//5 30//20 20//14
f 20//14 30//20 32//15
f 12//5 19//5 29//5
f 12//5 29//5 11//5
f 29//5 28//5 11//5
f 11//5 28//5 3//21
f 28//5 20//14 3//21
s 3
f 63//22 53//22 65//22
f 63//22 61//22 53//22
f 46//22 36//22 44//22
f 46//22 48//22 36//22
f 43//22 42//22 41//22
f 42//22 39//22 41//22
f 39//22 38//22 41//22
f 41//22 38//22 40//22
f 37//22 47//22 38//22
f 38//22 47//22 40//22
f 47//22 49//22 40//22
f 40//22 49//22 35//22
f 48//22 47//22 37//22
f 46//22 35//22 49//22
f 35//22 46//22 34//22
f 49//22 48//22 46//22
f 36//22 48//22 37//22
f 52//22 34//22 45//22
f 45//22 34//22 46//22
f 60//22 58//22 59//22
f 59//22 58//22 56//22
f 56//22 58//22 55//22
f 58//22 57//22 55//22
f 54//22 55//22 64//22
f 55//22 57//22 64//22
f 64//22 57//22 66//22
f 57//22 51//22 66//22
f 65//22 54//22 64//22
f 63//22 66//22 51//22
f 51//22 50//22 63//22
f 66//22 63//22 65//22
f 53//22 54//22 65//22
f 52//22 62//22 50//22
f 62//22 63//22 50//22
f 45//22 62//22 52//22
f 45//22 44//22 62//22
f 62//22 44//22 61//22
f 44//22 36//22 61//22
f 61//22 36//22 53//22
s 4
f 25//23 27//24 23//25
f 23//25 27//24 26//26
s 5
f 3//27 53//28 36//29
f 3//27 20//30 53//28
f 4//31 36//29 37//32
f 3//27 36//29 4//31
f 5//33 37//32 38//34
f 4//31 37//32 5//33
f 6//35 38//34 39//35
f 5//33 38//34 6//35
f 53//28 20//30 54//36
f 20//30 21//37 54//36
f 54//36 21//37 55//38
f 21//37 22//39 55//38
f 55//38 22//39 56//40
f 22//39 23//40 56//40
s 6
f 6//41 39//42 9//43
f 39//42 42//44 9//43
s 7
f 56//45 23//46 59//47
f 23//46 26//48 59//47
s 8
f 59//49 26//49 60//49
f 26//49 27//49 60//49
s 9
f 9//50 42//50 10//50
f 42//50 43//50 10//50
s 10
f 10//51 43//52 8//53
f 43//52 41//54 8//53
s 11
f 8//55 41//56 7//57
f 41//56 40//58 7//57
f 7//57 40//58 2//59
f 40//58 35//60 2//59
f 2//59 35//60 1//61
f 35//60 34//62 1//61
f 1//61 34//62 19//63
f 34//62 52//63 19//63
f 19//63 52//63 17//64
f 52//63 50//65 17//64
f 17//64 50//65 18//66
f 50//65 51//67 18//66
f 18//66 51//67 24//68
f 51//67 57//69 24//68
f 24//68 57//69 25//70
f 57//69 58//71 25//70
s 12
f 25//72 58//73 27//74
f 58//73 60//75 27//74
s 13
f 15//76 14//77 47//78
f 47//78 48//79 15//76
f 15//76 48//79 16//80
f 48//79 49//81 16//80
f 16//80 49//81 14//77
f 49//81 47//78 14//77
s 14
f 44//82 12//83 11//84
f 45//85 12//83 44//82
f 12//83 45//85 13//86
f 45//85 46//87 13//86
f 13//86 46//87 11//84
f 44//82 11//84 46//87
s 15
f 29//88 30//89 63//90
f 63//90 62//91 29//88
f 29//88 62//91 28//92
f 62//91 61//93 28//92
f 28//92 61//93 30//89
f 61//93 63//90 30//89
s 16
f 66//94 32//95 33//96
f 66//94 65//97 32//95
f 32//95 65//97 31//98
f 65//97 64//99 31//98
f 31//98 64//99 33//96
f 64//99 66//94 33//96
