{
	"asset":{
		"generator":"Khronos glTF Blender I/O v5.0.21",
		"version":"2.0"
	},
	"scene":0,
	"scenes":[
		{
			"name":"Scene",
			"nodes":[
				0,
				1,
				2,
				3,
				4,
				5
			]
		}
	],
	"nodes":[
		{
			"mesh":0,
			"name":"Cube.002",
			"scale":[
				0.028232844546437263,
				0.028232844546437263,
				0.028232844546437263
			],
			"translation":[
				-4.271194934844971,
				2.828007221221924,
				3.3057193756103516
			]
		},
		{
			"mesh":1,
			"name":"Cube",
			"scale":[
				0.028232844546437263,
				0.028232844546437263,
				0.028232844546437263
			],
			"translation":[
				-4.271194934844971,
				2.828007221221924,
				3.3057193756103516
			]
		},
		{
			"mesh":2,
			"name":"Cube.001"
		},
		{
			"mesh":3,
			"name":"Cube.005",
			"rotation":[
				0.24415799975395203,
				0,
				0,
				0.9697355031967163
			],
			"scale":[
				0.02124490961432457,
				0.02124490961432457,
				0.02124490961432457
			],
			"translation":[
				-4.263576030731201,
				3.1182687282562256,
				3.20302152633667
			]
		},
		{
			"mesh":4,
			"name":"Cube.004",
			"scale":[
				0.23125842213630676,
				0.23125842213630676,
				0.21018753945827484
			],
			"translation":[
				-4.269194602966309,
				2.2939252853393555,
				2.3188703060150146
			]
		},
		{
			"mesh":5,
			"name":"Circle",
			"rotation":[
				0.13351275026798248,
				0.010636684484779835,
				0.03437598794698715,
				0.9903936982154846
			],
			"scale":[
				0.08824045211076736,
				0.08824045211076736,
				0.08824045211076736
			],
			"translation":[
				-4.2649054527282715,
				2.6546077728271484,
				1.4254179000854492
			]
		}
	],
	"materials":[
		{
			"doubleSided":true,
			"name":"Material",
			"pbrMetallicRoughness":{
				"baseColorFactor":[
					0.800000011920929,
					0.800000011920929,
					0.800000011920929,
					1
				],
				"metallicFactor":0,
				"roughnessFactor":0.5
			}
		},
		{
			"doubleSided":true,
			"name":"Material.003",
			"pbrMetallicRoughness":{
				"baseColorFactor":[
					0.16264136135578156,
					0.07929863035678864,
					0.058438003063201904,
					1
				],
				"metallicFactor":0,
				"roughnessFactor":0.5
			}
		},
		{
			"doubleSided":true,
			"name":"Material.001",
			"pbrMetallicRoughness":{
				"baseColorFactor":[
					0.23301513493061066,
					0.23301513493061066,
					0.23301513493061066,
					1
				],
				"metallicFactor":0,
				"roughnessFactor":0.5
			}
		},
		{
			"doubleSided":true,
			"name":"Material.002",
			"pbrMetallicRoughness":{
				"baseColorFactor":[
					0.800000011920929,
					0.800000011920929,
					0.800000011920929,
					1
				],
				"metallicFactor":0,
				"roughnessFactor":0.5
			}
		}
	],
	"meshes":[
		{
			"name":"Cube.006",
			"primitives":[
				{
					"attributes":{
						"POSITION":0,
						"NORMAL":1
					},
					"indices":2,
					"material":0
				}
			]
		},
		{
			"name":"Cube",
			"primitives":[
				{
					"attributes":{
						"POSITION":3,
						"NORMAL":4
					},
					"indices":5,
					"material":1
				},
				{
					"attributes":{
						"POSITION":6,
						"NORMAL":7
					},
					"indices":8,
					"material":2
				},
				{
					"attributes":{
						"POSITION":9,
						"NORMAL":10
					},
					"indices":11,
					"material":0
				}
			]
		},
		{
			"name":"Cube.002",
			"primitives":[
				{
					"attributes":{
						"POSITION":12,
						"NORMAL":13
					},
					"indices":14,
					"material":0
				}
			]
		},
		{
			"name":"Cube.007",
			"primitives":[
				{
					"attributes":{
						"POSITION":15,
						"NORMAL":16
					},
					"indices":17
				}
			]
		},
		{
			"name":"Cube.001",
			"primitives":[
				{
					"attributes":{
						"POSITION":18,
						"NORMAL":19
					},
					"indices":20,
					"material":1
				},
				{
					"attributes":{
						"POSITION":21,
						"NORMAL":22
					},
					"indices":23,
					"material":2
				}
			]
		},
		{
			"name":"Circle.002",
			"primitives":[
				{
					"attributes":{
						"POSITION":24,
						"NORMAL":25
					},
					"indices":26,
					"material":3
				}
			]
		}
	],
	"accessors":[
		{
			"bufferView":0,
			"componentType":5126,
			"count":62,
			"max":[
				5.568755149841309,
				15.895566940307617,
				-6.616883754730225
			],
			"min":[
				2.8719100952148438,
				9.54654312133789,
				-9.828292846679688
			],
			"type":"VEC3"
		},
		{
			"bufferView":1,
			"componentType":5126,
			"count":62,
			"type":"VEC3"
		},
		{
			"bufferView":2,
			"componentType":5123,
			"count":96,
			"type":"SCALAR"
		},
		{
			"bufferView":3,
			"componentType":5126,
			"count":168,
			"max":[
				5.227113723754883,
				11.17946720123291,
				4.8463521003723145
			],
			"min":[
				0,
				-6.34214448928833,
				-13.279693603515625
			],
			"type":"VEC3"
		},
		{
			"bufferView":4,
			"componentType":5126,
			"count":168,
			"type":"VEC3"
		},
		{
			"bufferView":5,
			"componentType":5123,
			"count":252,
			"type":"SCALAR"
		},
		{
			"bufferView":6,
			"componentType":5126,
			"count":16,
			"max":[
				4.258659839630127,
				6.019983768463135,
				-3.4142751693725586
			],
			"min":[
				2.187077045440674,
				4.62274694442749,
				-6.311010837554932
			],
			"type":"VEC3"
		},
		{
			"bufferView":7,
			"componentType":5126,
			"count":16,
			"type":"VEC3"
		},
		{
			"bufferView":8,
			"componentType":5123,
			"count":24,
			"type":"SCALAR"
		},
		{
			"bufferView":9,
			"componentType":5126,
			"count":32,
			"max":[
				3.3166770935058594,
				0.09239910542964935,
				4.9745893478393555
			],
			"min":[
				0,
				-6.707352638244629,
				-1.9004411697387695
			],
			"type":"VEC3"
		},
		{
			"bufferView":10,
			"componentType":5126,
			"count":32,
			"type":"VEC3"
		},
		{
			"bufferView":11,
			"componentType":5123,
			"count":48,
			"type":"SCALAR"
		},
		{
			"bufferView":12,
			"componentType":5126,
			"count":72,
			"max":[
				8.730570793151855,
				7.017709732055664,
				-8.166210174560547
			],
			"min":[
				3.332916736602783,
				-1.1085801124572754,
				-13.111376762390137
			],
			"type":"VEC3"
		},
		{
			"bufferView":13,
			"componentType":5126,
			"count":72,
			"type":"VEC3"
		},
		{
			"bufferView":14,
			"componentType":5123,
			"count":108,
			"type":"SCALAR"
		},
		{
			"bufferView":15,
			"componentType":5126,
			"count":72,
			"max":[
				1,
				0.6549002528190613,
				1.9160130023956299
			],
			"min":[
				-1,
				-35.05447769165039,
				-27.113374710083008
			],
			"type":"VEC3"
		},
		{
			"bufferView":16,
			"componentType":5126,
			"count":72,
			"type":"VEC3"
		},
		{
			"bufferView":17,
			"componentType":5123,
			"count":132,
			"type":"SCALAR"
		},
		{
			"bufferView":18,
			"componentType":5126,
			"count":720,
			"max":[
				1.3265384435653687,
				3.621577739715576,
				3.195582151412964
			],
			"min":[
				0,
				-4.760426998138428,
				-5.83297872543335
			],
			"type":"VEC3"
		},
		{
			"bufferView":19,
			"componentType":5126,
			"count":720,
			"type":"VEC3"
		},
		{
			"bufferView":20,
			"componentType":5123,
			"count":1080,
			"type":"SCALAR"
		},
		{
			"bufferView":21,
			"componentType":5126,
			"count":60,
			"max":[
				1.3307379484176636,
				-4.369724273681641,
				1.5096099376678467
			],
			"min":[
				0.3923717141151428,
				-4.909773349761963,
				-5.587585926055908
			],
			"type":"VEC3"
		},
		{
			"bufferView":22,
			"componentType":5126,
			"count":60,
			"type":"VEC3"
		},
		{
			"bufferView":23,
			"componentType":5123,
			"count":90,
			"type":"SCALAR"
		},
		{
			"bufferView":24,
			"componentType":5126,
			"count":144,
			"max":[
				0.9304748177528381,
				0.2379743456840515,
				0.976150631904602
			],
			"min":[
				-0.9304746985435486,
				-9.481563568115234,
				-6.044885635375977
			],
			"type":"VEC3"
		},
		{
			"bufferView":25,
			"componentType":5126,
			"count":144,
			"type":"VEC3"
		},
		{
			"bufferView":26,
			"componentType":5123,
			"count":216,
			"type":"SCALAR"
		}
	],
	"bufferViews":[
		{
			"buffer":0,
			"byteLength":744,
			"byteOffset":0,
			"target":34962
		},
		{
			"buffer":0,
			"byteLength":744,
			"byteOffset":744,
			"target":34962
		},
		{
			"buffer":0,
			"byteLength":192,
			"byteOffset":1488,
			"target":34963
		},
		{
			"buffer":0,
			"byteLength":2016,
			"byteOffset":1680,
			"target":34962
		},
		{
			"buffer":0,
			"byteLength":2016,
			"byteOffset":3696,
			"target":34962
		},
		{
			"buffer":0,
			"byteLength":504,
			"byteOffset":5712,
			"target":34963
		},
		{
			"buffer":0,
			"byteLength":192,
			"byteOffset":6216,
			"target":34962
		},
		{
			"buffer":0,
			"byteLength":192,
			"byteOffset":6408,
			"target":34962
		},
		{
			"buffer":0,
			"byteLength":48,
			"byteOffset":6600,
			"target":34963
		},
		{
			"buffer":0,
			"byteLength":384,
			"byteOffset":6648,
			"target":34962
		},
		{
			"buffer":0,
			"byteLength":384,
			"byteOffset":7032,
			"target":34962
		},
		{
			"buffer":0,
			"byteLength":96,
			"byteOffset":7416,
			"target":34963
		},
		{
			"buffer":0,
			"byteLength":864,
			"byteOffset":7512,
			"target":34962
		},
		{
			"buffer":0,
			"byteLength":864,
			"byteOffset":8376,
			"target":34962
		},
		{
			"buffer":0,
			"byteLength":216,
			"byteOffset":9240,
			"target":34963
		},
		{
			"buffer":0,
			"byteLength":864,
			"byteOffset":9456,
			"target":34962
		},
		{
			"buffer":0,
			"byteLength":864,
			"byteOffset":10320,
			"target":34962
		},
		{
			"buffer":0,
			"byteLength":264,
			"byteOffset":11184,
			"target":34963
		},
		{
			"buffer":0,
			"byteLength":8640,
			"byteOffset":11448,
			"target":34962
		},
		{
			"buffer":0,
			"byteLength":8640,
			"byteOffset":20088,
			"target":34962
		},
		{
			"buffer":0,
			"byteLength":2160,
			"byteOffset":28728,
			"target":34963
		},
		{
			"buffer":0,
			"byteLength":720,
			"byteOffset":30888,
			"target":34962
		},
		{
			"buffer":0,
			"byteLength":720,
			"byteOffset":31608,
			"target":34962
		},
		{
			"buffer":0,
			"byteLength":180,
			"byteOffset":32328,
			"target":34963
		},
		{
			"buffer":0,
			"byteLength":1728,
			"byteOffset":32508,
			"target":34962
		},
		{
			"buffer":0,
			"byteLength":1728,
			"byteOffset":34236,
			"target":34962
		},
		{
			"buffer":0,
			"byteLength":432,
			"byteOffset":35964,
			"target":34963
		}
	],
	"buffers":[
		{
			"byteLength":36396,
			"uri":"model.bin"
		}
	]
}
