{
	"asset":{
		"generator":"Khronos glTF Blender I/O v5.0.21",
		"version":"2.0"
	},
	"extensionsUsed":[
		"KHR_materials_specular",
		"KHR_materials_ior"
	],
	"scene":0,
	"scenes":[
		{
			"name":"Scene",
			"nodes":[
				0,
				1
			]
		}
	],
	"nodes":[
		{
			"mesh":0,
			"name":"Roads"
		},
		{
			"mesh":1,
			"name":"HouseConstructionSite"
		}
	],
	"materials":[
		{
			"doubleSided":true,
			"extensions":{
				"KHR_materials_specular":{
					"specularFactor":0.5
				},
				"KHR_materials_ior":{
					"ior":1.4500000476837158
				}
			},
			"name":"Submission_Diffuse_Shader",
			"pbrMetallicRoughness":{
				"baseColorTexture":{
					"index":0
				},
				"metallicFactor":0,
				"roughnessFactor":0.800000011920929
			}
		},
		{
			"doubleSided":true,
			"extensions":{
				"KHR_materials_specular":{
					"specularFactor":0.5
				},
				"KHR_materials_ior":{
					"ior":1.4500000476837158
				}
			},
			"name":"Submission_Diffuse_Shader.001",
			"pbrMetallicRoughness":{
				"baseColorTexture":{
					"index":1
				},
				"metallicFactor":0,
				"roughnessFactor":0.800000011920929
			}
		}
	],
	"meshes":[
		{
			"name":"Plane.001",
			"primitives":[
				{
					"attributes":{
						"POSITION":0,
						"NORMAL":1,
						"TEXCOORD_0":2
					},
					"indices":3,
					"material":0
				}
			]
		},
		{
			"name":"Plane.006",
			"primitives":[
				{
					"attributes":{
						"POSITION":4,
						"NORMAL":5,
						"TEXCOORD_0":6
					},
					"indices":7,
					"material":1
				},
				{
					"attributes":{
						"POSITION":8,
						"NORMAL":9,
						"TEXCOORD_0":10
					},
					"indices":11,
					"material":0
				}
			]
		}
	],
	"textures":[
		{
			"sampler":0,
			"source":0
		},
		{
			"sampler":1,
			"source":0
		}
	],
	"images":[
		{
			"mimeType":"image/png",
			"name":"ImphenziaPalette01-256-Gradient",
			"uri":"ImphenziaPalette01-256-Gradient.png"
		}
	],
	"accessors":[
		{
			"bufferView":0,
			"componentType":5126,
			"count":672,
			"max":[
				67.99994659423828,
				0,
				68.00008392333984
			],
			"min":[
				-68.00008392333984,
				-0.20000000298023224,
				-68
			],
			"type":"VEC3"
		},
		{
			"bufferView":1,
			"componentType":5126,
			"count":672,
			"type":"VEC3"
		},
		{
			"bufferView":2,
			"componentType":5126,
			"count":672,
			"type":"VEC2"
		},
		{
			"bufferView":3,
			"componentType":5123,
			"count":1488,
			"type":"SCALAR"
		},
		{
			"bufferView":4,
			"componentType":5126,
			"count":4,
			"max":[
				50,
				0,
				50
			],
			"min":[
				-50,
				0,
				-50
			],
			"type":"VEC3"
		},
		{
			"bufferView":5,
			"componentType":5126,
			"count":4,
			"type":"VEC3"
		},
		{
			"bufferView":6,
			"componentType":5126,
			"count":4,
			"type":"VEC2"
		},
		{
			"bufferView":7,
			"componentType":5123,
			"count":6,
			"type":"SCALAR"
		},
		{
			"bufferView":8,
			"componentType":5126,
			"count":73564,
			"max":[
				50,
				71.31101989746094,
				50
			],
			"min":[
				-50,
				-0.02347719669342041,
				-49.97651672363281
			],
			"type":"VEC3"
		},
		{
			"bufferView":9,
			"componentType":5126,
			"count":73564,
			"type":"VEC3"
		},
		{
			"bufferView":10,
			"componentType":5126,
			"count":73564,
			"type":"VEC2"
		},
		{
			"bufferView":11,
			"componentType":5125,
			"count":129972,
			"type":"SCALAR"
		}
	],
	"bufferViews":[
		{
			"buffer":0,
			"byteLength":8064,
			"byteOffset":0,
			"target":34962
		},
		{
			"buffer":0,
			"byteLength":8064,
			"byteOffset":8064,
			"target":34962
		},
		{
			"buffer":0,
			"byteLength":5376,
			"byteOffset":16128,
			"target":34962
		},
		{
			"buffer":0,
			"byteLength":2976,
			"byteOffset":21504,
			"target":34963
		},
		{
			"buffer":0,
			"byteLength":48,
			"byteOffset":24480,
			"target":34962
		},
		{
			"buffer":0,
			"byteLength":48,
			"byteOffset":24528,
			"target":34962
		},
		{
			"buffer":0,
			"byteLength":32,
			"byteOffset":24576,
			"target":34962
		},
		{
			"buffer":0,
			"byteLength":12,
			"byteOffset":24608,
			"target":34963
		},
		{
			"buffer":0,
			"byteLength":882768,
			"byteOffset":24620,
			"target":34962
		},
		{
			"buffer":0,
			"byteLength":882768,
			"byteOffset":907388,
			"target":34962
		},
		{
			"buffer":0,
			"byteLength":588512,
			"byteOffset":1790156,
			"target":34962
		},
		{
			"buffer":0,
			"byteLength":519888,
			"byteOffset":2378668,
			"target":34963
		}
	],
	"samplers":[
		{
			"magFilter":9728,
			"minFilter":9984
		},
		{
			"magFilter":9729,
			"minFilter":9987
		}
	],
	"buffers":[
		{
			"byteLength":2898556,
			"uri":"model.bin"
		}
	]
}
