{
	"asset":{
		"generator":"Khronos glTF Blender I/O v5.0.21",
		"version":"2.0"
	},
	"extensionsUsed":[
		"KHR_materials_emissive_strength"
	],
	"scene":0,
	"scenes":[
		{
			"name":"Scene",
			"nodes":[
				10,
				11
			]
		}
	],
	"nodes":[
		{
			"mesh":0,
			"name":"Bezel"
		},
		{
			"mesh":1,
			"name":"Hover Pad"
		},
		{
			"mesh":2,
			"name":"Hull"
		},
		{
			"mesh":3,
			"name":"Lights"
		},
		{
			"mesh":4,
			"name":"Rocker"
		},
		{
			"mesh":5,
			"name":"Shelf"
		},
		{
			"mesh":6,
			"name":"Stripe"
		},
		{
			"mesh":7,
			"name":"Barrel"
		},
		{
			"children":[
				7
			],
			"mesh":8,
			"name":"Turret",
			"translation":[
				-1.8621408939361572,
				1.2751762866973877,
				0
			]
		},
		{
			"mesh":9,
			"name":"Underbody"
		},
		{
			"children":[
				0,
				1,
				2,
				3,
				4,
				5,
				6,
				8,
				9
			],
			"name":"Empty"
		},
		{
			"mesh":10,
			"name":"Floor"
		}
	],
	"animations":[
		{
			"channels":[
				{
					"sampler":0,
					"target":{
						"node":10,
						"path":"translation"
					}
				},
				{
					"sampler":1,
					"target":{
						"node":10,
						"path":"rotation"
					}
				},
				{
					"sampler":2,
					"target":{
						"node":10,
						"path":"scale"
					}
				}
			],
			"name":"EmptyAction",
			"samplers":[
				{
					"input":40,
					"interpolation":"STEP",
					"output":41
				},
				{
					"input":42,
					"interpolation":"LINEAR",
					"output":43
				},
				{
					"input":40,
					"interpolation":"STEP",
					"output":44
				}
			]
		},
		{
			"channels":[
				{
					"sampler":0,
					"target":{
						"node":8,
						"path":"translation"
					}
				},
				{
					"sampler":1,
					"target":{
						"node":8,
						"path":"rotation"
					}
				},
				{
					"sampler":2,
					"target":{
						"node":8,
						"path":"scale"
					}
				}
			],
			"name":"TurretAction",
			"samplers":[
				{
					"input":45,
					"interpolation":"LINEAR",
					"output":46
				},
				{
					"input":47,
					"interpolation":"LINEAR",
					"output":48
				},
				{
					"input":45,
					"interpolation":"STEP",
					"output":44
				}
			]
		},
		{
			"channels":[
				{
					"sampler":0,
					"target":{
						"node":7,
						"path":"translation"
					}
				},
				{
					"sampler":1,
					"target":{
						"node":7,
						"path":"rotation"
					}
				},
				{
					"sampler":2,
					"target":{
						"node":7,
						"path":"scale"
					}
				}
			],
			"name":"BarrelAction",
			"samplers":[
				{
					"input":45,
					"interpolation":"LINEAR",
					"output":49
				},
				{
					"input":47,
					"interpolation":"LINEAR",
					"output":50
				},
				{
					"input":45,
					"interpolation":"STEP",
					"output":44
				}
			]
		}
	],
	"materials":[
		{
			"doubleSided":true,
			"name":"Stripe",
			"normalTexture":{
				"index":0,
				"scale":-0.10000000149011612
			},
			"pbrMetallicRoughness":{
				"baseColorFactor":[
					0.4999902844429016,
					0.02221088483929634,
					0.018899597227573395,
					1
				],
				"roughnessFactor":0.253846138715744
			}
		},
		{
			"doubleSided":true,
			"emissiveFactor":[
				0,
				1,
				0.4643155336380005
			],
			"extensions":{
				"KHR_materials_emissive_strength":{
					"emissiveStrength":50
				}
			},
			"name":"HoverPad",
			"pbrMetallicRoughness":{
				"baseColorFactor":[
					0,
					1,
					0.4620770215988159,
					1
				],
				"metallicFactor":0,
				"roughnessFactor":0.5
			}
		},
		{
			"doubleSided":true,
			"name":"Cammo",
			"normalTexture":{
				"index":1,
				"scale":-0.30000001192092896
			},
			"pbrMetallicRoughness":{
				"baseColorTexture":{
					"index":2
				},
				"roughnessFactor":0.30000001192092896
			}
		},
		{
			"doubleSided":true,
			"emissiveFactor":[
				1,
				1,
				0
			],
			"extensions":{
				"KHR_materials_emissive_strength":{
					"emissiveStrength":250
				}
			},
			"name":"Material",
			"pbrMetallicRoughness":{
				"baseColorFactor":[
					1,
					1,
					0,
					1
				],
				"metallicFactor":0,
				"roughnessFactor":0.5
			}
		},
		{
			"doubleSided":true,
			"name":"gun metal",
			"normalTexture":{
				"index":3,
				"scale":-0.30000001192092896
			},
			"pbrMetallicRoughness":{
				"baseColorFactor":[
					0,
					0,
					0,
					1
				],
				"metallicFactor":0.8220279812812805,
				"roughnessFactor":0.5237761735916138
			}
		},
		{
			"doubleSided":true,
			"name":"Hex Paver",
			"normalTexture":{
				"index":4,
				"scale":-3
			},
			"pbrMetallicRoughness":{
				"baseColorTexture":{
					"index":5
				},
				"metallicFactor":0.5,
				"roughnessFactor":0.75
			}
		}
	],
	"meshes":[
		{
			"name":"Lightning.010",
			"primitives":[
				{
					"attributes":{
						"POSITION":0,
						"NORMAL":1,
						"TEXCOORD_0":2
					},
					"indices":3,
					"material":0
				}
			]
		},
		{
			"name":"Lightning.008",
			"primitives":[
				{
					"attributes":{
						"POSITION":4,
						"NORMAL":5,
						"TEXCOORD_0":6
					},
					"indices":7,
					"material":1
				}
			]
		},
		{
			"name":"Lightning.014",
			"primitives":[
				{
					"attributes":{
						"POSITION":8,
						"NORMAL":9,
						"TEXCOORD_0":10
					},
					"indices":11,
					"material":2
				}
			]
		},
		{
			"name":"Lightning.011",
			"primitives":[
				{
					"attributes":{
						"POSITION":12,
						"NORMAL":13
					},
					"indices":14,
					"material":3
				}
			]
		},
		{
			"name":"Lightning.001",
			"primitives":[
				{
					"attributes":{
						"POSITION":15,
						"NORMAL":16
					},
					"indices":17,
					"material":4
				}
			]
		},
		{
			"name":"Lightning",
			"primitives":[
				{
					"attributes":{
						"POSITION":18,
						"NORMAL":19,
						"TEXCOORD_0":20
					},
					"indices":21,
					"material":4
				}
			]
		},
		{
			"name":"Lightning.002",
			"primitives":[
				{
					"attributes":{
						"POSITION":22,
						"NORMAL":23,
						"TEXCOORD_0":24
					},
					"indices":25,
					"material":0
				}
			]
		},
		{
			"name":"Lightning.006",
			"primitives":[
				{
					"attributes":{
						"POSITION":26,
						"NORMAL":27
					},
					"indices":28,
					"material":4
				}
			]
		},
		{
			"name":"Lightning.004",
			"primitives":[
				{
					"attributes":{
						"POSITION":29,
						"NORMAL":30,
						"TEXCOORD_0":31
					},
					"indices":32,
					"material":2
				}
			]
		},
		{
			"name":"Lightning.009",
			"primitives":[
				{
					"attributes":{
						"POSITION":33,
						"NORMAL":34
					},
					"indices":35,
					"material":4
				}
			]
		},
		{
			"name":"Plane",
			"primitives":[
				{
					"attributes":{
						"POSITION":36,
						"NORMAL":37,
						"TEXCOORD_0":38
					},
					"indices":39,
					"material":5
				}
			]
		}
	],
	"textures":[
		{
			"sampler":0,
			"source":0
		},
		{
			"sampler":0,
			"source":1
		},
		{
			"sampler":0,
			"source":2
		},
		{
			"sampler":0,
			"source":0
		},
		{
			"sampler":0,
			"source":3
		},
		{
			"sampler":0,
			"source":4
		}
	],
	"images":[
		{
			"mimeType":"image/png",
			"name":"_Normal",
			"uri":"_Normal.png"
		},
		{
			"mimeType":"image/png",
			"name":"DigiCamo_normal",
			"uri":"DigiCamo_normal.png"
		},
		{
			"mimeType":"image/png",
			"name":"DigiCamo_diffuseOriginal",
			"uri":"DigiCamo_diffuseOriginal.png"
		},
		{
			"mimeType":"image/png",
			"name":"Hex Paver C_normal",
			"uri":"Hex%20Paver%20C_normal.png"
		},
		{
			"mimeType":"image/png",
			"name":"Hex Paver C_diffuseOriginal",
			"uri":"Hex%20Paver%20C_diffuseOriginal.png"
		}
	],
	"accessors":[
		{
			"bufferView":0,
			"componentType":5126,
			"count":22,
			"max":[
				3.5395870208740234,
				0.5478543043136597,
				1.5748029947280884
			],
			"min":[
				3.1395866870880127,
				0.1478542685508728,
				-1.5748029947280884
			],
			"type":"VEC3"
		},
		{
			"bufferView":1,
			"componentType":5126,
			"count":22,
			"type":"VEC3"
		},
		{
			"bufferView":2,
			"componentType":5126,
			"count":22,
			"type":"VEC2"
		},
		{
			"bufferView":3,
			"componentType":5123,
			"count":66,
			"type":"SCALAR"
		},
		{
			"bufferView":4,
			"componentType":5126,
			"count":12,
			"max":[
				3.279778480529785,
				-0.002145707607269287,
				1.399999976158142
			],
			"min":[
				-3.200413227081299,
				-0.002145707607269287,
				-1.399999976158142
			],
			"type":"VEC3"
		},
		{
			"bufferView":5,
			"componentType":5126,
			"count":12,
			"type":"VEC3"
		},
		{
			"bufferView":6,
			"componentType":5126,
			"count":12,
			"type":"VEC2"
		},
		{
			"bufferView":7,
			"componentType":5123,
			"count":18,
			"type":"SCALAR"
		},
		{
			"bufferView":8,
			"componentType":5126,
			"count":148,
			"max":[
				3.5395870208740234,
				0.9978541731834412,
				1.5312269926071167
			],
			"min":[
				-3.335620880126953,
				-0.002145707607269287,
				-1.5312269926071167
			],
			"type":"VEC3"
		},
		{
			"bufferView":9,
			"componentType":5126,
			"count":148,
			"type":"VEC3"
		},
		{
			"bufferView":10,
			"componentType":5126,
			"count":148,
			"type":"VEC2"
		},
		{
			"bufferView":11,
			"componentType":5123,
			"count":354,
			"type":"SCALAR"
		},
		{
			"bufferView":12,
			"componentType":5126,
			"count":10,
			"max":[
				3.0395867824554443,
				0.4978542923927307,
				1.5219589471817017
			],
			"min":[
				3.0395867824554443,
				0.19785434007644653,
				-1.5219589471817017
			],
			"type":"VEC3"
		},
		{
			"bufferView":13,
			"componentType":5126,
			"count":10,
			"type":"VEC3"
		},
		{
			"bufferView":14,
			"componentType":5123,
			"count":18,
			"type":"SCALAR"
		},
		{
			"bufferView":15,
			"componentType":5126,
			"count":32,
			"max":[
				3.5395870208740234,
				0.2478542923927307,
				1.5748029947280884
			],
			"min":[
				-3.450413227081299,
				-0.002145707607269287,
				-1.5748029947280884
			],
			"type":"VEC3"
		},
		{
			"bufferView":16,
			"componentType":5126,
			"count":32,
			"type":"VEC3"
		},
		{
			"bufferView":17,
			"componentType":5123,
			"count":66,
			"type":"SCALAR"
		},
		{
			"bufferView":18,
			"componentType":5126,
			"count":40,
			"max":[
				3.48958683013916,
				0.4978542923927307,
				1.5219589471817017
			],
			"min":[
				3.0395867824554443,
				0.19785434007644653,
				-1.5219589471817017
			],
			"type":"VEC3"
		},
		{
			"bufferView":19,
			"componentType":5126,
			"count":40,
			"type":"VEC3"
		},
		{
			"bufferView":20,
			"componentType":5126,
			"count":40,
			"type":"VEC2"
		},
		{
			"bufferView":21,
			"componentType":5123,
			"count":60,
			"type":"SCALAR"
		},
		{
			"bufferView":22,
			"componentType":5126,
			"count":12,
			"max":[
				3.439586639404297,
				0.49402719736099243,
				1.5748029947280884
			],
			"min":[
				-3.450413227081299,
				0.2478542923927307,
				-1.5748029947280884
			],
			"type":"VEC3"
		},
		{
			"bufferView":23,
			"componentType":5126,
			"count":12,
			"type":"VEC3"
		},
		{
			"bufferView":24,
			"componentType":5126,
			"count":12,
			"type":"VEC2"
		},
		{
			"bufferView":25,
			"componentType":5123,
			"count":18,
			"type":"SCALAR"
		},
		{
			"bufferView":26,
			"componentType":5126,
			"count":504,
			"max":[
				5.05296516418457,
				0.14894384145736694,
				0.14249810576438904
			],
			"min":[
				-0.00016105175018310547,
				-0.13682444393634796,
				-0.14249812066555023
			],
			"type":"VEC3"
		},
		{
			"bufferView":27,
			"componentType":5126,
			"count":504,
			"type":"VEC3"
		},
		{
			"bufferView":28,
			"componentType":5123,
			"count":2508,
			"type":"SCALAR"
		},
		{
			"bufferView":29,
			"componentType":5126,
			"count":60,
			"max":[
				1.499999761581421,
				0.3829699754714966,
				1.0000001192092896
			],
			"min":[
				-1.116849660873413,
				-0.2773222327232361,
				-1
			],
			"type":"VEC3"
		},
		{
			"bufferView":30,
			"componentType":5126,
			"count":60,
			"type":"VEC3"
		},
		{
			"bufferView":31,
			"componentType":5126,
			"count":60,
			"type":"VEC2"
		},
		{
			"bufferView":32,
			"componentType":5123,
			"count":96,
			"type":"SCALAR"
		},
		{
			"bufferView":33,
			"componentType":5126,
			"count":20,
			"max":[
				0.5395867824554443,
				0.19785434007644653,
				1.5398420095443726
			],
			"min":[
				-1.4604132175445557,
				-0.002145707607269287,
				-1.5398420095443726
			],
			"type":"VEC3"
		},
		{
			"bufferView":34,
			"componentType":5126,
			"count":20,
			"type":"VEC3"
		},
		{
			"bufferView":35,
			"componentType":5123,
			"count":36,
			"type":"SCALAR"
		},
		{
			"bufferView":36,
			"componentType":5126,
			"count":4,
			"max":[
				38.13785934448242,
				-0.042656540870666504,
				40
			],
			"min":[
				-41.86214065551758,
				-0.042656540870666504,
				-40
			],
			"type":"VEC3"
		},
		{
			"bufferView":37,
			"componentType":5126,
			"count":4,
			"type":"VEC3"
		},
		{
			"bufferView":38,
			"componentType":5126,
			"count":4,
			"type":"VEC2"
		},
		{
			"bufferView":39,
			"componentType":5123,
			"count":6,
			"type":"SCALAR"
		},
		{
			"bufferView":40,
			"componentType":5126,
			"count":2,
			"max":[
				2.5
			],
			"min":[
				0.041666666666666664
			],
			"type":"SCALAR"
		},
		{
			"bufferView":41,
			"componentType":5126,
			"count":2,
			"type":"VEC3"
		},
		{
			"bufferView":42,
			"componentType":5126,
			"count":60,
			"max":[
				2.5
			],
			"min":[
				0.041666666666666664
			],
			"type":"SCALAR"
		},
		{
			"bufferView":43,
			"componentType":5126,
			"count":60,
			"type":"VEC4"
		},
		{
			"bufferView":44,
			"componentType":5126,
			"count":2,
			"type":"VEC3"
		},
		{
			"bufferView":45,
			"componentType":5126,
			"count":2,
			"max":[
				2.5416666666666665
			],
			"min":[
				0.041666666666666664
			],
			"type":"SCALAR"
		},
		{
			"bufferView":46,
			"componentType":5126,
			"count":2,
			"type":"VEC3"
		},
		{
			"bufferView":47,
			"componentType":5126,
			"count":61,
			"max":[
				2.5416666666666665
			],
			"min":[
				0.041666666666666664
			],
			"type":"SCALAR"
		},
		{
			"bufferView":48,
			"componentType":5126,
			"count":61,
			"type":"VEC4"
		},
		{
			"bufferView":49,
			"componentType":5126,
			"count":2,
			"type":"VEC3"
		},
		{
			"bufferView":50,
			"componentType":5126,
			"count":61,
			"type":"VEC4"
		}
	],
	"bufferViews":[
		{
			"buffer":0,
			"byteLength":264,
			"byteOffset":0,
			"target":34962
		},
		{
			"buffer":0,
			"byteLength":264,
			"byteOffset":264,
			"target":34962
		},
		{
			"buffer":0,
			"byteLength":176,
			"byteOffset":528,
			"target":34962
		},
		{
			"buffer":0,
			"byteLength":132,
			"byteOffset":704,
			"target":34963
		},
		{
			"buffer":0,
			"byteLength":144,
			"byteOffset":836,
			"target":34962
		},
		{
			"buffer":0,
			"byteLength":144,
			"byteOffset":980,
			"target":34962
		},
		{
			"buffer":0,
			"byteLength":96,
			"byteOffset":1124,
			"target":34962
		},
		{
			"buffer":0,
			"byteLength":36,
			"byteOffset":1220,
			"target":34963
		},
		{
			"buffer":0,
			"byteLength":1776,
			"byteOffset":1256,
			"target":34962
		},
		{
			"buffer":0,
			"byteLength":1776,
			"byteOffset":3032,
			"target":34962
		},
		{
			"buffer":0,
			"byteLength":1184,
			"byteOffset":4808,
			"target":34962
		},
		{
			"buffer":0,
			"byteLength":708,
			"byteOffset":5992,
			"target":34963
		},
		{
			"buffer":0,
			"byteLength":120,
			"byteOffset":6700,
			"target":34962
		},
		{
			"buffer":0,
			"byteLength":120,
			"byteOffset":6820,
			"target":34962
		},
		{
			"buffer":0,
			"byteLength":36,
			"byteOffset":6940,
			"target":34963
		},
		{
			"buffer":0,
			"byteLength":384,
			"byteOffset":6976,
			"target":34962
		},
		{
			"buffer":0,
			"byteLength":384,
			"byteOffset":7360,
			"target":34962
		},
		{
			"buffer":0,
			"byteLength":132,
			"byteOffset":7744,
			"target":34963
		},
		{
			"buffer":0,
			"byteLength":480,
			"byteOffset":7876,
			"target":34962
		},
		{
			"buffer":0,
			"byteLength":480,
			"byteOffset":8356,
			"target":34962
		},
		{
			"buffer":0,
			"byteLength":320,
			"byteOffset":8836,
			"target":34962
		},
		{
			"buffer":0,
			"byteLength":120,
			"byteOffset":9156,
			"target":34963
		},
		{
			"buffer":0,
			"byteLength":144,
			"byteOffset":9276,
			"target":34962
		},
		{
			"buffer":0,
			"byteLength":144,
			"byteOffset":9420,
			"target":34962
		},
		{
			"buffer":0,
			"byteLength":96,
			"byteOffset":9564,
			"target":34962
		},
		{
			"buffer":0,
			"byteLength":36,
			"byteOffset":9660,
			"target":34963
		},
		{
			"buffer":0,
			"byteLength":6048,
			"byteOffset":9696,
			"target":34962
		},
		{
			"buffer":0,
			"byteLength":6048,
			"byteOffset":15744,
			"target":34962
		},
		{
			"buffer":0,
			"byteLength":5016,
			"byteOffset":21792,
			"target":34963
		},
		{
			"buffer":0,
			"byteLength":720,
			"byteOffset":26808,
			"target":34962
		},
		{
			"buffer":0,
			"byteLength":720,
			"byteOffset":27528,
			"target":34962
		},
		{
			"buffer":0,
			"byteLength":480,
			"byteOffset":28248,
			"target":34962
		},
		{
			"buffer":0,
			"byteLength":192,
			"byteOffset":28728,
			"target":34963
		},
		{
			"buffer":0,
			"byteLength":240,
			"byteOffset":28920,
			"target":34962
		},
		{
			"buffer":0,
			"byteLength":240,
			"byteOffset":29160,
			"target":34962
		},
		{
			"buffer":0,
			"byteLength":72,
			"byteOffset":29400,
			"target":34963
		},
		{
			"buffer":0,
			"byteLength":48,
			"byteOffset":29472,
			"target":34962
		},
		{
			"buffer":0,
			"byteLength":48,
			"byteOffset":29520,
			"target":34962
		},
		{
			"buffer":0,
			"byteLength":32,
			"byteOffset":29568,
			"target":34962
		},
		{
			"buffer":0,
			"byteLength":12,
			"byteOffset":29600,
			"target":34963
		},
		{
			"buffer":0,
			"byteLength":8,
			"byteOffset":29612
		},
		{
			"buffer":0,
			"byteLength":24,
			"byteOffset":29620
		},
		{
			"buffer":0,
			"byteLength":240,
			"byteOffset":29644
		},
		{
			"buffer":0,
			"byteLength":960,
			"byteOffset":29884
		},
		{
			"buffer":0,
			"byteLength":24,
			"byteOffset":30844
		},
		{
			"buffer":0,
			"byteLength":8,
			"byteOffset":30868
		},
		{
			"buffer":0,
			"byteLength":24,
			"byteOffset":30876
		},
		{
			"buffer":0,
			"byteLength":244,
			"byteOffset":30900
		},
		{
			"buffer":0,
			"byteLength":976,
			"byteOffset":31144
		},
		{
			"buffer":0,
			"byteLength":24,
			"byteOffset":32120
		},
		{
			"buffer":0,
			"byteLength":976,
			"byteOffset":32144
		}
	],
	"samplers":[
		{
			"magFilter":9729,
			"minFilter":9987
		}
	],
	"buffers":[
		{
			"byteLength":33120,
			"uri":"model.bin"
		}
	]
}
