{
	"asset":{
		"generator":"Khronos glTF Blender I/O v5.0.21",
		"version":"2.0"
	},
	"scene":0,
	"scenes":[
		{
			"name":"Scene",
			"nodes":[
				0,
				1,
				2
			]
		}
	],
	"nodes":[
		{
			"mesh":0,
			"name":"body",
			"rotation":[
				0.7071068286895752,
				0,
				0,
				0.7071068286895752
			],
			"translation":[
				0.004290522541850805,
				2.25325870513916,
				0
			]
		},
		{
			"mesh":1,
			"name":"chassis001",
			"translation":[
				0,
				0.0992046371102333,
				6.165058135986328
			]
		},
		{
			"mesh":2,
			"name":"chassis002",
			"translation":[
				0,
				0.0992046371102333,
				-6.165058135986328
			]
		}
	],
	"materials":[
		{
			"doubleSided":true,
			"name":"Material",
			"pbrMetallicRoughness":{
				"metallicFactor":0,
				"roughnessFactor":0.5
			}
		},
		{
			"doubleSided":true,
			"name":"Material.002",
			"pbrMetallicRoughness":{
				"metallicFactor":0,
				"roughnessFactor":0.5
			}
		}
	],
	"meshes":[
		{
			"name":"mesh_input",
			"primitives":[
				{
					"attributes":{
						"POSITION":0,
						"NORMAL":1,
						"TEXCOORD_0":2
					},
					"indices":3,
					"material":0
				}
			]
		},
		{
			"name":"Cube.001",
			"primitives":[
				{
					"attributes":{
						"POSITION":4,
						"NORMAL":5,
						"TEXCOORD_0":6
					},
					"indices":7,
					"material":1
				}
			]
		},
		{
			"name":"Cube.002",
			"primitives":[
				{
					"attributes":{
						"POSITION":8,
						"NORMAL":9,
						"TEXCOORD_0":10
					},
					"indices":11,
					"material":0
				}
			]
		}
	],
	"accessors":[
		{
			"bufferView":0,
			"componentType":5126,
			"count":14653,
			"max":[
				1.637744426727295,
				8.714041709899902,
				1.9826313257217407
			],
			"min":[
				-1.637744426727295,
				-8.714041709899902,
				-2.1641852855682373
			],
			"type":"VEC3"
		},
		{
			"bufferView":1,
			"componentType":5126,
			"count":14653,
			"type":"VEC3"
		},
		{
			"bufferView":2,
			"componentType":5126,
			"count":14653,
			"type":"VEC2"
		},
		{
			"bufferView":3,
			"componentType":5123,
			"count":23388,
			"type":"SCALAR"
		},
		{
			"bufferView":4,
			"componentType":5126,
			"count":8760,
			"max":[
				1.600000023841858,
				1.1707075834274292,
				1.043290138244629
			],
			"min":[
				-1.599998950958252,
				-0.09613057971000671,
				-4.770269393920898
			],
			"type":"VEC3"
		},
		{
			"bufferView":5,
			"componentType":5126,
			"count":8760,
			"type":"VEC3"
		},
		{
			"bufferView":6,
			"componentType":5126,
			"count":8760,
			"type":"VEC2"
		},
		{
			"bufferView":7,
			"componentType":5123,
			"count":15108,
			"type":"SCALAR"
		},
		{
			"bufferView":8,
			"componentType":5126,
			"count":8758,
			"max":[
				1.599998950958252,
				1.1707075834274292,
				4.770269870758057
			],
			"min":[
				-1.600000262260437,
				-0.09613057971000671,
				-1.043290615081787
			],
			"type":"VEC3"
		},
		{
			"bufferView":9,
			"componentType":5126,
			"count":8758,
			"type":"VEC3"
		},
		{
			"bufferView":10,
			"componentType":5126,
			"count":8758,
			"type":"VEC2"
		},
		{
			"bufferView":11,
			"componentType":5123,
			"count":15108,
			"type":"SCALAR"
		}
	],
	"bufferViews":[
		{
			"buffer":0,
			"byteLength":175836,
			"byteOffset":0,
			"target":34962
		},
		{
			"buffer":0,
			"byteLength":175836,
			"byteOffset":175836,
			"target":34962
		},
		{
			"buffer":0,
			"byteLength":117224,
			"byteOffset":351672,
			"target":34962
		},
		{
			"buffer":0,
			"byteLength":46776,
			"byteOffset":468896,
			"target":34963
		},
		{
			"buffer":0,
			"byteLength":105120,
			"byteOffset":515672,
			"target":34962
		},
		{
			"buffer":0,
			"byteLength":105120,
			"byteOffset":620792,
			"target":34962
		},
		{
			"buffer":0,
			"byteLength":70080,
			"byteOffset":725912,
			"target":34962
		},
		{
			"buffer":0,
			"byteLength":30216,
			"byteOffset":795992,
			"target":34963
		},
		{
			"buffer":0,
			"byteLength":105096,
			"byteOffset":826208,
			"target":34962
		},
		{
			"buffer":0,
			"byteLength":105096,
			"byteOffset":931304,
			"target":34962
		},
		{
			"buffer":0,
			"byteLength":70064,
			"byteOffset":1036400,
			"target":34962
		},
		{
			"buffer":0,
			"byteLength":30216,
			"byteOffset":1106464,
			"target":34963
		}
	],
	"buffers":[
		{
			"byteLength":1136680,
			"uri":"model.bin"
		}
	]
}
