# Blender v2.75 (sub 0) OBJ File: 'Magnum 44.blend'
# www.blender.org
mtllib Magnum 44.mtl
o Magnum_44_Cube.001
v -0.000125 -0.029445 0.031374
v -0.017138 -0.022397 0.031374
v -0.024185 -0.005384 0.031374
v -0.017138 0.011630 0.031374
v -0.000125 0.018677 0.031374
v 0.016889 0.011630 0.031374
v 0.023936 -0.005384 0.031374
v 0.016889 -0.022397 0.031374
v -0.000125 -0.029445 0.075947
v -0.017138 -0.022397 0.075947
v -0.024185 -0.005384 0.075947
v -0.017138 0.011630 0.075947
v -0.000125 0.018677 0.075947
v 0.016889 0.011630 0.075947
v 0.023936 -0.005384 0.075947
v 0.016889 -0.022397 0.075947
v -0.000125 -0.015755 0.031374
v -0.007458 -0.012717 0.031374
v -0.010495 -0.005384 0.031374
v -0.007458 0.001949 0.031374
v -0.000125 0.004987 0.031374
v 0.007209 0.001949 0.031374
v 0.010246 -0.005384 0.031374
v 0.007209 -0.012717 0.031374
v -0.000125 -0.016325 0.075947
v -0.007861 -0.013120 0.075947
v -0.011065 -0.005384 0.075947
v -0.007861 0.002352 0.075947
v -0.000125 0.005557 0.075947
v 0.007612 0.002352 0.075947
v 0.010816 -0.005384 0.075947
v 0.007612 -0.013120 0.075947
v -0.000125 -0.016325 0.086209
v -0.007861 -0.013120 0.086209
v -0.011065 -0.005384 0.086209
v -0.007861 0.002352 0.086209
v -0.000125 0.005557 0.086209
v 0.007612 0.002352 0.086209
v 0.010816 -0.005384 0.086209
v 0.007612 -0.013120 0.086209
v -0.000125 -0.015755 0.023289
v -0.007458 -0.012717 0.023289
v -0.010495 -0.005384 0.023289
v -0.007458 0.001949 0.023289
v -0.000125 0.004987 0.023289
v 0.007209 0.001949 0.023289
v 0.010246 -0.005384 0.023289
v 0.007209 -0.012717 0.023289
v -0.000055 0.023947 -0.079989
v 0.011647 0.015445 -0.079989
v 0.007177 0.001689 -0.079989
v -0.007287 0.001689 -0.079989
v -0.011756 0.015445 -0.079989
v -0.000055 0.023947 -0.057776
v 0.011647 0.015445 -0.057776
v 0.007177 0.001689 -0.057776
v -0.007287 0.001689 -0.057776
v -0.011756 0.015445 -0.057776
v -0.013384 -0.013283 0.008358
v -0.007362 0.025822 0.008358
v -0.013384 -0.013283 -0.069856
v -0.007362 0.025822 -0.061273
v 0.013384 -0.013283 0.008358
v 0.007362 0.025822 0.008358
v 0.013384 -0.013283 -0.069856
v 0.007362 0.025822 -0.061273
v -0.013384 -0.013283 0.028061
v -0.007362 0.025822 0.028061
v 0.007362 0.025822 0.028061
v 0.013384 -0.013283 0.028061
v -0.013384 0.019156 0.008358
v -0.013384 0.019156 -0.069856
v 0.013384 0.019156 -0.069856
v 0.013384 0.019156 0.008358
v -0.013384 0.019156 0.028061
v 0.013384 0.019156 0.028061
v -0.013384 0.019127 0.092038
v -0.007362 0.025822 0.092096
v 0.007362 0.025822 0.092096
v 0.013384 0.019127 0.092038
v -0.013384 -0.025598 0.014375
v 0.013384 -0.025598 0.014375
v -0.013384 -0.028297 0.028014
v 0.013384 -0.028297 0.028014
v -0.009559 -0.042874 0.014375
v 0.009559 -0.042874 0.014375
v -0.011326 -0.042874 0.028014
v 0.011326 -0.042874 0.028014
v -0.013384 -0.027802 0.078237
v 0.013384 -0.027802 0.078237
v -0.013384 -0.042247 0.080944
v 0.013384 -0.042247 0.080944
v -0.013384 -0.031635 0.118044
v 0.013384 -0.031635 0.118044
v -0.013384 -0.059373 0.087897
v 0.013384 -0.059373 0.087897
v -0.013384 0.019100 0.079402
v 0.013384 0.019100 0.079402
v -0.007362 0.025822 0.079628
v 0.007362 0.025822 0.079628
v -0.013384 -0.004351 0.078820
v 0.013384 -0.004351 0.078820
v 0.010736 0.000432 0.104264
v -0.010736 0.000432 0.104264
v -0.013384 -0.011006 0.140057
v 0.013384 -0.011006 0.140057
v 0.010736 -0.002884 0.114460
v -0.010736 -0.002884 0.114460
v -0.015113 -0.037618 0.121814
v 0.015113 -0.037618 0.121814
v -0.015113 -0.065836 0.092499
v 0.015113 -0.065836 0.092499
v -0.015113 -0.017026 0.143793
v 0.015113 -0.017026 0.143793
v -0.012472 -0.047276 0.126732
v 0.012472 -0.047276 0.126732
v -0.012472 -0.065299 0.100959
v 0.012472 -0.065299 0.100959
v -0.012472 -0.030082 0.142608
v 0.012472 -0.030082 0.142608
v -0.011654 -0.065169 0.136669
v 0.011654 -0.065169 0.136669
v -0.011654 -0.075448 0.109136
v 0.011654 -0.075448 0.109136
v -0.011654 -0.053327 0.155053
v 0.011654 -0.053327 0.155053
v -0.013381 -0.086226 0.147192
v 0.013381 -0.086226 0.147192
v -0.013381 -0.092461 0.114029
v 0.013381 -0.092461 0.114029
v -0.013381 -0.076429 0.170311
v 0.013381 -0.076429 0.170311
v -0.012091 -0.109107 0.149851
v 0.012091 -0.109107 0.149851
v -0.012091 -0.110598 0.119397
v 0.012091 -0.110598 0.119397
v -0.012091 -0.103189 0.171754
v 0.012091 -0.103189 0.171754
v -0.013862 -0.121451 0.151824
v 0.013862 -0.121451 0.151824
v -0.013862 -0.123160 0.116909
v 0.013862 -0.123160 0.116909
v -0.013862 -0.114666 0.176935
v 0.013862 -0.114666 0.176935
v -0.009490 -0.132415 0.152606
v 0.009490 -0.132415 0.152606
v -0.009490 -0.133586 0.128703
v 0.009490 -0.133586 0.128703
v -0.009490 -0.127771 0.169797
v 0.009490 -0.127771 0.169797
v -0.005352 -0.072020 0.075731
v 0.005352 -0.072020 0.075731
v -0.005342 -0.079070 0.076253
v 0.005342 -0.079070 0.076253
v -0.004483 -0.068647 0.048167
v 0.004483 -0.068647 0.048167
v -0.004475 -0.073438 0.044687
v 0.004475 -0.073438 0.044687
v -0.004483 -0.053236 0.041561
v 0.004483 -0.053236 0.041561
v -0.004475 -0.052837 0.035653
v 0.004475 -0.052837 0.035653
v -0.009090 -0.042389 0.046463
v 0.009090 -0.042389 0.046463
v -0.009072 -0.042538 0.030750
v 0.009072 -0.042538 0.030750
v 0.005352 -0.064329 0.083130
v -0.005352 -0.064329 0.083130
v 0.005342 -0.070706 0.085660
v -0.005342 -0.070706 0.085660
v -0.010496 -0.018508 -0.060369
v -0.010496 -0.018508 -0.001129
v 0.010496 -0.018508 -0.060369
v 0.010496 -0.018508 -0.001129
v -0.007445 0.025479 0.097242
v -0.007445 0.036330 0.097242
v -0.007445 0.025834 0.064331
v -0.007445 0.035974 0.068192
v 0.007699 0.025479 0.097242
v 0.007699 0.036330 0.097242
v 0.007699 0.025834 0.064331
v 0.007699 0.035974 0.068192
v -0.002397 0.035974 0.068192
v 0.002651 0.035974 0.068192
v 0.002651 0.025834 0.064331
v -0.002397 0.025834 0.064331
v 0.002651 0.036330 0.097242
v -0.002397 0.036330 0.097242
v -0.002397 0.025479 0.097242
v 0.002651 0.025479 0.097242
v -0.007445 0.030904 0.097242
v -0.007445 0.030904 0.066261
v 0.007699 0.030904 0.066261
v 0.007699 0.030904 0.097242
v 0.002651 0.030904 0.097242
v -0.002397 0.030904 0.097242
v -0.002397 0.030904 0.066261
v 0.002651 0.030904 0.066261
v -0.002094 0.021608 -0.039997
v -0.002094 0.032695 -0.048635
v -0.002094 0.021608 -0.076097
v -0.002094 0.033990 -0.073721
v 0.002389 0.021608 -0.039997
v 0.002389 0.032695 -0.048635
v 0.002389 0.021608 -0.076097
v 0.002389 0.033990 -0.073721
v -0.002094 0.029005 -0.039997
v -0.002094 0.029005 -0.076097
v 0.002389 0.029005 -0.076097
v 0.002389 0.029005 -0.039997
v -0.002094 0.036582 -0.058047
v -0.002094 0.021608 -0.058047
v 0.002389 0.036582 -0.058047
v 0.002389 0.021608 -0.058047
v 0.002389 0.029005 -0.058047
v -0.002094 0.029005 -0.058047
v -0.002094 0.036582 -0.070814
v 0.002389 0.021608 -0.070814
v 0.002389 0.029005 -0.070814
v -0.002094 0.021608 -0.070814
v 0.002389 0.036582 -0.070814
v -0.002094 0.029005 -0.070814
v 0.002316 0.010059 0.112333
v 0.002316 0.013974 0.111251
v -0.002037 0.010059 0.112333
v -0.002037 0.013974 0.111251
v -0.002037 0.008320 0.110283
v -0.002037 0.011175 0.107395
v 0.002316 0.011175 0.107395
v 0.002316 0.008320 0.110283
v 0.003198 0.009471 0.103721
v -0.002920 0.009471 0.103721
v 0.004388 0.008243 0.098356
v -0.004109 0.008243 0.098356
v -0.004109 0.019318 0.090837
v 0.004388 0.019318 0.090837
v -0.002920 0.020141 0.098487
v 0.003198 0.020141 0.098487
v 0.004388 0.002132 0.102505
v 0.004388 -0.001972 0.103956
v 0.003198 0.003583 0.106610
v 0.003198 -0.000521 0.108060
v -0.004109 0.002132 0.102505
v -0.004109 -0.001972 0.103956
v -0.002920 0.003583 0.106610
v -0.002920 -0.000521 0.108060
v 0.001598 0.015692 0.118519
v -0.001319 0.015692 0.118519
v -0.001319 0.011769 0.117470
v 0.001598 0.011769 0.117470
v -0.004069 -0.051001 0.067174
v 0.004069 -0.051001 0.067174
v -0.004808 -0.050912 0.075522
v 0.004808 -0.050912 0.075522
v -0.008585 -0.034423 0.065789
v 0.008585 -0.034423 0.065789
v -0.010145 -0.034234 0.086409
v 0.010145 -0.034234 0.086409
v -0.001973 -0.057235 0.066161
v 0.001973 -0.057235 0.066161
v -0.002331 -0.059686 0.069381
v 0.002331 -0.059686 0.069381
v -0.001574 -0.063759 0.061995
v 0.001574 -0.063759 0.061995
v -0.001860 -0.066754 0.063202
v 0.001860 -0.066754 0.063202
v -0.001190 -0.065011 0.055550
v 0.001190 -0.065011 0.055550
v -0.001407 -0.067276 0.056463
v 0.001407 -0.067276 0.056463
v -0.000055 0.020534 -0.079989
v 0.008401 0.014390 -0.079989
v 0.005171 0.004450 -0.079989
v -0.005281 0.004450 -0.079989
v -0.008511 0.014390 -0.079989
v -0.000055 0.020534 -0.057710
v 0.008401 0.014390 -0.057710
v 0.005171 0.004450 -0.057710
v -0.005281 0.004450 -0.057710
v -0.008511 0.014390 -0.057710
vn -0.951100 -0.309000 -0.000000
vn 0.951100 -0.309000 -0.000000
vn -0.587800 0.809000 0.000000
vn -0.000000 -1.000000 -0.000000
vn 0.587800 0.809000 0.000000
vn -1.000000 0.000000 0.000000
vn 0.000000 0.000000 -1.000000
vn 1.000000 0.000000 0.000000
vn 0.000000 -0.876000 -0.482400
vn 0.000000 1.000000 0.000000
vn 0.000000 0.000000 1.000000
vn 0.000000 -0.439000 -0.898500
vn 0.742000 0.670400 0.000000
vn 0.744100 0.668000 -0.000700
vn -0.742000 0.670400 0.000000
vn 0.000000 0.789800 -0.613400
vn 0.000000 -0.008600 1.000000
vn 0.000000 -1.000000 -0.001100
vn -0.980100 -0.181000 -0.081400
vn 0.000000 -0.003100 1.000000
vn 0.980100 -0.181000 -0.081400
vn 0.997200 -0.072500 -0.019100
vn 0.000000 0.024800 -0.999700
vn -0.997200 -0.072500 -0.019100
vn 0.000000 -0.999900 0.011900
vn 0.000000 1.000000 -0.009900
vn 0.000000 -0.376200 -0.926600
vn 0.000000 0.547300 0.836900
vn -0.743400 0.668800 0.000400
vn -0.744100 0.668000 -0.000700
vn 0.996300 -0.042000 0.074600
vn 0.743400 0.668800 0.000400
vn -0.996300 -0.042000 0.074600
vn -0.997600 0.057000 0.039700
vn 0.997600 0.057000 0.039700
vn -0.995200 0.085900 -0.046200
vn 0.000000 0.953200 0.302400
vn 0.000000 0.951000 0.309300
vn 0.995200 0.085900 -0.046200
vn 0.000000 0.693300 -0.720700
vn 0.999600 0.005500 -0.028500
vn 1.000000 -0.001300 0.001200
vn 0.000000 -0.747400 0.664400
vn -1.000000 -0.001300 0.001200
vn -1.000000 -0.000700 -0.001600
vn 0.000000 0.992600 0.121500
vn -0.999600 0.005500 -0.028500
vn 0.000000 -0.984500 -0.175600
vn 0.916900 -0.399100 -0.005800
vn 0.000000 -0.401600 -0.915800
vn 1.000000 -0.000700 -0.001600
vn 0.000000 0.394000 0.919100
vn 0.000000 1.000000 -0.009500
vn 0.000000 -0.411800 0.911300
vn -0.916900 -0.399100 -0.005800
vn 0.000000 -0.429800 -0.902900
vn -0.633200 -0.309300 -0.709500
vn 0.000000 -0.814600 0.580100
vn 0.633200 -0.309300 -0.709500
vn 0.000000 -0.876000 0.482400
vn 0.875100 -0.483900 0.000000
vn -0.875100 -0.483900 0.000000
vn 0.951100 0.309000 0.000000
vn -0.951100 0.309000 0.000000
vn 0.587800 -0.809000 0.000000
vn -0.587800 -0.809000 0.000000
vn 0.000000 0.472000 0.881600
vn 0.999400 -0.027200 0.023000
vn 0.996400 0.081400 -0.022200
vn -0.997700 0.059800 -0.031200
vn -0.998800 -0.043400 0.023000
vn -0.999400 -0.027200 0.023000
vn 0.998800 -0.043400 0.023000
vn 0.000000 -0.627400 -0.778700
vn 0.000000 0.053900 0.998500
vn 0.998600 -0.050400 0.017600
vn 0.000000 -0.276400 -0.961000
vn 0.997700 0.059800 -0.031200
vn 0.000000 0.551100 0.834400
vn -0.996400 0.081400 -0.022200
vn 0.990000 0.140900 -0.006900
vn -0.990000 0.136200 -0.036800
vn -0.998100 -0.061300 0.007400
vn -0.998600 -0.050400 0.017600
vn 0.998100 -0.061300 0.007400
vn 0.000000 -0.283800 -0.958900
vn 0.000000 -0.478300 0.878200
vn 0.926800 -0.362600 0.098000
vn 0.000000 0.194300 -0.980900
vn 0.990000 0.136200 -0.036800
vn 0.000000 0.411400 0.911400
vn -0.990000 0.140900 -0.006900
vn -0.929200 -0.369200 0.018100
vn -0.926800 -0.362600 0.098000
vn 0.929200 -0.369200 0.018100
vn 0.000000 -0.749200 -0.662300
vn -0.382700 0.923900 0.000000
vn -0.923900 -0.382700 0.000000
vn 0.923900 -0.382700 0.000000
vn 0.382700 0.923900 0.000000
vn -0.923900 0.382700 0.000000
vn -0.382700 -0.923900 0.000000
vn 0.382700 -0.923900 0.000000
vn 0.923900 0.382700 0.000000
vn -0.970400 0.176300 -0.165200
vn 0.973800 0.165700 -0.155900
vn 0.947100 -0.245900 0.206400
vn -0.962400 -0.192300 0.192000
vn 0.000000 0.527400 0.849600
vn 0.970400 0.176300 -0.165200
vn -0.973800 0.165700 -0.155900
vn 0.000000 -0.998000 0.063300
vn 0.962400 -0.192300 0.192000
vn 0.000000 -0.090400 0.995900
vn -0.947100 -0.245900 0.206400
vn 0.000000 -0.998800 0.048900
vn 0.000000 -0.965400 0.260800
vn 0.000000 0.355900 -0.934500
vn 0.000000 -0.999900 -0.010800
vn 0.000000 0.999900 -0.012200
vn 0.000000 0.746500 -0.665400
vn 0.000000 0.919600 0.392800
vn 0.000000 0.430100 -0.902800
vn 0.000000 0.924300 0.381700
vn 0.983800 0.098900 0.149600
vn -0.981700 0.096300 0.164300
vn -0.970200 0.122600 0.209100
vn 0.970200 0.122600 0.209100
vn 0.000000 0.907200 -0.420800
vn 0.000000 -0.561700 -0.827300
vn -0.983800 0.098900 0.149600
vn 0.000000 0.973200 -0.230100
vn 0.000000 -0.333300 -0.942800
vn 0.000000 -0.612900 0.790200
vn 0.000000 -0.762400 0.647100
vn -0.964600 0.087900 0.248500
vn 0.000000 0.809300 -0.587400
vn 0.981700 0.096300 0.164300
vn 0.000000 0.994300 -0.106900
vn 0.000000 0.440400 0.897800
vn 0.000000 -0.942800 0.333300
vn 0.964600 0.087900 0.248500
vn 0.000000 0.333300 0.942800
vn 0.000000 -0.258400 0.966000
vn 0.993400 0.000500 0.114900
vn 0.000000 -0.948800 0.315800
vn -0.993400 0.000500 0.114900
vn 0.963800 -0.228000 -0.138000
vn -0.993100 0.024000 -0.115000
vn 0.961700 -0.263800 -0.073800
vn 0.000000 -0.083300 -0.996500
vn -0.961700 -0.263800 -0.073800
vn 0.000000 -0.546600 0.837400
vn 0.000000 0.160400 -0.987000
vn -0.963800 -0.228000 -0.138000
vn 0.000000 -0.573400 0.819300
vn 0.995200 0.066000 -0.072100
vn 0.000000 -0.658200 0.752800
vn 0.993100 0.024000 -0.115000
vn 0.000000 0.538200 -0.842800
vn 0.000000 -0.373800 -0.927500
vn 0.000000 0.981600 -0.190800
vn -0.995200 0.066000 -0.072100
vn 0.000000 -0.997000 0.077300
usemtl Material.002
s off
f 53//1 52//1 57//1 58//1
f 51//2 50//2 55//2 56//2
f 49//3 53//3 58//3 54//3
f 52//4 51//4 56//4 57//4
f 50//5 49//5 54//5 55//5
f 71//6 72//6 61//6 59//6
f 72//7 73//7 65//7 61//7
f 73//8 74//8 63//8 65//8
f 71//6 59//6 67//6 75//6
f 61//9 65//9 173//9 171//9
f 64//10 66//10 62//10 60//10
f 76//11 75//11 67//11 70//11
f 59//12 63//12 82//12 81//12
f 64//10 60//10 68//10 69//10
f 74//13 64//13 69//13 76//13
f 63//8 74//8 76//8 70//8
f 98//14 100//14 79//14 80//14
f 60//15 71//15 75//15 68//15
f 66//13 64//13 74//13 73//13
f 62//16 66//16 73//16 72//16
f 60//15 62//15 72//15 71//15
f 79//17 78//17 77//17 80//17
f 100//10 99//10 78//10 79//10
f 75//18 76//18 98//18 97//18
f 83//19 81//19 85//19 87//19
f 63//8 70//8 84//8 82//8
f 67//6 59//6 81//6 83//6
f 70//20 67//20 83//20 84//20
f 85//4 86//4 88//4 87//4
f 81//7 82//7 86//7 85//7
f 82//21 84//21 88//21 86//21
f 88//22 84//22 90//22 92//22
f 102//23 101//23 97//23 98//23
f 83//24 87//24 91//24 89//24
f 87//25 88//25 92//25 91//25
f 84//26 83//26 89//26 90//26
f 92//8 90//8 94//8 96//8
f 91//27 92//27 96//27 95//27
f 89//6 91//6 95//6 93//6
f 104//28 103//28 80//28 77//28
f 68//29 75//29 97//29 99//29
f 99//30 97//30 77//30 78//30
f 103//31 102//31 98//31 80//31
f 69//10 68//10 99//10 100//10
f 76//32 69//32 100//32 98//32
f 101//33 104//33 77//33 97//33
f 89//34 93//34 104//34 101//34
f 94//35 90//35 102//35 103//35
f 104//36 93//36 105//36 108//36
f 90//23 89//23 101//23 102//23
f 105//37 106//37 107//37 108//37
f 103//38 104//38 108//38 107//38
f 94//39 103//39 107//39 106//39
f 168//40 167//40 152//40 151//40
f 152//41 154//41 158//41 156//41
f 167//42 169//42 154//42 152//42
f 169//43 170//43 153//43 154//43
f 170//44 168//44 151//44 153//44
f 157//45 155//45 159//45 161//45
f 151//46 152//46 156//46 155//46
f 153//47 151//47 155//47 157//47
f 154//48 153//48 157//48 158//48
f 160//49 162//49 166//49 164//49
f 158//50 157//50 161//50 162//50
f 156//51 158//51 162//51 160//51
f 155//52 156//52 160//52 159//52
f 163//53 164//53 166//53 165//53
f 159//54 160//54 164//54 163//54
f 161//55 159//55 163//55 165//55
f 162//56 161//56 165//56 166//56
f 111//57 95//57 168//57 170//57
f 112//58 111//58 170//58 169//58
f 96//59 112//59 169//59 167//59
f 95//40 96//40 167//40 168//40
f 172//4 171//4 173//4 174//4
f 63//60 59//60 172//60 174//60
f 65//61 63//61 174//61 173//61
f 59//62 61//62 171//62 172//62
f 50//7 51//7 273//7 272//7
f 53//7 49//7 271//7 275//7
f 51//7 52//7 274//7 273//7
f 49//7 50//7 272//7 271//7
f 52//7 53//7 275//7 274//7
f 274//63 275//63 280//63 279//63
f 272//64 273//64 278//64 277//64
f 275//65 271//65 276//65 280//65
f 273//10 274//10 279//10 278//10
f 271//66 272//66 277//66 276//66
usemtl Material.003
f 120//67 119//67 125//67 126//67
f 116//68 120//68 126//68 122//68
f 124//69 122//69 128//69 130//69
f 125//70 121//70 127//70 131//70
f 115//71 117//71 123//71 121//71
f 119//72 115//72 121//72 125//72
f 118//73 116//73 122//73 124//73
f 117//74 118//74 124//74 123//74
f 132//75 131//75 137//75 138//75
f 128//76 132//76 138//76 134//76
f 123//77 124//77 130//77 129//77
f 122//78 126//78 132//78 128//78
f 126//79 125//79 131//79 132//79
f 121//80 123//80 129//80 127//80
f 136//81 134//81 140//81 142//81
f 137//82 133//82 139//82 143//82
f 127//83 129//83 135//83 133//83
f 131//84 127//84 133//84 137//84
f 130//85 128//85 134//85 136//85
f 129//86 130//86 136//86 135//86
f 144//87 143//87 149//87 150//87
f 140//88 144//88 150//88 146//88
f 135//89 136//89 142//89 141//89
f 134//90 138//90 144//90 140//90
f 138//91 137//91 143//91 144//91
f 133//92 135//92 141//92 139//92
f 139//93 141//93 147//93 145//93
f 143//94 139//94 145//94 149//94
f 142//95 140//95 146//95 148//95
f 141//96 142//96 148//96 147//96
usemtl Material.004
f 5//97 4//97 12//97 13//97
f 3//98 2//98 10//98 11//98
f 8//99 7//99 15//99 16//99
f 6//100 5//100 13//100 14//100
f 4//101 3//101 11//101 12//101
f 2//102 1//102 9//102 10//102
f 1//103 8//103 16//103 9//103
f 7//104 6//104 14//104 15//104
f 7//7 8//7 24//7 23//7
f 5//7 6//7 22//7 21//7
f 3//7 4//7 20//7 19//7
f 1//7 2//7 18//7 17//7
f 8//7 1//7 17//7 24//7
f 6//7 7//7 23//7 22//7
f 4//7 5//7 21//7 20//7
f 2//7 3//7 19//7 18//7
f 9//11 16//11 32//11 25//11
f 15//11 14//11 30//11 31//11
f 13//11 12//11 28//11 29//11
f 11//11 10//11 26//11 27//11
f 16//11 15//11 31//11 32//11
f 14//11 13//11 29//11 30//11
f 12//11 11//11 27//11 28//11
f 10//11 9//11 25//11 26//11
f 32//99 31//99 39//99 40//99
f 30//100 29//100 37//100 38//100
f 28//101 27//101 35//101 36//101
f 26//102 25//102 33//102 34//102
f 25//103 32//103 40//103 33//103
f 31//104 30//104 38//104 39//104
f 29//97 28//97 36//97 37//97
f 27//98 26//98 34//98 35//98
f 21//100 22//100 46//100 45//100
f 19//101 20//101 44//101 43//101
f 17//102 18//102 42//102 41//102
f 24//103 17//103 41//103 48//103
f 22//104 23//104 47//104 46//104
f 20//97 21//97 45//97 44//97
f 18//98 19//98 43//98 42//98
f 23//99 24//99 48//99 47//99
f 42//7 43//7 44//7 45//7 46//7 47//7 48//7 41//7
f 34//11 33//11 40//11 39//11 38//11 37//11 36//11 35//11
f 105//105 93//105 109//105 113//105
f 96//106 94//106 110//106 112//106
f 112//107 110//107 116//107 118//107
f 113//108 109//108 115//108 119//108
f 106//109 105//109 113//109 114//109
f 94//110 106//110 114//110 110//110
f 93//111 95//111 111//111 109//111
f 111//112 112//112 118//112 117//112
f 110//113 114//113 120//113 116//113
f 114//114 113//114 119//114 120//114
f 109//115 111//115 117//115 115//115
f 146//116 145//116 147//116 148//116
f 145//117 146//117 150//117 149//117
f 191//6 192//6 177//6 175//6
f 198//118 193//118 181//118 185//118
f 193//8 194//8 179//8 181//8
f 196//11 191//11 175//11 189//11
f 190//119 185//119 181//119 179//119
f 188//120 183//120 178//120 176//120
f 180//120 182//120 184//120 187//120
f 195//6 187//6 184//6 198//6
f 175//119 177//119 186//119 189//119
f 189//119 186//119 185//119 190//119
f 194//11 195//11 190//11 179//11
f 195//11 196//11 189//11 190//11
f 192//118 197//118 186//118 177//118
f 197//118 198//118 185//118 186//118
f 198//10 197//10 196//10 195//10
f 178//118 183//118 197//118 192//118
f 196//8 197//8 183//8 188//8
f 180//11 187//11 195//11 194//11
f 188//11 176//11 191//11 196//11
f 182//8 180//8 194//8 193//8
f 184//118 182//118 193//118 198//118
f 176//6 178//6 192//6 191//6
f 222//6 208//6 201//6 220//6
f 208//7 209//7 205//7 201//7
f 215//8 210//8 203//8 214//8
f 210//11 207//11 199//11 203//11
f 220//4 201//4 205//4 218//4
f 221//121 206//121 202//121 217//121
f 204//122 200//122 207//122 210//122
f 213//8 204//8 210//8 215//8
f 202//123 206//123 209//123 208//123
f 217//6 202//6 208//6 222//6
f 200//6 211//6 216//6 207//6
f 221//8 213//8 215//8 219//8
f 204//124 213//124 211//124 200//124
f 199//4 212//4 214//4 203//4
f 219//8 215//8 214//8 218//8
f 207//6 216//6 212//6 199//6
f 209//8 219//8 218//8 205//8
f 206//8 221//8 219//8 209//8
f 211//6 217//6 222//6 216//6
f 213//10 221//10 217//10 211//10
f 212//4 220//4 218//4 214//4
f 216//6 222//6 220//6 212//6
f 230//8 229//8 224//8 223//8
f 241//125 231//125 229//125 230//125
f 234//126 232//126 237//126 235//126
f 228//6 227//6 225//6 226//6
f 243//127 245//127 232//127 234//127
f 241//128 239//128 233//128 231//128
f 231//129 232//129 228//129 229//129
f 233//130 234//130 235//130 236//130
f 232//131 245//131 227//131 228//131
f 239//130 243//130 234//130 233//130
f 224//132 226//132 248//132 247//132
f 243//133 239//133 240//133 244//133
f 245//134 241//134 230//134 227//134
f 227//135 230//135 223//135 225//135
f 245//136 243//136 244//136 246//136
f 229//137 228//137 226//137 224//137
f 231//138 233//138 236//138 238//138
f 238//139 236//139 235//139 237//139
f 232//140 231//140 238//140 237//140
f 246//141 244//141 240//141 242//141
f 239//142 241//142 242//142 240//142
f 241//143 245//143 246//143 242//143
f 249//144 250//144 247//144 248//144
f 223//145 224//145 247//145 250//145
f 225//146 223//146 250//146 249//146
f 226//147 225//147 249//147 248//147
f 252//148 254//148 262//148 260//148
f 261//149 259//149 263//149 265//149
f 252//150 256//150 258//150 254//150
f 251//151 255//151 256//151 252//151
f 253//152 257//152 255//152 251//152
f 254//153 258//153 257//153 253//153
f 251//154 252//154 260//154 259//154
f 253//155 251//155 259//155 261//155
f 254//156 253//156 261//156 262//156
f 264//157 266//157 270//157 268//157
f 262//158 261//158 265//158 266//158
f 260//159 262//159 266//159 264//159
f 259//160 260//160 264//160 263//160
f 267//161 268//161 270//161 269//161
f 263//162 264//162 268//162 267//162
f 265//163 263//163 267//163 269//163
f 266//164 265//164 269//164 270//164
