# Blender 4.4.3
# www.blender.org
mtllib medieval_house.mtl
o House01.001
v -1.875000 2.500000 -0.000000
v -1.875000 5.000000 0.000001
v -1.875000 5.000000 -5.000000
v -1.875000 2.500000 -5.000000
v 0.000000 2.500000 -5.000000
v 0.000000 7.500000 -5.000000
v 1.875000 5.000000 -5.000000
v 1.875000 2.500000 -5.000000
v 1.875000 5.000000 0.000001
v 1.875000 2.500000 -0.000000
v 0.000000 2.500000 -0.000000
v 1.875000 2.500000 1.500000
v 0.000000 2.500000 1.500000
v 0.000000 7.500000 1.500000
v 1.875000 5.000000 1.500001
v 1.988382 4.848823 1.669023
v 0.000000 7.500000 1.739032
v 0.000000 0.000000 0.000000
v -1.875000 0.000000 0.000000
v 1.875000 0.000001 -5.000000
v 1.875000 0.000000 0.000000
v 0.000000 0.000001 -5.000000
v -1.875000 0.000001 -5.000000
v -1.875000 5.000000 1.500001
v -1.875000 2.500000 1.500000
v -1.988382 4.848823 1.669023
v -2.035346 4.786202 0.000001
v 0.000000 7.546335 1.500000
v -1.937165 5.020720 1.500001
v -2.050874 4.869109 1.668534
v 0.000000 7.546335 1.739032
v -1.988382 4.848824 -5.169022
v 0.000000 7.546336 -5.000000
v -1.937165 5.020721 -5.000000
v -1.937165 5.020721 0.000001
v 0.000000 7.546335 0.000000
v 1.937165 5.020721 0.000001
v 1.937165 5.020720 1.500001
v 1.937165 5.020721 -5.000000
v 2.097512 4.806924 0.000001
v 2.050874 4.869110 -5.168532
v 2.050874 4.869109 1.668534
v 0.000000 7.546336 -5.239030
v 1.988382 4.848824 -5.169022
v 2.035346 4.786202 0.000001
v 0.000000 7.500000 -5.239030
v -2.050874 4.869110 -5.168532
v -2.097512 4.806924 0.000001
v -1.802746 0.000000 1.428900
v -1.802746 2.500000 1.428900
v -1.802746 2.500000 1.171100
v -1.802746 0.000000 1.171100
v -1.544946 2.500000 1.171100
v -1.544946 0.000000 1.171100
v -1.544946 2.500000 1.428900
v -1.544946 0.000000 1.428900
v 1.497253 0.000000 1.428900
v 1.497253 2.500000 1.428900
v 1.497253 2.500000 1.171100
v 1.497253 0.000000 1.171100
v 1.755054 2.500000 1.171100
v 1.755054 0.000000 1.171100
v 1.755054 2.500000 1.428900
v 1.755054 0.000000 1.428900
v -1.036889 2.518656 1.197230
v -1.597245 1.833057 1.197230
v -1.036889 2.518656 1.403673
v -1.597245 1.833057 1.403673
v -1.196734 2.649301 1.197230
v -1.757091 1.963701 1.197230
v -1.196734 2.649301 1.403673
v -1.757091 1.963701 1.403673
v 0.957529 2.518656 1.403673
v 1.517885 1.833057 1.403673
v 0.957529 2.518656 1.197230
v 1.517885 1.833057 1.197230
v 1.117374 2.649301 1.403673
v 1.677730 1.963701 1.403673
v 1.117374 2.649301 1.197230
v 1.677730 1.963701 1.197230
vn -1.0000 -0.0000 -0.0000
vn -0.0000 -0.0000 -1.0000
vn 1.0000 -0.0000 -0.0000
vn -0.0000 -1.0000 -0.0000
vn -0.8000 -0.6000 -0.0000
vn -0.0000 -0.0000 1.0000
vn 0.8000 -0.6000 -0.0000
vn -0.7937 0.6083 0.0049
vn -0.7917 0.6108 0.0109
vn -0.7920 0.6105 0.0056
vn -0.7935 0.6086 -0.0000
vn -0.7921 0.6104 0.0064
vn -0.7907 0.6121 -0.0052
vn 0.7935 0.6086 -0.0000
vn 0.7921 0.6104 -0.0063
vn 0.7899 0.6132 0.0029
vn 0.8024 0.5968 0.0051
vn 0.8000 0.6000 -0.0000
vn 0.7984 0.6021 0.0013
vn 0.7901 0.6129 0.0083
vn 0.7937 0.6083 0.0049
vn 0.7953 0.6063 0.0050
vn 0.7937 0.6083 -0.0049
vn 0.7942 0.6076 -0.0113
vn 0.7920 0.6105 -0.0057
vn 0.3123 -0.9489 0.0442
vn 0.3137 -0.9484 0.0467
vn -0.0199 -0.0113 -0.9997
vn -0.0226 -0.0114 -0.9997
vn -0.3125 -0.9498 -0.0143
vn -0.3139 -0.9493 -0.0168
vn -0.3123 -0.9489 0.0442
vn -0.3130 -0.9488 0.0415
vn 0.0199 -0.0113 -0.9997
vn 0.0175 -0.0128 -0.9998
vn 0.0199 -0.0113 0.9997
vn 0.0227 -0.0114 0.9997
vn -0.0199 -0.0113 0.9997
vn -0.0175 -0.0127 0.9998
vn 0.3125 -0.9498 -0.0143
vn 0.3132 -0.9496 -0.0115
vn -0.8039 0.5948 -0.0021
vn -0.8000 0.6000 -0.0000
vn -0.7986 0.6019 -0.0012
vn 0.8039 0.5947 0.0015
vn 0.8010 0.5987 0.0021
vn -0.7901 0.6129 -0.0083
vn -0.7937 0.6083 -0.0049
vn -0.7954 0.6060 -0.0050
vn -0.8039 0.5947 -0.0015
vn -0.8011 0.5985 -0.0022
vn 0.7743 -0.6328 -0.0000
vn -0.7743 0.6328 -0.0000
vn -0.7743 -0.6328 -0.0000
vn 0.7743 0.6328 -0.0000
vt 0.728362 0.490592
vt 0.976710 0.490592
vt 0.976711 0.988147
vt 0.728362 0.988147
vt 0.216337 0.496099
vt 0.216337 0.988451
vt 0.029947 0.743845
vt 0.029947 0.496099
vt 0.728160 0.986698
vt 0.976710 0.986698
vt 0.728160 0.490592
vt 0.231841 0.061941
vt 0.426546 0.061941
vt 0.426546 0.217704
vt 0.231841 0.217704
vt 0.668715 0.058643
vt 0.669701 0.058643
vt 0.669761 0.058703
vt 0.668715 0.058727
vt 0.215741 0.249514
vt 0.215741 0.495982
vt 0.025600 0.495982
vt 0.025600 0.249514
vt 0.479545 0.988014
vt 0.728164 0.988014
vt 0.728164 0.490773
vt 0.479545 0.490773
vt 0.215572 0.496105
vt 0.215572 0.742266
vt 0.404800 0.742266
vt 0.404800 0.496105
vt 0.479879 0.490844
vt 0.728456 0.490844
vt 0.728456 0.988000
vt 0.479879 0.988000
vt 0.215543 0.496118
vt 0.215543 0.992722
vt 0.027248 0.745412
vt 0.027248 0.496118
vt 0.728362 0.341325
vt 0.976710 0.341325
vt 0.976710 0.341761
vt 0.728160 0.341761
vt 0.670772 0.056877
vt 0.670772 0.056348
vt 0.670832 0.056288
vt 0.670857 0.056877
vt 0.699331 0.025564
vt 0.510741 0.025565
vt 0.499472 0.014360
vt 0.699331 0.009671
vt 0.403839 0.496118
vt 0.403839 0.745412
vt 0.026344 0.496105
vt 0.026344 0.742266
vt 0.405880 0.249514
vt 0.405880 0.495982
vt 0.670772 0.058643
vt 0.670832 0.058703
vt 0.037136 0.061941
vt 0.037136 0.217704
vt 0.402727 0.496099
vt 0.402727 0.743845
vt 0.699332 0.457706
vt 0.510744 0.457705
vt 0.510741 0.125291
vt 0.699332 0.125289
vt 0.513071 0.358582
vt 0.698759 0.358583
vt 0.698758 0.456774
vt 0.513072 0.456772
vt 0.513071 0.031284
vt 0.698759 0.031281
vt 0.497424 0.358582
vt 0.501975 0.020251
vt 0.698758 0.472421
vt 0.501976 0.467804
vt 0.698759 0.015634
vt 0.669701 0.058113
vt 0.669701 0.056348
vt 0.669761 0.056288
vt 0.669786 0.058113
vt 0.660410 0.147060
vt 0.660463 0.144077
vt 0.660545 0.144078
vt 0.660493 0.147061
vt 0.665033 0.147066
vt 0.669351 0.143999
vt 0.669400 0.144066
vt 0.664994 0.147139
vt 0.660493 0.147062
vt 0.660754 0.137831
vt 0.660804 0.137830
vt 0.660544 0.147061
vt 0.660706 0.134846
vt 0.660757 0.134847
vt 0.665171 0.141772
vt 0.665087 0.141769
vt 0.660682 0.146991
vt 0.665000 0.143923
vt 0.665048 0.143990
vt 0.660643 0.147064
vt 0.660819 0.141695
vt 0.660737 0.141693
vt 0.660623 0.134845
vt 0.660706 0.134847
vt 0.494849 0.125291
vt 0.668715 0.056348
vt 0.668715 0.056264
vt 0.669786 0.056348
vt 0.669786 0.056264
vt 0.699332 0.473598
vt 0.499475 0.468910
vt 0.669786 0.058643
vt 0.669786 0.058727
vt 0.878206 0.042443
vt 0.878206 0.297129
vt 0.851317 0.297129
vt 0.851317 0.042443
vt 0.878257 0.042401
vt 0.878257 0.297125
vt 0.852231 0.297125
vt 0.852231 0.042401
vt 0.875840 0.042446
vt 0.875840 0.297061
vt 0.853077 0.297061
vt 0.853077 0.042446
vt 0.879047 0.042410
vt 0.879047 0.297067
vt 0.850645 0.297067
vt 0.850648 0.042410
vt 0.876692 0.196542
vt 0.876692 0.305772
vt 0.851226 0.305772
vt 0.851226 0.196542
vt 0.876693 0.196542
vt 0.851226 0.305772
s 0
usemtl Material.001
f 1/1/1 2/2/1 3/3/1 4/4/1
f 5/5/2 6/6/2 7/7/2 8/8/2
f 8/9/3 7/10/3 9/2/3 10/11/3
f 11/12/4 10/13/4 12/14/4 13/15/4
f 14/16/5 15/17/5 16/18/5 17/19/5
f 18/20/6 11/21/6 1/22/6 19/23/6
f 20/24/3 8/25/3 10/26/3 21/27/3
f 22/28/2 5/29/2 8/30/2 20/31/2
f 19/32/1 1/33/1 4/34/1 23/35/1
f 13/36/6 14/37/6 24/38/6 25/39/6
f 2/2/1 1/1/1 25/40/1 24/41/1
f 10/11/3 9/2/3 15/42/3 12/43/3
f 2/44/7 24/45/7 26/46/7 27/47/7
f 28/48/8 29/49/9 30/50/10 31/51/8
f 12/52/6 15/53/6 14/37/6 13/36/6
f 23/54/2 4/55/2 5/29/2 22/28/2
f 21/56/6 10/57/6 11/21/6 18/20/6
f 3/58/7 2/44/7 27/47/7 32/59/7
f 1/60/4 11/12/4 13/15/4 25/61/4
f 4/62/2 3/63/2 6/6/2 5/5/2
f 33/64/11 34/65/12 35/66/11 36/67/11
f 36/67/11 35/66/11 29/49/13 28/48/11
f 37/68/14 36/69/14 28/70/14 38/71/15
f 39/72/16 33/73/14 36/69/14 37/68/14
f 39/72/17 37/68/18 40/74/18 41/75/19
f 38/71/20 28/70/21 31/76/21 42/77/22
f 33/73/23 39/72/24 41/75/25 43/78/23
f 9/79/5 7/80/5 44/81/5 45/82/5
f 16/83/26 45/84/26 40/85/26 42/86/27
f 46/87/28 32/88/28 47/89/29 43/90/28
f 32/91/30 27/92/30 48/93/30 47/94/31
f 27/92/32 26/95/32 30/96/33 48/93/32
f 44/97/34 46/87/34 43/90/34 41/98/35
f 17/99/36 16/100/36 42/101/37 31/102/36
f 26/103/38 17/99/38 31/102/38 30/104/39
f 45/84/40 44/105/40 41/106/41 40/85/40
f 29/49/42 35/66/43 48/107/43 30/50/44
f 15/17/5 9/79/5 45/82/5 16/18/5
f 7/80/5 6/108/5 46/109/5 44/81/5
f 37/68/18 38/71/45 42/77/46 40/74/18
f 24/45/7 14/110/7 17/111/7 26/46/7
f 34/65/47 33/64/48 43/112/48 47/113/49
f 6/114/7 3/58/7 32/59/7 46/115/7
f 35/66/43 34/65/50 47/113/51 48/107/43
f 49/116/1 50/117/1 51/118/1 52/119/1
f 52/120/2 51/121/2 53/122/2 54/123/2
f 54/124/3 53/125/3 55/126/3 56/127/3
f 56/128/6 55/129/6 50/130/6 49/131/6
f 57/116/1 58/117/1 59/118/1 60/119/1
f 60/120/2 59/121/2 61/122/2 62/123/2
f 62/124/3 61/125/3 63/126/3 64/127/3
f 64/128/6 63/129/6 58/130/6 57/131/6
f 68/132/6 67/133/6 71/134/6 72/135/6
f 66/136/52 65/133/52 67/134/52 68/135/52
f 70/132/2 69/133/2 65/134/2 66/135/2
f 72/137/53 71/135/53 69/132/53 70/133/53
f 76/132/2 75/133/2 79/134/2 80/135/2
f 74/136/54 73/133/54 75/134/54 76/135/54
f 78/132/6 77/133/6 73/134/6 74/135/6
f 80/137/55 79/135/55 77/132/55 78/133/55
