{
	"asset":{
		"generator":"Khronos glTF Blender I/O v5.0.21",
		"version":"2.0"
	},
	"scene":0,
	"scenes":[
		{
			"name":"Scene",
			"nodes":[
				4,
				9,
				14
			]
		}
	],
	"nodes":[
		{
			"mesh":0,
			"name":"GrenadeRingHigh",
			"rotation":[
				0.5284193754196167,
				-0.18356312811374664,
				-0.31637024879455566,
				0.7661510705947876
			],
			"translation":[
				0.016039887443184853,
				0.045104581862688065,
				0.019193032756447792
			]
		},
		{
			"children":[
				0
			],
			"mesh":1,
			"name":"GrenadePinHigh",
			"translation":[
				0,
				0.000848064839374274,
				0
			]
		},
		{
			"mesh":2,
			"name":"GrenadeSwitchHigh"
		},
		{
			"children":[
				1,
				2
			],
			"mesh":3,
			"name":"GrenadeTopHigh"
		},
		{
			"children":[
				3
			],
			"mesh":4,
			"name":"GrenadeBodyHigh"
		},
		{
			"mesh":5,
			"name":"GrenadeRing",
			"rotation":[
				0.5284193754196167,
				-0.18356312811374664,
				-0.31637024879455566,
				0.7661510705947876
			],
			"translation":[
				-0.0017761196941137314,
				-0.01902187615633011,
				0.01798182912170887
			]
		},
		{
			"children":[
				5
			],
			"mesh":6,
			"name":"GrenadePin",
			"translation":[
				0.01311611756682396,
				0.001246519386768341,
				0.0012099607847630978
			]
		},
		{
			"mesh":7,
			"name":"GrenadeSwitch"
		},
		{
			"children":[
				6,
				7
			],
			"mesh":8,
			"name":"GrenadeTop",
			"translation":[
				0.004699889570474625,
				0.06372800469398499,
				0
			]
		},
		{
			"children":[
				8
			],
			"mesh":9,
			"name":"GrenadeBody"
		},
		{
			"mesh":10,
			"name":"GrenadeRingLow",
			"rotation":[
				0.5284193754196167,
				-0.18356312811374664,
				-0.31637024879455566,
				0.7661510705947876
			],
			"translation":[
				-0.0012476611882448196,
				-0.01858321949839592,
				0.019664453342556953
			]
		},
		{
			"children":[
				10
			],
			"mesh":11,
			"name":"GrenadePinLow",
			"translation":[
				0.01311611756682396,
				0.001246519386768341,
				0.0012099607847630978
			]
		},
		{
			"mesh":12,
			"name":"GrenadeSwitchLow"
		},
		{
			"children":[
				11,
				12
			],
			"mesh":13,
			"name":"GrenadeTopLow",
			"translation":[
				0.004699889570474625,
				0.06372800469398499,
				0
			]
		},
		{
			"children":[
				13
			],
			"mesh":14,
			"name":"GrenadeBodyLow"
		}
	],
	"materials":[
		{
			"doubleSided":true,
			"name":"SmoothMetal"
		},
		{
			"doubleSided":true,
			"name":"DarkMetal"
		},
		{
			"doubleSided":true,
			"name":"LightMetal"
		},
		{
			"doubleSided":true,
			"name":"Material.001"
		},
		{
			"name":"Material",
			"normalTexture":{
				"index":0
			},
			"occlusionTexture":{
				"index":1
			},
			"pbrMetallicRoughness":{
				"baseColorTexture":{
					"index":2
				},
				"metallicRoughnessTexture":{
					"index":1
				}
			}
		},
		{
			"alphaCutoff":0.4000000059604645,
			"alphaMode":"MASK",
			"doubleSided":true,
			"name":"LowMaterial",
			"pbrMetallicRoughness":{
				"baseColorTexture":{
					"index":3
				},
				"metallicFactor":0,
				"roughnessFactor":0.5
			}
		}
	],
	"meshes":[
		{
			"name":"Plane",
			"primitives":[
				{
					"attributes":{
						"POSITION":0,
						"NORMAL":1
					},
					"indices":2,
					"material":0
				}
			]
		},
		{
			"name":"GrenadePinHigh",
			"primitives":[
				{
					"attributes":{
						"POSITION":3,
						"NORMAL":4
					},
					"indices":5,
					"material":0
				}
			]
		},
		{
			"name":"GrenadeSwitchHigh",
			"primitives":[
				{
					"attributes":{
						"POSITION":6,
						"NORMAL":7,
						"TEXCOORD_0":8
					},
					"indices":9,
					"material":1
				}
			]
		},
		{
			"name":"GrenadeTopHigh",
			"primitives":[
				{
					"attributes":{
						"POSITION":10,
						"NORMAL":11,
						"TEXCOORD_0":12
					},
					"indices":13,
					"material":2
				}
			]
		},
		{
			"name":"GrenadeBodyHigh",
			"primitives":[
				{
					"attributes":{
						"POSITION":14,
						"NORMAL":15,
						"TEXCOORD_0":16
					},
					"indices":17,
					"material":3
				}
			]
		},
		{
			"name":"GrenadeRing",
			"primitives":[
				{
					"attributes":{
						"POSITION":18,
						"NORMAL":19,
						"TEXCOORD_0":20
					},
					"indices":21,
					"material":4
				}
			]
		},
		{
			"name":"GrenadePin",
			"primitives":[
				{
					"attributes":{
						"POSITION":22,
						"NORMAL":23,
						"TEXCOORD_0":24
					},
					"indices":25,
					"material":4
				}
			]
		},
		{
			"name":"GrenadeSwitch",
			"primitives":[
				{
					"attributes":{
						"POSITION":26,
						"NORMAL":27,
						"TEXCOORD_0":28
					},
					"indices":29,
					"material":4
				}
			]
		},
		{
			"name":"GrenadeTop",
			"primitives":[
				{
					"attributes":{
						"POSITION":30,
						"NORMAL":31,
						"TEXCOORD_0":32
					},
					"indices":33,
					"material":4
				}
			]
		},
		{
			"name":"GrenadeBody",
			"primitives":[
				{
					"attributes":{
						"POSITION":34,
						"NORMAL":35,
						"TEXCOORD_0":36
					},
					"indices":37,
					"material":4
				}
			]
		},
		{
			"name":"GrenadeRingLow",
			"primitives":[
				{
					"attributes":{
						"POSITION":38,
						"NORMAL":39,
						"TEXCOORD_0":40
					},
					"indices":41,
					"material":5
				}
			]
		},
		{
			"name":"GrenadePinLow",
			"primitives":[
				{
					"attributes":{
						"POSITION":42,
						"NORMAL":43,
						"TEXCOORD_0":44
					},
					"indices":45,
					"material":5
				}
			]
		},
		{
			"name":"GrenadeSwitchLow",
			"primitives":[
				{
					"attributes":{
						"POSITION":46,
						"NORMAL":47,
						"TEXCOORD_0":48
					},
					"indices":49,
					"material":5
				}
			]
		},
		{
			"name":"GrenadeTopLow",
			"primitives":[
				{
					"attributes":{
						"POSITION":50,
						"NORMAL":51,
						"TEXCOORD_0":52
					},
					"indices":53,
					"material":5
				}
			]
		},
		{
			"name":"GrenadeBodyLow",
			"primitives":[
				{
					"attributes":{
						"POSITION":54,
						"NORMAL":55,
						"TEXCOORD_0":56
					},
					"indices":57,
					"material":5
				}
			]
		}
	],
	"textures":[
		{
			"sampler":0,
			"source":0
		},
		{
			"sampler":0,
			"source":1
		},
		{
			"sampler":0,
			"source":2
		},
		{
			"sampler":1,
			"source":3
		}
	],
	"images":[
		{
			"mimeType":"image/png",
			"name":"NormalsLow",
			"uri":"NormalsLow.png"
		},
		{
			"mimeType":"image/png",
			"name":"OcclusionLow-RoughnessLow-MetalnessLow",
			"uri":"OcclusionLow-RoughnessLow-MetalnessLow.png"
		},
		{
			"mimeType":"image/png",
			"name":"BaseColorLow",
			"uri":"BaseColorLow.png"
		},
		{
			"mimeType":"image/png",
			"name":"LowTexture",
			"uri":"LowTexture.png"
		}
	],
	"accessors":[
		{
			"bufferView":0,
			"componentType":5126,
			"count":116,
			"max":[
				0.020504441112279892,
				0.005729753989726305,
				0.020504437386989594
			],
			"min":[
				-0.020504441112279892,
				-0.0013742910232394934,
				-0.020504437386989594
			],
			"type":"VEC3"
		},
		{
			"bufferView":1,
			"componentType":5126,
			"count":116,
			"type":"VEC3"
		},
		{
			"bufferView":2,
			"componentType":5123,
			"count":684,
			"type":"SCALAR"
		},
		{
			"bufferView":3,
			"componentType":5126,
			"count":92,
			"max":[
				0.018479498103260994,
				0.06947387009859085,
				0.020123204216361046
			],
			"min":[
				0.017152927815914154,
				0.058759529143571854,
				-0.01589897647500038
			],
			"type":"VEC3"
		},
		{
			"bufferView":4,
			"componentType":5126,
			"count":92,
			"type":"VEC3"
		},
		{
			"bufferView":5,
			"componentType":5123,
			"count":540,
			"type":"SCALAR"
		},
		{
			"bufferView":6,
			"componentType":5126,
			"count":142,
			"max":[
				0.04970578849315643,
				0.07969830185174942,
				0.013102574273943901
			],
			"min":[
				-0.0222570039331913,
				-0.04577137902379036,
				-1.506693365627143e-07
			],
			"type":"VEC3"
		},
		{
			"bufferView":7,
			"componentType":5126,
			"count":142,
			"type":"VEC3"
		},
		{
			"bufferView":8,
			"componentType":5126,
			"count":142,
			"type":"VEC2"
		},
		{
			"bufferView":9,
			"componentType":5123,
			"count":720,
			"type":"SCALAR"
		},
		{
			"bufferView":10,
			"componentType":5126,
			"count":419,
			"max":[
				0.02972121722996235,
				0.07855049520730972,
				0.01364064123481512
			],
			"min":[
				-0.020828112959861755,
				0.049553003162145615,
				-0.01364064123481512
			],
			"type":"VEC3"
		},
		{
			"bufferView":11,
			"componentType":5126,
			"count":419,
			"type":"VEC3"
		},
		{
			"bufferView":12,
			"componentType":5126,
			"count":419,
			"type":"VEC2"
		},
		{
			"bufferView":13,
			"componentType":5123,
			"count":2172,
			"type":"SCALAR"
		},
		{
			"bufferView":14,
			"componentType":5126,
			"count":544,
			"max":[
				0.035788118839263916,
				0.04960961639881134,
				0.035788118839263916
			],
			"min":[
				-0.035788122564554214,
				-0.06039037927985191,
				-0.035788118839263916
			],
			"type":"VEC3"
		},
		{
			"bufferView":15,
			"componentType":5126,
			"count":544,
			"type":"VEC3"
		},
		{
			"bufferView":16,
			"componentType":5126,
			"count":544,
			"type":"VEC2"
		},
		{
			"bufferView":17,
			"componentType":5123,
			"count":2724,
			"type":"SCALAR"
		},
		{
			"bufferView":18,
			"componentType":5126,
			"count":304,
			"max":[
				0.019545383751392365,
				0.005568127613514662,
				0.019560087472200394
			],
			"min":[
				-0.019545383751392365,
				-0.0012125358916819096,
				-0.019545380026102066
			],
			"type":"VEC3"
		},
		{
			"bufferView":19,
			"componentType":5126,
			"count":304,
			"type":"VEC3"
		},
		{
			"bufferView":20,
			"componentType":5126,
			"count":304,
			"type":"VEC2"
		},
		{
			"bufferView":21,
			"componentType":5123,
			"count":1428,
			"type":"SCALAR"
		},
		{
			"bufferView":22,
			"componentType":5126,
			"count":117,
			"max":[
				0.00066349096596241,
				0.005347408354282379,
				0.018912000581622124
			],
			"min":[
				-0.0006630793213844299,
				-0.005366932600736618,
				-0.017110180109739304
			],
			"type":"VEC3"
		},
		{
			"bufferView":23,
			"componentType":5126,
			"count":117,
			"type":"VEC3"
		},
		{
			"bufferView":24,
			"componentType":5126,
			"count":117,
			"type":"VEC2"
		},
		{
			"bufferView":25,
			"componentType":5123,
			"count":540,
			"type":"SCALAR"
		},
		{
			"bufferView":26,
			"componentType":5126,
			"count":601,
			"max":[
				0.04500589892268181,
				0.015970297157764435,
				0.013092581182718277
			],
			"min":[
				-0.026956893503665924,
				-0.10948942601680756,
				-0.013095065020024776
			],
			"type":"VEC3"
		},
		{
			"bufferView":27,
			"componentType":5126,
			"count":601,
			"type":"VEC3"
		},
		{
			"bufferView":28,
			"componentType":5126,
			"count":601,
			"type":"VEC2"
		},
		{
			"bufferView":29,
			"componentType":5123,
			"count":2856,
			"type":"SCALAR"
		},
		{
			"bufferView":30,
			"componentType":5126,
			"count":243,
			"max":[
				0.024862775579094887,
				0.01482248306274414,
				0.013639398850500584
			],
			"min":[
				-0.025434795767068863,
				-0.01417500153183937,
				-0.013641883619129658
			],
			"type":"VEC3"
		},
		{
			"bufferView":31,
			"componentType":5126,
			"count":243,
			"type":"VEC3"
		},
		{
			"bufferView":32,
			"componentType":5126,
			"count":243,
			"type":"VEC2"
		},
		{
			"bufferView":33,
			"componentType":5123,
			"count":1116,
			"type":"SCALAR"
		},
		{
			"bufferView":34,
			"componentType":5126,
			"count":323,
			"max":[
				0.035788118839263916,
				0.04960961639881134,
				0.035788118839263916
			],
			"min":[
				-0.035788122564554214,
				-0.06039037927985191,
				-0.035788118839263916
			],
			"type":"VEC3"
		},
		{
			"bufferView":35,
			"componentType":5126,
			"count":323,
			"type":"VEC3"
		},
		{
			"bufferView":36,
			"componentType":5126,
			"count":323,
			"type":"VEC2"
		},
		{
			"bufferView":37,
			"componentType":5123,
			"count":1764,
			"type":"SCALAR"
		},
		{
			"bufferView":38,
			"componentType":5126,
			"count":18,
			"max":[
				0.023557230830192566,
				1.710127262022354e-09,
				0.023557282984256744
			],
			"min":[
				-0.023557282984256744,
				-1.710127262022354e-09,
				-0.023557230830192566
			],
			"type":"VEC3"
		},
		{
			"bufferView":39,
			"componentType":5126,
			"count":18,
			"type":"VEC3"
		},
		{
			"bufferView":40,
			"componentType":5126,
			"count":18,
			"type":"VEC2"
		},
		{
			"bufferView":41,
			"componentType":5123,
			"count":48,
			"type":"SCALAR"
		},
		{
			"bufferView":42,
			"componentType":5126,
			"count":4,
			"max":[
				-0.0008377662161365151,
				0.005659360438585281,
				0.01916387677192688
			],
			"min":[
				-0.0008377685444429517,
				-0.005659375339746475,
				-0.017882533371448517
			],
			"type":"VEC3"
		},
		{
			"bufferView":43,
			"componentType":5126,
			"count":4,
			"type":"VEC3"
		},
		{
			"bufferView":44,
			"componentType":5126,
			"count":4,
			"type":"VEC2"
		},
		{
			"bufferView":45,
			"componentType":5123,
			"count":6,
			"type":"SCALAR"
		},
		{
			"bufferView":46,
			"componentType":5126,
			"count":74,
			"max":[
				0.043503716588020325,
				0.014879114925861359,
				0.011995796114206314
			],
			"min":[
				-0.02561734803020954,
				-0.10930810868740082,
				-0.011998280882835388
			],
			"type":"VEC3"
		},
		{
			"bufferView":47,
			"componentType":5126,
			"count":74,
			"type":"VEC3"
		},
		{
			"bufferView":48,
			"componentType":5126,
			"count":74,
			"type":"VEC2"
		},
		{
			"bufferView":49,
			"componentType":5123,
			"count":180,
			"type":"SCALAR"
		},
		{
			"bufferView":50,
			"componentType":5126,
			"count":92,
			"max":[
				0.025021327659487724,
				0.01482248306274414,
				0.013639398850500584
			],
			"min":[
				-0.02552800253033638,
				-0.01417500153183937,
				-0.013641883619129658
			],
			"type":"VEC3"
		},
		{
			"bufferView":51,
			"componentType":5126,
			"count":92,
			"type":"VEC3"
		},
		{
			"bufferView":52,
			"componentType":5126,
			"count":92,
			"type":"VEC2"
		},
		{
			"bufferView":53,
			"componentType":5123,
			"count":294,
			"type":"SCALAR"
		},
		{
			"bufferView":54,
			"componentType":5126,
			"count":227,
			"max":[
				0.035788118839263916,
				0.04960961639881134,
				0.035788118839263916
			],
			"min":[
				-0.035788122564554214,
				-0.06039037927985191,
				-0.035788118839263916
			],
			"type":"VEC3"
		},
		{
			"bufferView":55,
			"componentType":5126,
			"count":227,
			"type":"VEC3"
		},
		{
			"bufferView":56,
			"componentType":5126,
			"count":227,
			"type":"VEC2"
		},
		{
			"bufferView":57,
			"componentType":5123,
			"count":1254,
			"type":"SCALAR"
		}
	],
	"bufferViews":[
		{
			"buffer":0,
			"byteLength":1392,
			"byteOffset":0,
			"target":34962
		},
		{
			"buffer":0,
			"byteLength":1392,
			"byteOffset":1392,
			"target":34962
		},
		{
			"buffer":0,
			"byteLength":1368,
			"byteOffset":2784,
			"target":34963
		},
		{
			"buffer":0,
			"byteLength":1104,
			"byteOffset":4152,
			"target":34962
		},
		{
			"buffer":0,
			"byteLength":1104,
			"byteOffset":5256,
			"target":34962
		},
		{
			"buffer":0,
			"byteLength":1080,
			"byteOffset":6360,
			"target":34963
		},
		{
			"buffer":0,
			"byteLength":1704,
			"byteOffset":7440,
			"target":34962
		},
		{
			"buffer":0,
			"byteLength":1704,
			"byteOffset":9144,
			"target":34962
		},
		{
			"buffer":0,
			"byteLength":1136,
			"byteOffset":10848,
			"target":34962
		},
		{
			"buffer":0,
			"byteLength":1440,
			"byteOffset":11984,
			"target":34963
		},
		{
			"buffer":0,
			"byteLength":5028,
			"byteOffset":13424,
			"target":34962
		},
		{
			"buffer":0,
			"byteLength":5028,
			"byteOffset":18452,
			"target":34962
		},
		{
			"buffer":0,
			"byteLength":3352,
			"byteOffset":23480,
			"target":34962
		},
		{
			"buffer":0,
			"byteLength":4344,
			"byteOffset":26832,
			"target":34963
		},
		{
			"buffer":0,
			"byteLength":6528,
			"byteOffset":31176,
			"target":34962
		},
		{
			"buffer":0,
			"byteLength":6528,
			"byteOffset":37704,
			"target":34962
		},
		{
			"buffer":0,
			"byteLength":4352,
			"byteOffset":44232,
			"target":34962
		},
		{
			"buffer":0,
			"byteLength":5448,
			"byteOffset":48584,
			"target":34963
		},
		{
			"buffer":0,
			"byteLength":3648,
			"byteOffset":54032,
			"target":34962
		},
		{
			"buffer":0,
			"byteLength":3648,
			"byteOffset":57680,
			"target":34962
		},
		{
			"buffer":0,
			"byteLength":2432,
			"byteOffset":61328,
			"target":34962
		},
		{
			"buffer":0,
			"byteLength":2856,
			"byteOffset":63760,
			"target":34963
		},
		{
			"buffer":0,
			"byteLength":1404,
			"byteOffset":66616,
			"target":34962
		},
		{
			"buffer":0,
			"byteLength":1404,
			"byteOffset":68020,
			"target":34962
		},
		{
			"buffer":0,
			"byteLength":936,
			"byteOffset":69424,
			"target":34962
		},
		{
			"buffer":0,
			"byteLength":1080,
			"byteOffset":70360,
			"target":34963
		},
		{
			"buffer":0,
			"byteLength":7212,
			"byteOffset":71440,
			"target":34962
		},
		{
			"buffer":0,
			"byteLength":7212,
			"byteOffset":78652,
			"target":34962
		},
		{
			"buffer":0,
			"byteLength":4808,
			"byteOffset":85864,
			"target":34962
		},
		{
			"buffer":0,
			"byteLength":5712,
			"byteOffset":90672,
			"target":34963
		},
		{
			"buffer":0,
			"byteLength":2916,
			"byteOffset":96384,
			"target":34962
		},
		{
			"buffer":0,
			"byteLength":2916,
			"byteOffset":99300,
			"target":34962
		},
		{
			"buffer":0,
			"byteLength":1944,
			"byteOffset":102216,
			"target":34962
		},
		{
			"buffer":0,
			"byteLength":2232,
			"byteOffset":104160,
			"target":34963
		},
		{
			"buffer":0,
			"byteLength":3876,
			"byteOffset":106392,
			"target":34962
		},
		{
			"buffer":0,
			"byteLength":3876,
			"byteOffset":110268,
			"target":34962
		},
		{
			"buffer":0,
			"byteLength":2584,
			"byteOffset":114144,
			"target":34962
		},
		{
			"buffer":0,
			"byteLength":3528,
			"byteOffset":116728,
			"target":34963
		},
		{
			"buffer":0,
			"byteLength":216,
			"byteOffset":120256,
			"target":34962
		},
		{
			"buffer":0,
			"byteLength":216,
			"byteOffset":120472,
			"target":34962
		},
		{
			"buffer":0,
			"byteLength":144,
			"byteOffset":120688,
			"target":34962
		},
		{
			"buffer":0,
			"byteLength":96,
			"byteOffset":120832,
			"target":34963
		},
		{
			"buffer":0,
			"byteLength":48,
			"byteOffset":120928,
			"target":34962
		},
		{
			"buffer":0,
			"byteLength":48,
			"byteOffset":120976,
			"target":34962
		},
		{
			"buffer":0,
			"byteLength":32,
			"byteOffset":121024,
			"target":34962
		},
		{
			"buffer":0,
			"byteLength":12,
			"byteOffset":121056,
			"target":34963
		},
		{
			"buffer":0,
			"byteLength":888,
			"byteOffset":121068,
			"target":34962
		},
		{
			"buffer":0,
			"byteLength":888,
			"byteOffset":121956,
			"target":34962
		},
		{
			"buffer":0,
			"byteLength":592,
			"byteOffset":122844,
			"target":34962
		},
		{
			"buffer":0,
			"byteLength":360,
			"byteOffset":123436,
			"target":34963
		},
		{
			"buffer":0,
			"byteLength":1104,
			"byteOffset":123796,
			"target":34962
		},
		{
			"buffer":0,
			"byteLength":1104,
			"byteOffset":124900,
			"target":34962
		},
		{
			"buffer":0,
			"byteLength":736,
			"byteOffset":126004,
			"target":34962
		},
		{
			"buffer":0,
			"byteLength":588,
			"byteOffset":126740,
			"target":34963
		},
		{
			"buffer":0,
			"byteLength":2724,
			"byteOffset":127328,
			"target":34962
		},
		{
			"buffer":0,
			"byteLength":2724,
			"byteOffset":130052,
			"target":34962
		},
		{
			"buffer":0,
			"byteLength":1816,
			"byteOffset":132776,
			"target":34962
		},
		{
			"buffer":0,
			"byteLength":2508,
			"byteOffset":134592,
			"target":34963
		}
	],
	"samplers":[
		{
			"magFilter":9729,
			"minFilter":9987
		},
		{
			"magFilter":9728,
			"minFilter":9984
		}
	],
	"buffers":[
		{
			"byteLength":137100,
			"uri":"model.bin"
		}
	]
}
