{
	"asset":{
		"generator":"Khronos glTF Blender I/O v5.0.21",
		"version":"2.0"
	},
	"extensionsUsed":[
		"KHR_materials_specular"
	],
	"scene":0,
	"scenes":[
		{
			"name":"Scene",
			"nodes":[
				0,
				1,
				2,
				3,
				4
			]
		}
	],
	"nodes":[
		{
			"mesh":0,
			"name":"CORPO5_corpo.015_Cube.006_Cube.007",
			"rotation":[
				0.70710688829422,
				0,
				0,
				0.7071066498756409
			]
		},
		{
			"mesh":1,
			"name":"CORPO5_corpo.015_Cube.006_Cube.002",
			"rotation":[
				0.70710688829422,
				0,
				0,
				0.7071066498756409
			],
			"translation":[
				0,
				0,
				-0.0034295781515538692
			]
		},
		{
			"mesh":2,
			"name":"CORPO5_corpo.015_Cube.006_Cube.005",
			"rotation":[
				0.70710688829422,
				0,
				0,
				0.7071066498756409
			]
		},
		{
			"mesh":3,
			"name":"CORPO5_corpo.015_Cube.006_Cube.004",
			"rotation":[
				0.70710688829422,
				0,
				0,
				0.7071066498756409
			],
			"translation":[
				0,
				-0.0047633107751607895,
				-0.0038106516003608704
			]
		},
		{
			"mesh":4,
			"name":"bone.001",
			"rotation":[
				0.70710688829422,
				0,
				0,
				0.7071066498756409
			]
		}
	],
	"materials":[
		{
			"doubleSided":true,
			"name":"Material.009",
			"pbrMetallicRoughness":{
				"baseColorFactor":[
					0.01722799986600876,
					0.1850620061159134,
					0.6399999856948853,
					1
				],
				"metallicFactor":0,
				"roughnessFactor":0.5
			}
		},
		{
			"doubleSided":true,
			"name":"Material.013",
			"pbrMetallicRoughness":{
				"baseColorFactor":[
					0.8879234194755554,
					0.03560132905840874,
					0.16202937066555023,
					1
				],
				"metallicFactor":0,
				"roughnessFactor":0.5
			}
		},
		{
			"doubleSided":true,
			"name":"Material.007",
			"pbrMetallicRoughness":{
				"baseColorFactor":[
					0.800000011920929,
					0.800000011920929,
					0.800000011920929,
					1
				],
				"metallicFactor":0,
				"roughnessFactor":0.5
			}
		},
		{
			"doubleSided":true,
			"extensions":{
				"KHR_materials_specular":{
					"specularFactor":0.48552799224853516
				}
			},
			"name":"Material.033",
			"pbrMetallicRoughness":{
				"baseColorFactor":[
					0.6399999856948853,
					0.29571500420570374,
					0.2295520007610321,
					1
				],
				"metallicFactor":0,
				"roughnessFactor":0.5
			}
		},
		{
			"doubleSided":true,
			"name":"Material.003",
			"pbrMetallicRoughness":{
				"baseColorFactor":[
					0.800000011920929,
					0.800000011920929,
					0.800000011920929,
					1
				],
				"metallicFactor":0,
				"roughnessFactor":0.5
			}
		},
		{
			"doubleSided":true,
			"name":"Material.021",
			"pbrMetallicRoughness":{
				"baseColorFactor":[
					0.01722799986600876,
					0.1850620061159134,
					0.6399999856948853,
					1
				],
				"metallicFactor":0,
				"roughnessFactor":0.5
			}
		},
		{
			"doubleSided":true,
			"extensions":{
				"KHR_materials_specular":{
					"specularFactor":0.800000011920929
				}
			},
			"name":"Material.010",
			"pbrMetallicRoughness":{
				"baseColorFactor":[
					0.6399999856948853,
					0.6399999856948853,
					0.6399999856948853,
					1
				],
				"metallicFactor":0,
				"roughnessFactor":0.5
			}
		},
		{
			"doubleSided":true,
			"name":"Material.012",
			"pbrMetallicRoughness":{
				"baseColorFactor":[
					0.042027391493320465,
					0.042027391493320465,
					0.042027391493320465,
					1
				],
				"metallicFactor":0,
				"roughnessFactor":0.5
			}
		},
		{
			"doubleSided":true,
			"extensions":{
				"KHR_materials_specular":{
					"specularFactor":0.48552799224853516
				}
			},
			"name":"Material.004",
			"pbrMetallicRoughness":{
				"baseColorFactor":[
					0.6399999856948853,
					0.29571500420570374,
					0.2295520007610321,
					1
				],
				"metallicFactor":0,
				"roughnessFactor":0.5
			}
		},
		{
			"doubleSided":true,
			"name":"Material.017",
			"pbrMetallicRoughness":{
				"baseColorFactor":[
					0.6399999856948853,
					0.06925400346517563,
					0.06432099640369415,
					1
				],
				"metallicFactor":0,
				"roughnessFactor":0.5
			}
		},
		{
			"doubleSided":true,
			"name":"Material.015",
			"pbrMetallicRoughness":{
				"baseColorFactor":[
					0.0836929976940155,
					0.04228900000452995,
					0.048996999859809875,
					1
				],
				"metallicFactor":0,
				"roughnessFactor":0.5
			}
		},
		{
			"doubleSided":true,
			"name":"Material.020",
			"pbrMetallicRoughness":{
				"baseColorFactor":[
					0.8879234194755554,
					0.03560132905840874,
					0.16202937066555023,
					1
				],
				"metallicFactor":0,
				"roughnessFactor":0.5
			}
		},
		{
			"doubleSided":true,
			"name":"Material.005",
			"pbrMetallicRoughness":{
				"baseColorFactor":[
					0.01722799986600876,
					0.1850620061159134,
					0.6399999856948853,
					1
				],
				"metallicFactor":0,
				"roughnessFactor":0.5
			}
		},
		{
			"doubleSided":true,
			"name":"Material.014",
			"pbrMetallicRoughness":{
				"baseColorFactor":[
					0.800000011920929,
					0.800000011920929,
					0.800000011920929,
					1
				],
				"metallicFactor":0,
				"roughnessFactor":0.5
			}
		}
	],
	"meshes":[
		{
			"name":"CORPO5_corpo.015_Cube.006_Cube.000",
			"primitives":[
				{
					"attributes":{
						"POSITION":0,
						"NORMAL":1,
						"TEXCOORD_0":2
					},
					"indices":3,
					"material":0
				},
				{
					"attributes":{
						"POSITION":4,
						"NORMAL":5,
						"TEXCOORD_0":6
					},
					"indices":7,
					"material":1
				},
				{
					"attributes":{
						"POSITION":8,
						"NORMAL":9,
						"TEXCOORD_0":10
					},
					"indices":11,
					"material":2
				},
				{
					"attributes":{
						"POSITION":12,
						"NORMAL":13,
						"TEXCOORD_0":14
					},
					"indices":15,
					"material":3
				},
				{
					"attributes":{
						"POSITION":16,
						"NORMAL":17,
						"TEXCOORD_0":18
					},
					"indices":19,
					"material":4
				}
			]
		},
		{
			"name":"CORPO5_corpo.015_Cube.006_Cube.003",
			"primitives":[
				{
					"attributes":{
						"POSITION":20,
						"NORMAL":21,
						"TEXCOORD_0":22
					},
					"indices":23,
					"material":2
				},
				{
					"attributes":{
						"POSITION":24,
						"NORMAL":25,
						"TEXCOORD_0":26
					},
					"indices":27,
					"material":5
				},
				{
					"attributes":{
						"POSITION":28,
						"NORMAL":29,
						"TEXCOORD_0":30
					},
					"indices":31,
					"material":6
				},
				{
					"attributes":{
						"POSITION":32,
						"NORMAL":33,
						"TEXCOORD_0":34
					},
					"indices":35,
					"material":7
				}
			]
		},
		{
			"name":"CORPO5_corpo.015_Cube.006_Cube.002",
			"primitives":[
				{
					"attributes":{
						"POSITION":36,
						"NORMAL":37,
						"TEXCOORD_0":38
					},
					"indices":39,
					"material":8
				},
				{
					"attributes":{
						"POSITION":40,
						"NORMAL":41,
						"TEXCOORD_0":42
					},
					"indices":43,
					"material":5
				},
				{
					"attributes":{
						"POSITION":44,
						"NORMAL":45,
						"TEXCOORD_0":46
					},
					"indices":47,
					"material":9
				},
				{
					"attributes":{
						"POSITION":48,
						"NORMAL":49,
						"TEXCOORD_0":50
					},
					"indices":51,
					"material":10
				}
			]
		},
		{
			"name":"CORPO5_corpo.015_Cube.006_Cube.004",
			"primitives":[
				{
					"attributes":{
						"POSITION":52,
						"NORMAL":53,
						"TEXCOORD_0":54
					},
					"indices":55,
					"material":5
				},
				{
					"attributes":{
						"POSITION":56,
						"NORMAL":57,
						"TEXCOORD_0":58
					},
					"indices":59,
					"material":11
				},
				{
					"attributes":{
						"POSITION":60,
						"NORMAL":61,
						"TEXCOORD_0":62
					},
					"indices":63,
					"material":12
				}
			]
		},
		{
			"name":"CORPO5_corpo.015_Cube.006_Cube.005",
			"primitives":[
				{
					"attributes":{
						"POSITION":64,
						"NORMAL":65,
						"TEXCOORD_0":66
					},
					"indices":67,
					"material":0
				},
				{
					"attributes":{
						"POSITION":68,
						"NORMAL":69,
						"TEXCOORD_0":70
					},
					"indices":71,
					"material":1
				},
				{
					"attributes":{
						"POSITION":72,
						"NORMAL":73,
						"TEXCOORD_0":74
					},
					"indices":75,
					"material":13
				}
			]
		}
	],
	"accessors":[
		{
			"bufferView":0,
			"componentType":5126,
			"count":1611,
			"max":[
				0.8592259883880615,
				0.20763500034809113,
				-0.04819300025701523
			],
			"min":[
				-0.8515589833259583,
				-0.1478710025548935,
				-1.8081879615783691
			],
			"type":"VEC3"
		},
		{
			"bufferView":1,
			"componentType":5126,
			"count":1611,
			"type":"VEC3"
		},
		{
			"bufferView":2,
			"componentType":5126,
			"count":1611,
			"type":"VEC2"
		},
		{
			"bufferView":3,
			"componentType":5123,
			"count":7296,
			"type":"SCALAR"
		},
		{
			"bufferView":4,
			"componentType":5126,
			"count":930,
			"max":[
				0.7377870082855225,
				0.19683299958705902,
				-0.04808399826288223
			],
			"min":[
				-0.7308030128479004,
				-0.10515400022268295,
				-1.7608489990234375
			],
			"type":"VEC3"
		},
		{
			"bufferView":5,
			"componentType":5126,
			"count":930,
			"type":"VEC3"
		},
		{
			"bufferView":6,
			"componentType":5126,
			"count":930,
			"type":"VEC2"
		},
		{
			"bufferView":7,
			"componentType":5123,
			"count":3870,
			"type":"SCALAR"
		},
		{
			"bufferView":8,
			"componentType":5126,
			"count":600,
			"max":[
				0.7239130139350891,
				0.03064100071787834,
				-1.6590039730072021
			],
			"min":[
				-0.7173560261726379,
				-0.07511500269174576,
				-1.760174036026001
			],
			"type":"VEC3"
		},
		{
			"bufferView":9,
			"componentType":5126,
			"count":600,
			"type":"VEC3"
		},
		{
			"bufferView":10,
			"componentType":5126,
			"count":600,
			"type":"VEC2"
		},
		{
			"bufferView":11,
			"componentType":5123,
			"count":3408,
			"type":"SCALAR"
		},
		{
			"bufferView":12,
			"componentType":5126,
			"count":614,
			"max":[
				0.9538310170173645,
				0.0631759986281395,
				-1.6407259702682495
			],
			"min":[
				-0.9465429782867432,
				-0.11574699729681015,
				-1.843345046043396
			],
			"type":"VEC3"
		},
		{
			"bufferView":13,
			"componentType":5126,
			"count":614,
			"type":"VEC3"
		},
		{
			"bufferView":14,
			"componentType":5126,
			"count":614,
			"type":"VEC2"
		},
		{
			"bufferView":15,
			"componentType":5123,
			"count":3186,
			"type":"SCALAR"
		},
		{
			"bufferView":16,
			"componentType":5126,
			"count":104,
			"max":[
				0.19394400715827942,
				0.20763500034809113,
				-0.01819000020623207
			],
			"min":[
				-0.18355399370193481,
				-0.07557199895381927,
				-0.26316046714782715
			],
			"type":"VEC3"
		},
		{
			"bufferView":17,
			"componentType":5126,
			"count":104,
			"type":"VEC3"
		},
		{
			"bufferView":18,
			"componentType":5126,
			"count":104,
			"type":"VEC2"
		},
		{
			"bufferView":19,
			"componentType":5123,
			"count":408,
			"type":"SCALAR"
		},
		{
			"bufferView":20,
			"componentType":5126,
			"count":140,
			"max":[
				0.061618492007255554,
				0.13034871220588684,
				-1.8693809509277344
			],
			"min":[
				-0.061618492007255554,
				0.09198765456676483,
				-1.9299910068511963
			],
			"type":"VEC3"
		},
		{
			"bufferView":21,
			"componentType":5126,
			"count":140,
			"type":"VEC3"
		},
		{
			"bufferView":22,
			"componentType":5126,
			"count":140,
			"type":"VEC2"
		},
		{
			"bufferView":23,
			"componentType":5123,
			"count":768,
			"type":"SCALAR"
		},
		{
			"bufferView":24,
			"componentType":5126,
			"count":60,
			"max":[
				0.07668331265449524,
				0.1437041461467743,
				-1.8821040391921997
			],
			"min":[
				-0.07668331265449524,
				0.11601529270410538,
				-1.9325810670852661
			],
			"type":"VEC3"
		},
		{
			"bufferView":25,
			"componentType":5126,
			"count":60,
			"type":"VEC3"
		},
		{
			"bufferView":26,
			"componentType":5126,
			"count":60,
			"type":"VEC2"
		},
		{
			"bufferView":27,
			"componentType":5123,
			"count":156,
			"type":"SCALAR"
		},
		{
			"bufferView":28,
			"componentType":5126,
			"count":14,
			"max":[
				0.04173623025417328,
				0.1297655701637268,
				-1.8821040391921997
			],
			"min":[
				-0.04173623025417328,
				0.12475074082612991,
				-1.8978630304336548
			],
			"type":"VEC3"
		},
		{
			"bufferView":29,
			"componentType":5126,
			"count":14,
			"type":"VEC3"
		},
		{
			"bufferView":30,
			"componentType":5126,
			"count":14,
			"type":"VEC2"
		},
		{
			"bufferView":31,
			"componentType":5123,
			"count":18,
			"type":"SCALAR"
		},
		{
			"bufferView":32,
			"componentType":5126,
			"count":50,
			"max":[
				0.06649309396743774,
				0.14569182693958282,
				-1.8873100280761719
			],
			"min":[
				-0.06649309396743774,
				0.11904759705066681,
				-1.908736228942871
			],
			"type":"VEC3"
		},
		{
			"bufferView":33,
			"componentType":5126,
			"count":50,
			"type":"VEC3"
		},
		{
			"bufferView":34,
			"componentType":5126,
			"count":50,
			"type":"VEC2"
		},
		{
			"bufferView":35,
			"componentType":5123,
			"count":126,
			"type":"SCALAR"
		},
		{
			"bufferView":36,
			"componentType":5126,
			"count":590,
			"max":[
				0.10747049748897552,
				0.15429270267486572,
				-1.7806333303451538
			],
			"min":[
				-0.10747049748897552,
				-0.030930377542972565,
				-1.9652384519577026
			],
			"type":"VEC3"
		},
		{
			"bufferView":37,
			"componentType":5126,
			"count":590,
			"type":"VEC3"
		},
		{
			"bufferView":38,
			"componentType":5126,
			"count":590,
			"type":"VEC2"
		},
		{
			"bufferView":39,
			"componentType":5123,
			"count":3072,
			"type":"SCALAR"
		},
		{
			"bufferView":40,
			"componentType":5126,
			"count":165,
			"max":[
				0.09048689901828766,
				0.13882380723953247,
				-1.8224667310714722
			],
			"min":[
				-0.09048689901828766,
				-0.08232176303863525,
				-2.034524440765381
			],
			"type":"VEC3"
		},
		{
			"bufferView":41,
			"componentType":5126,
			"count":165,
			"type":"VEC3"
		},
		{
			"bufferView":42,
			"componentType":5126,
			"count":165,
			"type":"VEC2"
		},
		{
			"bufferView":43,
			"componentType":5123,
			"count":780,
			"type":"SCALAR"
		},
		{
			"bufferView":44,
			"componentType":5126,
			"count":42,
			"max":[
				0.023287279531359673,
				0.14284205436706543,
				-1.812045693397522
			],
			"min":[
				-0.023287279531359673,
				0.12172058969736099,
				-1.8299942016601562
			],
			"type":"VEC3"
		},
		{
			"bufferView":45,
			"componentType":5126,
			"count":42,
			"type":"VEC3"
		},
		{
			"bufferView":46,
			"componentType":5126,
			"count":42,
			"type":"VEC2"
		},
		{
			"bufferView":47,
			"componentType":5123,
			"count":168,
			"type":"SCALAR"
		},
		{
			"bufferView":48,
			"componentType":5126,
			"count":56,
			"max":[
				0.058456603437662125,
				0.14562992751598358,
				-1.8446359634399414
			],
			"min":[
				-0.058456603437662125,
				0.11586976796388626,
				-1.9034212827682495
			],
			"type":"VEC3"
		},
		{
			"bufferView":49,
			"componentType":5126,
			"count":56,
			"type":"VEC3"
		},
		{
			"bufferView":50,
			"componentType":5126,
			"count":56,
			"type":"VEC2"
		},
		{
			"bufferView":51,
			"componentType":5123,
			"count":168,
			"type":"SCALAR"
		},
		{
			"bufferView":52,
			"componentType":5126,
			"count":451,
			"max":[
				0.09579132497310638,
				0.14386621117591858,
				-1.8749483823776245
			],
			"min":[
				-0.09297136962413788,
				0.026465289294719696,
				-2.006793260574341
			],
			"type":"VEC3"
		},
		{
			"bufferView":53,
			"componentType":5126,
			"count":451,
			"type":"VEC3"
		},
		{
			"bufferView":54,
			"componentType":5126,
			"count":451,
			"type":"VEC2"
		},
		{
			"bufferView":55,
			"componentType":5123,
			"count":2400,
			"type":"SCALAR"
		},
		{
			"bufferView":56,
			"componentType":5126,
			"count":331,
			"max":[
				0.09340472519397736,
				0.20938661694526672,
				-1.8100073337554932
			],
			"min":[
				-0.09297136962413788,
				-0.08043099194765091,
				-2.0491833686828613
			],
			"type":"VEC3"
		},
		{
			"bufferView":57,
			"componentType":5126,
			"count":331,
			"type":"VEC3"
		},
		{
			"bufferView":58,
			"componentType":5126,
			"count":331,
			"type":"VEC2"
		},
		{
			"bufferView":59,
			"componentType":5123,
			"count":1638,
			"type":"SCALAR"
		},
		{
			"bufferView":60,
			"componentType":5126,
			"count":42,
			"max":[
				0.08239563554525375,
				0.20938661694526672,
				-1.920217514038086
			],
			"min":[
				-0.08239563554525375,
				-0.0838581770658493,
				-2.0502851009368896
			],
			"type":"VEC3"
		},
		{
			"bufferView":61,
			"componentType":5126,
			"count":42,
			"type":"VEC3"
		},
		{
			"bufferView":62,
			"componentType":5126,
			"count":42,
			"type":"VEC2"
		},
		{
			"bufferView":63,
			"componentType":5123,
			"count":144,
			"type":"SCALAR"
		},
		{
			"bufferView":64,
			"componentType":5126,
			"count":107,
			"max":[
				0.12215661257505417,
				0.15450705587863922,
				-1.79110848903656
			],
			"min":[
				-0.12215661257505417,
				-0.020263247191905975,
				-2.0489578247070312
			],
			"type":"VEC3"
		},
		{
			"bufferView":65,
			"componentType":5126,
			"count":107,
			"type":"VEC3"
		},
		{
			"bufferView":66,
			"componentType":5126,
			"count":107,
			"type":"VEC2"
		},
		{
			"bufferView":67,
			"componentType":5123,
			"count":402,
			"type":"SCALAR"
		},
		{
			"bufferView":68,
			"componentType":5126,
			"count":111,
			"max":[
				0.12215661257505417,
				0.15839362144470215,
				-1.791318416595459
			],
			"min":[
				-0.12215661257505417,
				-0.020292773842811584,
				-2.0489578247070312
			],
			"type":"VEC3"
		},
		{
			"bufferView":69,
			"componentType":5126,
			"count":111,
			"type":"VEC3"
		},
		{
			"bufferView":70,
			"componentType":5126,
			"count":111,
			"type":"VEC2"
		},
		{
			"bufferView":71,
			"componentType":5123,
			"count":366,
			"type":"SCALAR"
		},
		{
			"bufferView":72,
			"componentType":5126,
			"count":95,
			"max":[
				0.12072549760341644,
				0.15839362144470215,
				-1.79110848903656
			],
			"min":[
				-0.12072549760341644,
				-0.020292773842811584,
				-2.0445289611816406
			],
			"type":"VEC3"
		},
		{
			"bufferView":73,
			"componentType":5126,
			"count":95,
			"type":"VEC3"
		},
		{
			"bufferView":74,
			"componentType":5126,
			"count":95,
			"type":"VEC2"
		},
		{
			"bufferView":75,
			"componentType":5123,
			"count":276,
			"type":"SCALAR"
		}
	],
	"bufferViews":[
		{
			"buffer":0,
			"byteLength":19332,
			"byteOffset":0,
			"target":34962
		},
		{
			"buffer":0,
			"byteLength":19332,
			"byteOffset":19332,
			"target":34962
		},
		{
			"buffer":0,
			"byteLength":12888,
			"byteOffset":38664,
			"target":34962
		},
		{
			"buffer":0,
			"byteLength":14592,
			"byteOffset":51552,
			"target":34963
		},
		{
			"buffer":0,
			"byteLength":11160,
			"byteOffset":66144,
			"target":34962
		},
		{
			"buffer":0,
			"byteLength":11160,
			"byteOffset":77304,
			"target":34962
		},
		{
			"buffer":0,
			"byteLength":7440,
			"byteOffset":88464,
			"target":34962
		},
		{
			"buffer":0,
			"byteLength":7740,
			"byteOffset":95904,
			"target":34963
		},
		{
			"buffer":0,
			"byteLength":7200,
			"byteOffset":103644,
			"target":34962
		},
		{
			"buffer":0,
			"byteLength":7200,
			"byteOffset":110844,
			"target":34962
		},
		{
			"buffer":0,
			"byteLength":4800,
			"byteOffset":118044,
			"target":34962
		},
		{
			"buffer":0,
			"byteLength":6816,
			"byteOffset":122844,
			"target":34963
		},
		{
			"buffer":0,
			"byteLength":7368,
			"byteOffset":129660,
			"target":34962
		},
		{
			"buffer":0,
			"byteLength":7368,
			"byteOffset":137028,
			"target":34962
		},
		{
			"buffer":0,
			"byteLength":4912,
			"byteOffset":144396,
			"target":34962
		},
		{
			"buffer":0,
			"byteLength":6372,
			"byteOffset":149308,
			"target":34963
		},
		{
			"buffer":0,
			"byteLength":1248,
			"byteOffset":155680,
			"target":34962
		},
		{
			"buffer":0,
			"byteLength":1248,
			"byteOffset":156928,
			"target":34962
		},
		{
			"buffer":0,
			"byteLength":832,
			"byteOffset":158176,
			"target":34962
		},
		{
			"buffer":0,
			"byteLength":816,
			"byteOffset":159008,
			"target":34963
		},
		{
			"buffer":0,
			"byteLength":1680,
			"byteOffset":159824,
			"target":34962
		},
		{
			"buffer":0,
			"byteLength":1680,
			"byteOffset":161504,
			"target":34962
		},
		{
			"buffer":0,
			"byteLength":1120,
			"byteOffset":163184,
			"target":34962
		},
		{
			"buffer":0,
			"byteLength":1536,
			"byteOffset":164304,
			"target":34963
		},
		{
			"buffer":0,
			"byteLength":720,
			"byteOffset":165840,
			"target":34962
		},
		{
			"buffer":0,
			"byteLength":720,
			"byteOffset":166560,
			"target":34962
		},
		{
			"buffer":0,
			"byteLength":480,
			"byteOffset":167280,
			"target":34962
		},
		{
			"buffer":0,
			"byteLength":312,
			"byteOffset":167760,
			"target":34963
		},
		{
			"buffer":0,
			"byteLength":168,
			"byteOffset":168072,
			"target":34962
		},
		{
			"buffer":0,
			"byteLength":168,
			"byteOffset":168240,
			"target":34962
		},
		{
			"buffer":0,
			"byteLength":112,
			"byteOffset":168408,
			"target":34962
		},
		{
			"buffer":0,
			"byteLength":36,
			"byteOffset":168520,
			"target":34963
		},
		{
			"buffer":0,
			"byteLength":600,
			"byteOffset":168556,
			"target":34962
		},
		{
			"buffer":0,
			"byteLength":600,
			"byteOffset":169156,
			"target":34962
		},
		{
			"buffer":0,
			"byteLength":400,
			"byteOffset":169756,
			"target":34962
		},
		{
			"buffer":0,
			"byteLength":252,
			"byteOffset":170156,
			"target":34963
		},
		{
			"buffer":0,
			"byteLength":7080,
			"byteOffset":170408,
			"target":34962
		},
		{
			"buffer":0,
			"byteLength":7080,
			"byteOffset":177488,
			"target":34962
		},
		{
			"buffer":0,
			"byteLength":4720,
			"byteOffset":184568,
			"target":34962
		},
		{
			"buffer":0,
			"byteLength":6144,
			"byteOffset":189288,
			"target":34963
		},
		{
			"buffer":0,
			"byteLength":1980,
			"byteOffset":195432,
			"target":34962
		},
		{
			"buffer":0,
			"byteLength":1980,
			"byteOffset":197412,
			"target":34962
		},
		{
			"buffer":0,
			"byteLength":1320,
			"byteOffset":199392,
			"target":34962
		},
		{
			"buffer":0,
			"byteLength":1560,
			"byteOffset":200712,
			"target":34963
		},
		{
			"buffer":0,
			"byteLength":504,
			"byteOffset":202272,
			"target":34962
		},
		{
			"buffer":0,
			"byteLength":504,
			"byteOffset":202776,
			"target":34962
		},
		{
			"buffer":0,
			"byteLength":336,
			"byteOffset":203280,
			"target":34962
		},
		{
			"buffer":0,
			"byteLength":336,
			"byteOffset":203616,
			"target":34963
		},
		{
			"buffer":0,
			"byteLength":672,
			"byteOffset":203952,
			"target":34962
		},
		{
			"buffer":0,
			"byteLength":672,
			"byteOffset":204624,
			"target":34962
		},
		{
			"buffer":0,
			"byteLength":448,
			"byteOffset":205296,
			"target":34962
		},
		{
			"buffer":0,
			"byteLength":336,
			"byteOffset":205744,
			"target":34963
		},
		{
			"buffer":0,
			"byteLength":5412,
			"byteOffset":206080,
			"target":34962
		},
		{
			"buffer":0,
			"byteLength":5412,
			"byteOffset":211492,
			"target":34962
		},
		{
			"buffer":0,
			"byteLength":3608,
			"byteOffset":216904,
			"target":34962
		},
		{
			"buffer":0,
			"byteLength":4800,
			"byteOffset":220512,
			"target":34963
		},
		{
			"buffer":0,
			"byteLength":3972,
			"byteOffset":225312,
			"target":34962
		},
		{
			"buffer":0,
			"byteLength":3972,
			"byteOffset":229284,
			"target":34962
		},
		{
			"buffer":0,
			"byteLength":2648,
			"byteOffset":233256,
			"target":34962
		},
		{
			"buffer":0,
			"byteLength":3276,
			"byteOffset":235904,
			"target":34963
		},
		{
			"buffer":0,
			"byteLength":504,
			"byteOffset":239180,
			"target":34962
		},
		{
			"buffer":0,
			"byteLength":504,
			"byteOffset":239684,
			"target":34962
		},
		{
			"buffer":0,
			"byteLength":336,
			"byteOffset":240188,
			"target":34962
		},
		{
			"buffer":0,
			"byteLength":288,
			"byteOffset":240524,
			"target":34963
		},
		{
			"buffer":0,
			"byteLength":1284,
			"byteOffset":240812,
			"target":34962
		},
		{
			"buffer":0,
			"byteLength":1284,
			"byteOffset":242096,
			"target":34962
		},
		{
			"buffer":0,
			"byteLength":856,
			"byteOffset":243380,
			"target":34962
		},
		{
			"buffer":0,
			"byteLength":804,
			"byteOffset":244236,
			"target":34963
		},
		{
			"buffer":0,
			"byteLength":1332,
			"byteOffset":245040,
			"target":34962
		},
		{
			"buffer":0,
			"byteLength":1332,
			"byteOffset":246372,
			"target":34962
		},
		{
			"buffer":0,
			"byteLength":888,
			"byteOffset":247704,
			"target":34962
		},
		{
			"buffer":0,
			"byteLength":732,
			"byteOffset":248592,
			"target":34963
		},
		{
			"buffer":0,
			"byteLength":1140,
			"byteOffset":249324,
			"target":34962
		},
		{
			"buffer":0,
			"byteLength":1140,
			"byteOffset":250464,
			"target":34962
		},
		{
			"buffer":0,
			"byteLength":760,
			"byteOffset":251604,
			"target":34962
		},
		{
			"buffer":0,
			"byteLength":552,
			"byteOffset":252364,
			"target":34963
		}
	],
	"buffers":[
		{
			"byteLength":252916,
			"uri":"model.bin"
		}
	]
}
