{
	"asset":{
		"generator":"Khronos glTF Blender I/O v5.0.21",
		"version":"2.0"
	},
	"scene":0,
	"scenes":[
		{
			"name":"Scene",
			"nodes":[
				0
			]
		}
	],
	"nodes":[
		{
			"mesh":0,
			"name":"Cube",
			"translation":[
				0,
				5,
				0
			]
		}
	],
	"materials":[
		{
			"doubleSided":true,
			"name":"Material",
			"pbrMetallicRoughness":{
				"metallicFactor":0,
				"roughnessFactor":0.5
			}
		},
		{
			"doubleSided":true,
			"name":"Material.001",
			"pbrMetallicRoughness":{
				"metallicFactor":0,
				"roughnessFactor":0.5
			}
		},
		{
			"doubleSided":true,
			"name":"Material.003",
			"pbrMetallicRoughness":{
				"metallicFactor":0,
				"roughnessFactor":0.5
			}
		}
	],
	"meshes":[
		{
			"name":"Cube",
			"primitives":[
				{
					"attributes":{
						"POSITION":0,
						"NORMAL":1,
						"TEXCOORD_0":2
					},
					"indices":3,
					"material":0
				},
				{
					"attributes":{
						"POSITION":4,
						"NORMAL":5,
						"TEXCOORD_0":6
					},
					"indices":7,
					"material":1
				},
				{
					"attributes":{
						"POSITION":8,
						"NORMAL":9,
						"TEXCOORD_0":10
					},
					"indices":11,
					"material":2
				}
			]
		}
	],
	"accessors":[
		{
			"bufferView":0,
			"componentType":5126,
			"count":2247,
			"max":[
				10.000000953674316,
				14.507888793945312,
				10.000000953674316
			],
			"min":[
				-10,
				-5,
				-10.000000953674316
			],
			"type":"VEC3"
		},
		{
			"bufferView":1,
			"componentType":5126,
			"count":2247,
			"type":"VEC3"
		},
		{
			"bufferView":2,
			"componentType":5126,
			"count":2247,
			"type":"VEC2"
		},
		{
			"bufferView":3,
			"componentType":5123,
			"count":3537,
			"type":"SCALAR"
		},
		{
			"bufferView":4,
			"componentType":5126,
			"count":1792,
			"max":[
				8.768000602722168,
				12.115889549255371,
				8.767999649047852
			],
			"min":[
				-8.767999649047852,
				11.89988899230957,
				-8.768000602722168
			],
			"type":"VEC3"
		},
		{
			"bufferView":5,
			"componentType":5126,
			"count":1792,
			"type":"VEC3"
		},
		{
			"bufferView":6,
			"componentType":5126,
			"count":1792,
			"type":"VEC2"
		},
		{
			"bufferView":7,
			"componentType":5123,
			"count":2688,
			"type":"SCALAR"
		},
		{
			"bufferView":8,
			"componentType":5126,
			"count":572,
			"max":[
				9.500000953674316,
				13.508769989013672,
				9.515385627746582
			],
			"min":[
				-9.51538372039795,
				-5,
				-9.51538372039795
			],
			"type":"VEC3"
		},
		{
			"bufferView":9,
			"componentType":5126,
			"count":572,
			"type":"VEC3"
		},
		{
			"bufferView":10,
			"componentType":5126,
			"count":572,
			"type":"VEC2"
		},
		{
			"bufferView":11,
			"componentType":5123,
			"count":858,
			"type":"SCALAR"
		}
	],
	"bufferViews":[
		{
			"buffer":0,
			"byteLength":26964,
			"byteOffset":0,
			"target":34962
		},
		{
			"buffer":0,
			"byteLength":26964,
			"byteOffset":26964,
			"target":34962
		},
		{
			"buffer":0,
			"byteLength":17976,
			"byteOffset":53928,
			"target":34962
		},
		{
			"buffer":0,
			"byteLength":7074,
			"byteOffset":71904,
			"target":34963
		},
		{
			"buffer":0,
			"byteLength":21504,
			"byteOffset":78980,
			"target":34962
		},
		{
			"buffer":0,
			"byteLength":21504,
			"byteOffset":100484,
			"target":34962
		},
		{
			"buffer":0,
			"byteLength":14336,
			"byteOffset":121988,
			"target":34962
		},
		{
			"buffer":0,
			"byteLength":5376,
			"byteOffset":136324,
			"target":34963
		},
		{
			"buffer":0,
			"byteLength":6864,
			"byteOffset":141700,
			"target":34962
		},
		{
			"buffer":0,
			"byteLength":6864,
			"byteOffset":148564,
			"target":34962
		},
		{
			"buffer":0,
			"byteLength":4576,
			"byteOffset":155428,
			"target":34962
		},
		{
			"buffer":0,
			"byteLength":1716,
			"byteOffset":160004,
			"target":34963
		}
	],
	"buffers":[
		{
			"byteLength":161720,
			"uri":"model.bin"
		}
	]
}
