{
	"asset":{
		"generator":"Khronos glTF Blender I/O v5.0.21",
		"version":"2.0"
	},
	"scene":0,
	"scenes":[
		{
			"name":"Scene",
			"nodes":[
				0
			]
		}
	],
	"nodes":[
		{
			"mesh":0,
			"name":"Cube",
			"translation":[
				0,
				5,
				0
			]
		}
	],
	"materials":[
		{
			"doubleSided":true,
			"name":"Material",
			"pbrMetallicRoughness":{
				"metallicFactor":0,
				"roughnessFactor":0.5
			}
		},
		{
			"doubleSided":true,
			"name":"Material.001",
			"pbrMetallicRoughness":{
				"metallicFactor":0,
				"roughnessFactor":0.5
			}
		},
		{
			"doubleSided":true,
			"name":"Material.003",
			"pbrMetallicRoughness":{
				"metallicFactor":0,
				"roughnessFactor":0.5
			}
		}
	],
	"meshes":[
		{
			"name":"Cube",
			"primitives":[
				{
					"attributes":{
						"POSITION":0,
						"NORMAL":1,
						"TEXCOORD_0":2
					},
					"indices":3,
					"material":0
				},
				{
					"attributes":{
						"POSITION":4,
						"NORMAL":5,
						"TEXCOORD_0":6
					},
					"indices":7,
					"material":1
				},
				{
					"attributes":{
						"POSITION":8,
						"NORMAL":9,
						"TEXCOORD_0":10
					},
					"indices":11,
					"material":2
				}
			]
		}
	],
	"accessors":[
		{
			"bufferView":0,
			"componentType":5126,
			"count":2049,
			"max":[
				10.000000953674316,
				6.500000476837158,
				10.000000953674316
			],
			"min":[
				-10,
				-5,
				-10.000000953674316
			],
			"type":"VEC3"
		},
		{
			"bufferView":1,
			"componentType":5126,
			"count":2049,
			"type":"VEC3"
		},
		{
			"bufferView":2,
			"componentType":5126,
			"count":2049,
			"type":"VEC2"
		},
		{
			"bufferView":3,
			"componentType":5123,
			"count":3237,
			"type":"SCALAR"
		},
		{
			"bufferView":4,
			"componentType":5126,
			"count":1792,
			"max":[
				8.768000602722168,
				4.108000755310059,
				8.767999649047852
			],
			"min":[
				-8.767999649047852,
				3.892000198364258,
				-8.768000602722168
			],
			"type":"VEC3"
		},
		{
			"bufferView":5,
			"componentType":5126,
			"count":1792,
			"type":"VEC3"
		},
		{
			"bufferView":6,
			"componentType":5126,
			"count":1792,
			"type":"VEC2"
		},
		{
			"bufferView":7,
			"componentType":5123,
			"count":2688,
			"type":"SCALAR"
		},
		{
			"bufferView":8,
			"componentType":5126,
			"count":220,
			"max":[
				9.500000953674316,
				5.500881195068359,
				9.515385627746582
			],
			"min":[
				-9.51538372039795,
				-5,
				-9.51538372039795
			],
			"type":"VEC3"
		},
		{
			"bufferView":9,
			"componentType":5126,
			"count":220,
			"type":"VEC3"
		},
		{
			"bufferView":10,
			"componentType":5126,
			"count":220,
			"type":"VEC2"
		},
		{
			"bufferView":11,
			"componentType":5123,
			"count":330,
			"type":"SCALAR"
		}
	],
	"bufferViews":[
		{
			"buffer":0,
			"byteLength":24588,
			"byteOffset":0,
			"target":34962
		},
		{
			"buffer":0,
			"byteLength":24588,
			"byteOffset":24588,
			"target":34962
		},
		{
			"buffer":0,
			"byteLength":16392,
			"byteOffset":49176,
			"target":34962
		},
		{
			"buffer":0,
			"byteLength":6474,
			"byteOffset":65568,
			"target":34963
		},
		{
			"buffer":0,
			"byteLength":21504,
			"byteOffset":72044,
			"target":34962
		},
		{
			"buffer":0,
			"byteLength":21504,
			"byteOffset":93548,
			"target":34962
		},
		{
			"buffer":0,
			"byteLength":14336,
			"byteOffset":115052,
			"target":34962
		},
		{
			"buffer":0,
			"byteLength":5376,
			"byteOffset":129388,
			"target":34963
		},
		{
			"buffer":0,
			"byteLength":2640,
			"byteOffset":134764,
			"target":34962
		},
		{
			"buffer":0,
			"byteLength":2640,
			"byteOffset":137404,
			"target":34962
		},
		{
			"buffer":0,
			"byteLength":1760,
			"byteOffset":140044,
			"target":34962
		},
		{
			"buffer":0,
			"byteLength":660,
			"byteOffset":141804,
			"target":34963
		}
	],
	"buffers":[
		{
			"byteLength":142464,
			"uri":"model.bin"
		}
	]
}
