{
	"asset":{
		"generator":"Khronos glTF Blender I/O v5.0.21",
		"version":"2.0"
	},
	"scene":0,
	"scenes":[
		{
			"name":"Scene",
			"nodes":[
				0
			]
		}
	],
	"nodes":[
		{
			"mesh":0,
			"name":"Cube",
			"translation":[
				0,
				5,
				0
			]
		}
	],
	"materials":[
		{
			"doubleSided":true,
			"name":"Material",
			"pbrMetallicRoughness":{
				"metallicFactor":0,
				"roughnessFactor":0.5
			}
		},
		{
			"doubleSided":true,
			"name":"Material.001",
			"pbrMetallicRoughness":{
				"metallicFactor":0,
				"roughnessFactor":0.5
			}
		},
		{
			"doubleSided":true,
			"name":"Material.003",
			"pbrMetallicRoughness":{
				"metallicFactor":0,
				"roughnessFactor":0.5
			}
		},
		{
			"doubleSided":true,
			"name":"Material.002",
			"pbrMetallicRoughness":{
				"metallicFactor":0,
				"roughnessFactor":0.5
			}
		}
	],
	"meshes":[
		{
			"name":"Cube",
			"primitives":[
				{
					"attributes":{
						"POSITION":0,
						"NORMAL":1,
						"TEXCOORD_0":2
					},
					"indices":3,
					"material":0
				},
				{
					"attributes":{
						"POSITION":4,
						"NORMAL":5,
						"TEXCOORD_0":6
					},
					"indices":7,
					"material":1
				},
				{
					"attributes":{
						"POSITION":8,
						"NORMAL":9,
						"TEXCOORD_0":10
					},
					"indices":11,
					"material":2
				},
				{
					"attributes":{
						"POSITION":12,
						"NORMAL":13,
						"TEXCOORD_0":14
					},
					"indices":15,
					"material":3
				}
			]
		}
	],
	"accessors":[
		{
			"bufferView":0,
			"componentType":5126,
			"count":1751,
			"max":[
				10.000000953674316,
				6.500000476837158,
				10.000000953674316
			],
			"min":[
				-10,
				-5,
				-10.000000953674316
			],
			"type":"VEC3"
		},
		{
			"bufferView":1,
			"componentType":5126,
			"count":1751,
			"type":"VEC3"
		},
		{
			"bufferView":2,
			"componentType":5126,
			"count":1751,
			"type":"VEC2"
		},
		{
			"bufferView":3,
			"componentType":5123,
			"count":2727,
			"type":"SCALAR"
		},
		{
			"bufferView":4,
			"componentType":5126,
			"count":1792,
			"max":[
				8.768000602722168,
				4.108000755310059,
				8.767999649047852
			],
			"min":[
				-8.767999649047852,
				3.892000198364258,
				-8.768000602722168
			],
			"type":"VEC3"
		},
		{
			"bufferView":5,
			"componentType":5126,
			"count":1792,
			"type":"VEC3"
		},
		{
			"bufferView":6,
			"componentType":5126,
			"count":1792,
			"type":"VEC2"
		},
		{
			"bufferView":7,
			"componentType":5123,
			"count":2688,
			"type":"SCALAR"
		},
		{
			"bufferView":8,
			"componentType":5126,
			"count":216,
			"max":[
				9.500000953674316,
				5.500881195068359,
				9.515385627746582
			],
			"min":[
				-9.51538372039795,
				-5,
				-9.51538372039795
			],
			"type":"VEC3"
		},
		{
			"bufferView":9,
			"componentType":5126,
			"count":216,
			"type":"VEC3"
		},
		{
			"bufferView":10,
			"componentType":5126,
			"count":216,
			"type":"VEC2"
		},
		{
			"bufferView":11,
			"componentType":5123,
			"count":324,
			"type":"SCALAR"
		},
		{
			"bufferView":12,
			"componentType":5126,
			"count":324,
			"max":[
				9.5,
				-1,
				9.500000953674316
			],
			"min":[
				-9.5,
				-5,
				-9.5
			],
			"type":"VEC3"
		},
		{
			"bufferView":13,
			"componentType":5126,
			"count":324,
			"type":"VEC3"
		},
		{
			"bufferView":14,
			"componentType":5126,
			"count":324,
			"type":"VEC2"
		},
		{
			"bufferView":15,
			"componentType":5123,
			"count":516,
			"type":"SCALAR"
		}
	],
	"bufferViews":[
		{
			"buffer":0,
			"byteLength":21012,
			"byteOffset":0,
			"target":34962
		},
		{
			"buffer":0,
			"byteLength":21012,
			"byteOffset":21012,
			"target":34962
		},
		{
			"buffer":0,
			"byteLength":14008,
			"byteOffset":42024,
			"target":34962
		},
		{
			"buffer":0,
			"byteLength":5454,
			"byteOffset":56032,
			"target":34963
		},
		{
			"buffer":0,
			"byteLength":21504,
			"byteOffset":61488,
			"target":34962
		},
		{
			"buffer":0,
			"byteLength":21504,
			"byteOffset":82992,
			"target":34962
		},
		{
			"buffer":0,
			"byteLength":14336,
			"byteOffset":104496,
			"target":34962
		},
		{
			"buffer":0,
			"byteLength":5376,
			"byteOffset":118832,
			"target":34963
		},
		{
			"buffer":0,
			"byteLength":2592,
			"byteOffset":124208,
			"target":34962
		},
		{
			"buffer":0,
			"byteLength":2592,
			"byteOffset":126800,
			"target":34962
		},
		{
			"buffer":0,
			"byteLength":1728,
			"byteOffset":129392,
			"target":34962
		},
		{
			"buffer":0,
			"byteLength":648,
			"byteOffset":131120,
			"target":34963
		},
		{
			"buffer":0,
			"byteLength":3888,
			"byteOffset":131768,
			"target":34962
		},
		{
			"buffer":0,
			"byteLength":3888,
			"byteOffset":135656,
			"target":34962
		},
		{
			"buffer":0,
			"byteLength":2592,
			"byteOffset":139544,
			"target":34962
		},
		{
			"buffer":0,
			"byteLength":1032,
			"byteOffset":142136,
			"target":34963
		}
	],
	"buffers":[
		{
			"byteLength":143168,
			"uri":"model.bin"
		}
	]
}
