# by drummyfish, released under CC0 1.0, public domain 
v -4.547994 -0.856596 4.464633
v 4.547993 -0.856596 -4.464637
v 4.547993 -0.856596 4.464633
v -4.547994 -0.856596 -4.464637
v 4.547993 -0.856596 0.889554
v -4.547994 -0.856596 -0.889545
v -4.547994 -0.856596 0.889554
v 4.547993 -0.856596 -0.889545
v -0.594810 -0.856596 4.464633
v -3.443648 -0.856596 -4.464637
v 0.594806 -0.856596 -4.464637
v 3.443650 -0.856596 -4.464637
v -0.594810 -0.856596 -4.464637
v -3.443648 -0.856596 4.464633
v 0.594806 -0.856596 4.464633
v 3.443650 -0.856596 4.464633
v -0.594810 -0.856596 -0.889545
v -3.443648 -0.856596 0.889554
v 0.594806 -0.856596 0.889554
v 3.443650 -0.856596 0.889554
v -0.594810 -0.856596 0.889554
v -3.443648 -0.856596 -0.889545
v 0.594806 -0.856596 -0.889545
v 3.443650 -0.856596 -0.889545
v 3.443650 0.069359 6.100415
v -3.443648 0.069359 6.100415
v 3.443650 0.069359 -6.100418
v -3.443648 0.069359 -6.100418
v -0.594810 0.069359 -6.100418
v -0.594810 0.069359 6.100415
v 0.594806 0.069359 6.100415
v 0.594806 0.069359 -6.100418
v -0.594810 0.069359 4.464633
v -3.443648 0.069359 -4.464637
v 0.594806 0.069359 -4.464637
v 3.443650 0.069359 -4.464637
v -0.594810 0.069359 -4.464637
v -3.443648 0.069359 4.464633
v 0.594806 0.069359 4.464633
v 3.443650 0.069359 4.464633
v -0.594810 0.069359 -0.889545
v -3.443648 0.069359 0.889554
v 0.594806 0.069359 0.889554
v 3.443650 0.069359 0.889554
v -0.594810 0.069359 0.889554
v -3.443648 0.069359 -0.889545
v 0.594806 0.069359 -0.889545
v 3.443650 0.069359 -0.889545
v -4.547994 -1.076231 6.100415
v 4.547993 -1.076231 6.100415
v -4.547994 -1.076231 -6.100418
v 4.547993 -1.076231 -6.100418
v 3.443650 -1.076231 6.100415
v -3.443648 -1.076231 6.100415
v 3.443650 -1.076231 -6.100418
v -3.443648 -1.076231 -6.100418
v -0.594810 -1.076231 -6.100418
v -0.594810 -1.076231 6.100415
v 0.594806 -1.076231 6.100415
v 0.594806 -1.076231 -6.100418
v 0.594806 0.360927 -6.100418
v -3.443648 0.360927 6.100415
v 3.443650 0.360927 6.100415
v 0.594806 0.360927 6.100415
v -0.594810 0.360927 6.100415
v -0.594810 0.360927 -6.100418
v -3.443648 0.360927 -6.100418
v 3.443650 0.360927 -6.100418
v -4.547994 0.360927 4.464633
v 4.547993 0.360927 -4.464637
v 4.547993 0.360927 4.464633
v -4.547994 0.360927 -4.464637
v 4.547993 0.360927 0.889554
v -4.547994 0.360927 -0.889545
v -4.547994 0.360927 0.889554
v 4.547993 0.360927 -0.889545
v -0.594810 0.360927 4.464633
v -3.443648 0.360927 -4.464637
v 0.594806 0.360927 -4.464637
v 3.443650 0.360927 -4.464637
v -0.594810 0.360927 -4.464637
v -3.443648 0.360927 4.464633
v 0.594806 0.360927 4.464633
v 3.443650 0.360927 4.464633
v -0.594810 0.360927 -0.889545
v -3.443648 0.360927 0.889554
v 0.594806 0.360927 0.889554
v 3.443650 0.360927 0.889554
v -0.594810 0.360927 0.889554
v -3.443648 0.360927 -0.889545
v 0.594806 0.360927 -0.889545
v 3.443650 0.360927 -0.889545
v -2.588991 0.360927 4.464633
v 2.588996 0.360927 4.464633
v 2.588996 0.360927 0.889554
v -1.449456 0.360927 0.889554
v -2.588991 0.360927 -0.889545
v 2.588996 0.360927 -0.889545
v 2.588996 0.360927 -4.464637
v -1.449456 0.360927 -4.464637
v -1.449456 0.360927 6.100415
v 1.449458 0.360927 6.100415
v 1.449458 0.360927 -6.100418
v -1.449456 0.360927 -6.100418
v -1.449456 0.360927 4.464633
v 1.449458 0.360927 4.464633
v 1.449458 0.360927 0.889554
v -2.588991 0.360927 0.889554
v -1.449456 0.360927 -0.889545
v 1.449458 0.360927 -0.889545
v 1.449458 0.360927 -4.464637
v -2.588991 0.360927 -4.464637
v -2.588991 0.360927 6.100415
v 2.588996 0.360927 6.100415
v 2.588996 0.360927 -6.100418
v -2.588991 0.360927 -6.100418
v -4.547994 0.579827 6.100415
v 3.443650 0.579827 6.100415
v 4.547993 0.579827 6.100415
v 4.547993 0.579827 -6.100418
v 3.443650 0.579827 -6.100418
v -0.594810 0.579827 6.100415
v -0.594810 0.579827 -6.100418
v 0.594806 0.579827 -6.100418
v -3.443648 0.579827 6.100415
v -4.547994 0.579827 -6.100418
v -3.443648 0.579827 -6.100418
v 0.594806 0.579827 6.100415
v 1.449458 0.579827 -6.100418
v 2.588996 0.579827 -6.100418
v -1.449456 0.579827 -6.100418
v -2.588991 0.579827 6.100415
v 1.449458 0.579827 6.100415
v -1.449456 0.579827 6.100415
v -2.588991 0.579827 -6.100418
v 2.588996 0.579827 6.100415
vn 0.0000 0.0000 -1.0000
vn -0.0000 0.0000 1.0000
vn -1.0000 0.0000 0.0000
vn 1.0000 0.0000 0.0000
vn 0.0000 1.0000 0.0000
vn 0.0000 -1.0000 0.0000
s 1
f 33//1 39//1 15//1
f 15//1 9//1 33//1
f 106//1 39//1 83//1
f 93//1 105//1 33//1
f 94//1 84//1 40//1
f 33//1 105//1 77//1
f 106//1 94//1 40//1
f 40//1 39//1 106//1
f 33//1 38//1 93//1
f 93//1 38//1 82//1
f 82//1 38//1 69//1
f 84//1 71//1 40//1
f 14//1 1//1 38//1
f 16//1 40//1 3//1
f 3//1 40//1 71//1
f 1//1 69//1 38//1
f 83//1 39//1 77//1
f 33//1 77//1 39//1
s 2
f 73//2 88//2 44//2
f 5//2 73//2 44//2
f 20//2 5//2 44//2
f 7//2 42//2 75//2
f 18//2 42//2 7//2
f 21//2 19//2 43//2
f 43//2 45//2 21//2
f 43//2 44//2 95//2
f 75//2 42//2 86//2
f 95//2 107//2 43//2
f 42//2 45//2 96//2
f 96//2 108//2 42//2
f 108//2 86//2 42//2
f 107//2 87//2 43//2
f 44//2 88//2 95//2
f 96//2 45//2 89//2
f 89//2 45//2 87//2
f 43//2 87//2 45//2
s 3
f 76//1 8//1 48//1
f 24//1 48//1 8//1
f 41//1 47//1 23//1
f 23//1 17//1 41//1
f 22//1 6//1 46//1
f 90//1 46//1 74//1
f 41//1 85//1 47//1
f 110//1 98//1 48//1
f 48//1 92//1 76//1
f 97//1 46//1 90//1
f 91//1 47//1 85//1
f 98//1 92//1 48//1
f 109//1 85//1 41//1
f 97//1 41//1 46//1
f 48//1 47//1 110//1
f 109//1 41//1 97//1
f 46//1 6//1 74//1
f 47//1 91//1 110//1
s 4
f 52//1 27//1 120//1
f 27//1 52//1 55//1
f 120//1 68//1 121//1
f 120//1 27//1 68//1
s 5
f 117//2 26//2 62//2
f 54//2 26//2 49//2
f 26//2 117//2 49//2
f 125//2 117//2 62//2
s 6
f 28//1 126//1 67//1
f 28//1 51//1 126//1
f 67//1 126//1 127//1
f 56//1 51//1 28//1
s 7
f 27//3 55//3 12//3
f 27//3 12//3 36//3
f 44//3 48//3 24//3
f 20//3 44//3 24//3
f 25//3 40//3 16//3
f 25//3 16//3 53//3
f 20//3 53//3 16//3
f 53//3 20//3 55//3
f 20//3 24//3 55//3
f 12//3 55//3 24//3
s 8
f 37//3 29//3 13//3
f 41//3 17//3 45//3
f 21//3 45//3 17//3
f 33//3 9//3 30//3
f 29//3 57//3 13//3
f 30//3 9//3 58//3
f 9//3 21//3 58//3
f 58//3 21//3 57//3
f 21//3 17//3 57//3
f 13//3 57//3 17//3
s 9
f 32//4 11//4 60//4
f 60//4 23//4 59//4
f 15//4 31//4 59//4
f 60//4 11//4 23//4
f 39//4 31//4 15//4
f 43//4 19//4 47//4
f 19//4 23//4 47//4
f 35//4 11//4 32//4
f 23//4 19//4 59//4
f 19//4 15//4 59//4
s 10
f 76//4 73//4 5//4
f 8//4 5//4 50//4
f 5//4 3//4 50//4
f 52//4 8//4 50//4
f 52//4 2//4 8//4
f 50//4 71//4 119//4
f 5//4 8//4 76//4
f 50//4 3//4 71//4
f 52//4 120//4 70//4
f 52//4 70//4 2//4
f 70//4 120//4 76//4
f 120//4 119//4 76//4
f 76//4 119//4 73//4
f 71//4 73//4 119//4
s 11
f 29//1 60//1 57//1
f 32//1 60//1 29//1
f 29//1 61//1 32//1
f 29//1 66//1 61//1
s 12
f 28//4 10//4 56//4
f 14//4 38//4 26//4
f 26//4 54//4 14//4
f 28//4 34//4 10//4
f 42//4 18//4 46//4
f 18//4 22//4 46//4
f 10//4 22//4 56//4
f 56//4 22//4 54//4
f 22//4 18//4 54//4
f 14//4 54//4 18//4
s 13
f 1//3 49//3 69//3
f 72//3 51//3 4//3
f 49//3 117//3 69//3
f 75//3 74//3 6//3
f 1//3 7//3 49//3
f 49//3 7//3 51//3
f 7//3 6//3 51//3
f 6//3 4//3 51//3
f 51//3 72//3 126//3
f 7//3 75//3 6//3
f 126//3 75//3 117//3
f 69//3 117//3 75//3
f 75//3 126//3 74//3
f 126//3 72//3 74//3
s 14
f 50//2 25//2 53//2
f 119//2 118//2 63//2
f 25//2 50//2 119//2
f 25//2 119//2 63//2
s 15
f 31//2 30//2 58//2
f 31//2 58//2 59//2
f 31//2 65//2 30//2
f 31//2 64//2 65//2
s 16
f 1//5 14//5 7//5
f 14//5 18//5 7//5
s 17
f 9//5 15//5 21//5
f 15//5 19//5 21//5
s 18
f 16//5 3//5 20//5
f 3//5 5//5 20//5
s 19
f 6//5 22//5 4//5
f 22//5 10//5 4//5
s 20
f 17//5 23//5 13//5
f 23//5 11//5 13//5
s 21
f 24//5 8//5 12//5
f 8//5 2//5 12//5
s 22
f 10//2 34//2 4//2
f 13//2 11//2 35//2
f 35//2 37//2 13//2
f 35//2 36//2 99//2
f 34//2 112//2 78//2
f 34//2 37//2 100//2
f 79//2 35//2 111//2
f 99//2 111//2 35//2
f 37//2 81//2 100//2
f 112//2 34//2 100//2
f 36//2 80//2 99//2
f 37//2 35//2 79//2
f 81//2 37//2 79//2
f 80//2 36//2 70//2
f 78//2 72//2 34//2
f 72//2 4//2 34//2
f 70//2 36//2 2//2
f 12//2 2//2 36//2
s 23
f 26//6 38//6 30//6
f 33//6 30//6 38//6
s 24
f 40//6 25//6 39//6
f 31//6 39//6 25//6
s 25
f 45//6 46//6 41//6
f 46//6 45//6 42//6
s 26
f 29//6 37//6 28//6
f 34//6 28//6 37//6
s 27
f 35//6 32//6 36//6
f 27//6 36//6 32//6
s 28
f 51//6 56//6 49//6
f 49//6 56//6 54//6
s 29
f 60//6 58//6 57//6
f 58//6 60//6 59//6
s 30
f 55//6 52//6 53//6
f 53//6 52//6 50//6
s 31
f 78//6 74//6 72//6
f 74//6 78//6 90//6
s 32
f 47//6 48//6 44//6
f 47//6 44//6 43//6
s 33
f 75//6 86//6 69//6
f 69//6 86//6 82//6
s 34
f 32//1 61//1 103//1
f 103//1 115//1 27//1
f 27//1 32//1 103//1
f 115//1 68//1 27//1
s 35
f 65//2 101//2 30//2
f 113//2 26//2 101//2
f 113//2 62//2 26//2
f 26//2 30//2 101//2
s 36
f 116//1 104//1 29//1
f 29//1 28//1 116//1
f 104//1 66//1 29//1
f 28//1 67//1 116//1
s 37
f 79//6 85//6 81//6
f 91//6 85//6 79//6
s 38
f 70//6 92//6 80//6
f 92//6 70//6 76//6
s 39
f 88//6 73//6 84//6
f 84//6 73//6 71//6
s 40
f 108//6 96//6 93//6
f 93//6 96//6 105//6
s 41
f 112//6 100//6 97//6
f 109//6 97//6 100//6
s 42
f 111//6 99//6 110//6
f 110//6 99//6 98//6
s 43
f 107//6 95//6 106//6
f 106//6 95//6 94//6
s 44
f 102//2 64//2 31//2
f 25//2 63//2 114//2
f 31//2 25//2 114//2
f 102//2 31//2 114//2
s 45
f 101//5 65//5 105//5
f 77//5 105//5 65//5
s 46
f 101//2 132//2 113//2
f 134//2 132//2 101//2
s 47
f 64//2 122//2 65//2
f 128//2 122//2 64//2
s 48
f 114//2 133//2 102//2
f 136//2 133//2 114//2
s 49
f 116//1 131//1 104//1
f 135//1 131//1 116//1
s 50
f 61//1 66//1 124//1
f 123//1 124//1 66//1
s 51
f 115//1 103//1 130//1
f 103//1 129//1 130//1
s 52
f 125//5 126//5 117//5
f 127//5 126//5 125//5
s 53
f 134//5 135//5 132//5
f 131//5 135//5 134//5
s 54
f 122//5 128//5 123//5
f 124//5 123//5 128//5
s 55
f 133//5 136//5 129//5
f 130//5 129//5 136//5
s 56
f 119//5 121//5 118//5
f 120//5 121//5 119//5
s 57
f 136//4 98//4 130//4
f 98//4 99//4 130//4
f 115//4 130//4 99//4
f 98//4 136//4 95//4
f 95//4 136//4 94//4
f 114//4 94//4 136//4
s 58
f 61//4 124//4 79//4
f 91//4 79//4 124//4
f 124//4 128//4 91//4
f 83//4 128//4 64//4
f 87//4 128//4 83//4
f 91//4 128//4 87//4
s 59
f 134//4 109//4 131//4
f 109//4 100//4 131//4
f 104//4 131//4 100//4
f 105//4 134//4 101//4
f 105//4 96//4 134//4
f 109//4 134//4 96//4
s 60
f 67//4 127//4 78//4
f 90//4 78//4 127//4
f 127//4 125//4 90//4
f 125//4 62//4 82//4
f 82//4 86//4 125//4
f 90//4 125//4 86//4
s 61
f 121//3 88//3 118//3
f 88//3 84//3 118//3
f 84//3 63//3 118//3
f 68//3 80//3 121//3
f 92//3 121//3 80//3
f 92//3 88//3 121//3
s 62
f 129//3 107//3 133//3
f 107//3 106//3 133//3
f 106//3 102//3 133//3
f 103//3 111//3 129//3
f 111//3 110//3 129//3
f 110//3 107//3 129//3
s 63
f 123//3 89//3 122//3
f 89//3 77//3 122//3
f 65//3 122//3 77//3
f 81//3 123//3 66//3
f 85//3 123//3 81//3
f 89//3 123//3 85//3
s 64
f 135//3 108//3 132//3
f 108//3 93//3 132//3
f 113//3 132//3 93//3
f 108//3 135//3 97//3
f 112//3 97//3 135//3
f 116//3 112//3 135//3
s 65
f 93//5 82//5 113//5
f 62//5 113//5 82//5
s 66
f 64//5 102//5 83//5
f 102//5 106//5 83//5
s 67
f 84//5 94//5 63//5
f 94//5 114//5 63//5
s 68
f 68//5 115//5 80//5
f 115//5 99//5 80//5
s 69
f 103//5 61//5 111//5
f 61//5 79//5 111//5
s 70
f 66//5 104//5 81//5
f 104//5 100//5 81//5
s 71
f 116//5 67//5 112//5
f 67//5 78//5 112//5
s 72
f 97//5 90//5 108//5
f 90//5 86//5 108//5
s 73
f 85//5 109//5 89//5
f 109//5 96//5 89//5
s 74
f 110//5 91//5 107//5
f 91//5 87//5 107//5
s 75
f 92//5 98//5 88//5
f 98//5 95//5 88//5
s 76
f 89//6 87//6 77//6
f 77//6 87//6 83//6
