{
	"asset":{
		"generator":"Khronos glTF Blender I/O v5.0.21",
		"version":"2.0"
	},
	"scene":0,
	"scenes":[
		{
			"name":"Scene",
			"nodes":[
				0,
				1,
				2,
				3,
				4,
				5
			]
		}
	],
	"nodes":[
		{
			"mesh":0,
			"name":"sapato",
			"scale":[
				0.13530489802360535,
				0.13530489802360535,
				0.13530489802360535
			],
			"translation":[
				-0.000335007905960083,
				0.001035928726196289,
				0
			]
		},
		{
			"mesh":1,
			"name":"pestana",
			"rotation":[
				0.9814881682395935,
				-0.003920621704310179,
				-0.00888041965663433,
				0.19127720594406128
			],
			"scale":[
				0.010785975493490696,
				0.010785973630845547,
				0.01078597642481327
			],
			"translation":[
				0.001350428443402052,
				5.944711208343506,
				0.25468477606773376
			]
		},
		{
			"mesh":2,
			"name":"olho",
			"rotation":[
				0.70710688829422,
				0,
				0,
				0.7071066498756409
			],
			"translation":[
				0,
				0.04639699310064316,
				-0.025104982778429985
			]
		},
		{
			"mesh":3,
			"name":"face",
			"rotation":[
				0.7070969343185425,
				-0.0037423642352223396,
				0.0037423651665449142,
				0.7070968151092529
			],
			"translation":[
				-0.005969800986349583,
				0.04759694263339043,
				-0.0035439806524664164
			]
		},
		{
			"mesh":4,
			"name":"corpo",
			"rotation":[
				0.70710688829422,
				0,
				0,
				0.7071066498756409
			]
		},
		{
			"mesh":5,
			"name":"cabelo",
			"rotation":[
				0.7070969343185425,
				-0.0037423642352223396,
				0.0037423651665449142,
				0.7070968151092529
			],
			"translation":[
				-0.005969800986349583,
				0.04759694263339043,
				-0.0035439806524664164
			]
		}
	],
	"materials":[
		{
			"doubleSided":true,
			"name":"Material.012",
			"pbrMetallicRoughness":{
				"baseColorFactor":[
					0.09305897355079651,
					0.0368894599378109,
					0.024157634004950523,
					1
				],
				"metallicFactor":0,
				"roughnessFactor":0.5
			}
		},
		{
			"alphaMode":"BLEND",
			"doubleSided":true,
			"name":"Material.008",
			"pbrMetallicRoughness":{
				"baseColorTexture":{
					"index":0
				},
				"metallicFactor":0,
				"roughnessFactor":0.5
			}
		},
		{
			"alphaMode":"BLEND",
			"doubleSided":true,
			"name":"Material.003",
			"pbrMetallicRoughness":{
				"baseColorTexture":{
					"index":1
				},
				"metallicFactor":0,
				"roughnessFactor":0.5
			}
		},
		{
			"alphaMode":"BLEND",
			"doubleSided":true,
			"name":"Material.001",
			"pbrMetallicRoughness":{
				"baseColorTexture":{
					"index":2
				},
				"metallicFactor":0,
				"roughnessFactor":0.5
			}
		},
		{
			"alphaMode":"BLEND",
			"doubleSided":true,
			"name":"Material.002",
			"pbrMetallicRoughness":{
				"baseColorTexture":{
					"index":3
				},
				"metallicFactor":0,
				"roughnessFactor":0.5
			}
		}
	],
	"meshes":[
		{
			"name":"Cube.010",
			"primitives":[
				{
					"attributes":{
						"POSITION":0,
						"NORMAL":1,
						"TEXCOORD_0":2
					},
					"indices":3
				}
			]
		},
		{
			"name":"Plane.002",
			"primitives":[
				{
					"attributes":{
						"POSITION":4,
						"NORMAL":5
					},
					"indices":6,
					"material":0
				}
			]
		},
		{
			"name":"Cube.009_Cube.000",
			"primitives":[
				{
					"attributes":{
						"POSITION":7,
						"NORMAL":8,
						"TEXCOORD_0":9
					},
					"indices":10,
					"material":1
				}
			]
		},
		{
			"name":"Cube.008_Cube.000",
			"primitives":[
				{
					"attributes":{
						"POSITION":11,
						"NORMAL":12,
						"TEXCOORD_0":13
					},
					"indices":14,
					"material":2
				}
			]
		},
		{
			"name":"Cube.006_Cube.001",
			"primitives":[
				{
					"attributes":{
						"POSITION":15,
						"NORMAL":16,
						"TEXCOORD_0":17
					},
					"indices":18,
					"material":3
				},
				{
					"attributes":{
						"POSITION":19,
						"NORMAL":20,
						"TEXCOORD_0":21
					},
					"indices":22,
					"material":4
				}
			]
		},
		{
			"name":"Cube.008_Cube.001",
			"primitives":[
				{
					"attributes":{
						"POSITION":23,
						"NORMAL":24,
						"TEXCOORD_0":25
					},
					"indices":26,
					"material":2
				}
			]
		}
	],
	"textures":[
		{
			"sampler":0,
			"source":0
		},
		{
			"sampler":0,
			"source":0
		},
		{
			"sampler":0,
			"source":0
		},
		{
			"sampler":0,
			"source":0
		}
	],
	"images":[
		{
			"mimeType":"image/png",
			"name":"Image",
			"uri":"Image.png"
		}
	],
	"accessors":[
		{
			"bufferView":0,
			"componentType":5126,
			"count":92,
			"max":[
				3.8716542720794678,
				4.293147087097168,
				3.503629446029663
			],
			"min":[
				-3.886605978012085,
				-0.02514934539794922,
				-2.365352153778076
			],
			"type":"VEC3"
		},
		{
			"bufferView":1,
			"componentType":5126,
			"count":92,
			"type":"VEC3"
		},
		{
			"bufferView":2,
			"componentType":5126,
			"count":92,
			"type":"VEC2"
		},
		{
			"bufferView":3,
			"componentType":5123,
			"count":498,
			"type":"SCALAR"
		},
		{
			"bufferView":4,
			"componentType":5126,
			"count":108,
			"max":[
				18.613130569458008,
				0.2585880756378174,
				9.489242553710938
			],
			"min":[
				-19.49693489074707,
				-4.400213718414307,
				1.138694405555725
			],
			"type":"VEC3"
		},
		{
			"bufferView":5,
			"componentType":5126,
			"count":108,
			"type":"VEC3"
		},
		{
			"bufferView":6,
			"componentType":5123,
			"count":312,
			"type":"SCALAR"
		},
		{
			"bufferView":7,
			"componentType":5126,
			"count":386,
			"max":[
				0.16552354395389557,
				0.22297655045986176,
				-5.828481674194336
			],
			"min":[
				-0.1801275908946991,
				0.11188100278377533,
				-5.937030792236328
			],
			"type":"VEC3"
		},
		{
			"bufferView":8,
			"componentType":5126,
			"count":386,
			"type":"VEC3"
		},
		{
			"bufferView":9,
			"componentType":5126,
			"count":386,
			"type":"VEC2"
		},
		{
			"bufferView":10,
			"componentType":5123,
			"count":2112,
			"type":"SCALAR"
		},
		{
			"bufferView":11,
			"componentType":5126,
			"count":1720,
			"max":[
				0.2938494384288788,
				0.2952788770198822,
				-5.417862415313721
			],
			"min":[
				-0.2938494384288788,
				-0.44025859236717224,
				-6.338882923126221
			],
			"type":"VEC3"
		},
		{
			"bufferView":12,
			"componentType":5126,
			"count":1720,
			"type":"VEC3"
		},
		{
			"bufferView":13,
			"componentType":5126,
			"count":1720,
			"type":"VEC2"
		},
		{
			"bufferView":14,
			"componentType":5123,
			"count":9024,
			"type":"SCALAR"
		},
		{
			"bufferView":15,
			"componentType":5126,
			"count":2935,
			"max":[
				2.870445966720581,
				0.4593470096588135,
				-0.5624330043792725
			],
			"min":[
				-2.873138904571533,
				-0.44106701016426086,
				-5.371481895446777
			],
			"type":"VEC3"
		},
		{
			"bufferView":16,
			"componentType":5126,
			"count":2935,
			"type":"VEC3"
		},
		{
			"bufferView":17,
			"componentType":5126,
			"count":2935,
			"type":"VEC2"
		},
		{
			"bufferView":18,
			"componentType":5123,
			"count":16512,
			"type":"SCALAR"
		},
		{
			"bufferView":19,
			"componentType":5126,
			"count":140,
			"max":[
				0.17278000712394714,
				0.02194100059568882,
				-5.316136837005615
			],
			"min":[
				-0.17547300457954407,
				-0.30879300832748413,
				-5.576725006103516
			],
			"type":"VEC3"
		},
		{
			"bufferView":20,
			"componentType":5126,
			"count":140,
			"type":"VEC3"
		},
		{
			"bufferView":21,
			"componentType":5126,
			"count":140,
			"type":"VEC2"
		},
		{
			"bufferView":22,
			"componentType":5123,
			"count":672,
			"type":"SCALAR"
		},
		{
			"bufferView":23,
			"componentType":5126,
			"count":1285,
			"max":[
				0.3299877941608429,
				0.33969300985336304,
				-5.583724498748779
			],
			"min":[
				-0.3299364745616913,
				-0.45387452840805054,
				-6.380654811859131
			],
			"type":"VEC3"
		},
		{
			"bufferView":24,
			"componentType":5126,
			"count":1285,
			"type":"VEC3"
		},
		{
			"bufferView":25,
			"componentType":5126,
			"count":1285,
			"type":"VEC2"
		},
		{
			"bufferView":26,
			"componentType":5123,
			"count":7320,
			"type":"SCALAR"
		}
	],
	"bufferViews":[
		{
			"buffer":0,
			"byteLength":1104,
			"byteOffset":0,
			"target":34962
		},
		{
			"buffer":0,
			"byteLength":1104,
			"byteOffset":1104,
			"target":34962
		},
		{
			"buffer":0,
			"byteLength":736,
			"byteOffset":2208,
			"target":34962
		},
		{
			"buffer":0,
			"byteLength":996,
			"byteOffset":2944,
			"target":34963
		},
		{
			"buffer":0,
			"byteLength":1296,
			"byteOffset":3940,
			"target":34962
		},
		{
			"buffer":0,
			"byteLength":1296,
			"byteOffset":5236,
			"target":34962
		},
		{
			"buffer":0,
			"byteLength":624,
			"byteOffset":6532,
			"target":34963
		},
		{
			"buffer":0,
			"byteLength":4632,
			"byteOffset":7156,
			"target":34962
		},
		{
			"buffer":0,
			"byteLength":4632,
			"byteOffset":11788,
			"target":34962
		},
		{
			"buffer":0,
			"byteLength":3088,
			"byteOffset":16420,
			"target":34962
		},
		{
			"buffer":0,
			"byteLength":4224,
			"byteOffset":19508,
			"target":34963
		},
		{
			"buffer":0,
			"byteLength":20640,
			"byteOffset":23732,
			"target":34962
		},
		{
			"buffer":0,
			"byteLength":20640,
			"byteOffset":44372,
			"target":34962
		},
		{
			"buffer":0,
			"byteLength":13760,
			"byteOffset":65012,
			"target":34962
		},
		{
			"buffer":0,
			"byteLength":18048,
			"byteOffset":78772,
			"target":34963
		},
		{
			"buffer":0,
			"byteLength":35220,
			"byteOffset":96820,
			"target":34962
		},
		{
			"buffer":0,
			"byteLength":35220,
			"byteOffset":132040,
			"target":34962
		},
		{
			"buffer":0,
			"byteLength":23480,
			"byteOffset":167260,
			"target":34962
		},
		{
			"buffer":0,
			"byteLength":33024,
			"byteOffset":190740,
			"target":34963
		},
		{
			"buffer":0,
			"byteLength":1680,
			"byteOffset":223764,
			"target":34962
		},
		{
			"buffer":0,
			"byteLength":1680,
			"byteOffset":225444,
			"target":34962
		},
		{
			"buffer":0,
			"byteLength":1120,
			"byteOffset":227124,
			"target":34962
		},
		{
			"buffer":0,
			"byteLength":1344,
			"byteOffset":228244,
			"target":34963
		},
		{
			"buffer":0,
			"byteLength":15420,
			"byteOffset":229588,
			"target":34962
		},
		{
			"buffer":0,
			"byteLength":15420,
			"byteOffset":245008,
			"target":34962
		},
		{
			"buffer":0,
			"byteLength":10280,
			"byteOffset":260428,
			"target":34962
		},
		{
			"buffer":0,
			"byteLength":14640,
			"byteOffset":270708,
			"target":34963
		}
	],
	"samplers":[
		{
			"magFilter":9729,
			"minFilter":9987
		}
	],
	"buffers":[
		{
			"byteLength":285348,
			"uri":"model.bin"
		}
	]
}
