{
	"asset":{
		"generator":"Khronos glTF Blender I/O v5.0.21",
		"version":"2.0"
	},
	"scene":0,
	"scenes":[
		{
			"name":"Scene",
			"nodes":[
				0,
				1,
				2
			]
		}
	],
	"nodes":[
		{
			"mesh":0,
			"name":"dish",
			"translation":[
				0,
				8.918636322021484,
				0
			]
		},
		{
			"mesh":1,
			"name":"support"
		},
		{
			"mesh":2,
			"name":"pipes"
		}
	],
	"materials":[
		{
			"doubleSided":true,
			"name":"radio_dish"
		}
	],
	"meshes":[
		{
			"name":"Circle",
			"primitives":[
				{
					"attributes":{
						"POSITION":0,
						"NORMAL":1,
						"TEXCOORD_0":2
					},
					"indices":3,
					"material":0
				}
			]
		},
		{
			"name":"Cube.001",
			"primitives":[
				{
					"attributes":{
						"POSITION":4,
						"NORMAL":5,
						"TEXCOORD_0":6
					},
					"indices":7,
					"material":0
				}
			]
		},
		{
			"name":"Cube.004",
			"primitives":[
				{
					"attributes":{
						"POSITION":8,
						"NORMAL":9,
						"TEXCOORD_0":10
					},
					"indices":11,
					"material":0
				}
			]
		}
	],
	"accessors":[
		{
			"bufferView":0,
			"componentType":5126,
			"count":2974,
			"max":[
				11.660249710083008,
				12.248115539550781,
				11.660249710083008
			],
			"min":[
				-11.660249710083008,
				-1.2423696517944336,
				-11.660249710083008
			],
			"type":"VEC3"
		},
		{
			"bufferView":1,
			"componentType":5126,
			"count":2974,
			"type":"VEC3"
		},
		{
			"bufferView":2,
			"componentType":5126,
			"count":2974,
			"type":"VEC2"
		},
		{
			"bufferView":3,
			"componentType":5123,
			"count":6432,
			"type":"SCALAR"
		},
		{
			"bufferView":4,
			"componentType":5126,
			"count":1976,
			"max":[
				6.889392375946045,
				10.229656219482422,
				6.889392375946045
			],
			"min":[
				-6.889392375946045,
				9.536741458759934e-07,
				-6.889392375946045
			],
			"type":"VEC3"
		},
		{
			"bufferView":5,
			"componentType":5126,
			"count":1976,
			"type":"VEC3"
		},
		{
			"bufferView":6,
			"componentType":5126,
			"count":1976,
			"type":"VEC2"
		},
		{
			"bufferView":7,
			"componentType":5123,
			"count":4278,
			"type":"SCALAR"
		},
		{
			"bufferView":8,
			"componentType":5126,
			"count":168,
			"max":[
				5.815682888031006,
				8.144451141357422,
				0.5472247004508972
			],
			"min":[
				-5.815682888031006,
				4.6924567222595215,
				-0.5472239851951599
			],
			"type":"VEC3"
		},
		{
			"bufferView":9,
			"componentType":5126,
			"count":168,
			"type":"VEC3"
		},
		{
			"bufferView":10,
			"componentType":5126,
			"count":168,
			"type":"VEC2"
		},
		{
			"bufferView":11,
			"componentType":5123,
			"count":648,
			"type":"SCALAR"
		}
	],
	"bufferViews":[
		{
			"buffer":0,
			"byteLength":35688,
			"byteOffset":0,
			"target":34962
		},
		{
			"buffer":0,
			"byteLength":35688,
			"byteOffset":35688,
			"target":34962
		},
		{
			"buffer":0,
			"byteLength":23792,
			"byteOffset":71376,
			"target":34962
		},
		{
			"buffer":0,
			"byteLength":12864,
			"byteOffset":95168,
			"target":34963
		},
		{
			"buffer":0,
			"byteLength":23712,
			"byteOffset":108032,
			"target":34962
		},
		{
			"buffer":0,
			"byteLength":23712,
			"byteOffset":131744,
			"target":34962
		},
		{
			"buffer":0,
			"byteLength":15808,
			"byteOffset":155456,
			"target":34962
		},
		{
			"buffer":0,
			"byteLength":8556,
			"byteOffset":171264,
			"target":34963
		},
		{
			"buffer":0,
			"byteLength":2016,
			"byteOffset":179820,
			"target":34962
		},
		{
			"buffer":0,
			"byteLength":2016,
			"byteOffset":181836,
			"target":34962
		},
		{
			"buffer":0,
			"byteLength":1344,
			"byteOffset":183852,
			"target":34962
		},
		{
			"buffer":0,
			"byteLength":1296,
			"byteOffset":185196,
			"target":34963
		}
	],
	"buffers":[
		{
			"byteLength":186492,
			"uri":"model.bin"
		}
	]
}
