# by drummyfish, released under CC0 1.0, public domain 
v -0.869397 0.652412 0.090785
v -1.735762 0.652412 0.090785
v -0.127349 -0.309585 0.061983
v -0.869397 0.693047 0.159729
v -0.869397 0.505963 0.159729
v -0.226914 0.169262 0.061875
v -0.414684 0.693047 0.159729
v -0.618653 0.233105 0.044593
v -0.616646 0.400251 0.061875
v -0.332328 0.207290 0.061875
v 0.058100 -0.339846 0.117433
v -0.414333 0.752684 0.061875
v -0.139567 0.752685 0.061875
v -0.047842 0.544384 0.061875
v -0.414945 0.505963 0.159729
v -0.659608 0.440211 0.061875
v -0.343162 0.400251 0.061875
v -0.414883 0.440211 0.061875
v -0.054963 0.301980 0.112871
v 0.251573 -0.319169 0.079453
v 0.152494 0.301703 0.061983
v -0.869397 0.652412 -0.113421
v -1.735762 0.652412 -0.113421
v -1.735762 0.546341 -0.011318
v -0.869397 0.546341 -0.011318
v -1.735762 0.752657 -0.011318
v -0.414684 0.798283 -0.011318
v -0.869397 0.392938 -0.011318
v -0.687089 0.392938 -0.011318
v -0.127349 -0.309585 -0.084619
v -0.869397 0.798283 -0.011318
v -0.869397 0.693047 -0.182365
v -0.869397 0.505963 -0.182365
v -0.651887 0.205009 -0.011318
v -0.226914 0.169262 -0.084502
v -0.246066 0.149168 -0.011318
v -0.414684 0.693047 -0.182365
v -0.618653 0.233105 -0.067228
v -0.616646 0.400251 -0.084502
v -0.332328 0.207290 -0.084502
v -0.163702 -0.333894 -0.011318
v 0.058100 -0.339846 -0.140069
v -0.414333 0.752684 -0.084502
v -0.139567 0.752685 -0.084502
v 0.050809 0.714291 -0.011318
v -0.047842 0.544384 -0.084502
v -0.414945 0.505963 -0.182365
v -0.659608 0.440211 -0.084502
v -0.343162 0.400251 -0.084502
v -0.414883 0.440211 -0.084502
v -0.054963 0.301980 -0.135506
v 0.251573 -0.319169 -0.102089
v 0.152494 0.301703 -0.084619
v 0.007937 0.476811 -0.011318
v -0.869397 0.752657 -0.011318
v 0.061937 -0.377884 -0.011318
vn 0.0000 0.0141 0.9999
vn 0.0000 1.0000 0.0000
vn 0.0000 -1.0000 0.0000
vn 0.0000 0.0141 -0.9999
vn -1.0000 -0.0000 0.0000
vn 0.0010 0.8517 0.5241
vn 0.0003 1.0000 -0.0000
vn 0.0008 0.4899 0.8718
vn -0.0017 -0.4725 0.8813
vn -0.0039 -1.0000 -0.0000
vn -0.0009 -0.8329 0.5534
vn 0.0000 0.4878 0.8729
vn 0.0000 -0.4701 0.8826
vn 0.0000 -0.8300 0.5577
vn 0.0011 0.8517 -0.5241
vn 0.0008 0.4899 -0.8718
vn -0.0017 -0.4726 -0.8813
vn -0.0009 -0.8329 -0.5534
vn 0.0000 -0.4701 -0.8826
vn 0.0000 0.4878 -0.8729
vn 0.0000 -0.8300 -0.5577
vn -0.4505 -0.1167 0.8851
vn -0.9829 -0.1841 -0.0000
vn -0.6892 -0.7246 -0.0000
vn -0.0463 -0.0498 0.9977
vn -0.4877 -0.5928 0.6409
vn -0.2596 -0.9657 -0.0000
vn -0.2511 -0.6959 0.6728
vn -0.1074 -0.5886 0.8013
vn 0.0000 0.0000 1.0000
vn -0.4505 -0.1166 -0.8851
vn -0.0463 -0.0498 -0.9977
vn -0.4877 -0.5928 -0.6409
vn -0.4255 -0.5476 -0.7204
vn -0.2510 -0.6959 -0.6728
vn 0.0000 0.0000 -1.0000
vn -0.9660 -0.0542 -0.2526
vn -0.9984 -0.0561 0.0000
vn 1.0000 -0.0015 0.0024
vn 1.0000 -0.0014 0.0027
vn 1.0000 -0.0017 0.0020
vn 1.0000 -0.0018 0.0018
vn 0.9152 0.4030 0.0000
vn 0.9841 -0.1777 -0.0000
vn 0.7264 -0.1311 0.6746
vn 0.7264 -0.1311 -0.6747
vn -0.4820 -0.1100 0.8692
vn 0.0091 0.0792 0.9968
vn -0.1565 0.0529 0.9863
vn 0.0345 0.2048 0.9782
vn 0.6482 0.1588 0.7448
vn -0.5243 -0.4597 0.7168
vn 0.7205 -0.4430 0.5335
vn -0.0258 -0.5815 0.8131
vn -0.9858 -0.1681 -0.0000
vn -0.9799 -0.1993 -0.0000
vn 0.0091 -1.0000 0.0000
vn 0.7205 -0.4430 -0.5335
vn 0.6482 0.1589 -0.7448
vn -0.2463 -0.9692 0.0000
vn -0.4821 -0.1100 -0.8692
vn -0.1565 0.0529 -0.9863
vn 0.0091 0.0792 -0.9968
vn 0.0344 0.2048 -0.9782
vn -0.5243 -0.4597 -0.7168
vn -0.0258 -0.5815 -0.8131
vn 0.0898 0.9960 0.0000
vn 0.7712 0.6366 -0.0000
vn 1.0000 0.0077 0.0000
vn 1.0000 -0.0015 -0.0024
vn 1.0000 -0.0017 -0.0020
vn 1.0000 -0.0014 -0.0027
vn 1.0000 -0.0018 -0.0018
vn -0.8648 0.5021 0.0000
vn 0.9999 -0.0120 0.0000
s 1
f 1//1 55//2 2//1
f 2//1 24//3 1//1
f 24//3 25//3 1//1
f 26//2 2//1 55//2
f 22//4 23//4 55//2
f 23//4 22//4 24//3
f 24//3 22//4 25//3
f 26//2 55//2 23//4
s 2
f 4//5 55//5 1//5
f 55//5 4//5 31//5
f 5//5 4//5 1//5
f 1//5 25//5 5//5
f 28//5 5//5 25//5
f 32//5 22//5 55//5
f 55//5 31//5 32//5
f 33//5 22//5 32//5
f 22//5 33//5 25//5
f 28//5 25//5 33//5
s 3
f 12//6 31//7 7//8
f 31//7 12//6 27//2
f 5//9 28//10 16//11
f 7//8 4//12 15//13
f 4//12 7//8 31//7
f 5//9 15//13 4//12
f 18//14 15//13 16//11
f 16//11 15//13 5//9
f 28//10 29//3 16//11
f 43//15 37//16 31//7
f 31//7 27//2 43//15
f 33//17 48//18 28//10
f 37//16 47//19 32//20
f 32//20 31//7 37//16
f 33//17 32//20 47//19
f 50//21 48//18 47//19
f 48//18 33//17 47//19
f 28//10 48//18 29//3
s 4
f 16//22 29//23 34//24
f 9//25 16//22 8//26
f 16//22 34//24 8//26
f 36//27 6//28 10//29
f 18//30 16//22 9//25
f 9//25 17//30 18//30
f 17//30 10//29 6//28
f 14//30 12//30 17//30
f 14//30 13//30 12//30
f 12//30 18//30 17//30
f 10//29 8//26 36//27
f 34//24 36//27 8//26
f 48//31 34//24 29//23
f 39//32 38//33 48//31
f 48//31 38//33 34//24
f 36//27 40//34 35//35
f 50//36 39//32 48//31
f 39//32 50//36 49//36
f 49//37 35//35 40//34
f 46//36 49//36 43//36
f 46//36 43//36 44//36
f 43//36 49//36 50//36
f 49//37 40//34 10//38
f 49//37 10//38 17//38
f 40//34 36//27 38//33
f 34//24 38//33 36//27
s 5
f 12//39 7//40 15//41
f 12//39 15//41 18//42
s 6
f 14//43 46//43 13//43
f 44//43 13//43 46//43
s 7
f 45//44 14//45 54//44
f 45//44 54//44 46//46
s 8
f 6//47 19//48 17//49
f 14//50 19//48 21//51
f 3//52 19//48 6//47
f 19//48 20//53 21//51
f 11//54 19//48 3//52
f 19//48 11//54 20//53
f 36//55 41//56 6//47
f 3//52 6//47 41//56
f 20//53 11//54 56//57
f 52//58 53//59 21//51
f 3//52 41//60 11//54
f 56//57 11//54 41//60
f 14//50 17//49 19//48
f 35//61 49//62 51//63
f 46//64 53//59 51//63
f 30//65 35//61 51//63
f 51//63 53//59 52//58
f 42//66 30//65 51//63
f 51//63 52//58 42//66
f 36//55 35//61 41//56
f 30//65 41//56 35//61
f 56//57 52//58 20//53
f 52//58 56//57 42//66
f 21//51 20//53 52//58
f 30//65 42//66 41//60
f 56//57 41//60 42//66
f 46//64 51//63 49//62
s 9
f 24//5 2//5 26//5
f 24//5 26//5 23//5
s 10
f 8//67 40//67 38//67
f 40//67 8//67 10//67
s 11
f 39//3 17//3 9//3
f 49//3 17//3 39//3
s 12
f 21//68 53//68 54//68
f 54//68 14//68 21//68
f 54//68 53//68 46//68
s 13
f 27//69 12//69 43//69
s 14
f 43//70 47//71 37//72
f 43//70 50//73 47//71
s 15
f 45//74 46//74 14//74
s 16
f 8//75 38//75 9//75
f 38//75 39//75 9//75
s 17
f 13//2 44//2 12//2
f 43//2 12//2 44//2
