{
	"asset":{
		"generator":"Khronos glTF Blender I/O v5.0.21",
		"version":"2.0"
	},
	"scene":0,
	"scenes":[
		{
			"name":"Scene",
			"nodes":[
				0,
				1,
				2,
				3,
				4,
				5
			]
		}
	],
	"nodes":[
		{
			"name":"ReferenceImage",
			"rotation":[
				0.5,
				0.5,
				-0.5,
				0.5
			],
			"translation":[
				-0.6599999666213989,
				0,
				0
			]
		},
		{
			"mesh":0,
			"name":"Colt",
			"translation":[
				0,
				-0.009999999776482582,
				-0.003221288323402405
			]
		},
		{
			"mesh":1,
			"name":"Cylinder",
			"translation":[
				0,
				-0.009999997913837433,
				-0.003221288323402405
			]
		},
		{
			"mesh":2,
			"name":"Hammer",
			"translation":[
				0,
				-0.009999997913837433,
				-0.003221288323402405
			]
		},
		{
			"mesh":3,
			"name":"Trigger",
			"translation":[
				0,
				-0.010000001639127731,
				-0.003221288323402405
			]
		},
		{
			"mesh":4,
			"name":"Colt.001",
			"translation":[
				0,
				-0.009999999776482582,
				-0.003221288323402405
			]
		}
	],
	"materials":[
		{
			"doubleSided":true,
			"name":"Colt_Pistol",
			"pbrMetallicRoughness":{
				"metallicFactor":0,
				"roughnessFactor":0.5
			}
		}
	],
	"meshes":[
		{
			"name":"Cube.001",
			"primitives":[
				{
					"attributes":{
						"POSITION":0,
						"NORMAL":1,
						"TEXCOORD_0":2
					},
					"indices":3,
					"material":0
				}
			]
		},
		{
			"name":"Cylinder.002",
			"primitives":[
				{
					"attributes":{
						"POSITION":4,
						"NORMAL":5,
						"TEXCOORD_0":6
					},
					"indices":7,
					"material":0
				}
			]
		},
		{
			"name":"Cylinder.004",
			"primitives":[
				{
					"attributes":{
						"POSITION":8,
						"NORMAL":9,
						"TEXCOORD_0":10
					},
					"indices":11,
					"material":0
				}
			]
		},
		{
			"name":"Plane",
			"primitives":[
				{
					"attributes":{
						"POSITION":12,
						"NORMAL":13,
						"TEXCOORD_0":14
					},
					"indices":15,
					"material":0
				}
			]
		},
		{
			"name":"Cube.002",
			"primitives":[
				{
					"attributes":{
						"POSITION":16,
						"NORMAL":17,
						"TEXCOORD_0":18
					},
					"indices":19,
					"material":0
				}
			]
		}
	],
	"accessors":[
		{
			"bufferView":0,
			"componentType":5126,
			"count":558,
			"max":[
				0.03251376748085022,
				0.12468592822551727,
				0.4094797968864441
			],
			"min":[
				-0.032352179288864136,
				-0.05072447657585144,
				-0.04817413538694382
			],
			"type":"VEC3"
		},
		{
			"bufferView":1,
			"componentType":5126,
			"count":558,
			"type":"VEC3"
		},
		{
			"bufferView":2,
			"componentType":5126,
			"count":558,
			"type":"VEC2"
		},
		{
			"bufferView":3,
			"componentType":5123,
			"count":1770,
			"type":"SCALAR"
		},
		{
			"bufferView":4,
			"componentType":5126,
			"count":34,
			"max":[
				0.030064452439546585,
				0.11777772009372711,
				0.14894481003284454
			],
			"min":[
				-0.0299028679728508,
				0.05781039595603943,
				0.08897748589515686
			],
			"type":"VEC3"
		},
		{
			"bufferView":5,
			"componentType":5126,
			"count":34,
			"type":"VEC3"
		},
		{
			"bufferView":6,
			"componentType":5126,
			"count":34,
			"type":"VEC2"
		},
		{
			"bufferView":7,
			"componentType":5123,
			"count":84,
			"type":"SCALAR"
		},
		{
			"bufferView":8,
			"componentType":5126,
			"count":120,
			"max":[
				0.004153598565608263,
				0.12820428609848022,
				0.08212421834468842
			],
			"min":[
				-0.003992015961557627,
				0.07091149687767029,
				0.030551962554454803
			],
			"type":"VEC3"
		},
		{
			"bufferView":9,
			"componentType":5126,
			"count":120,
			"type":"VEC3"
		},
		{
			"bufferView":10,
			"componentType":5126,
			"count":120,
			"type":"VEC2"
		},
		{
			"bufferView":11,
			"componentType":5123,
			"count":378,
			"type":"SCALAR"
		},
		{
			"bufferView":12,
			"componentType":5126,
			"count":43,
			"max":[
				0.002762526273727417,
				0.04201210290193558,
				0.0824924185872078
			],
			"min":[
				-0.0026009436696767807,
				0.0065695494413375854,
				0.07353206723928452
			],
			"type":"VEC3"
		},
		{
			"bufferView":13,
			"componentType":5126,
			"count":43,
			"type":"VEC3"
		},
		{
			"bufferView":14,
			"componentType":5126,
			"count":43,
			"type":"VEC2"
		},
		{
			"bufferView":15,
			"componentType":5123,
			"count":120,
			"type":"SCALAR"
		},
		{
			"bufferView":16,
			"componentType":5126,
			"count":34,
			"max":[
				0.0019239704124629498,
				0.13006049394607544,
				0.3968043327331543
			],
			"min":[
				-0.0019239704124629498,
				0.11694635450839996,
				0.3748016357421875
			],
			"type":"VEC3"
		},
		{
			"bufferView":17,
			"componentType":5126,
			"count":34,
			"type":"VEC3"
		},
		{
			"bufferView":18,
			"componentType":5126,
			"count":34,
			"type":"VEC2"
		},
		{
			"bufferView":19,
			"componentType":5123,
			"count":96,
			"type":"SCALAR"
		}
	],
	"bufferViews":[
		{
			"buffer":0,
			"byteLength":6696,
			"byteOffset":0,
			"target":34962
		},
		{
			"buffer":0,
			"byteLength":6696,
			"byteOffset":6696,
			"target":34962
		},
		{
			"buffer":0,
			"byteLength":4464,
			"byteOffset":13392,
			"target":34962
		},
		{
			"buffer":0,
			"byteLength":3540,
			"byteOffset":17856,
			"target":34963
		},
		{
			"buffer":0,
			"byteLength":408,
			"byteOffset":21396,
			"target":34962
		},
		{
			"buffer":0,
			"byteLength":408,
			"byteOffset":21804,
			"target":34962
		},
		{
			"buffer":0,
			"byteLength":272,
			"byteOffset":22212,
			"target":34962
		},
		{
			"buffer":0,
			"byteLength":168,
			"byteOffset":22484,
			"target":34963
		},
		{
			"buffer":0,
			"byteLength":1440,
			"byteOffset":22652,
			"target":34962
		},
		{
			"buffer":0,
			"byteLength":1440,
			"byteOffset":24092,
			"target":34962
		},
		{
			"buffer":0,
			"byteLength":960,
			"byteOffset":25532,
			"target":34962
		},
		{
			"buffer":0,
			"byteLength":756,
			"byteOffset":26492,
			"target":34963
		},
		{
			"buffer":0,
			"byteLength":516,
			"byteOffset":27248,
			"target":34962
		},
		{
			"buffer":0,
			"byteLength":516,
			"byteOffset":27764,
			"target":34962
		},
		{
			"buffer":0,
			"byteLength":344,
			"byteOffset":28280,
			"target":34962
		},
		{
			"buffer":0,
			"byteLength":240,
			"byteOffset":28624,
			"target":34963
		},
		{
			"buffer":0,
			"byteLength":408,
			"byteOffset":28864,
			"target":34962
		},
		{
			"buffer":0,
			"byteLength":408,
			"byteOffset":29272,
			"target":34962
		},
		{
			"buffer":0,
			"byteLength":272,
			"byteOffset":29680,
			"target":34962
		},
		{
			"buffer":0,
			"byteLength":192,
			"byteOffset":29952,
			"target":34963
		}
	],
	"buffers":[
		{
			"byteLength":30144,
			"uri":"model.bin"
		}
	]
}
