{
	"asset":{
		"generator":"Khronos glTF Blender I/O v5.0.21",
		"version":"2.0"
	},
	"extensionsUsed":[
		"KHR_materials_specular",
		"KHR_materials_ior"
	],
	"scene":0,
	"scenes":[
		{
			"name":"Scene",
			"nodes":[
				15
			]
		}
	],
	"nodes":[
		{
			"mesh":0,
			"name":"mesh_id115",
			"rotation":[
				0.5080036520957947,
				-0.49165740609169006,
				0.47043558955192566,
				0.5281057953834534
			],
			"scale":[
				0.0010000000474974513,
				0.0019729940686374903,
				0.0013838177546858788
			],
			"translation":[
				-0.8105518817901611,
				0.1330987811088562,
				0.2947341799736023
			]
		},
		{
			"mesh":1,
			"name":"mesh_id119",
			"rotation":[
				0.6918609142303467,
				-0.721081554889679,
				-0.026564547792077065,
				0.025773145258426666
			],
			"scale":[
				0.0009654196910560131,
				0.0014097068924456835,
				0.0010000007459893823
			],
			"translation":[
				-0.8847898840904236,
				0.1350177675485611,
				0.3013289272785187
			]
		},
		{
			"mesh":2,
			"name":"mesh_id121",
			"rotation":[
				-0.020662104710936546,
				-0.9991011619567871,
				-0.0005598327261395752,
				0.03700827807188034
			],
			"scale":[
				0.0006183107616379857,
				0.0010364771587774158,
				0.0003740828251466155
			],
			"translation":[
				-0.7650015950202942,
				0.14647503197193146,
				0.2912764549255371
			]
		},
		{
			"mesh":3,
			"name":"mesh_id123",
			"rotation":[
				0.6918609738349915,
				-0.7210814356803894,
				-0.026564540341496468,
				0.025773068889975548
			],
			"scale":[
				0.0010000000474974513,
				0.0012451878283172846,
				0.0010000007459893823
			],
			"translation":[
				-0.7638684511184692,
				0.17313425242900848,
				0.29155775904655457
			]
		},
		{
			"mesh":4,
			"name":"mesh_id109",
			"rotation":[
				0,
				-1,
				0,
				3.0327242939165444e-08
			],
			"scale":[
				1.3361716270446777,
				1.6741501092910767,
				1
			],
			"translation":[
				349.17034912109375,
				102.38404083251953,
				211.2460479736328
			]
		},
		{
			"mesh":5,
			"name":"mesh_id42",
			"rotation":[
				0.2198525369167328,
				0.975533127784729,
				0,
				6.747365546289075e-07
			],
			"scale":[
				0.8550352454185486,
				1.0805108547210693,
				0.3686688244342804
			],
			"translation":[
				-195.91845703125,
				20.519296646118164,
				205.899169921875
			]
		},
		{
			"mesh":6,
			"name":"mesh_id62",
			"rotation":[
				0,
				-1,
				0,
				3.0520702409830847e-08
			],
			"scale":[
				29.41130256652832,
				22.267574310302734,
				1.0613479614257812
			],
			"translation":[
				-131.917236328125,
				59.78388977050781,
				198.99600219726562
			]
		},
		{
			"mesh":7,
			"name":"mesh_id88",
			"rotation":[
				0,
				-1,
				0,
				3.309378371341154e-08
			],
			"scale":[
				69.47761535644531,
				41.510658264160156,
				2.2177670001983643
			],
			"translation":[
				-123.93053436279297,
				55.82156753540039,
				199.95071411132812
			]
		},
		{
			"mesh":8,
			"name":"mesh_id93",
			"rotation":[
				0,
				1,
				0,
				8.046418429330515e-07
			],
			"scale":[
				225.0824432373047,
				120.24076843261719,
				24.978351593017578
			],
			"translation":[
				-363.93255615234375,
				70.38993072509766,
				204.6132049560547
			]
		},
		{
			"mesh":9,
			"name":"mesh_id99",
			"rotation":[
				0,
				-1,
				0,
				3.0327242939165444e-08
			],
			"scale":[
				1.3361716270446777,
				1.6741501092910767,
				1
			],
			"translation":[
				349.1702880859375,
				102.21623229980469,
				196.87069702148438
			]
		},
		{
			"mesh":10,
			"name":"mesh_id33",
			"rotation":[
				0,
				-0.7071066498756409,
				0,
				0.70710688829422
			],
			"scale":[
				1.213675618171692,
				1,
				0.3599615693092346
			],
			"translation":[
				2.256035804748535e-05,
				3.7923455238342285e-06,
				-7.152557373046875e-06
			]
		},
		{
			"children":[
				10
			],
			"name":"node_id37",
			"rotation":[
				0,
				-0.7071075439453125,
				0,
				0.7071059942245483
			],
			"scale":[
				0.9209107756614685,
				1,
				1
			],
			"translation":[
				155.1417694091797,
				99.48209381103516,
				204.27969360351562
			]
		},
		{
			"mesh":11,
			"name":"mesh_id30",
			"rotation":[
				0,
				-0.7071066498756409,
				0,
				0.70710688829422
			],
			"scale":[
				162.50830078125,
				206.96217346191406,
				25.753583908081055
			],
			"translation":[
				2.4605542421340942e-05,
				0,
				1.3530254364013672e-05
			]
		},
		{
			"children":[
				12
			],
			"name":"node_id38",
			"rotation":[
				0,
				-0.7071072459220886,
				0,
				0.7071062922477722
			],
			"scale":[
				0.9454370141029358,
				1,
				1
			],
			"translation":[
				-4.794486999511719,
				-3.0613276958465576,
				201.6188201904297
			]
		},
		{
			"children":[
				4,
				5,
				6,
				7,
				8,
				9,
				11,
				13
			],
			"name":"node_id113",
			"rotation":[
				-0.0206619780510664,
				-0.9991011619567871,
				-0.0005598067073151469,
				0.037008244544267654
			],
			"scale":[
				0.0010000007459893823,
				0.0009999999310821295,
				0.0010000005131587386
			],
			"translation":[
				-0.18851806223392487,
				-0.011564758606255054,
				0.4536255896091461
			]
		},
		{
			"children":[
				0,
				1,
				2,
				3,
				14
			],
			"name":"root",
			"scale":[
				7.705967426300049,
				7.705967426300049,
				7.705967426300049
			]
		}
	],
	"materials":[
		{
			"doubleSided":true,
			"extensions":{
				"KHR_materials_specular":{
					"specularColorTexture":{
						"index":0
					}
				},
				"KHR_materials_ior":{
					"ior":1000
				}
			},
			"name":"134",
			"pbrMetallicRoughness":{
				"baseColorTexture":{
					"index":1
				},
				"metallicFactor":0,
				"metallicRoughnessTexture":{
					"index":2
				}
			}
		},
		{
			"doubleSided":true,
			"extensions":{
				"KHR_materials_specular":{
					"specularColorTexture":{
						"index":3
					}
				},
				"KHR_materials_ior":{
					"ior":1000
				}
			},
			"name":"136",
			"pbrMetallicRoughness":{
				"baseColorTexture":{
					"index":4
				},
				"metallicFactor":0,
				"metallicRoughnessTexture":{
					"index":5
				}
			}
		},
		{
			"doubleSided":true,
			"extensions":{
				"KHR_materials_specular":{
					"specularColorTexture":{
						"index":6
					}
				},
				"KHR_materials_ior":{
					"ior":1000
				}
			},
			"name":"140",
			"pbrMetallicRoughness":{
				"baseColorTexture":{
					"index":7
				},
				"metallicFactor":0,
				"metallicRoughnessTexture":{
					"index":8
				}
			}
		},
		{
			"doubleSided":true,
			"extensions":{
				"KHR_materials_specular":{
					"specularColorTexture":{
						"index":9
					}
				},
				"KHR_materials_ior":{
					"ior":1000
				}
			},
			"name":"138",
			"pbrMetallicRoughness":{
				"baseColorTexture":{
					"index":10
				},
				"metallicFactor":0,
				"metallicRoughnessTexture":{
					"index":11
				}
			}
		},
		{
			"doubleSided":true,
			"extensions":{
				"KHR_materials_specular":{
					"specularColorTexture":{
						"index":12
					}
				},
				"KHR_materials_ior":{
					"ior":1000
				}
			},
			"name":"150",
			"pbrMetallicRoughness":{
				"baseColorTexture":{
					"index":13
				},
				"metallicFactor":0,
				"metallicRoughnessTexture":{
					"index":14
				}
			}
		},
		{
			"doubleSided":true,
			"extensions":{
				"KHR_materials_specular":{
					"specularColorTexture":{
						"index":15
					}
				},
				"KHR_materials_ior":{
					"ior":1000
				}
			},
			"name":"142",
			"pbrMetallicRoughness":{
				"baseColorTexture":{
					"index":16
				},
				"metallicFactor":0,
				"metallicRoughnessTexture":{
					"index":17
				}
			}
		},
		{
			"doubleSided":true,
			"extensions":{
				"KHR_materials_specular":{
					"specularColorTexture":{
						"index":18
					}
				},
				"KHR_materials_ior":{
					"ior":1000
				}
			},
			"name":"144",
			"pbrMetallicRoughness":{
				"baseColorTexture":{
					"index":19
				},
				"metallicFactor":0,
				"metallicRoughnessTexture":{
					"index":20
				}
			}
		},
		{
			"doubleSided":true,
			"extensions":{
				"KHR_materials_specular":{
					"specularColorTexture":{
						"index":21
					}
				},
				"KHR_materials_ior":{
					"ior":1000
				}
			},
			"name":"146",
			"pbrMetallicRoughness":{
				"baseColorTexture":{
					"index":22
				},
				"metallicFactor":0,
				"metallicRoughnessTexture":{
					"index":23
				}
			}
		},
		{
			"doubleSided":true,
			"extensions":{
				"KHR_materials_specular":{
					"specularColorTexture":{
						"index":24
					}
				},
				"KHR_materials_ior":{
					"ior":1000
				}
			},
			"name":"148",
			"pbrMetallicRoughness":{
				"baseColorTexture":{
					"index":25
				},
				"metallicFactor":0,
				"metallicRoughnessTexture":{
					"index":26
				}
			}
		},
		{
			"doubleSided":true,
			"extensions":{
				"KHR_materials_specular":{
					"specularColorTexture":{
						"index":27
					}
				},
				"KHR_materials_ior":{
					"ior":1000
				}
			},
			"name":"154",
			"pbrMetallicRoughness":{
				"baseColorTexture":{
					"index":28
				},
				"metallicFactor":0,
				"metallicRoughnessTexture":{
					"index":29
				}
			}
		},
		{
			"doubleSided":true,
			"extensions":{
				"KHR_materials_specular":{
					"specularColorTexture":{
						"index":30
					}
				},
				"KHR_materials_ior":{
					"ior":1000
				}
			},
			"name":"152",
			"pbrMetallicRoughness":{
				"baseColorTexture":{
					"index":31
				},
				"metallicFactor":0,
				"metallicRoughnessTexture":{
					"index":32
				}
			}
		}
	],
	"meshes":[
		{
			"name":"mesh_id115",
			"primitives":[
				{
					"attributes":{
						"POSITION":0,
						"NORMAL":1
					},
					"indices":2,
					"material":0
				}
			]
		},
		{
			"name":"mesh_id119",
			"primitives":[
				{
					"attributes":{
						"POSITION":3,
						"NORMAL":4
					},
					"indices":2,
					"material":1
				}
			]
		},
		{
			"name":"mesh_id121",
			"primitives":[
				{
					"attributes":{
						"POSITION":5,
						"NORMAL":6
					},
					"indices":7,
					"material":2
				}
			]
		},
		{
			"name":"mesh_id123",
			"primitives":[
				{
					"attributes":{
						"POSITION":8,
						"NORMAL":9
					},
					"indices":10,
					"material":3
				}
			]
		},
		{
			"name":"mesh_id109",
			"primitives":[
				{
					"attributes":{
						"POSITION":11,
						"NORMAL":12,
						"TEXCOORD_0":13,
						"COLOR_0":14
					},
					"indices":15,
					"material":4
				}
			]
		},
		{
			"name":"mesh_id42",
			"primitives":[
				{
					"attributes":{
						"POSITION":16,
						"NORMAL":17
					},
					"indices":7,
					"material":5
				}
			]
		},
		{
			"name":"mesh_id62",
			"primitives":[
				{
					"attributes":{
						"POSITION":18,
						"NORMAL":19
					},
					"indices":20,
					"material":6
				}
			]
		},
		{
			"name":"mesh_id88",
			"primitives":[
				{
					"attributes":{
						"POSITION":21,
						"NORMAL":22
					},
					"indices":23,
					"material":7
				}
			]
		},
		{
			"name":"mesh_id93",
			"primitives":[
				{
					"attributes":{
						"POSITION":24,
						"NORMAL":25
					},
					"indices":26,
					"material":8
				}
			]
		},
		{
			"name":"mesh_id99",
			"primitives":[
				{
					"attributes":{
						"POSITION":27,
						"NORMAL":28,
						"TEXCOORD_0":29,
						"COLOR_0":30
					},
					"indices":15,
					"material":4
				}
			]
		},
		{
			"name":"mesh_id33",
			"primitives":[
				{
					"attributes":{
						"POSITION":31,
						"NORMAL":32
					},
					"indices":7,
					"material":9
				}
			]
		},
		{
			"name":"mesh_id30",
			"primitives":[
				{
					"attributes":{
						"POSITION":33,
						"NORMAL":34
					},
					"indices":35,
					"material":10
				}
			]
		}
	],
	"textures":[
		{
			"sampler":0,
			"source":0
		},
		{
			"sampler":0,
			"source":1
		},
		{
			"sampler":0,
			"source":2
		},
		{
			"sampler":0,
			"source":0
		},
		{
			"sampler":0,
			"source":1
		},
		{
			"sampler":0,
			"source":2
		},
		{
			"sampler":0,
			"source":0
		},
		{
			"sampler":0,
			"source":1
		},
		{
			"sampler":0,
			"source":2
		},
		{
			"sampler":0,
			"source":0
		},
		{
			"sampler":0,
			"source":1
		},
		{
			"sampler":0,
			"source":2
		},
		{
			"sampler":0,
			"source":3
		},
		{
			"sampler":0,
			"source":4
		},
		{
			"sampler":0,
			"source":5
		},
		{
			"sampler":0,
			"source":0
		},
		{
			"sampler":0,
			"source":1
		},
		{
			"sampler":0,
			"source":2
		},
		{
			"sampler":0,
			"source":0
		},
		{
			"sampler":0,
			"source":1
		},
		{
			"sampler":0,
			"source":2
		},
		{
			"sampler":0,
			"source":0
		},
		{
			"sampler":0,
			"source":1
		},
		{
			"sampler":0,
			"source":2
		},
		{
			"sampler":0,
			"source":0
		},
		{
			"sampler":0,
			"source":1
		},
		{
			"sampler":0,
			"source":2
		},
		{
			"sampler":0,
			"source":0
		},
		{
			"sampler":0,
			"source":1
		},
		{
			"sampler":0,
			"source":2
		},
		{
			"sampler":0,
			"source":0
		},
		{
			"sampler":0,
			"source":1
		},
		{
			"sampler":0,
			"source":2
		}
	],
	"images":[
		{
			"mimeType":"image/png",
			"name":"Image_5",
			"uri":"Image_5.png"
		},
		{
			"mimeType":"image/png",
			"name":"Image_4",
			"uri":"Image_4.png"
		},
		{
			"mimeType":"image/png",
			"name":"Image_5",
			"uri":"Image_5-1.png"
		},
		{
			"mimeType":"image/png",
			"name":"Image_1",
			"uri":"Image_1.png"
		},
		{
			"mimeType":"image/png",
			"name":"Image_0",
			"uri":"Image_0.png"
		},
		{
			"mimeType":"image/png",
			"name":"Image_1",
			"uri":"Image_1-1.png"
		}
	],
	"accessors":[
		{
			"bufferView":0,
			"componentType":5126,
			"count":322,
			"max":[
				4.739753723144531,
				25.671161651611328,
				4.739753723144531
			],
			"min":[
				-4.739753723144531,
				-25.671161651611328,
				-4.739753246307373
			],
			"type":"VEC3"
		},
		{
			"bufferView":1,
			"componentType":5126,
			"count":322,
			"type":"VEC3"
		},
		{
			"bufferView":2,
			"componentType":5123,
			"count":960,
			"type":"SCALAR"
		},
		{
			"bufferView":3,
			"componentType":5126,
			"count":322,
			"max":[
				12.797744750976562,
				64.36083984375,
				12.797744750976562
			],
			"min":[
				-12.797744750976562,
				-64.36083984375,
				-12.79774284362793
			],
			"type":"VEC3"
		},
		{
			"bufferView":4,
			"componentType":5126,
			"count":322,
			"type":"VEC3"
		},
		{
			"bufferView":5,
			"componentType":5126,
			"count":24,
			"max":[
				6.586219787597656,
				18.589351654052734,
				6.586219787597656
			],
			"min":[
				-6.586219787597656,
				-18.589351654052734,
				-6.586219787597656
			],
			"type":"VEC3"
		},
		{
			"bufferView":6,
			"componentType":5126,
			"count":24,
			"type":"VEC3"
		},
		{
			"bufferView":7,
			"componentType":5123,
			"count":36,
			"type":"SCALAR"
		},
		{
			"bufferView":8,
			"componentType":5126,
			"count":640,
			"max":[
				10.034645080566406,
				3.2634353637695312,
				10.034645080566406
			],
			"min":[
				-10.034645080566406,
				-3.2634353637695312,
				-10.03464412689209
			],
			"type":"VEC3"
		},
		{
			"bufferView":9,
			"componentType":5126,
			"count":640,
			"type":"VEC3"
		},
		{
			"bufferView":10,
			"componentType":5123,
			"count":1920,
			"type":"SCALAR"
		},
		{
			"bufferView":11,
			"componentType":5126,
			"count":26,
			"max":[
				104.74156951904297,
				8.288256645202637,
				8.288256645202637
			],
			"min":[
				-104.74156951904297,
				-8.288256645202637,
				-8.288256645202637
			],
			"type":"VEC3"
		},
		{
			"bufferView":12,
			"componentType":5126,
			"count":26,
			"type":"VEC3"
		},
		{
			"bufferView":13,
			"componentType":5126,
			"count":26,
			"type":"VEC2"
		},
		{
			"bufferView":14,
			"componentType":5126,
			"count":26,
			"type":"VEC3"
		},
		{
			"bufferView":15,
			"componentType":5123,
			"count":36,
			"type":"SCALAR"
		},
		{
			"bufferView":16,
			"componentType":5126,
			"count":24,
			"max":[
				29.87696075439453,
				73.71478271484375,
				29.87696075439453
			],
			"min":[
				-29.87696075439453,
				-73.71478271484375,
				-29.87696075439453
			],
			"type":"VEC3"
		},
		{
			"bufferView":17,
			"componentType":5126,
			"count":24,
			"type":"VEC3"
		},
		{
			"bufferView":18,
			"componentType":5126,
			"count":302,
			"max":[
				0.5,
				0.5,
				3.400052070617676
			],
			"min":[
				-0.5,
				-0.5,
				-3.400052070617676
			],
			"type":"VEC3"
		},
		{
			"bufferView":19,
			"componentType":5126,
			"count":302,
			"type":"VEC3"
		},
		{
			"bufferView":20,
			"componentType":5123,
			"count":768,
			"type":"SCALAR"
		},
		{
			"bufferView":21,
			"componentType":5126,
			"count":74,
			"max":[
				0.5,
				0.5,
				2.0576162338256836
			],
			"min":[
				-0.5,
				-0.5,
				-2.0576162338256836
			],
			"type":"VEC3"
		},
		{
			"bufferView":22,
			"componentType":5126,
			"count":74,
			"type":"VEC3"
		},
		{
			"bufferView":23,
			"componentType":5123,
			"count":192,
			"type":"SCALAR"
		},
		{
			"bufferView":24,
			"componentType":5126,
			"count":36,
			"max":[
				0.5,
				0.5,
				0.44428157806396484
			],
			"min":[
				-0.5,
				-0.5,
				-0.44428157806396484
			],
			"type":"VEC3"
		},
		{
			"bufferView":25,
			"componentType":5126,
			"count":36,
			"type":"VEC3"
		},
		{
			"bufferView":26,
			"componentType":5123,
			"count":72,
			"type":"SCALAR"
		},
		{
			"bufferView":27,
			"componentType":5126,
			"count":26,
			"max":[
				104.74156951904297,
				8.288256645202637,
				8.288256645202637
			],
			"min":[
				-104.74156951904297,
				-8.288256645202637,
				-8.288256645202637
			],
			"type":"VEC3"
		},
		{
			"bufferView":28,
			"componentType":5126,
			"count":26,
			"type":"VEC3"
		},
		{
			"bufferView":29,
			"componentType":5126,
			"count":26,
			"type":"VEC2"
		},
		{
			"bufferView":30,
			"componentType":5126,
			"count":26,
			"type":"VEC3"
		},
		{
			"bufferView":31,
			"componentType":5126,
			"count":24,
			"max":[
				339.34112548828125,
				31.524253845214844,
				31.524253845214844
			],
			"min":[
				-339.34112548828125,
				-31.524253845214844,
				-31.524253845214844
			],
			"type":"VEC3"
		},
		{
			"bufferView":32,
			"componentType":5126,
			"count":24,
			"type":"VEC3"
		},
		{
			"bufferView":33,
			"componentType":5126,
			"count":40,
			"max":[
				0.4999999701976776,
				0.5,
				0.5025777816772461
			],
			"min":[
				-0.4999999701976776,
				-0.5,
				-0.5025777816772461
			],
			"type":"VEC3"
		},
		{
			"bufferView":34,
			"componentType":5126,
			"count":40,
			"type":"VEC3"
		},
		{
			"bufferView":35,
			"componentType":5123,
			"count":84,
			"type":"SCALAR"
		}
	],
	"bufferViews":[
		{
			"buffer":0,
			"byteLength":3864,
			"byteOffset":0,
			"target":34962
		},
		{
			"buffer":0,
			"byteLength":3864,
			"byteOffset":3864,
			"target":34962
		},
		{
			"buffer":0,
			"byteLength":1920,
			"byteOffset":7728,
			"target":34963
		},
		{
			"buffer":0,
			"byteLength":3864,
			"byteOffset":9648,
			"target":34962
		},
		{
			"buffer":0,
			"byteLength":3864,
			"byteOffset":13512,
			"target":34962
		},
		{
			"buffer":0,
			"byteLength":288,
			"byteOffset":17376,
			"target":34962
		},
		{
			"buffer":0,
			"byteLength":288,
			"byteOffset":17664,
			"target":34962
		},
		{
			"buffer":0,
			"byteLength":72,
			"byteOffset":17952,
			"target":34963
		},
		{
			"buffer":0,
			"byteLength":7680,
			"byteOffset":18024,
			"target":34962
		},
		{
			"buffer":0,
			"byteLength":7680,
			"byteOffset":25704,
			"target":34962
		},
		{
			"buffer":0,
			"byteLength":3840,
			"byteOffset":33384,
			"target":34963
		},
		{
			"buffer":0,
			"byteLength":312,
			"byteOffset":37224,
			"target":34962
		},
		{
			"buffer":0,
			"byteLength":312,
			"byteOffset":37536,
			"target":34962
		},
		{
			"buffer":0,
			"byteLength":208,
			"byteOffset":37848,
			"target":34962
		},
		{
			"buffer":0,
			"byteLength":312,
			"byteOffset":38056,
			"target":34962
		},
		{
			"buffer":0,
			"byteLength":72,
			"byteOffset":38368,
			"target":34963
		},
		{
			"buffer":0,
			"byteLength":288,
			"byteOffset":38440,
			"target":34962
		},
		{
			"buffer":0,
			"byteLength":288,
			"byteOffset":38728,
			"target":34962
		},
		{
			"buffer":0,
			"byteLength":3624,
			"byteOffset":39016,
			"target":34962
		},
		{
			"buffer":0,
			"byteLength":3624,
			"byteOffset":42640,
			"target":34962
		},
		{
			"buffer":0,
			"byteLength":1536,
			"byteOffset":46264,
			"target":34963
		},
		{
			"buffer":0,
			"byteLength":888,
			"byteOffset":47800,
			"target":34962
		},
		{
			"buffer":0,
			"byteLength":888,
			"byteOffset":48688,
			"target":34962
		},
		{
			"buffer":0,
			"byteLength":384,
			"byteOffset":49576,
			"target":34963
		},
		{
			"buffer":0,
			"byteLength":432,
			"byteOffset":49960,
			"target":34962
		},
		{
			"buffer":0,
			"byteLength":432,
			"byteOffset":50392,
			"target":34962
		},
		{
			"buffer":0,
			"byteLength":144,
			"byteOffset":50824,
			"target":34963
		},
		{
			"buffer":0,
			"byteLength":312,
			"byteOffset":50968,
			"target":34962
		},
		{
			"buffer":0,
			"byteLength":312,
			"byteOffset":51280,
			"target":34962
		},
		{
			"buffer":0,
			"byteLength":208,
			"byteOffset":51592,
			"target":34962
		},
		{
			"buffer":0,
			"byteLength":312,
			"byteOffset":51800,
			"target":34962
		},
		{
			"buffer":0,
			"byteLength":288,
			"byteOffset":52112,
			"target":34962
		},
		{
			"buffer":0,
			"byteLength":288,
			"byteOffset":52400,
			"target":34962
		},
		{
			"buffer":0,
			"byteLength":480,
			"byteOffset":52688,
			"target":34962
		},
		{
			"buffer":0,
			"byteLength":480,
			"byteOffset":53168,
			"target":34962
		},
		{
			"buffer":0,
			"byteLength":168,
			"byteOffset":53648,
			"target":34963
		}
	],
	"samplers":[
		{
			"magFilter":9729,
			"minFilter":9987
		}
	],
	"buffers":[
		{
			"byteLength":53816,
			"uri":"model.bin"
		}
	]
}
