{
	"asset":{
		"generator":"Khronos glTF Blender I/O v5.0.21",
		"version":"2.0"
	},
	"scene":0,
	"scenes":[
		{
			"name":"Scene",
			"nodes":[
				0
			]
		}
	],
	"nodes":[
		{
			"mesh":0,
			"name":"rifle"
		}
	],
	"materials":[
		{
			"doubleSided":true,
			"name":"mt_01",
			"pbrMetallicRoughness":{
				"baseColorFactor":[
					0.8412014842033386,
					0.07303228229284286,
					0,
					1
				],
				"metallicFactor":0,
				"roughnessFactor":0.5
			}
		},
		{
			"doubleSided":true,
			"name":"mt_02",
			"pbrMetallicRoughness":{
				"baseColorFactor":[
					0.03310251608490944,
					0.03310251608490944,
					0.03310251608490944,
					1
				],
				"metallicFactor":0,
				"roughnessFactor":0.5
			}
		},
		{
			"doubleSided":true,
			"name":"mt_03",
			"pbrMetallicRoughness":{
				"baseColorFactor":[
					0.800000011920929,
					0.800000011920929,
					0.800000011920929,
					1
				],
				"metallicFactor":0,
				"roughnessFactor":0.5
			}
		}
	],
	"meshes":[
		{
			"name":"mesh",
			"primitives":[
				{
					"attributes":{
						"POSITION":0,
						"NORMAL":1,
						"TEXCOORD_0":2
					},
					"indices":3,
					"material":0
				},
				{
					"attributes":{
						"POSITION":4,
						"NORMAL":5,
						"TEXCOORD_0":6
					},
					"indices":7,
					"material":1
				},
				{
					"attributes":{
						"POSITION":8,
						"NORMAL":9,
						"TEXCOORD_0":10
					},
					"indices":11,
					"material":2
				}
			]
		}
	],
	"accessors":[
		{
			"bufferView":0,
			"componentType":5126,
			"count":254,
			"max":[
				8.538474082946777,
				0.3356482684612274,
				2.5751566886901855
			],
			"min":[
				-7.154510021209717,
				-0.3356360197067261,
				-0.6928403973579407
			],
			"type":"VEC3"
		},
		{
			"bufferView":1,
			"componentType":5126,
			"count":254,
			"type":"VEC3"
		},
		{
			"bufferView":2,
			"componentType":5126,
			"count":254,
			"type":"VEC2"
		},
		{
			"bufferView":3,
			"componentType":5123,
			"count":468,
			"type":"SCALAR"
		},
		{
			"bufferView":4,
			"componentType":5126,
			"count":694,
			"max":[
				14.900745391845703,
				0.43998003005981445,
				0.985304594039917
			],
			"min":[
				-1.0615266561508179,
				-0.43996763229370117,
				-2.2203786373138428
			],
			"type":"VEC3"
		},
		{
			"bufferView":5,
			"componentType":5126,
			"count":694,
			"type":"VEC3"
		},
		{
			"bufferView":6,
			"componentType":5126,
			"count":694,
			"type":"VEC2"
		},
		{
			"bufferView":7,
			"componentType":5123,
			"count":1164,
			"type":"SCALAR"
		},
		{
			"bufferView":8,
			"componentType":5126,
			"count":12,
			"max":[
				5.952628135681152,
				0.43998003005981445,
				-1.2043026685714722
			],
			"min":[
				-1.0615266561508179,
				-0.43996763229370117,
				-2.2203786373138428
			],
			"type":"VEC3"
		},
		{
			"bufferView":9,
			"componentType":5126,
			"count":12,
			"type":"VEC3"
		},
		{
			"bufferView":10,
			"componentType":5126,
			"count":12,
			"type":"VEC2"
		},
		{
			"bufferView":11,
			"componentType":5123,
			"count":24,
			"type":"SCALAR"
		}
	],
	"bufferViews":[
		{
			"buffer":0,
			"byteLength":3048,
			"byteOffset":0,
			"target":34962
		},
		{
			"buffer":0,
			"byteLength":3048,
			"byteOffset":3048,
			"target":34962
		},
		{
			"buffer":0,
			"byteLength":2032,
			"byteOffset":6096,
			"target":34962
		},
		{
			"buffer":0,
			"byteLength":936,
			"byteOffset":8128,
			"target":34963
		},
		{
			"buffer":0,
			"byteLength":8328,
			"byteOffset":9064,
			"target":34962
		},
		{
			"buffer":0,
			"byteLength":8328,
			"byteOffset":17392,
			"target":34962
		},
		{
			"buffer":0,
			"byteLength":5552,
			"byteOffset":25720,
			"target":34962
		},
		{
			"buffer":0,
			"byteLength":2328,
			"byteOffset":31272,
			"target":34963
		},
		{
			"buffer":0,
			"byteLength":144,
			"byteOffset":33600,
			"target":34962
		},
		{
			"buffer":0,
			"byteLength":144,
			"byteOffset":33744,
			"target":34962
		},
		{
			"buffer":0,
			"byteLength":96,
			"byteOffset":33888,
			"target":34962
		},
		{
			"buffer":0,
			"byteLength":48,
			"byteOffset":33984,
			"target":34963
		}
	],
	"buffers":[
		{
			"byteLength":34032,
			"uri":"model.bin"
		}
	]
}
