{
	"asset":{
		"generator":"Khronos glTF Blender I/O v5.0.21",
		"version":"2.0"
	},
	"scene":0,
	"scenes":[
		{
			"name":"Scene",
			"nodes":[
				0,
				1
			]
		}
	],
	"nodes":[
		{
			"mesh":0,
			"name":"SAPATO.001",
			"rotation":[
				0.70710688829422,
				0,
				0,
				0.7071066498756409
			],
			"scale":[
				1.4552323818206787,
				1.4552323818206787,
				1.5864858627319336
			],
			"translation":[
				0.008714785799384117,
				1.95815110206604,
				0.06924811005592346
			]
		},
		{
			"mesh":1,
			"name":"SAPATO",
			"rotation":[
				0.70710688829422,
				0,
				0,
				0.7071066498756409
			],
			"scale":[
				1.2657803297042847,
				1.2657803297042847,
				1.2657803297042847
			],
			"translation":[
				0.005194975063204765,
				0.0008702385821379721,
				0
			]
		}
	],
	"materials":[
		{
			"doubleSided":true,
			"name":"Material.001",
			"pbrMetallicRoughness":{
				"baseColorFactor":[
					0.021534662693738937,
					0.23132801055908203,
					0.8000000715255737,
					1
				],
				"metallicFactor":0,
				"roughnessFactor":0.5
			}
		},
		{
			"doubleSided":true,
			"name":"Material.010",
			"pbrMetallicRoughness":{
				"baseColorFactor":[
					0.5895160436630249,
					0.16515469551086426,
					0.8000000715255737,
					1
				],
				"metallicFactor":0,
				"roughnessFactor":0.5
			}
		},
		{
			"doubleSided":true,
			"name":"Material.011",
			"pbrMetallicRoughness":{
				"metallicFactor":0,
				"roughnessFactor":0.5
			}
		},
		{
			"doubleSided":true,
			"name":"Material.002",
			"pbrMetallicRoughness":{
				"baseColorFactor":[
					0.12622661888599396,
					0.017776034772396088,
					0.28100883960723877,
					1
				],
				"metallicFactor":0,
				"roughnessFactor":0.5
			}
		},
		{
			"doubleSided":true,
			"name":"Material.004",
			"pbrMetallicRoughness":{
				"baseColorFactor":[
					0.5561539530754089,
					0.16880954802036285,
					0.9848845601081848,
					1
				],
				"metallicFactor":0,
				"roughnessFactor":0.5
			}
		},
		{
			"doubleSided":true,
			"name":"Material.007",
			"pbrMetallicRoughness":{
				"metallicFactor":0,
				"roughnessFactor":0.5
			}
		},
		{
			"doubleSided":true,
			"name":"Material.008",
			"pbrMetallicRoughness":{
				"baseColorFactor":[
					0.800000011920929,
					0.800000011920929,
					0.800000011920929,
					1
				],
				"metallicFactor":0,
				"roughnessFactor":0.5
			}
		},
		{
			"doubleSided":true,
			"name":"Material.009",
			"pbrMetallicRoughness":{
				"baseColorFactor":[
					0.8000000715255737,
					0.36964356899261475,
					0.28693994879722595,
					1
				],
				"metallicFactor":0,
				"roughnessFactor":0.5
			}
		},
		{
			"doubleSided":true,
			"name":"Material.003",
			"pbrMetallicRoughness":{
				"baseColorFactor":[
					0,
					0,
					0,
					1
				],
				"metallicFactor":0,
				"roughnessFactor":0.5
			}
		},
		{
			"doubleSided":true,
			"name":"Material.012",
			"pbrMetallicRoughness":{
				"baseColorFactor":[
					0.8000000715255737,
					0.08656719326972961,
					0.08040072023868561,
					1
				],
				"metallicFactor":0,
				"roughnessFactor":0.5
			}
		},
		{
			"doubleSided":true,
			"name":"Material.013",
			"pbrMetallicRoughness":{
				"baseColorFactor":[
					0.10461650043725967,
					0.05286065861582756,
					0.061246056109666824,
					1
				],
				"metallicFactor":0,
				"roughnessFactor":0.5
			}
		}
	],
	"meshes":[
		{
			"name":"corpo.015_Cube.006_Cube.000",
			"primitives":[
				{
					"attributes":{
						"POSITION":0,
						"NORMAL":1,
						"TEXCOORD_0":2
					},
					"indices":3,
					"material":0
				}
			]
		},
		{
			"name":"corpo.015_Cube.006_Cube.003",
			"primitives":[
				{
					"attributes":{
						"POSITION":4,
						"NORMAL":5,
						"TEXCOORD_0":6
					},
					"indices":7,
					"material":1
				},
				{
					"attributes":{
						"POSITION":8,
						"NORMAL":9,
						"TEXCOORD_0":10
					},
					"indices":11,
					"material":2
				},
				{
					"attributes":{
						"POSITION":12,
						"NORMAL":13,
						"TEXCOORD_0":14
					},
					"indices":15,
					"material":3
				},
				{
					"attributes":{
						"POSITION":16,
						"NORMAL":17,
						"TEXCOORD_0":18
					},
					"indices":19,
					"material":4
				},
				{
					"attributes":{
						"POSITION":20,
						"NORMAL":21,
						"TEXCOORD_0":22
					},
					"indices":23,
					"material":5
				},
				{
					"attributes":{
						"POSITION":24,
						"NORMAL":25,
						"TEXCOORD_0":26
					},
					"indices":27,
					"material":6
				},
				{
					"attributes":{
						"POSITION":28,
						"NORMAL":29,
						"TEXCOORD_0":30
					},
					"indices":31,
					"material":7
				},
				{
					"attributes":{
						"POSITION":32,
						"NORMAL":33,
						"TEXCOORD_0":34
					},
					"indices":35,
					"material":0
				},
				{
					"attributes":{
						"POSITION":36,
						"NORMAL":37,
						"TEXCOORD_0":38
					},
					"indices":39,
					"material":8
				},
				{
					"attributes":{
						"POSITION":40,
						"NORMAL":41,
						"TEXCOORD_0":42
					},
					"indices":43,
					"material":9
				},
				{
					"attributes":{
						"POSITION":44,
						"NORMAL":45,
						"TEXCOORD_0":46
					},
					"indices":47,
					"material":10
				}
			]
		}
	],
	"accessors":[
		{
			"bufferView":0,
			"componentType":5126,
			"count":7882,
			"max":[
				0.07734747231006622,
				0.07784278690814972,
				0.12680089473724365
			],
			"min":[
				-0.080467589199543,
				-0.1169537603855133,
				-0.061554551124572754
			],
			"type":"VEC3"
		},
		{
			"bufferView":1,
			"componentType":5126,
			"count":7882,
			"type":"VEC3"
		},
		{
			"bufferView":2,
			"componentType":5126,
			"count":7882,
			"type":"VEC2"
		},
		{
			"bufferView":3,
			"componentType":5123,
			"count":44514,
			"type":"SCALAR"
		},
		{
			"bufferView":4,
			"componentType":5126,
			"count":92,
			"max":[
				0.14911656081676483,
				0.16403719782829285,
				-0.037299878895282745
			],
			"min":[
				-0.14911656081676483,
				-0.05769991874694824,
				-0.2037731260061264
			],
			"type":"VEC3"
		},
		{
			"bufferView":5,
			"componentType":5126,
			"count":92,
			"type":"VEC3"
		},
		{
			"bufferView":6,
			"componentType":5126,
			"count":92,
			"type":"VEC2"
		},
		{
			"bufferView":7,
			"componentType":5123,
			"count":384,
			"type":"SCALAR"
		},
		{
			"bufferView":8,
			"componentType":5126,
			"count":116,
			"max":[
				0.14911656081676483,
				0.16403719782829285,
				-0.013682743534445763
			],
			"min":[
				-0.14911656081676483,
				-0.05970391631126404,
				-0.2037731260061264
			],
			"type":"VEC3"
		},
		{
			"bufferView":9,
			"componentType":5126,
			"count":116,
			"type":"VEC3"
		},
		{
			"bufferView":10,
			"componentType":5126,
			"count":116,
			"type":"VEC2"
		},
		{
			"bufferView":11,
			"componentType":5123,
			"count":432,
			"type":"SCALAR"
		},
		{
			"bufferView":12,
			"componentType":5126,
			"count":1779,
			"max":[
				0.6747071146965027,
				0.1426226943731308,
				-0.15713845193386078
			],
			"min":[
				-0.6768583655357361,
				-0.11735277622938156,
				-1.390938639640808
			],
			"type":"VEC3"
		},
		{
			"bufferView":13,
			"componentType":5126,
			"count":1779,
			"type":"VEC3"
		},
		{
			"bufferView":14,
			"componentType":5126,
			"count":1779,
			"type":"VEC2"
		},
		{
			"bufferView":15,
			"componentType":5123,
			"count":7836,
			"type":"SCALAR"
		},
		{
			"bufferView":16,
			"componentType":5126,
			"count":758,
			"max":[
				0.151375412940979,
				0.14570945501327515,
				-0.9716833829879761
			],
			"min":[
				-0.1535487323999405,
				-0.09833508729934692,
				-1.397894024848938
			],
			"type":"VEC3"
		},
		{
			"bufferView":17,
			"componentType":5126,
			"count":758,
			"type":"VEC3"
		},
		{
			"bufferView":18,
			"componentType":5126,
			"count":758,
			"type":"VEC2"
		},
		{
			"bufferView":19,
			"componentType":5123,
			"count":2520,
			"type":"SCALAR"
		},
		{
			"bufferView":20,
			"componentType":5126,
			"count":1083,
			"max":[
				0.16967558860778809,
				0.14570945501327515,
				-0.8804084062576294
			],
			"min":[
				-0.17238165438175201,
				-0.1168220117688179,
				-1.5240564346313477
			],
			"type":"VEC3"
		},
		{
			"bufferView":21,
			"componentType":5126,
			"count":1083,
			"type":"VEC3"
		},
		{
			"bufferView":22,
			"componentType":5126,
			"count":1083,
			"type":"VEC2"
		},
		{
			"bufferView":23,
			"componentType":5123,
			"count":3846,
			"type":"SCALAR"
		},
		{
			"bufferView":24,
			"componentType":5126,
			"count":14,
			"max":[
				0.03517180308699608,
				0.10297729074954987,
				-1.48622465133667
			],
			"min":[
				-0.03581004589796066,
				0.09860896319150925,
				-1.4986748695373535
			],
			"type":"VEC3"
		},
		{
			"bufferView":25,
			"componentType":5126,
			"count":14,
			"type":"VEC3"
		},
		{
			"bufferView":26,
			"componentType":5126,
			"count":14,
			"type":"VEC2"
		},
		{
			"bufferView":27,
			"componentType":5123,
			"count":18,
			"type":"SCALAR"
		},
		{
			"bufferView":28,
			"componentType":5126,
			"count":1841,
			"max":[
				0.7494475841522217,
				0.12578004598617554,
				-1.2955294847488403
			],
			"min":[
				-0.7518982291221619,
				-0.09144319593906403,
				-1.6066404581069946
			],
			"type":"VEC3"
		},
		{
			"bufferView":29,
			"componentType":5126,
			"count":1841,
			"type":"VEC3"
		},
		{
			"bufferView":30,
			"componentType":5126,
			"count":1841,
			"type":"VEC2"
		},
		{
			"bufferView":31,
			"componentType":5123,
			"count":10038,
			"type":"SCALAR"
		},
		{
			"bufferView":32,
			"componentType":5126,
			"count":60,
			"max":[
				0.05561630427837372,
				0.11385393142700195,
				-1.48622465133667
			],
			"min":[
				-0.05606374144554138,
				0.08354705572128296,
				-1.5247673988342285
			],
			"type":"VEC3"
		},
		{
			"bufferView":33,
			"componentType":5126,
			"count":60,
			"type":"VEC3"
		},
		{
			"bufferView":34,
			"componentType":5126,
			"count":60,
			"type":"VEC2"
		},
		{
			"bufferView":35,
			"componentType":5123,
			"count":156,
			"type":"SCALAR"
		},
		{
			"bufferView":36,
			"componentType":5126,
			"count":50,
			"max":[
				0.0571342408657074,
				0.10905072838068008,
				-1.4894325733184814
			],
			"min":[
				-0.05758167803287506,
				0.0891084372997284,
				-1.5057363510131836
			],
			"type":"VEC3"
		},
		{
			"bufferView":37,
			"componentType":5126,
			"count":50,
			"type":"VEC3"
		},
		{
			"bufferView":38,
			"componentType":5126,
			"count":50,
			"type":"VEC2"
		},
		{
			"bufferView":39,
			"componentType":5123,
			"count":126,
			"type":"SCALAR"
		},
		{
			"bufferView":40,
			"componentType":5126,
			"count":28,
			"max":[
				0.020263679325580597,
				0.11044200509786606,
				-1.4276853799819946
			],
			"min":[
				-0.02071111649274826,
				0.0989827960729599,
				-1.4381417036056519
			],
			"type":"VEC3"
		},
		{
			"bufferView":41,
			"componentType":5126,
			"count":28,
			"type":"VEC3"
		},
		{
			"bufferView":42,
			"componentType":5126,
			"count":28,
			"type":"VEC2"
		},
		{
			"bufferView":43,
			"componentType":5123,
			"count":84,
			"type":"SCALAR"
		},
		{
			"bufferView":44,
			"componentType":5126,
			"count":52,
			"max":[
				0.05523606762290001,
				0.11771535873413086,
				-1.4479352235794067
			],
			"min":[
				-0.055683501064777374,
				0.08019572496414185,
				-1.5053493976593018
			],
			"type":"VEC3"
		},
		{
			"bufferView":45,
			"componentType":5126,
			"count":52,
			"type":"VEC3"
		},
		{
			"bufferView":46,
			"componentType":5126,
			"count":52,
			"type":"VEC2"
		},
		{
			"bufferView":47,
			"componentType":5123,
			"count":156,
			"type":"SCALAR"
		}
	],
	"bufferViews":[
		{
			"buffer":0,
			"byteLength":94584,
			"byteOffset":0,
			"target":34962
		},
		{
			"buffer":0,
			"byteLength":94584,
			"byteOffset":94584,
			"target":34962
		},
		{
			"buffer":0,
			"byteLength":63056,
			"byteOffset":189168,
			"target":34962
		},
		{
			"buffer":0,
			"byteLength":89028,
			"byteOffset":252224,
			"target":34963
		},
		{
			"buffer":0,
			"byteLength":1104,
			"byteOffset":341252,
			"target":34962
		},
		{
			"buffer":0,
			"byteLength":1104,
			"byteOffset":342356,
			"target":34962
		},
		{
			"buffer":0,
			"byteLength":736,
			"byteOffset":343460,
			"target":34962
		},
		{
			"buffer":0,
			"byteLength":768,
			"byteOffset":344196,
			"target":34963
		},
		{
			"buffer":0,
			"byteLength":1392,
			"byteOffset":344964,
			"target":34962
		},
		{
			"buffer":0,
			"byteLength":1392,
			"byteOffset":346356,
			"target":34962
		},
		{
			"buffer":0,
			"byteLength":928,
			"byteOffset":347748,
			"target":34962
		},
		{
			"buffer":0,
			"byteLength":864,
			"byteOffset":348676,
			"target":34963
		},
		{
			"buffer":0,
			"byteLength":21348,
			"byteOffset":349540,
			"target":34962
		},
		{
			"buffer":0,
			"byteLength":21348,
			"byteOffset":370888,
			"target":34962
		},
		{
			"buffer":0,
			"byteLength":14232,
			"byteOffset":392236,
			"target":34962
		},
		{
			"buffer":0,
			"byteLength":15672,
			"byteOffset":406468,
			"target":34963
		},
		{
			"buffer":0,
			"byteLength":9096,
			"byteOffset":422140,
			"target":34962
		},
		{
			"buffer":0,
			"byteLength":9096,
			"byteOffset":431236,
			"target":34962
		},
		{
			"buffer":0,
			"byteLength":6064,
			"byteOffset":440332,
			"target":34962
		},
		{
			"buffer":0,
			"byteLength":5040,
			"byteOffset":446396,
			"target":34963
		},
		{
			"buffer":0,
			"byteLength":12996,
			"byteOffset":451436,
			"target":34962
		},
		{
			"buffer":0,
			"byteLength":12996,
			"byteOffset":464432,
			"target":34962
		},
		{
			"buffer":0,
			"byteLength":8664,
			"byteOffset":477428,
			"target":34962
		},
		{
			"buffer":0,
			"byteLength":7692,
			"byteOffset":486092,
			"target":34963
		},
		{
			"buffer":0,
			"byteLength":168,
			"byteOffset":493784,
			"target":34962
		},
		{
			"buffer":0,
			"byteLength":168,
			"byteOffset":493952,
			"target":34962
		},
		{
			"buffer":0,
			"byteLength":112,
			"byteOffset":494120,
			"target":34962
		},
		{
			"buffer":0,
			"byteLength":36,
			"byteOffset":494232,
			"target":34963
		},
		{
			"buffer":0,
			"byteLength":22092,
			"byteOffset":494268,
			"target":34962
		},
		{
			"buffer":0,
			"byteLength":22092,
			"byteOffset":516360,
			"target":34962
		},
		{
			"buffer":0,
			"byteLength":14728,
			"byteOffset":538452,
			"target":34962
		},
		{
			"buffer":0,
			"byteLength":20076,
			"byteOffset":553180,
			"target":34963
		},
		{
			"buffer":0,
			"byteLength":720,
			"byteOffset":573256,
			"target":34962
		},
		{
			"buffer":0,
			"byteLength":720,
			"byteOffset":573976,
			"target":34962
		},
		{
			"buffer":0,
			"byteLength":480,
			"byteOffset":574696,
			"target":34962
		},
		{
			"buffer":0,
			"byteLength":312,
			"byteOffset":575176,
			"target":34963
		},
		{
			"buffer":0,
			"byteLength":600,
			"byteOffset":575488,
			"target":34962
		},
		{
			"buffer":0,
			"byteLength":600,
			"byteOffset":576088,
			"target":34962
		},
		{
			"buffer":0,
			"byteLength":400,
			"byteOffset":576688,
			"target":34962
		},
		{
			"buffer":0,
			"byteLength":252,
			"byteOffset":577088,
			"target":34963
		},
		{
			"buffer":0,
			"byteLength":336,
			"byteOffset":577340,
			"target":34962
		},
		{
			"buffer":0,
			"byteLength":336,
			"byteOffset":577676,
			"target":34962
		},
		{
			"buffer":0,
			"byteLength":224,
			"byteOffset":578012,
			"target":34962
		},
		{
			"buffer":0,
			"byteLength":168,
			"byteOffset":578236,
			"target":34963
		},
		{
			"buffer":0,
			"byteLength":624,
			"byteOffset":578404,
			"target":34962
		},
		{
			"buffer":0,
			"byteLength":624,
			"byteOffset":579028,
			"target":34962
		},
		{
			"buffer":0,
			"byteLength":416,
			"byteOffset":579652,
			"target":34962
		},
		{
			"buffer":0,
			"byteLength":312,
			"byteOffset":580068,
			"target":34963
		}
	],
	"buffers":[
		{
			"byteLength":580380,
			"uri":"model.bin"
		}
	]
}
