# by drummyfish, released under CC0 1.0, public domain 
v 0.214222 2.530045 -0.035404
v 0.194007 -3.499733 -0.035404
v 1.070135 -3.575917 0.078112
v 0.978430 -5.505567 0.078112
v 0.639321 3.603251 0.179627
v 0.915680 3.430125 -0.035404
v 0.878370 3.859315 -0.035404
v 0.639321 3.603251 -0.196817
v 0.000000 -4.446236 -0.191283
v -0.214221 2.530045 -0.035404
v 0.000000 2.724652 -0.191283
v -0.194007 -3.499733 -0.035404
v 0.000000 2.724652 0.165455
v 0.000000 -3.458673 0.094947
v -1.070135 -3.575917 0.078112
v -0.978430 -5.505567 0.078112
v 0.000000 -6.412426 0.168125
v 0.000000 -4.789747 -0.040799
v -0.639321 3.603251 0.179627
v -0.915680 3.430125 -0.035404
v -0.878369 3.859315 -0.035404
v -0.639321 3.603251 -0.196817
vn 0.9972 -0.0033 -0.0753
vn 0.9214 -0.0046 -0.3886
vn 0.0000 -0.0023 -1.0000
vn -0.0000 0.0000 -1.0000
vn -0.9972 -0.0033 -0.0753
vn -0.9214 -0.0046 -0.3886
vn -0.0000 -0.0114 0.9999
vn -0.0000 -0.0035 1.0000
vn 0.5432 -0.0852 0.8353
vn 0.0000 -0.1015 0.9948
vn -0.5432 -0.0852 0.8353
vn -0.1228 0.0110 0.9924
vn -0.1272 0.0150 0.9918
vn 0.0000 0.0459 0.9989
vn -0.0646 0.0770 0.9949
vn 0.0000 0.1277 0.9918
vn 0.1228 0.0110 0.9924
vn 0.1272 0.0150 0.9918
vn 0.0646 0.0770 0.9949
vn -0.0000 -0.0211 -0.9998
vn 0.1387 0.1332 -0.9813
vn 0.2002 0.0565 -0.9781
vn 0.1368 -0.1236 -0.9829
vn 0.0000 -0.1798 -0.9837
vn -0.2002 0.0565 -0.9781
vn -0.1387 0.1332 -0.9813
vn -0.1368 -0.1236 -0.9829
vn -0.3520 0.2327 0.9066
vn 0.4506 -0.3511 0.8208
vn 0.5342 -0.1795 0.8261
vn 0.0441 0.0706 0.9965
vn 0.3544 0.3848 0.8522
vn -0.8086 0.5884 0.0000
vn -0.3544 0.3848 0.8522
vn -0.0441 0.0706 0.9965
vn 0.3520 0.2327 0.9066
vn -0.5342 -0.1795 0.8261
vn -0.4506 -0.3511 0.8208
vn 0.8086 0.5884 0.0000
vn 0.0000 -1.0000 0.0000
vn 0.3748 -0.2921 -0.8799
vn 0.3715 -0.2871 -0.8829
vn 0.4336 -0.1452 -0.8893
vn 0.2642 0.1763 -0.9482
vn 0.2835 0.3078 -0.9082
vn -0.2835 0.3078 -0.9082
vn -0.3748 -0.2921 -0.8799
vn -0.4336 -0.1452 -0.8893
vn -0.3715 -0.2871 -0.8829
vn -0.2642 0.1763 -0.9482
s 1
f 1//1 2//2 11//3
f 9//4 11//3 2//2
f 10//5 11//3 12//6
f 9//4 12//6 11//3
f 14//7 2//2 13//8
f 2//2 1//1 13//8
f 14//7 13//8 12//6
f 12//6 13//8 10//5
s 2
f 2//9 14//10 18//10
f 12//11 18//10 14//10
s 3
f 3//12 2//13 18//14
f 4//15 3//12 18//14
f 17//16 4//15 18//14
f 15//17 18//14 12//18
f 16//19 18//14 15//17
f 17//16 18//14 16//19
s 4
f 9//20 2//21 3//22
f 3//22 4//23 9//20
f 17//24 9//20 4//23
f 9//20 15//25 12//26
f 15//25 9//20 16//27
f 17//24 16//27 9//20
s 5
f 13//28 1//29 6//30
f 5//31 13//28 6//30
f 5//31 6//30 7//32
f 13//28 5//31 11//33
f 21//34 5//31 7//32
f 11//33 5//31 8//33
f 5//31 21//34 19//35
f 13//36 20//37 10//38
f 19//35 20//37 13//36
f 19//35 21//34 20//37
f 13//36 11//39 19//35
f 19//35 8//40 5//31
f 11//39 22//39 19//35
f 22//40 8//40 19//35
s 6
f 1//41 11//42 6//43
f 6//43 11//42 8//44
f 7//45 6//43 8//44
f 7//45 8//44 21//46
f 10//47 20//48 11//49
f 8//44 22//50 21//46
f 20//48 22//50 11//49
f 21//46 22//50 20//48
