# by drummyfish, released under CC0 1.0, public domain 
v -0.032210 0.648182 0.110726
v -0.001897 -0.540517 0.132329
v -0.864992 1.692828 0.058204
v -0.487881 2.269516 0.046259
v 0.092854 2.429849 0.046259
v -0.746793 1.050506 0.070626
v 0.731282 2.152532 0.000000
v -0.184266 0.614594 0.000000
v 0.109134 2.187695 0.000000
v -0.282540 2.001519 0.000000
v -0.494288 1.601295 0.000000
v -0.446594 1.177564 0.000000
v 0.103352 0.647248 0.000000
v -0.165840 -0.539461 0.000000
v 0.162046 -0.541574 0.000000
v -0.032210 0.648182 -0.110726
v -0.001897 -0.540517 -0.132328
v -0.864992 1.692828 -0.058204
v -0.487881 2.269516 -0.046259
v 0.092854 2.429849 -0.046259
v -0.746793 1.050506 -0.070625
vn -0.9813 0.1927 0.0000
vn -0.5912 0.8065 0.0000
vn -0.8465 -0.5301 -0.0493
vn -0.8465 -0.5301 0.0493
vn 0.0625 0.9980 0.0000
vn -0.3786 -0.6024 0.7027
vn -0.5374 -0.8433 -0.0000
vn 0.3984 0.9172 0.0000
vn -0.3786 -0.6024 -0.7027
vn 0.0236 -0.1767 0.9840
vn -0.0106 -0.1883 0.9821
vn 0.0236 -0.1861 0.9823
vn 0.0965 -0.1060 0.9897
vn 0.0998 -0.0957 0.9904
vn 0.1513 -0.0124 0.9884
vn 0.1605 -0.0134 0.9869
vn 0.1596 0.1382 0.9775
vn 0.1872 0.1767 0.9663
vn 0.4688 0.5168 0.7163
vn 0.5305 0.5502 0.6449
vn 0.0153 0.0140 0.9998
vn 0.0614 0.0203 0.9979
vn -1.0000 -0.0022 0.0000
vn -0.9999 -0.0160 0.0000
vn 0.9988 0.0481 0.0000
vn 0.9988 0.0493 0.0000
vn 0.0153 0.0140 -0.9998
vn 0.0614 0.0203 -0.9979
vn -0.0064 -1.0000 0.0000
vn 0.0236 -0.1767 -0.9840
vn 0.0236 -0.1861 -0.9823
vn -0.0106 -0.1883 -0.9821
vn 0.0965 -0.1060 -0.9897
vn 0.0998 -0.0957 -0.9904
vn 0.1513 -0.0124 -0.9884
vn 0.1605 -0.0134 -0.9869
vn 0.1596 0.1382 -0.9775
vn 0.1872 0.1767 -0.9663
vn 0.4688 0.5168 -0.7163
vn 0.5305 0.5502 -0.6449
s 1
f 18//1 3//1 19//2
f 18//1 21//3 6//4
f 19//2 4//2 20//5
f 1//6 6//4 8//7
f 5//5 7//8 20//5
f 6//4 3//1 18//1
f 6//4 21//3 8//7
f 19//2 3//1 4//2
f 16//9 8//7 21//3
f 4//2 5//5 20//5
s 2
f 9//10 7//11 5//12
f 9//10 5//12 4//13
f 9//10 4//13 10//14
f 3//15 10//14 4//13
f 10//14 3//15 11//16
f 3//15 6//17 11//16
f 11//16 6//17 12//18
f 1//19 12//18 6//17
f 12//18 1//19 13//20
s 3
f 2//21 1//22 8//23
f 8//23 14//24 2//21
f 15//25 13//26 1//22
f 2//21 15//25 1//22
f 17//27 8//23 16//28
f 8//23 17//27 14//24
f 15//25 16//28 13//26
f 17//27 16//28 15//25
s 4
f 2//29 14//29 15//29
f 17//29 15//29 14//29
s 5
f 9//30 20//31 7//32
f 9//30 19//33 20//31
f 9//30 10//34 19//33
f 18//35 19//33 10//34
f 10//34 11//36 18//35
f 18//35 11//36 21//37
f 11//36 12//38 21//37
f 16//39 21//37 12//38
f 12//38 13//40 16//39
