{
	"asset":{
		"generator":"Khronos glTF Blender I/O v5.0.21",
		"version":"2.0"
	},
	"extensionsUsed":[
		"KHR_materials_specular",
		"KHR_materials_ior"
	],
	"scene":0,
	"scenes":[
		{
			"name":"Scene",
			"nodes":[
				0,
				1
			]
		}
	],
	"nodes":[
		{
			"mesh":0,
			"name":"NurbsPath.006",
			"rotation":[
				-0.04979879781603813,
				0.9987592697143555,
				0,
				2.8163188403595996e-07
			],
			"scale":[
				0.7423635721206665,
				0.7423636317253113,
				0.7423635721206665
			]
		},
		{
			"mesh":1,
			"name":"NurbsPath.001",
			"rotation":[
				-0.04979879781603813,
				0.9987592697143555,
				0,
				2.8163188403595996e-07
			],
			"scale":[
				0.7423635721206665,
				0.7423636317253113,
				0.7423635721206665
			]
		}
	],
	"materials":[
		{
			"doubleSided":true,
			"extensions":{
				"KHR_materials_specular":{
					"specularColorFactor":[
						1.600000023841858,
						1.600000023841858,
						1.600000023841858
					]
				},
				"KHR_materials_ior":{
					"ior":1.4500000476837158
				}
			},
			"name":"None",
			"pbrMetallicRoughness":{
				"metallicFactor":0
			}
		},
		{
			"doubleSided":true,
			"name":"Material.001",
			"pbrMetallicRoughness":{
				"metallicFactor":0,
				"roughnessFactor":0.5
			}
		},
		{
			"doubleSided":true,
			"name":"Material",
			"pbrMetallicRoughness":{
				"metallicFactor":0,
				"roughnessFactor":0.5
			}
		}
	],
	"meshes":[
		{
			"name":"NurbsPath.012",
			"primitives":[
				{
					"attributes":{
						"POSITION":0,
						"NORMAL":1,
						"TEXCOORD_0":2
					},
					"indices":3,
					"material":0
				},
				{
					"attributes":{
						"POSITION":4,
						"NORMAL":5,
						"TEXCOORD_0":6
					},
					"indices":7,
					"material":1
				}
			]
		},
		{
			"name":"NurbsPath.013",
			"primitives":[
				{
					"attributes":{
						"POSITION":8,
						"NORMAL":9,
						"TEXCOORD_0":10
					},
					"indices":11,
					"material":2
				}
			]
		}
	],
	"accessors":[
		{
			"bufferView":0,
			"componentType":5126,
			"count":1105,
			"max":[
				2.7125117778778076,
				3.5342342853546143,
				2.1798737049102783
			],
			"min":[
				-2.529620409011841,
				-3.743105888366699,
				-3.882178783416748
			],
			"type":"VEC3"
		},
		{
			"bufferView":1,
			"componentType":5126,
			"count":1105,
			"type":"VEC3"
		},
		{
			"bufferView":2,
			"componentType":5126,
			"count":1105,
			"type":"VEC2"
		},
		{
			"bufferView":3,
			"componentType":5123,
			"count":6216,
			"type":"SCALAR"
		},
		{
			"bufferView":4,
			"componentType":5126,
			"count":84,
			"max":[
				1.7457166910171509,
				0.1453438699245453,
				-2.339883327484131
			],
			"min":[
				-1.9359813928604126,
				-0.4069634974002838,
				-3.377598524093628
			],
			"type":"VEC3"
		},
		{
			"bufferView":5,
			"componentType":5126,
			"count":84,
			"type":"VEC3"
		},
		{
			"bufferView":6,
			"componentType":5126,
			"count":84,
			"type":"VEC2"
		},
		{
			"bufferView":7,
			"componentType":5123,
			"count":312,
			"type":"SCALAR"
		},
		{
			"bufferView":8,
			"componentType":5126,
			"count":6244,
			"max":[
				3.1674485206604004,
				3.9640157222747803,
				3.797684907913208
			],
			"min":[
				-3.2381277084350586,
				-4.044730186462402,
				-4.077398300170898
			],
			"type":"VEC3"
		},
		{
			"bufferView":9,
			"componentType":5126,
			"count":6244,
			"type":"VEC3"
		},
		{
			"bufferView":10,
			"componentType":5126,
			"count":6244,
			"type":"VEC2"
		},
		{
			"bufferView":11,
			"componentType":5123,
			"count":35250,
			"type":"SCALAR"
		}
	],
	"bufferViews":[
		{
			"buffer":0,
			"byteLength":13260,
			"byteOffset":0,
			"target":34962
		},
		{
			"buffer":0,
			"byteLength":13260,
			"byteOffset":13260,
			"target":34962
		},
		{
			"buffer":0,
			"byteLength":8840,
			"byteOffset":26520,
			"target":34962
		},
		{
			"buffer":0,
			"byteLength":12432,
			"byteOffset":35360,
			"target":34963
		},
		{
			"buffer":0,
			"byteLength":1008,
			"byteOffset":47792,
			"target":34962
		},
		{
			"buffer":0,
			"byteLength":1008,
			"byteOffset":48800,
			"target":34962
		},
		{
			"buffer":0,
			"byteLength":672,
			"byteOffset":49808,
			"target":34962
		},
		{
			"buffer":0,
			"byteLength":624,
			"byteOffset":50480,
			"target":34963
		},
		{
			"buffer":0,
			"byteLength":74928,
			"byteOffset":51104,
			"target":34962
		},
		{
			"buffer":0,
			"byteLength":74928,
			"byteOffset":126032,
			"target":34962
		},
		{
			"buffer":0,
			"byteLength":49952,
			"byteOffset":200960,
			"target":34962
		},
		{
			"buffer":0,
			"byteLength":70500,
			"byteOffset":250912,
			"target":34963
		}
	],
	"buffers":[
		{
			"byteLength":321412,
			"uri":"model.bin"
		}
	]
}
