{
	"asset":{
		"generator":"Khronos glTF Blender I/O v5.0.21",
		"version":"2.0"
	},
	"extensionsUsed":[
		"KHR_materials_specular",
		"KHR_materials_ior"
	],
	"scene":0,
	"scenes":[
		{
			"name":"Scene",
			"nodes":[
				0,
				1,
				2,
				3
			]
		}
	],
	"nodes":[
		{
			"mesh":0,
			"name":"FACE.001_Cube.001",
			"rotation":[
				0.7071068286895752,
				0,
				0,
				0.7071068286895752
			]
		},
		{
			"mesh":1,
			"name":"FACE_Cube.002",
			"rotation":[
				0.7071068286895752,
				0,
				0,
				0.7071068286895752
			]
		},
		{
			"mesh":2,
			"name":"corpo.000",
			"rotation":[
				0.7070945501327515,
				-0.004202605225145817,
				0.004202376585453749,
				0.707094132900238
			],
			"scale":[
				3.4563865661621094,
				3.4563865661621094,
				3.456387519836426
			],
			"translation":[
				0.0019903331995010376,
				1.0722395181655884,
				0.6553288102149963
			]
		},
		{
			"mesh":3,
			"name":"NurbsPath.004",
			"rotation":[
				0.7071068286895752,
				0,
				0,
				0.7071068286895752
			],
			"scale":[
				9.805720329284668,
				9.805720329284668,
				9.805720329284668
			],
			"translation":[
				-0.10192807763814926,
				1.545908808708191,
				-0.05096403881907463
			]
		}
	],
	"materials":[
		{
			"doubleSided":true,
			"extensions":{
				"KHR_materials_specular":{
					"specularColorFactor":[
						1.600000023841858,
						1.600000023841858,
						1.600000023841858
					]
				},
				"KHR_materials_ior":{
					"ior":1.4500000476837158
				}
			},
			"name":"None",
			"pbrMetallicRoughness":{
				"metallicFactor":0
			}
		},
		{
			"doubleSided":true,
			"name":"Material",
			"pbrMetallicRoughness":{
				"metallicFactor":0,
				"roughnessFactor":0.5
			}
		},
		{
			"doubleSided":true,
			"name":"Material.002",
			"pbrMetallicRoughness":{
				"metallicFactor":0,
				"roughnessFactor":0.5
			}
		}
	],
	"meshes":[
		{
			"name":"FACE.001_Cube.001",
			"primitives":[
				{
					"attributes":{
						"POSITION":0,
						"NORMAL":1,
						"TEXCOORD_0":2
					},
					"indices":3,
					"material":0
				}
			]
		},
		{
			"name":"FACE_Cube.002",
			"primitives":[
				{
					"attributes":{
						"POSITION":4,
						"NORMAL":5,
						"TEXCOORD_0":6
					},
					"indices":7,
					"material":0
				}
			]
		},
		{
			"name":"Cube.006_Cube.001",
			"primitives":[
				{
					"attributes":{
						"POSITION":8,
						"NORMAL":9,
						"TEXCOORD_0":10
					},
					"indices":11,
					"material":1
				}
			]
		},
		{
			"name":"NurbsPath.004",
			"primitives":[
				{
					"attributes":{
						"POSITION":12,
						"NORMAL":13,
						"TEXCOORD_0":14
					},
					"indices":15,
					"material":2
				}
			]
		}
	],
	"accessors":[
		{
			"bufferView":0,
			"componentType":5126,
			"count":36,
			"max":[
				0.5420395731925964,
				0.7204698324203491,
				-0.934067964553833
			],
			"min":[
				-0.5420395731925964,
				0.5505141019821167,
				-1.098686933517456
			],
			"type":"VEC3"
		},
		{
			"bufferView":1,
			"componentType":5126,
			"count":36,
			"type":"VEC3"
		},
		{
			"bufferView":2,
			"componentType":5126,
			"count":36,
			"type":"VEC2"
		},
		{
			"bufferView":3,
			"componentType":5123,
			"count":120,
			"type":"SCALAR"
		},
		{
			"bufferView":4,
			"componentType":5126,
			"count":1069,
			"max":[
				0.91404128074646,
				1.0452443361282349,
				0.368897020816803
			],
			"min":[
				-0.91404128074646,
				-1.1745214462280273,
				-2.263601779937744
			],
			"type":"VEC3"
		},
		{
			"bufferView":5,
			"componentType":5126,
			"count":1069,
			"type":"VEC3"
		},
		{
			"bufferView":6,
			"componentType":5126,
			"count":1069,
			"type":"VEC2"
		},
		{
			"bufferView":7,
			"componentType":5123,
			"count":6096,
			"type":"SCALAR"
		},
		{
			"bufferView":8,
			"componentType":5126,
			"count":84,
			"max":[
				0.18739834427833557,
				0.03381374105811119,
				0.017359938472509384
			],
			"min":[
				-0.18739834427833557,
				-0.051756471395492554,
				-0.015022549778223038
			],
			"type":"VEC3"
		},
		{
			"bufferView":9,
			"componentType":5126,
			"count":84,
			"type":"VEC3"
		},
		{
			"bufferView":10,
			"componentType":5126,
			"count":84,
			"type":"VEC2"
		},
		{
			"bufferView":11,
			"componentType":5123,
			"count":312,
			"type":"SCALAR"
		},
		{
			"bufferView":12,
			"componentType":5126,
			"count":2856,
			"max":[
				0.11445003002882004,
				0.10406383126974106,
				0.17927727103233337
			],
			"min":[
				-0.09602364897727966,
				-0.13196860253810883,
				-0.09238286316394806
			],
			"type":"VEC3"
		},
		{
			"bufferView":13,
			"componentType":5126,
			"count":2856,
			"type":"VEC3"
		},
		{
			"bufferView":14,
			"componentType":5126,
			"count":2856,
			"type":"VEC2"
		},
		{
			"bufferView":15,
			"componentType":5123,
			"count":15624,
			"type":"SCALAR"
		}
	],
	"bufferViews":[
		{
			"buffer":0,
			"byteLength":432,
			"byteOffset":0,
			"target":34962
		},
		{
			"buffer":0,
			"byteLength":432,
			"byteOffset":432,
			"target":34962
		},
		{
			"buffer":0,
			"byteLength":288,
			"byteOffset":864,
			"target":34962
		},
		{
			"buffer":0,
			"byteLength":240,
			"byteOffset":1152,
			"target":34963
		},
		{
			"buffer":0,
			"byteLength":12828,
			"byteOffset":1392,
			"target":34962
		},
		{
			"buffer":0,
			"byteLength":12828,
			"byteOffset":14220,
			"target":34962
		},
		{
			"buffer":0,
			"byteLength":8552,
			"byteOffset":27048,
			"target":34962
		},
		{
			"buffer":0,
			"byteLength":12192,
			"byteOffset":35600,
			"target":34963
		},
		{
			"buffer":0,
			"byteLength":1008,
			"byteOffset":47792,
			"target":34962
		},
		{
			"buffer":0,
			"byteLength":1008,
			"byteOffset":48800,
			"target":34962
		},
		{
			"buffer":0,
			"byteLength":672,
			"byteOffset":49808,
			"target":34962
		},
		{
			"buffer":0,
			"byteLength":624,
			"byteOffset":50480,
			"target":34963
		},
		{
			"buffer":0,
			"byteLength":34272,
			"byteOffset":51104,
			"target":34962
		},
		{
			"buffer":0,
			"byteLength":34272,
			"byteOffset":85376,
			"target":34962
		},
		{
			"buffer":0,
			"byteLength":22848,
			"byteOffset":119648,
			"target":34962
		},
		{
			"buffer":0,
			"byteLength":31248,
			"byteOffset":142496,
			"target":34963
		}
	],
	"buffers":[
		{
			"byteLength":173744,
			"uri":"model.bin"
		}
	]
}
