{
	"asset":{
		"generator":"Khronos glTF Blender I/O v5.0.21",
		"version":"2.0"
	},
	"extensionsUsed":[
		"EXT_texture_webp"
	],
	"extensionsRequired":[
		"EXT_texture_webp"
	],
	"scene":0,
	"scenes":[
		{
			"name":"Scene",
			"nodes":[
				20
			]
		}
	],
	"nodes":[
		{
			"name":"Hand.L",
			"rotation":[
				0.023125948384404182,
				-0.001589999650605023,
				0.001563588622957468,
				0.9997300505638123
			],
			"scale":[
				0.9999998807907104,
				0.9999998807907104,
				0.9999999403953552
			],
			"translation":[
				-1.0622898116707802e-08,
				0.2511667013168335,
				1.3737007975578308e-08
			]
		},
		{
			"children":[
				0
			],
			"name":"LowerArm.L",
			"rotation":[
				0.053637854754924774,
				-0.0035638047847896814,
				-0.002453878289088607,
				0.998551070690155
			],
			"scale":[
				1,
				1,
				0.9999999403953552
			],
			"translation":[
				-2.8405338525772095e-08,
				0.29960450530052185,
				1.30385160446167e-08
			]
		},
		{
			"children":[
				1
			],
			"name":"UpperArm.L",
			"rotation":[
				-0.04895246401429176,
				1.437554431049648e-07,
				-0.657904863357544,
				0.7515084147453308
			],
			"scale":[
				0.9999999403953552,
				1,
				1
			],
			"translation":[
				-1.5832483768463135e-08,
				0.16765542328357697,
				-7.450580596923828e-09
			]
		},
		{
			"children":[
				2
			],
			"name":"Shoulder.L",
			"rotation":[
				0.010586158372461796,
				0.010586158372461796,
				-0.7070275545120239,
				0.7070275545120239
			],
			"scale":[
				0.9999999403953552,
				1,
				0.9999999403953552
			],
			"translation":[
				2.3161057151484775e-23,
				0.5067890286445618,
				0
			]
		},
		{
			"name":"Head",
			"rotation":[
				-0.09410413354635239,
				1.2097730863802803e-16,
				1.2097729540313823e-16,
				0.9955623745918274
			],
			"scale":[
				1,
				0.9999998807907104,
				0.9999999403953552
			],
			"translation":[
				6.617444900424222e-24,
				0.16751040518283844,
				7.450580596923828e-09
			]
		},
		{
			"children":[
				4
			],
			"name":"Neck",
			"rotation":[
				0.1923406571149826,
				-3.098345935893744e-16,
				-2.9902785608072844e-16,
				0.9813281893730164
			],
			"scale":[
				1,
				1.0000001192092896,
				1
			],
			"translation":[
				2.3161057151484775e-23,
				0.5067890286445618,
				0
			]
		},
		{
			"name":"Hand.R",
			"rotation":[
				0.023125948384404182,
				0.001589999650605023,
				-0.001563588622957468,
				0.9997300505638123
			],
			"scale":[
				0.9999998807907104,
				0.9999998807907104,
				0.9999999403953552
			],
			"translation":[
				1.0622898116707802e-08,
				0.2511667013168335,
				1.3737007975578308e-08
			]
		},
		{
			"children":[
				6
			],
			"name":"LowerArm.R",
			"rotation":[
				0.053637854754924774,
				0.0035638047847896814,
				0.002453878289088607,
				0.998551070690155
			],
			"scale":[
				1,
				1,
				0.9999999403953552
			],
			"translation":[
				2.8405338525772095e-08,
				0.29960450530052185,
				1.30385160446167e-08
			]
		},
		{
			"children":[
				7
			],
			"name":"UpperArm.R",
			"rotation":[
				-0.04895246401429176,
				-1.437554431049648e-07,
				0.657904863357544,
				0.7515084147453308
			],
			"scale":[
				0.9999999403953552,
				1,
				1
			],
			"translation":[
				1.5832483768463135e-08,
				0.16765542328357697,
				-7.450580596923828e-09
			]
		},
		{
			"children":[
				8
			],
			"name":"Shoulder.R",
			"rotation":[
				0.010586158372461796,
				-0.010586158372461796,
				0.7070275545120239,
				0.7070275545120239
			],
			"scale":[
				0.9999999403953552,
				1,
				0.9999999403953552
			],
			"translation":[
				-6.857462935685058e-18,
				0.5067890286445618,
				0
			]
		},
		{
			"children":[
				3,
				5,
				9
			],
			"name":"Torso",
			"rotation":[
				-0.09914007037878036,
				1.848703008686204e-16,
				1.848703008686204e-16,
				0.9950734376907349
			],
			"translation":[
				2.0846300071607004e-16,
				0.9010403156280518,
				0.019351230934262276
			]
		},
		{
			"name":"Foot.L",
			"rotation":[
				0.03529982268810272,
				-3.264393200197446e-08,
				-0.6697214841842651,
				0.7417729496955872
			],
			"scale":[
				0.9999997615814209,
				0.9999998211860657,
				0.9999998807907104
			],
			"translation":[
				0,
				0.38527753949165344,
				-6.111804395914078e-09
			]
		},
		{
			"children":[
				11
			],
			"name":"LowerLeg.L",
			"rotation":[
				0.03923674300312996,
				-0.004107075277715921,
				0.1124536320567131,
				0.99287348985672
			],
			"scale":[
				0.9999999403953552,
				1,
				1
			],
			"translation":[
				4.6566128730773926e-09,
				0.41889262199401855,
				-2.9103830456733704e-09
			]
		},
		{
			"children":[
				12
			],
			"name":"UpperLeg.L",
			"rotation":[
				-0.6222355961799622,
				0.02381327748298645,
				-0.039332035928964615,
				0.7814786434173584
			],
			"scale":[
				1,
				1,
				0.9999999403953552
			],
			"translation":[
				1.862645149230957e-09,
				0.13848759233951569,
				-4.1487510316073895e-08
			]
		},
		{
			"children":[
				13
			],
			"name":"Hip.L",
			"rotation":[
				-0.5826791524887085,
				-0.40955302119255066,
				-0.5621969103813171,
				0.4203404188156128
			],
			"translation":[
				2.0846300071607004e-16,
				0.9010403156280518,
				0.019351230934262276
			]
		},
		{
			"name":"Foot.R",
			"rotation":[
				0.03529982268810272,
				3.264393200197446e-08,
				0.6697214841842651,
				0.7417729496955872
			],
			"scale":[
				0.9999997615814209,
				0.9999998211860657,
				0.9999998807907104
			],
			"translation":[
				0,
				0.38527753949165344,
				-6.111804395914078e-09
			]
		},
		{
			"children":[
				15
			],
			"name":"LowerLeg.R",
			"rotation":[
				0.03923674300312996,
				0.004107075277715921,
				-0.1124536320567131,
				0.99287348985672
			],
			"scale":[
				0.9999999403953552,
				1,
				1
			],
			"translation":[
				-4.6566128730773926e-09,
				0.41889262199401855,
				-2.9103830456733704e-09
			]
		},
		{
			"children":[
				16
			],
			"name":"UpperLeg.R",
			"rotation":[
				-0.6222355961799622,
				-0.02381327748298645,
				0.039332035928964615,
				0.7814786434173584
			],
			"scale":[
				1,
				1,
				0.9999999403953552
			],
			"translation":[
				-1.862645149230957e-09,
				0.13848759233951569,
				-4.1487510316073895e-08
			]
		},
		{
			"children":[
				17
			],
			"name":"Hip.R",
			"rotation":[
				-0.5826791524887085,
				0.40955302119255066,
				0.5621969103813171,
				0.4203404188156128
			],
			"translation":[
				-2.0846300071607004e-16,
				0.9010403156280518,
				0.019351230934262276
			]
		},
		{
			"mesh":0,
			"name":"Skeleton",
			"skin":0
		},
		{
			"children":[
				19,
				10,
				14,
				18
			],
			"name":"Armature"
		}
	],
	"materials":[
		{
			"alphaMode":"MASK",
			"name":"Material",
			"pbrMetallicRoughness":{
				"baseColorTexture":{
					"index":0
				},
				"metallicFactor":0
			}
		}
	],
	"meshes":[
		{
			"name":"Skeleton",
			"primitives":[
				{
					"attributes":{
						"POSITION":0,
						"NORMAL":1,
						"TEXCOORD_0":2,
						"JOINTS_0":3,
						"WEIGHTS_0":4
					},
					"indices":5,
					"material":0
				}
			]
		}
	],
	"textures":[
		{
			"extensions":{
				"EXT_texture_webp":{
					"source":0
				}
			},
			"sampler":0
		}
	],
	"images":[
		{
			"mimeType":"image/webp",
			"name":"albedo_indexed",
			"uri":"albedo_indexed.webp"
		}
	],
	"skins":[
		{
			"inverseBindMatrices":6,
			"joints":[
				10,
				3,
				2,
				1,
				0,
				5,
				4,
				9,
				8,
				7,
				6,
				14,
				13,
				12,
				11,
				18,
				17,
				16,
				15
			],
			"name":"Armature"
		}
	],
	"accessors":[
		{
			"bufferView":0,
			"componentType":5126,
			"count":759,
			"max":[
				0.3178604245185852,
				1.726721167564392,
				0.19004669785499573
			],
			"min":[
				-0.3178604245185852,
				-0.007532253861427307,
				-0.16205835342407227
			],
			"type":"VEC3"
		},
		{
			"bufferView":1,
			"componentType":5126,
			"count":759,
			"type":"VEC3"
		},
		{
			"bufferView":2,
			"componentType":5126,
			"count":759,
			"type":"VEC2"
		},
		{
			"bufferView":3,
			"componentType":5121,
			"count":759,
			"type":"VEC4"
		},
		{
			"bufferView":4,
			"componentType":5126,
			"count":759,
			"type":"VEC4"
		},
		{
			"bufferView":5,
			"componentType":5123,
			"count":2646,
			"type":"SCALAR"
		},
		{
			"bufferView":6,
			"componentType":5126,
			"count":19,
			"type":"MAT4"
		}
	],
	"bufferViews":[
		{
			"buffer":0,
			"byteLength":9108,
			"byteOffset":0,
			"target":34962
		},
		{
			"buffer":0,
			"byteLength":9108,
			"byteOffset":9108,
			"target":34962
		},
		{
			"buffer":0,
			"byteLength":6072,
			"byteOffset":18216,
			"target":34962
		},
		{
			"buffer":0,
			"byteLength":3036,
			"byteOffset":24288,
			"target":34962
		},
		{
			"buffer":0,
			"byteLength":12144,
			"byteOffset":27324,
			"target":34962
		},
		{
			"buffer":0,
			"byteLength":5292,
			"byteOffset":39468,
			"target":34963
		},
		{
			"buffer":0,
			"byteLength":1216,
			"byteOffset":44760
		}
	],
	"samplers":[
		{
			"magFilter":9728,
			"minFilter":9984
		}
	],
	"buffers":[
		{
			"byteLength":45976,
			"uri":"model.bin"
		}
	]
}
