{
	"asset":{
		"generator":"Khronos glTF Blender I/O v5.0.21",
		"version":"2.0"
	},
	"scene":0,
	"scenes":[
		{
			"name":"Scene",
			"nodes":[
				0,
				1,
				2,
				3,
				4
			]
		}
	],
	"nodes":[
		{
			"mesh":0,
			"name":"Plane",
			"rotation":[
				0.7071068286895752,
				0,
				0,
				0.7071068286895752
			],
			"scale":[
				0.11247096210718155,
				0.11247096210718155,
				0.11247096210718155
			],
			"translation":[
				-3.4237565994262695,
				-0.6794493198394775,
				1.1489639282226562
			]
		},
		{
			"mesh":1,
			"name":"Plane.006",
			"rotation":[
				0.7071068286895752,
				0,
				0,
				0.7071068286895752
			],
			"scale":[
				0.11247096210718155,
				0.11247096210718155,
				0.11247096210718155
			],
			"translation":[
				9.406442642211914,
				-0.6794493198394775,
				1.1489639282226562
			]
		},
		{
			"mesh":2,
			"name":"Plane.003",
			"rotation":[
				0.7071068286895752,
				0,
				0,
				0.7071068286895752
			],
			"scale":[
				0.11247096210718155,
				0.11247096210718155,
				0.11247096210718155
			],
			"translation":[
				9.406442642211914,
				-0.6794493198394775,
				1.1489639282226562
			]
		},
		{
			"mesh":3,
			"name":"Plane.002",
			"rotation":[
				0.7071068286895752,
				0,
				0,
				0.7071068286895752
			],
			"scale":[
				0.11247096210718155,
				0.11247096210718155,
				0.11247096210718155
			],
			"translation":[
				9.406442642211914,
				-0.6794493198394775,
				1.1489639282226562
			]
		},
		{
			"mesh":4,
			"name":"Plane.001"
		}
	],
	"meshes":[
		{
			"name":"Plane",
			"primitives":[
				{
					"attributes":{
						"POSITION":0,
						"NORMAL":1,
						"TEXCOORD_0":2
					},
					"indices":3
				}
			]
		},
		{
			"name":"Plane.006",
			"primitives":[
				{
					"attributes":{
						"POSITION":4,
						"NORMAL":5,
						"TEXCOORD_0":6
					},
					"indices":7
				}
			]
		},
		{
			"name":"Plane.003",
			"primitives":[
				{
					"attributes":{
						"POSITION":8,
						"NORMAL":9,
						"TEXCOORD_0":10
					},
					"indices":11
				}
			]
		},
		{
			"name":"Plane.002",
			"primitives":[
				{
					"attributes":{
						"POSITION":12,
						"NORMAL":13,
						"TEXCOORD_0":14
					},
					"indices":15
				}
			]
		},
		{
			"name":"Plane.001",
			"primitives":[
				{
					"attributes":{
						"POSITION":16,
						"NORMAL":17,
						"TEXCOORD_0":18
					},
					"indices":19
				}
			]
		}
	],
	"accessors":[
		{
			"bufferView":0,
			"componentType":5126,
			"count":1318,
			"max":[
				11.581283569335938,
				0.7419221997261047,
				7.9825944900512695
			],
			"min":[
				0,
				-18.599971771240234,
				-14.761343002319336
			],
			"type":"VEC3"
		},
		{
			"bufferView":1,
			"componentType":5126,
			"count":1318,
			"type":"VEC3"
		},
		{
			"bufferView":2,
			"componentType":5126,
			"count":1318,
			"type":"VEC2"
		},
		{
			"bufferView":3,
			"componentType":5123,
			"count":1980,
			"type":"SCALAR"
		},
		{
			"bufferView":4,
			"componentType":5126,
			"count":231,
			"max":[
				30.864383697509766,
				7.962368965148926,
				193.3661346435547
			],
			"min":[
				11.434884071350098,
				-26.406803131103516,
				169.3735809326172
			],
			"type":"VEC3"
		},
		{
			"bufferView":5,
			"componentType":5126,
			"count":231,
			"type":"VEC3"
		},
		{
			"bufferView":6,
			"componentType":5126,
			"count":231,
			"type":"VEC2"
		},
		{
			"bufferView":7,
			"componentType":5123,
			"count":345,
			"type":"SCALAR"
		},
		{
			"bufferView":8,
			"componentType":5126,
			"count":1806,
			"max":[
				11.581283569335938,
				0.4747356176376343,
				15.460358619689941
			],
			"min":[
				0,
				-27.14911460876465,
				-25.623825073242188
			],
			"type":"VEC3"
		},
		{
			"bufferView":9,
			"componentType":5126,
			"count":1806,
			"type":"VEC3"
		},
		{
			"bufferView":10,
			"componentType":5126,
			"count":1806,
			"type":"VEC2"
		},
		{
			"bufferView":11,
			"componentType":5123,
			"count":2712,
			"type":"SCALAR"
		},
		{
			"bufferView":12,
			"componentType":5126,
			"count":1795,
			"max":[
				94.74873352050781,
				3.413036346435547,
				183.7969207763672
			],
			"min":[
				0,
				-28.803796768188477,
				9.31496524810791
			],
			"type":"VEC3"
		},
		{
			"bufferView":13,
			"componentType":5126,
			"count":1795,
			"type":"VEC3"
		},
		{
			"bufferView":14,
			"componentType":5126,
			"count":1795,
			"type":"VEC2"
		},
		{
			"bufferView":15,
			"componentType":5123,
			"count":2697,
			"type":"SCALAR"
		},
		{
			"bufferView":16,
			"componentType":5126,
			"count":1318,
			"max":[
				11.581283569335938,
				0.3795214891433716,
				8.24914264678955
			],
			"min":[
				0,
				-17.609357833862305,
				-14.647330284118652
			],
			"type":"VEC3"
		},
		{
			"bufferView":17,
			"componentType":5126,
			"count":1318,
			"type":"VEC3"
		},
		{
			"bufferView":18,
			"componentType":5126,
			"count":1318,
			"type":"VEC2"
		},
		{
			"bufferView":19,
			"componentType":5123,
			"count":1980,
			"type":"SCALAR"
		}
	],
	"bufferViews":[
		{
			"buffer":0,
			"byteLength":15816,
			"byteOffset":0,
			"target":34962
		},
		{
			"buffer":0,
			"byteLength":15816,
			"byteOffset":15816,
			"target":34962
		},
		{
			"buffer":0,
			"byteLength":10544,
			"byteOffset":31632,
			"target":34962
		},
		{
			"buffer":0,
			"byteLength":3960,
			"byteOffset":42176,
			"target":34963
		},
		{
			"buffer":0,
			"byteLength":2772,
			"byteOffset":46136,
			"target":34962
		},
		{
			"buffer":0,
			"byteLength":2772,
			"byteOffset":48908,
			"target":34962
		},
		{
			"buffer":0,
			"byteLength":1848,
			"byteOffset":51680,
			"target":34962
		},
		{
			"buffer":0,
			"byteLength":690,
			"byteOffset":53528,
			"target":34963
		},
		{
			"buffer":0,
			"byteLength":21672,
			"byteOffset":54220,
			"target":34962
		},
		{
			"buffer":0,
			"byteLength":21672,
			"byteOffset":75892,
			"target":34962
		},
		{
			"buffer":0,
			"byteLength":14448,
			"byteOffset":97564,
			"target":34962
		},
		{
			"buffer":0,
			"byteLength":5424,
			"byteOffset":112012,
			"target":34963
		},
		{
			"buffer":0,
			"byteLength":21540,
			"byteOffset":117436,
			"target":34962
		},
		{
			"buffer":0,
			"byteLength":21540,
			"byteOffset":138976,
			"target":34962
		},
		{
			"buffer":0,
			"byteLength":14360,
			"byteOffset":160516,
			"target":34962
		},
		{
			"buffer":0,
			"byteLength":5394,
			"byteOffset":174876,
			"target":34963
		},
		{
			"buffer":0,
			"byteLength":15816,
			"byteOffset":180272,
			"target":34962
		},
		{
			"buffer":0,
			"byteLength":15816,
			"byteOffset":196088,
			"target":34962
		},
		{
			"buffer":0,
			"byteLength":10544,
			"byteOffset":211904,
			"target":34962
		},
		{
			"buffer":0,
			"byteLength":3960,
			"byteOffset":222448,
			"target":34963
		}
	],
	"buffers":[
		{
			"byteLength":226408,
			"uri":"model.bin"
		}
	]
}
