{
	"asset":{
		"generator":"Khronos glTF Blender I/O v5.0.21",
		"version":"2.0"
	},
	"scene":0,
	"scenes":[
		{
			"name":"Scene",
			"nodes":[
				0,
				1
			]
		}
	],
	"nodes":[
		{
			"mesh":0,
			"name":"Cube",
			"scale":[
				0.3957100808620453,
				0.3957100808620453,
				0.3957100808620453
			],
			"translation":[
				0.7940987348556519,
				-5.087289810180664,
				-4.087790489196777
			]
		},
		{
			"mesh":1,
			"name":"Cube.001",
			"scale":[
				0.3957100808620453,
				0.3957100808620453,
				0.3957100808620453
			],
			"translation":[
				0.7940987348556519,
				-5.087289810180664,
				-4.087790489196777
			]
		}
	],
	"materials":[
		{
			"doubleSided":true,
			"name":"Material",
			"pbrMetallicRoughness":{
				"baseColorFactor":[
					0.800000011920929,
					0.800000011920929,
					0.800000011920929,
					1
				],
				"metallicFactor":0,
				"roughnessFactor":0.5
			}
		}
	],
	"meshes":[
		{
			"name":"Cube",
			"primitives":[
				{
					"attributes":{
						"POSITION":0,
						"NORMAL":1
					},
					"indices":2,
					"material":0
				}
			]
		},
		{
			"name":"Cube.001",
			"primitives":[
				{
					"attributes":{
						"POSITION":3,
						"NORMAL":4
					},
					"indices":5,
					"material":0
				}
			]
		}
	],
	"accessors":[
		{
			"bufferView":0,
			"componentType":5126,
			"count":1686,
			"max":[
				14.646856307983398,
				24.909412384033203,
				4.2541117668151855
			],
			"min":[
				0,
				-5.789719104766846,
				-1.8265557289123535
			],
			"type":"VEC3"
		},
		{
			"bufferView":1,
			"componentType":5126,
			"count":1686,
			"type":"VEC3"
		},
		{
			"bufferView":2,
			"componentType":5123,
			"count":2562,
			"type":"SCALAR"
		},
		{
			"bufferView":3,
			"componentType":5126,
			"count":440,
			"max":[
				1.2996312379837036,
				26.9105167388916,
				3.754714012145996
			],
			"min":[
				0,
				23.98582649230957,
				1.4699087142944336
			],
			"type":"VEC3"
		},
		{
			"bufferView":4,
			"componentType":5126,
			"count":440,
			"type":"VEC3"
		},
		{
			"bufferView":5,
			"componentType":5123,
			"count":660,
			"type":"SCALAR"
		}
	],
	"bufferViews":[
		{
			"buffer":0,
			"byteLength":20232,
			"byteOffset":0,
			"target":34962
		},
		{
			"buffer":0,
			"byteLength":20232,
			"byteOffset":20232,
			"target":34962
		},
		{
			"buffer":0,
			"byteLength":5124,
			"byteOffset":40464,
			"target":34963
		},
		{
			"buffer":0,
			"byteLength":5280,
			"byteOffset":45588,
			"target":34962
		},
		{
			"buffer":0,
			"byteLength":5280,
			"byteOffset":50868,
			"target":34962
		},
		{
			"buffer":0,
			"byteLength":1320,
			"byteOffset":56148,
			"target":34963
		}
	],
	"buffers":[
		{
			"byteLength":57468,
			"uri":"model.bin"
		}
	]
}
