{
	"asset":{
		"generator":"Khronos glTF Blender I/O v5.0.21",
		"version":"2.0"
	},
	"scene":0,
	"scenes":[
		{
			"name":"Scene",
			"nodes":[
				0
			]
		}
	],
	"nodes":[
		{
			"mesh":0,
			"name":"Spanner",
			"scale":[
				0.07182853668928146,
				0.10093435645103455,
				0.10000000149011612
			],
			"translation":[
				1.1606029147515073e-05,
				0.0013514329912140965,
				0.055743247270584106
			]
		}
	],
	"animations":[
		{
			"channels":[
				{
					"sampler":0,
					"target":{
						"node":0,
						"path":"rotation"
					}
				}
			],
			"name":"SpannerAction",
			"samplers":[
				{
					"input":4,
					"interpolation":"LINEAR",
					"output":5
				}
			]
		}
	],
	"materials":[
		{
			"doubleSided":true,
			"name":"Metal",
			"pbrMetallicRoughness":{
				"baseColorFactor":[
					0.3126693069934845,
					0.3126693069934845,
					0.3126693069934845,
					1
				],
				"metallicFactor":0.8166666626930237,
				"roughnessFactor":0.5
			}
		}
	],
	"meshes":[
		{
			"name":"Torus.002",
			"primitives":[
				{
					"attributes":{
						"POSITION":0,
						"NORMAL":1,
						"TEXCOORD_0":2
					},
					"indices":3,
					"material":0
				}
			]
		}
	],
	"accessors":[
		{
			"bufferView":0,
			"componentType":5126,
			"count":9585,
			"max":[
				1.376332402229309,
				0.25658848881721497,
				6.8653106689453125
			],
			"min":[
				-1.3766556978225708,
				-0.28336694836616516,
				-7.726886749267578
			],
			"type":"VEC3"
		},
		{
			"bufferView":1,
			"componentType":5126,
			"count":9585,
			"type":"VEC3"
		},
		{
			"bufferView":2,
			"componentType":5126,
			"count":9585,
			"type":"VEC2"
		},
		{
			"bufferView":3,
			"componentType":5123,
			"count":22824,
			"type":"SCALAR"
		},
		{
			"bufferView":4,
			"componentType":5126,
			"count":64,
			"max":[
				2.6666666666666665
			],
			"min":[
				0.041666666666666664
			],
			"type":"SCALAR"
		},
		{
			"bufferView":5,
			"componentType":5126,
			"count":64,
			"type":"VEC4"
		}
	],
	"bufferViews":[
		{
			"buffer":0,
			"byteLength":115020,
			"byteOffset":0,
			"target":34962
		},
		{
			"buffer":0,
			"byteLength":115020,
			"byteOffset":115020,
			"target":34962
		},
		{
			"buffer":0,
			"byteLength":76680,
			"byteOffset":230040,
			"target":34962
		},
		{
			"buffer":0,
			"byteLength":45648,
			"byteOffset":306720,
			"target":34963
		},
		{
			"buffer":0,
			"byteLength":256,
			"byteOffset":352368
		},
		{
			"buffer":0,
			"byteLength":1024,
			"byteOffset":352624
		}
	],
	"buffers":[
		{
			"byteLength":353648,
			"uri":"model.bin"
		}
	]
}
