{
	"asset":{
		"generator":"Khronos glTF Blender I/O v5.0.21",
		"version":"2.0"
	},
	"scene":0,
	"scenes":[
		{
			"name":"Scene",
			"nodes":[
				0,
				1,
				2,
				3,
				4
			]
		}
	],
	"nodes":[
		{
			"mesh":0,
			"name":"Cube.002",
			"scale":[
				0.2554730772972107,
				0.2554730772972107,
				0.2554730772972107
			],
			"translation":[
				2.6517746448516846,
				0,
				0
			]
		},
		{
			"mesh":1,
			"name":"Cube.001",
			"scale":[
				0.2554730772972107,
				0.2554730772972107,
				0.2554730772972107
			],
			"translation":[
				2.66036319732666,
				0,
				0
			]
		},
		{
			"mesh":2,
			"name":"Cube",
			"scale":[
				0.2554730772972107,
				0.2554730772972107,
				0.2554730772972107
			],
			"translation":[
				2.6517746448516846,
				0,
				0
			]
		},
		{
			"mesh":3,
			"name":"FACE_UPDATE_Plane.002",
			"rotation":[
				0,
				-0.7071066498756409,
				0.70710688829422,
				5.3385068810030134e-08
			],
			"scale":[
				1.8129476308822632,
				1.8129476308822632,
				1.6216075420379639
			],
			"translation":[
				2.643972635269165,
				2.750481605529785,
				-1.1383744478225708
			]
		},
		{
			"mesh":4,
			"name":"FACE_UPDATE_Plane",
			"rotation":[
				0,
				-0.7071066498756409,
				0.70710688829422,
				5.3385068810030134e-08
			],
			"scale":[
				1.8129476308822632,
				1.8129476308822632,
				1.6216075420379639
			],
			"translation":[
				2.643972635269165,
				2.750481605529785,
				-1.1383744478225708
			]
		}
	],
	"materials":[
		{
			"doubleSided":true,
			"name":"Material",
			"pbrMetallicRoughness":{
				"baseColorFactor":[
					0.800000011920929,
					0.7453495860099792,
					0.7351171970367432,
					1
				],
				"metallicFactor":0,
				"roughnessFactor":0.5
			}
		},
		{
			"doubleSided":true,
			"name":"Material.001",
			"pbrMetallicRoughness":{
				"baseColorFactor":[
					0.800000011920929,
					0.800000011920929,
					0.800000011920929,
					1
				],
				"metallicFactor":0,
				"roughnessFactor":0.5
			}
		}
	],
	"meshes":[
		{
			"name":"Cube.002",
			"primitives":[
				{
					"attributes":{
						"POSITION":0,
						"NORMAL":1,
						"TEXCOORD_0":2
					},
					"indices":3,
					"material":0
				}
			]
		},
		{
			"name":"Cube.001",
			"primitives":[
				{
					"attributes":{
						"POSITION":4,
						"NORMAL":5
					},
					"indices":6,
					"material":0
				}
			]
		},
		{
			"name":"Cube",
			"primitives":[
				{
					"attributes":{
						"POSITION":7,
						"NORMAL":8,
						"TEXCOORD_0":9
					},
					"indices":10,
					"material":0
				}
			]
		},
		{
			"name":"FACE_UPDATE_Plane.002",
			"primitives":[
				{
					"attributes":{
						"POSITION":11,
						"NORMAL":12
					},
					"indices":13,
					"material":1
				}
			]
		},
		{
			"name":"FACE_UPDATE_Plane",
			"primitives":[
				{
					"attributes":{
						"POSITION":14,
						"NORMAL":15
					},
					"indices":16,
					"material":1
				}
			]
		}
	],
	"accessors":[
		{
			"bufferView":0,
			"componentType":5126,
			"count":2320,
			"max":[
				-2.256167411804199,
				6.112251281738281,
				-3.5984771251678467
			],
			"min":[
				-2.8070228099823,
				4.498077392578125,
				-4.535881042480469
			],
			"type":"VEC3"
		},
		{
			"bufferView":1,
			"componentType":5126,
			"count":2320,
			"type":"VEC3"
		},
		{
			"bufferView":2,
			"componentType":5126,
			"count":2320,
			"type":"VEC2"
		},
		{
			"bufferView":3,
			"componentType":5123,
			"count":3480,
			"type":"SCALAR"
		},
		{
			"bufferView":4,
			"componentType":5126,
			"count":48,
			"max":[
				-9.977560997009277,
				-6.36433219909668,
				1.738741397857666
			],
			"min":[
				-11.370962142944336,
				-11.58407974243164,
				0.7387409210205078
			],
			"type":"VEC3"
		},
		{
			"bufferView":5,
			"componentType":5126,
			"count":48,
			"type":"VEC3"
		},
		{
			"bufferView":6,
			"componentType":5123,
			"count":96,
			"type":"SCALAR"
		},
		{
			"bufferView":7,
			"componentType":5126,
			"count":1252,
			"max":[
				0,
				10.194829940795898,
				-2.767940044403076
			],
			"min":[
				-2.6464786529541016,
				-1.9023784399032593,
				-5.405407905578613
			],
			"type":"VEC3"
		},
		{
			"bufferView":8,
			"componentType":5126,
			"count":1252,
			"type":"VEC3"
		},
		{
			"bufferView":9,
			"componentType":5126,
			"count":1252,
			"type":"VEC2"
		},
		{
			"bufferView":10,
			"componentType":5123,
			"count":1884,
			"type":"SCALAR"
		},
		{
			"bufferView":11,
			"componentType":5126,
			"count":232,
			"max":[
				0.13361454010009766,
				0.040925271809101105,
				0.1128997877240181
			],
			"min":[
				-0.15100951492786407,
				-0.25669777393341064,
				-0.25488606095314026
			],
			"type":"VEC3"
		},
		{
			"bufferView":12,
			"componentType":5126,
			"count":232,
			"type":"VEC3"
		},
		{
			"bufferView":13,
			"componentType":5123,
			"count":348,
			"type":"SCALAR"
		},
		{
			"bufferView":14,
			"componentType":5126,
			"count":628,
			"max":[
				0.09572587162256241,
				0.04906991496682167,
				0.18028131127357483
			],
			"min":[
				0,
				-0.1528184860944748,
				-0.17072796821594238
			],
			"type":"VEC3"
		},
		{
			"bufferView":15,
			"componentType":5126,
			"count":628,
			"type":"VEC3"
		},
		{
			"bufferView":16,
			"componentType":5123,
			"count":942,
			"type":"SCALAR"
		}
	],
	"bufferViews":[
		{
			"buffer":0,
			"byteLength":27840,
			"byteOffset":0,
			"target":34962
		},
		{
			"buffer":0,
			"byteLength":27840,
			"byteOffset":27840,
			"target":34962
		},
		{
			"buffer":0,
			"byteLength":18560,
			"byteOffset":55680,
			"target":34962
		},
		{
			"buffer":0,
			"byteLength":6960,
			"byteOffset":74240,
			"target":34963
		},
		{
			"buffer":0,
			"byteLength":576,
			"byteOffset":81200,
			"target":34962
		},
		{
			"buffer":0,
			"byteLength":576,
			"byteOffset":81776,
			"target":34962
		},
		{
			"buffer":0,
			"byteLength":192,
			"byteOffset":82352,
			"target":34963
		},
		{
			"buffer":0,
			"byteLength":15024,
			"byteOffset":82544,
			"target":34962
		},
		{
			"buffer":0,
			"byteLength":15024,
			"byteOffset":97568,
			"target":34962
		},
		{
			"buffer":0,
			"byteLength":10016,
			"byteOffset":112592,
			"target":34962
		},
		{
			"buffer":0,
			"byteLength":3768,
			"byteOffset":122608,
			"target":34963
		},
		{
			"buffer":0,
			"byteLength":2784,
			"byteOffset":126376,
			"target":34962
		},
		{
			"buffer":0,
			"byteLength":2784,
			"byteOffset":129160,
			"target":34962
		},
		{
			"buffer":0,
			"byteLength":696,
			"byteOffset":131944,
			"target":34963
		},
		{
			"buffer":0,
			"byteLength":7536,
			"byteOffset":132640,
			"target":34962
		},
		{
			"buffer":0,
			"byteLength":7536,
			"byteOffset":140176,
			"target":34962
		},
		{
			"buffer":0,
			"byteLength":1884,
			"byteOffset":147712,
			"target":34963
		}
	],
	"buffers":[
		{
			"byteLength":149596,
			"uri":"model.bin"
		}
	]
}
