{
	"asset":{
		"generator":"Khronos glTF Blender I/O v5.0.21",
		"version":"2.0"
	},
	"scene":0,
	"scenes":[
		{
			"name":"Scene",
			"nodes":[
				0,
				1,
				2,
				3,
				4,
				5,
				6,
				7,
				8
			]
		}
	],
	"nodes":[
		{
			"mesh":0,
			"name":"Cube.002",
			"scale":[
				0.2554730772972107,
				0.2554730772972107,
				0.2554730772972107
			],
			"translation":[
				2.6517746448516846,
				0,
				0
			]
		},
		{
			"mesh":1,
			"name":"Cube.001",
			"scale":[
				0.2554730772972107,
				0.2554730772972107,
				0.2554730772972107
			],
			"translation":[
				2.66036319732666,
				0,
				0
			]
		},
		{
			"mesh":2,
			"name":"Cube",
			"scale":[
				0.2554730772972107,
				0.2554730772972107,
				0.2554730772972107
			],
			"translation":[
				2.6517746448516846,
				0,
				0
			]
		},
		{
			"mesh":3,
			"name":"Sphere.002"
		},
		{
			"mesh":4,
			"name":"Sphere.001"
		},
		{
			"mesh":5,
			"name":"FACE_UPDATE_Plane.003",
			"rotation":[
				0,
				-0.7071066498756409,
				0.70710688829422,
				5.3385068810030134e-08
			],
			"scale":[
				1.8129476308822632,
				1.8129476308822632,
				1.6216075420379639
			],
			"translation":[
				2.643972635269165,
				2.750481605529785,
				-1.139973521232605
			]
		},
		{
			"mesh":6,
			"name":"FACE_UPDATE_Plane.001",
			"rotation":[
				0,
				-0.7071066498756409,
				0.70710688829422,
				5.3385068810030134e-08
			],
			"scale":[
				1.8129476308822632,
				1.8129476308822632,
				1.6216075420379639
			],
			"translation":[
				2.643972635269165,
				2.750481605529785,
				-1.1383744478225708
			]
		},
		{
			"mesh":7,
			"name":"FACE_UPDATE_Plane",
			"rotation":[
				0,
				-0.7071066498756409,
				0.70710688829422,
				5.3385068810030134e-08
			],
			"scale":[
				1.8129476308822632,
				1.8129476308822632,
				1.6216075420379639
			],
			"translation":[
				2.643972635269165,
				2.750481605529785,
				-1.1383744478225708
			]
		},
		{
			"mesh":8,
			"name":"FACE_UPDATE_Plane.002",
			"rotation":[
				0,
				-0.7071066498756409,
				0.70710688829422,
				5.3385068810030134e-08
			],
			"scale":[
				1.8129476308822632,
				1.8129476308822632,
				1.6216075420379639
			],
			"translation":[
				2.643972635269165,
				2.750481605529785,
				-1.1383744478225708
			]
		}
	],
	"materials":[
		{
			"doubleSided":true,
			"name":"Material.007",
			"pbrMetallicRoughness":{
				"baseColorFactor":[
					0.800000011920929,
					0.3931644856929779,
					0.25925156474113464,
					1
				],
				"metallicFactor":0,
				"roughnessFactor":0.5
			}
		},
		{
			"doubleSided":true,
			"name":"Material",
			"pbrMetallicRoughness":{
				"baseColorFactor":[
					0.800000011920929,
					0.7453495860099792,
					0.7351171970367432,
					1
				],
				"metallicFactor":0,
				"roughnessFactor":0.5
			}
		},
		{
			"doubleSided":true,
			"name":"Material.005",
			"pbrMetallicRoughness":{
				"baseColorFactor":[
					0.800000011920929,
					0.07083363831043243,
					0.14226031303405762,
					1
				],
				"metallicFactor":0,
				"roughnessFactor":0.5
			}
		},
		{
			"doubleSided":true,
			"name":"Material.002",
			"pbrMetallicRoughness":{
				"metallicFactor":0,
				"roughnessFactor":0.5
			}
		},
		{
			"doubleSided":true,
			"name":"Material.003",
			"pbrMetallicRoughness":{
				"baseColorFactor":[
					0,
					0,
					0,
					1
				],
				"metallicFactor":0,
				"roughnessFactor":0.5
			}
		},
		{
			"doubleSided":true,
			"name":"Material.004",
			"pbrMetallicRoughness":{
				"baseColorFactor":[
					0.2210943102836609,
					0.1544138640165329,
					0.27383092045783997,
					1
				],
				"metallicFactor":0,
				"roughnessFactor":0.5
			}
		},
		{
			"doubleSided":true,
			"name":"Material.001",
			"pbrMetallicRoughness":{
				"baseColorFactor":[
					0.800000011920929,
					0.800000011920929,
					0.800000011920929,
					1
				],
				"metallicFactor":0,
				"roughnessFactor":0.5
			}
		},
		{
			"doubleSided":true,
			"name":"Material.006",
			"pbrMetallicRoughness":{
				"baseColorFactor":[
					0.800000011920929,
					0.1586981862783432,
					0.13832269608974457,
					1
				],
				"metallicFactor":0,
				"roughnessFactor":0.5
			}
		}
	],
	"meshes":[
		{
			"name":"Cube.002",
			"primitives":[
				{
					"attributes":{
						"POSITION":0,
						"NORMAL":1,
						"TEXCOORD_0":2
					},
					"indices":3,
					"material":0
				}
			]
		},
		{
			"name":"Cube.001",
			"primitives":[
				{
					"attributes":{
						"POSITION":4,
						"NORMAL":5
					},
					"indices":6,
					"material":1
				}
			]
		},
		{
			"name":"Cube",
			"primitives":[
				{
					"attributes":{
						"POSITION":7,
						"NORMAL":8,
						"TEXCOORD_0":9
					},
					"indices":10,
					"material":1
				},
				{
					"attributes":{
						"POSITION":11,
						"NORMAL":12,
						"TEXCOORD_0":13
					},
					"indices":14,
					"material":2
				},
				{
					"attributes":{
						"POSITION":15,
						"NORMAL":16,
						"TEXCOORD_0":17
					},
					"indices":18,
					"material":0
				}
			]
		},
		{
			"name":"Sphere.002",
			"primitives":[
				{
					"attributes":{
						"POSITION":19,
						"NORMAL":20
					},
					"indices":21,
					"material":3
				},
				{
					"attributes":{
						"POSITION":22,
						"NORMAL":23
					},
					"indices":24,
					"material":4
				},
				{
					"attributes":{
						"POSITION":25,
						"NORMAL":26
					},
					"indices":27,
					"material":5
				}
			]
		},
		{
			"name":"Sphere.001",
			"primitives":[
				{
					"attributes":{
						"POSITION":28,
						"NORMAL":29
					},
					"indices":30
				}
			]
		},
		{
			"name":"FACE_UPDATE_Plane.003",
			"primitives":[
				{
					"attributes":{
						"POSITION":31,
						"NORMAL":32
					},
					"indices":33,
					"material":4
				}
			]
		},
		{
			"name":"FACE_UPDATE_Plane.001",
			"primitives":[
				{
					"attributes":{
						"POSITION":34,
						"NORMAL":35
					},
					"indices":36,
					"material":6
				},
				{
					"attributes":{
						"POSITION":37,
						"NORMAL":38
					},
					"indices":39,
					"material":4
				},
				{
					"attributes":{
						"POSITION":40,
						"NORMAL":41
					},
					"indices":42,
					"material":5
				}
			]
		},
		{
			"name":"FACE_UPDATE_Plane",
			"primitives":[
				{
					"attributes":{
						"POSITION":43,
						"NORMAL":44
					},
					"indices":45,
					"material":7
				},
				{
					"attributes":{
						"POSITION":46,
						"NORMAL":47
					},
					"indices":48,
					"material":0
				}
			]
		},
		{
			"name":"FACE_UPDATE_Plane.002",
			"primitives":[
				{
					"attributes":{
						"POSITION":49,
						"NORMAL":50
					},
					"indices":51,
					"material":2
				}
			]
		}
	],
	"accessors":[
		{
			"bufferView":0,
			"componentType":5126,
			"count":2320,
			"max":[
				-2.256167411804199,
				6.112251281738281,
				-3.5984771251678467
			],
			"min":[
				-2.8070228099823,
				4.498077392578125,
				-4.535881042480469
			],
			"type":"VEC3"
		},
		{
			"bufferView":1,
			"componentType":5126,
			"count":2320,
			"type":"VEC3"
		},
		{
			"bufferView":2,
			"componentType":5126,
			"count":2320,
			"type":"VEC2"
		},
		{
			"bufferView":3,
			"componentType":5123,
			"count":3480,
			"type":"SCALAR"
		},
		{
			"bufferView":4,
			"componentType":5126,
			"count":48,
			"max":[
				-9.977560997009277,
				-6.36433219909668,
				1.738741397857666
			],
			"min":[
				-11.370962142944336,
				-11.58407974243164,
				0.7387409210205078
			],
			"type":"VEC3"
		},
		{
			"bufferView":5,
			"componentType":5126,
			"count":48,
			"type":"VEC3"
		},
		{
			"bufferView":6,
			"componentType":5123,
			"count":96,
			"type":"SCALAR"
		},
		{
			"bufferView":7,
			"componentType":5126,
			"count":392,
			"max":[
				0,
				9.853979110717773,
				-2.767940044403076
			],
			"min":[
				-2.319796085357666,
				-1.7307524681091309,
				-5.405407905578613
			],
			"type":"VEC3"
		},
		{
			"bufferView":8,
			"componentType":5126,
			"count":392,
			"type":"VEC3"
		},
		{
			"bufferView":9,
			"componentType":5126,
			"count":392,
			"type":"VEC2"
		},
		{
			"bufferView":10,
			"componentType":5123,
			"count":588,
			"type":"SCALAR"
		},
		{
			"bufferView":11,
			"componentType":5126,
			"count":796,
			"max":[
				0,
				10.194829940795898,
				-2.767940044403076
			],
			"min":[
				-2.319796085357666,
				-1.9023784399032593,
				-5.405407905578613
			],
			"type":"VEC3"
		},
		{
			"bufferView":12,
			"componentType":5126,
			"count":796,
			"type":"VEC3"
		},
		{
			"bufferView":13,
			"componentType":5126,
			"count":796,
			"type":"VEC2"
		},
		{
			"bufferView":14,
			"componentType":5123,
			"count":1200,
			"type":"SCALAR"
		},
		{
			"bufferView":15,
			"componentType":5126,
			"count":64,
			"max":[
				-1.0625464916229248,
				8.836180686950684,
				-2.9191343784332275
			],
			"min":[
				-2.6464786529541016,
				6.013765335083008,
				-3.961027145385742
			],
			"type":"VEC3"
		},
		{
			"bufferView":16,
			"componentType":5126,
			"count":64,
			"type":"VEC3"
		},
		{
			"bufferView":17,
			"componentType":5126,
			"count":64,
			"type":"VEC2"
		},
		{
			"bufferView":18,
			"componentType":5123,
			"count":96,
			"type":"SCALAR"
		},
		{
			"bufferView":19,
			"componentType":5126,
			"count":408,
			"max":[
				1.0000008344650269,
				0.8314695954322815,
				1.0000004768371582
			],
			"min":[
				-1,
				-1,
				-1.0000003576278687
			],
			"type":"VEC3"
		},
		{
			"bufferView":20,
			"componentType":5126,
			"count":408,
			"type":"VEC3"
		},
		{
			"bufferView":21,
			"componentType":5123,
			"count":600,
			"type":"SCALAR"
		},
		{
			"bufferView":22,
			"componentType":5126,
			"count":56,
			"max":[
				0.3826841711997986,
				1,
				0.3826838433742523
			],
			"min":[
				-0.3826834559440613,
				0.9238795042037964,
				-0.38268381357192993
			],
			"type":"VEC3"
		},
		{
			"bufferView":23,
			"componentType":5126,
			"count":56,
			"type":"VEC3"
		},
		{
			"bufferView":24,
			"componentType":5123,
			"count":72,
			"type":"SCALAR"
		},
		{
			"bufferView":25,
			"componentType":5126,
			"count":32,
			"max":[
				0.5555709600448608,
				0.9238795042037964,
				0.5555706024169922
			],
			"min":[
				-0.5555702447891235,
				0.8314695954322815,
				-0.5555706024169922
			],
			"type":"VEC3"
		},
		{
			"bufferView":26,
			"componentType":5126,
			"count":32,
			"type":"VEC3"
		},
		{
			"bufferView":27,
			"componentType":5123,
			"count":48,
			"type":"SCALAR"
		},
		{
			"bufferView":28,
			"componentType":5126,
			"count":496,
			"max":[
				1.0000008344650269,
				1,
				1.0000004768371582
			],
			"min":[
				-1,
				-1,
				-1.0000003576278687
			],
			"type":"VEC3"
		},
		{
			"bufferView":29,
			"componentType":5126,
			"count":496,
			"type":"VEC3"
		},
		{
			"bufferView":30,
			"componentType":5123,
			"count":720,
			"type":"SCALAR"
		},
		{
			"bufferView":31,
			"componentType":5126,
			"count":40,
			"max":[
				0.08384999632835388,
				0.02219710685312748,
				-0.03642473369836807
			],
			"min":[
				0.01785299740731716,
				-0.039368826895952225,
				-0.08389973640441895
			],
			"type":"VEC3"
		},
		{
			"bufferView":32,
			"componentType":5126,
			"count":40,
			"type":"VEC3"
		},
		{
			"bufferView":33,
			"componentType":5123,
			"count":60,
			"type":"SCALAR"
		},
		{
			"bufferView":34,
			"componentType":5126,
			"count":408,
			"max":[
				0.06636244803667068,
				0.0037744585424661636,
				-0.024996701627969742
			],
			"min":[
				0.012681735679507256,
				-0.04846986383199692,
				-0.08513957262039185
			],
			"type":"VEC3"
		},
		{
			"bufferView":35,
			"componentType":5126,
			"count":408,
			"type":"VEC3"
		},
		{
			"bufferView":36,
			"componentType":5123,
			"count":600,
			"type":"SCALAR"
		},
		{
			"bufferView":37,
			"componentType":5126,
			"count":56,
			"max":[
				0.05419313907623291,
				-0.001934584230184555,
				-0.043560296297073364
			],
			"min":[
				0.03438751399517059,
				-0.007551111280918121,
				-0.06657598912715912
			],
			"type":"VEC3"
		},
		{
			"bufferView":38,
			"componentType":5126,
			"count":56,
			"type":"VEC3"
		},
		{
			"bufferView":39,
			"componentType":5123,
			"count":72,
			"type":"SCALAR"
		},
		{
			"bufferView":40,
			"componentType":5126,
			"count":32,
			"max":[
				0.05915006995201111,
				0.0010376572608947754,
				-0.03836134076118469
			],
			"min":[
				0.03039677068591118,
				-0.007551111280918121,
				-0.0717749372124672
			],
			"type":"VEC3"
		},
		{
			"bufferView":41,
			"componentType":5126,
			"count":32,
			"type":"VEC3"
		},
		{
			"bufferView":42,
			"componentType":5123,
			"count":48,
			"type":"SCALAR"
		},
		{
			"bufferView":43,
			"componentType":5126,
			"count":60,
			"max":[
				0.029244709759950638,
				0.03001086786389351,
				0.04820971563458443
			],
			"min":[
				0,
				0.002477543195709586,
				0.01976199261844158
			],
			"type":"VEC3"
		},
		{
			"bufferView":44,
			"componentType":5126,
			"count":60,
			"type":"VEC3"
		},
		{
			"bufferView":45,
			"componentType":5123,
			"count":90,
			"type":"SCALAR"
		},
		{
			"bufferView":46,
			"componentType":5126,
			"count":592,
			"max":[
				0.09572587162256241,
				0.04906991496682167,
				0.18028131127357483
			],
			"min":[
				0,
				-0.16912436485290527,
				-0.17072796821594238
			],
			"type":"VEC3"
		},
		{
			"bufferView":47,
			"componentType":5126,
			"count":592,
			"type":"VEC3"
		},
		{
			"bufferView":48,
			"componentType":5123,
			"count":888,
			"type":"SCALAR"
		},
		{
			"bufferView":49,
			"componentType":5126,
			"count":256,
			"max":[
				0.13279733061790466,
				0.05873621255159378,
				0.1128997877240181
			],
			"min":[
				-0.15100951492786407,
				-0.25759488344192505,
				-0.24501901865005493
			],
			"type":"VEC3"
		},
		{
			"bufferView":50,
			"componentType":5126,
			"count":256,
			"type":"VEC3"
		},
		{
			"bufferView":51,
			"componentType":5123,
			"count":384,
			"type":"SCALAR"
		}
	],
	"bufferViews":[
		{
			"buffer":0,
			"byteLength":27840,
			"byteOffset":0,
			"target":34962
		},
		{
			"buffer":0,
			"byteLength":27840,
			"byteOffset":27840,
			"target":34962
		},
		{
			"buffer":0,
			"byteLength":18560,
			"byteOffset":55680,
			"target":34962
		},
		{
			"buffer":0,
			"byteLength":6960,
			"byteOffset":74240,
			"target":34963
		},
		{
			"buffer":0,
			"byteLength":576,
			"byteOffset":81200,
			"target":34962
		},
		{
			"buffer":0,
			"byteLength":576,
			"byteOffset":81776,
			"target":34962
		},
		{
			"buffer":0,
			"byteLength":192,
			"byteOffset":82352,
			"target":34963
		},
		{
			"buffer":0,
			"byteLength":4704,
			"byteOffset":82544,
			"target":34962
		},
		{
			"buffer":0,
			"byteLength":4704,
			"byteOffset":87248,
			"target":34962
		},
		{
			"buffer":0,
			"byteLength":3136,
			"byteOffset":91952,
			"target":34962
		},
		{
			"buffer":0,
			"byteLength":1176,
			"byteOffset":95088,
			"target":34963
		},
		{
			"buffer":0,
			"byteLength":9552,
			"byteOffset":96264,
			"target":34962
		},
		{
			"buffer":0,
			"byteLength":9552,
			"byteOffset":105816,
			"target":34962
		},
		{
			"buffer":0,
			"byteLength":6368,
			"byteOffset":115368,
			"target":34962
		},
		{
			"buffer":0,
			"byteLength":2400,
			"byteOffset":121736,
			"target":34963
		},
		{
			"buffer":0,
			"byteLength":768,
			"byteOffset":124136,
			"target":34962
		},
		{
			"buffer":0,
			"byteLength":768,
			"byteOffset":124904,
			"target":34962
		},
		{
			"buffer":0,
			"byteLength":512,
			"byteOffset":125672,
			"target":34962
		},
		{
			"buffer":0,
			"byteLength":192,
			"byteOffset":126184,
			"target":34963
		},
		{
			"buffer":0,
			"byteLength":4896,
			"byteOffset":126376,
			"target":34962
		},
		{
			"buffer":0,
			"byteLength":4896,
			"byteOffset":131272,
			"target":34962
		},
		{
			"buffer":0,
			"byteLength":1200,
			"byteOffset":136168,
			"target":34963
		},
		{
			"buffer":0,
			"byteLength":672,
			"byteOffset":137368,
			"target":34962
		},
		{
			"buffer":0,
			"byteLength":672,
			"byteOffset":138040,
			"target":34962
		},
		{
			"buffer":0,
			"byteLength":144,
			"byteOffset":138712,
			"target":34963
		},
		{
			"buffer":0,
			"byteLength":384,
			"byteOffset":138856,
			"target":34962
		},
		{
			"buffer":0,
			"byteLength":384,
			"byteOffset":139240,
			"target":34962
		},
		{
			"buffer":0,
			"byteLength":96,
			"byteOffset":139624,
			"target":34963
		},
		{
			"buffer":0,
			"byteLength":5952,
			"byteOffset":139720,
			"target":34962
		},
		{
			"buffer":0,
			"byteLength":5952,
			"byteOffset":145672,
			"target":34962
		},
		{
			"buffer":0,
			"byteLength":1440,
			"byteOffset":151624,
			"target":34963
		},
		{
			"buffer":0,
			"byteLength":480,
			"byteOffset":153064,
			"target":34962
		},
		{
			"buffer":0,
			"byteLength":480,
			"byteOffset":153544,
			"target":34962
		},
		{
			"buffer":0,
			"byteLength":120,
			"byteOffset":154024,
			"target":34963
		},
		{
			"buffer":0,
			"byteLength":4896,
			"byteOffset":154144,
			"target":34962
		},
		{
			"buffer":0,
			"byteLength":4896,
			"byteOffset":159040,
			"target":34962
		},
		{
			"buffer":0,
			"byteLength":1200,
			"byteOffset":163936,
			"target":34963
		},
		{
			"buffer":0,
			"byteLength":672,
			"byteOffset":165136,
			"target":34962
		},
		{
			"buffer":0,
			"byteLength":672,
			"byteOffset":165808,
			"target":34962
		},
		{
			"buffer":0,
			"byteLength":144,
			"byteOffset":166480,
			"target":34963
		},
		{
			"buffer":0,
			"byteLength":384,
			"byteOffset":166624,
			"target":34962
		},
		{
			"buffer":0,
			"byteLength":384,
			"byteOffset":167008,
			"target":34962
		},
		{
			"buffer":0,
			"byteLength":96,
			"byteOffset":167392,
			"target":34963
		},
		{
			"buffer":0,
			"byteLength":720,
			"byteOffset":167488,
			"target":34962
		},
		{
			"buffer":0,
			"byteLength":720,
			"byteOffset":168208,
			"target":34962
		},
		{
			"buffer":0,
			"byteLength":180,
			"byteOffset":168928,
			"target":34963
		},
		{
			"buffer":0,
			"byteLength":7104,
			"byteOffset":169108,
			"target":34962
		},
		{
			"buffer":0,
			"byteLength":7104,
			"byteOffset":176212,
			"target":34962
		},
		{
			"buffer":0,
			"byteLength":1776,
			"byteOffset":183316,
			"target":34963
		},
		{
			"buffer":0,
			"byteLength":3072,
			"byteOffset":185092,
			"target":34962
		},
		{
			"buffer":0,
			"byteLength":3072,
			"byteOffset":188164,
			"target":34962
		},
		{
			"buffer":0,
			"byteLength":768,
			"byteOffset":191236,
			"target":34963
		}
	],
	"buffers":[
		{
			"byteLength":192004,
			"uri":"model.bin"
		}
	]
}
