{
	"asset":{
		"generator":"Khronos glTF Blender I/O v5.0.21",
		"version":"2.0"
	},
	"scene":0,
	"scenes":[
		{
			"name":"Scene",
			"nodes":[
				0,
				1,
				2,
				3,
				4,
				5,
				6,
				7,
				8,
				9,
				10,
				11,
				12,
				13,
				14
			]
		}
	],
	"nodes":[
		{
			"mesh":0,
			"name":"Sword1",
			"scale":[
				1,
				1,
				0.5936534404754639
			],
			"translation":[
				0,
				0,
				-3.373786211013794
			]
		},
		{
			"mesh":1,
			"name":"Sword2",
			"scale":[
				1,
				1.0774389505386353,
				1
			]
		},
		{
			"mesh":2,
			"name":"Sword3",
			"scale":[
				0.6102805733680725,
				0.9522294402122498,
				0.5109469890594482
			],
			"translation":[
				0,
				0.030355989933013916,
				0
			]
		},
		{
			"mesh":3,
			"name":"Sword4",
			"scale":[
				1,
				1.2614997625350952,
				5.577521800994873
			],
			"translation":[
				0,
				3.072946310043335,
				0
			]
		},
		{
			"mesh":4,
			"name":"Sword5",
			"translation":[
				0,
				3.072946310043335,
				0
			]
		},
		{
			"mesh":5,
			"name":"Sword6"
		},
		{
			"mesh":6,
			"name":"Sword7"
		},
		{
			"mesh":7,
			"name":"Sword8",
			"scale":[
				0.7987480759620667,
				0.9492498636245728,
				0.9492498636245728
			],
			"translation":[
				0,
				0.6709972023963928,
				0
			]
		},
		{
			"mesh":8,
			"name":"Sword9",
			"scale":[
				1,
				1.679883360862732,
				1
			],
			"translation":[
				0.026088714599609375,
				7.703107833862305,
				0
			]
		},
		{
			"mesh":9,
			"name":"Sword10"
		},
		{
			"mesh":10,
			"name":"Sword11",
			"rotation":[
				0,
				0.7071068286895752,
				0,
				0.7071068286895752
			],
			"scale":[
				0.42708489298820496,
				0.13692647218704224,
				0.18399764597415924
			],
			"translation":[
				0,
				1.1561973094940186,
				0
			]
		},
		{
			"name":"Reference"
		},
		{
			"mesh":11,
			"name":"Sword12",
			"scale":[
				1,
				1,
				0.7220703959465027
			]
		},
		{
			"mesh":12,
			"name":"Sword13",
			"scale":[
				1,
				1.8859401941299438,
				1
			],
			"translation":[
				0,
				-1.721129298210144,
				0
			]
		},
		{
			"mesh":13,
			"name":"Sword14"
		}
	],
	"materials":[
		{
			"doubleSided":true,
			"name":"Material",
			"pbrMetallicRoughness":{
				"baseColorFactor":[
					0.800000011920929,
					0.800000011920929,
					0.800000011920929,
					1
				],
				"roughnessFactor":0.5
			}
		},
		{
			"doubleSided":true,
			"name":"Material.001",
			"pbrMetallicRoughness":{
				"baseColorFactor":[
					0.09083385765552521,
					0.09083385765552521,
					0.09083385765552521,
					1
				]
			}
		}
	],
	"meshes":[
		{
			"name":"Plane",
			"primitives":[
				{
					"attributes":{
						"POSITION":0,
						"NORMAL":1,
						"TEXCOORD_0":2
					},
					"indices":3
				}
			]
		},
		{
			"name":"Plane.001",
			"primitives":[
				{
					"attributes":{
						"POSITION":4,
						"NORMAL":5,
						"TEXCOORD_0":6
					},
					"indices":7
				}
			]
		},
		{
			"name":"Circle",
			"primitives":[
				{
					"attributes":{
						"POSITION":8,
						"NORMAL":9,
						"TEXCOORD_0":10
					},
					"indices":11
				}
			]
		},
		{
			"name":"Plane.004",
			"primitives":[
				{
					"attributes":{
						"POSITION":12,
						"NORMAL":13,
						"TEXCOORD_0":14
					},
					"indices":15
				}
			]
		},
		{
			"name":"Circle.001",
			"primitives":[
				{
					"attributes":{
						"POSITION":16,
						"NORMAL":17,
						"TEXCOORD_0":18
					},
					"indices":19
				}
			]
		},
		{
			"name":"Circle.002",
			"primitives":[
				{
					"attributes":{
						"POSITION":20,
						"NORMAL":21,
						"TEXCOORD_0":22
					},
					"indices":23
				}
			]
		},
		{
			"name":"Circle.003",
			"primitives":[
				{
					"attributes":{
						"POSITION":24,
						"NORMAL":25,
						"TEXCOORD_0":26
					},
					"indices":27
				}
			]
		},
		{
			"name":"Circle.006",
			"primitives":[
				{
					"attributes":{
						"POSITION":28,
						"NORMAL":29,
						"TEXCOORD_0":30
					},
					"indices":31
				}
			]
		},
		{
			"name":"Circle.008",
			"primitives":[
				{
					"attributes":{
						"POSITION":32,
						"NORMAL":33,
						"TEXCOORD_0":34
					},
					"indices":35
				}
			]
		},
		{
			"name":"Plane.002",
			"primitives":[
				{
					"attributes":{
						"POSITION":36,
						"NORMAL":37,
						"TEXCOORD_0":38
					},
					"indices":39
				}
			]
		},
		{
			"name":"Plane.007",
			"primitives":[
				{
					"attributes":{
						"POSITION":40,
						"NORMAL":41,
						"TEXCOORD_0":42
					},
					"indices":43
				}
			]
		},
		{
			"name":"Circle.005",
			"primitives":[
				{
					"attributes":{
						"POSITION":44,
						"NORMAL":45,
						"TEXCOORD_0":46
					},
					"indices":47
				}
			]
		},
		{
			"name":"Cube.001",
			"primitives":[
				{
					"attributes":{
						"POSITION":48,
						"NORMAL":49,
						"TEXCOORD_0":50
					},
					"indices":51
				}
			]
		},
		{
			"name":"Circle.007",
			"primitives":[
				{
					"attributes":{
						"POSITION":52,
						"NORMAL":53,
						"TEXCOORD_0":54
					},
					"indices":55,
					"material":0
				},
				{
					"attributes":{
						"POSITION":56,
						"NORMAL":57,
						"TEXCOORD_0":58
					},
					"indices":59,
					"material":1
				}
			]
		}
	],
	"accessors":[
		{
			"bufferView":0,
			"componentType":5126,
			"count":6912,
			"max":[
				0.1889326274394989,
				2.6738646030426025,
				0.1888349950313568
			],
			"min":[
				-0.21791568398475647,
				-0.040686946362257004,
				-0.1888350248336792
			],
			"type":"VEC3"
		},
		{
			"bufferView":1,
			"componentType":5126,
			"count":6912,
			"type":"VEC3"
		},
		{
			"bufferView":2,
			"componentType":5126,
			"count":6912,
			"type":"VEC2"
		},
		{
			"bufferView":3,
			"componentType":5123,
			"count":10368,
			"type":"SCALAR"
		},
		{
			"bufferView":4,
			"componentType":5126,
			"count":2130,
			"max":[
				0.559451162815094,
				7.714712142944336,
				0.8728302717208862
			],
			"min":[
				-0.559451162815094,
				-0.6354684829711914,
				-2.724567174911499
			],
			"type":"VEC3"
		},
		{
			"bufferView":5,
			"componentType":5126,
			"count":2130,
			"type":"VEC3"
		},
		{
			"bufferView":6,
			"componentType":5126,
			"count":2130,
			"type":"VEC2"
		},
		{
			"bufferView":7,
			"componentType":5123,
			"count":7977,
			"type":"SCALAR"
		},
		{
			"bufferView":8,
			"componentType":5126,
			"count":15158,
			"max":[
				1.5706220865249634,
				7.8029608726501465,
				0.325814813375473
			],
			"min":[
				-1.5706219673156738,
				-0.17026028037071228,
				-0.325814813375473
			],
			"type":"VEC3"
		},
		{
			"bufferView":9,
			"componentType":5126,
			"count":15158,
			"type":"VEC3"
		},
		{
			"bufferView":10,
			"componentType":5126,
			"count":15158,
			"type":"VEC2"
		},
		{
			"bufferView":11,
			"componentType":5123,
			"count":86010,
			"type":"SCALAR"
		},
		{
			"bufferView":12,
			"componentType":5126,
			"count":662,
			"max":[
				8.402599334716797,
				18.843015670776367,
				0.17929108440876007
			],
			"min":[
				-5.186028957366943,
				-6.015478610992432,
				-0.17929108440876007
			],
			"type":"VEC3"
		},
		{
			"bufferView":13,
			"componentType":5126,
			"count":662,
			"type":"VEC3"
		},
		{
			"bufferView":14,
			"componentType":5126,
			"count":662,
			"type":"VEC2"
		},
		{
			"bufferView":15,
			"componentType":5123,
			"count":3360,
			"type":"SCALAR"
		},
		{
			"bufferView":16,
			"componentType":5126,
			"count":1725,
			"max":[
				6.163031578063965,
				25.678142547607422,
				1.0191140174865723
			],
			"min":[
				-4.8818583488464355,
				-7.512665271759033,
				-1.000000238418579
			],
			"type":"VEC3"
		},
		{
			"bufferView":17,
			"componentType":5126,
			"count":1725,
			"type":"VEC3"
		},
		{
			"bufferView":18,
			"componentType":5126,
			"count":1725,
			"type":"VEC2"
		},
		{
			"bufferView":19,
			"componentType":5123,
			"count":8268,
			"type":"SCALAR"
		},
		{
			"bufferView":20,
			"componentType":5126,
			"count":371,
			"max":[
				2.167004108428955,
				19.23721694946289,
				0.8458922505378723
			],
			"min":[
				-2.167004108428955,
				-0.2638736069202423,
				-0.8458922505378723
			],
			"type":"VEC3"
		},
		{
			"bufferView":21,
			"componentType":5126,
			"count":371,
			"type":"VEC3"
		},
		{
			"bufferView":22,
			"componentType":5126,
			"count":371,
			"type":"VEC2"
		},
		{
			"bufferView":23,
			"componentType":5123,
			"count":1404,
			"type":"SCALAR"
		},
		{
			"bufferView":24,
			"componentType":5126,
			"count":481,
			"max":[
				3.852640151977539,
				27.01803207397461,
				0.5334850549697876
			],
			"min":[
				-0.7439292669296265,
				-3.451637029647827,
				-0.5334848165512085
			],
			"type":"VEC3"
		},
		{
			"bufferView":25,
			"componentType":5126,
			"count":481,
			"type":"VEC3"
		},
		{
			"bufferView":26,
			"componentType":5126,
			"count":481,
			"type":"VEC2"
		},
		{
			"bufferView":27,
			"componentType":5123,
			"count":2592,
			"type":"SCALAR"
		},
		{
			"bufferView":28,
			"componentType":5126,
			"count":621,
			"max":[
				7.853604316711426,
				42.057464599609375,
				3.4291019439697266
			],
			"min":[
				-9.000715255737305,
				-0.5588316917419434,
				-3.4291019439697266
			],
			"type":"VEC3"
		},
		{
			"bufferView":29,
			"componentType":5126,
			"count":621,
			"type":"VEC3"
		},
		{
			"bufferView":30,
			"componentType":5126,
			"count":621,
			"type":"VEC2"
		},
		{
			"bufferView":31,
			"componentType":5123,
			"count":3378,
			"type":"SCALAR"
		},
		{
			"bufferView":32,
			"componentType":5126,
			"count":602,
			"max":[
				5.777830600738525,
				31.05707550048828,
				2.722689390182495
			],
			"min":[
				-5.777830600738525,
				-6.488673686981201,
				-2.722689390182495
			],
			"type":"VEC3"
		},
		{
			"bufferView":33,
			"componentType":5126,
			"count":602,
			"type":"VEC3"
		},
		{
			"bufferView":34,
			"componentType":5126,
			"count":602,
			"type":"VEC2"
		},
		{
			"bufferView":35,
			"componentType":5123,
			"count":2514,
			"type":"SCALAR"
		},
		{
			"bufferView":36,
			"componentType":5126,
			"count":1065,
			"max":[
				4.462310314178467,
				20.086872100830078,
				0.5099175572395325
			],
			"min":[
				-4.462310791015625,
				-1.1482093334197998,
				-0.5099176168441772
			],
			"type":"VEC3"
		},
		{
			"bufferView":37,
			"componentType":5126,
			"count":1065,
			"type":"VEC3"
		},
		{
			"bufferView":38,
			"componentType":5126,
			"count":1065,
			"type":"VEC2"
		},
		{
			"bufferView":39,
			"componentType":5123,
			"count":6096,
			"type":"SCALAR"
		},
		{
			"bufferView":40,
			"componentType":5126,
			"count":1820,
			"max":[
				0.5365502238273621,
				23.180694580078125,
				3.5596261024475098
			],
			"min":[
				-0.5390807390213013,
				-8.741552352905273,
				-3.5596261024475098
			],
			"type":"VEC3"
		},
		{
			"bufferView":41,
			"componentType":5126,
			"count":1820,
			"type":"VEC3"
		},
		{
			"bufferView":42,
			"componentType":5126,
			"count":1820,
			"type":"VEC2"
		},
		{
			"bufferView":43,
			"componentType":5123,
			"count":8016,
			"type":"SCALAR"
		},
		{
			"bufferView":44,
			"componentType":5126,
			"count":2375,
			"max":[
				1.143282175064087,
				27.444372177124023,
				1.1256827116012573
			],
			"min":[
				-1.1353297233581543,
				-2.5171823501586914,
				-1.1255615949630737
			],
			"type":"VEC3"
		},
		{
			"bufferView":45,
			"componentType":5126,
			"count":2375,
			"type":"VEC3"
		},
		{
			"bufferView":46,
			"componentType":5126,
			"count":2375,
			"type":"VEC2"
		},
		{
			"bufferView":47,
			"componentType":5123,
			"count":9600,
			"type":"SCALAR"
		},
		{
			"bufferView":48,
			"componentType":5126,
			"count":1297,
			"max":[
				7.472875595092773,
				17.08310317993164,
				3.7984862327575684
			],
			"min":[
				-7.472934722900391,
				-4.057737350463867,
				-3.7984862327575684
			],
			"type":"VEC3"
		},
		{
			"bufferView":49,
			"componentType":5126,
			"count":1297,
			"type":"VEC3"
		},
		{
			"bufferView":50,
			"componentType":5126,
			"count":1297,
			"type":"VEC2"
		},
		{
			"bufferView":51,
			"componentType":5123,
			"count":5466,
			"type":"SCALAR"
		},
		{
			"bufferView":52,
			"componentType":5126,
			"count":249,
			"max":[
				0.6868593692779541,
				0.15859079360961914,
				0.5210725665092468
			],
			"min":[
				-0.7073204517364502,
				-1.6095337867736816,
				-0.5210725665092468
			],
			"type":"VEC3"
		},
		{
			"bufferView":53,
			"componentType":5126,
			"count":249,
			"type":"VEC3"
		},
		{
			"bufferView":54,
			"componentType":5126,
			"count":249,
			"type":"VEC2"
		},
		{
			"bufferView":55,
			"componentType":5123,
			"count":1332,
			"type":"SCALAR"
		},
		{
			"bufferView":56,
			"componentType":5126,
			"count":49,
			"max":[
				0.3905327320098877,
				14.905776023864746,
				0.19266942143440247
			],
			"min":[
				-0.4109938442707062,
				0.15859079360961914,
				-0.19266942143440247
			],
			"type":"VEC3"
		},
		{
			"bufferView":57,
			"componentType":5126,
			"count":49,
			"type":"VEC3"
		},
		{
			"bufferView":58,
			"componentType":5126,
			"count":49,
			"type":"VEC2"
		},
		{
			"bufferView":59,
			"componentType":5123,
			"count":240,
			"type":"SCALAR"
		}
	],
	"bufferViews":[
		{
			"buffer":0,
			"byteLength":82944,
			"byteOffset":0,
			"target":34962
		},
		{
			"buffer":0,
			"byteLength":82944,
			"byteOffset":82944,
			"target":34962
		},
		{
			"buffer":0,
			"byteLength":55296,
			"byteOffset":165888,
			"target":34962
		},
		{
			"buffer":0,
			"byteLength":20736,
			"byteOffset":221184,
			"target":34963
		},
		{
			"buffer":0,
			"byteLength":25560,
			"byteOffset":241920,
			"target":34962
		},
		{
			"buffer":0,
			"byteLength":25560,
			"byteOffset":267480,
			"target":34962
		},
		{
			"buffer":0,
			"byteLength":17040,
			"byteOffset":293040,
			"target":34962
		},
		{
			"buffer":0,
			"byteLength":15954,
			"byteOffset":310080,
			"target":34963
		},
		{
			"buffer":0,
			"byteLength":181896,
			"byteOffset":326036,
			"target":34962
		},
		{
			"buffer":0,
			"byteLength":181896,
			"byteOffset":507932,
			"target":34962
		},
		{
			"buffer":0,
			"byteLength":121264,
			"byteOffset":689828,
			"target":34962
		},
		{
			"buffer":0,
			"byteLength":172020,
			"byteOffset":811092,
			"target":34963
		},
		{
			"buffer":0,
			"byteLength":7944,
			"byteOffset":983112,
			"target":34962
		},
		{
			"buffer":0,
			"byteLength":7944,
			"byteOffset":991056,
			"target":34962
		},
		{
			"buffer":0,
			"byteLength":5296,
			"byteOffset":999000,
			"target":34962
		},
		{
			"buffer":0,
			"byteLength":6720,
			"byteOffset":1004296,
			"target":34963
		},
		{
			"buffer":0,
			"byteLength":20700,
			"byteOffset":1011016,
			"target":34962
		},
		{
			"buffer":0,
			"byteLength":20700,
			"byteOffset":1031716,
			"target":34962
		},
		{
			"buffer":0,
			"byteLength":13800,
			"byteOffset":1052416,
			"target":34962
		},
		{
			"buffer":0,
			"byteLength":16536,
			"byteOffset":1066216,
			"target":34963
		},
		{
			"buffer":0,
			"byteLength":4452,
			"byteOffset":1082752,
			"target":34962
		},
		{
			"buffer":0,
			"byteLength":4452,
			"byteOffset":1087204,
			"target":34962
		},
		{
			"buffer":0,
			"byteLength":2968,
			"byteOffset":1091656,
			"target":34962
		},
		{
			"buffer":0,
			"byteLength":2808,
			"byteOffset":1094624,
			"target":34963
		},
		{
			"buffer":0,
			"byteLength":5772,
			"byteOffset":1097432,
			"target":34962
		},
		{
			"buffer":0,
			"byteLength":5772,
			"byteOffset":1103204,
			"target":34962
		},
		{
			"buffer":0,
			"byteLength":3848,
			"byteOffset":1108976,
			"target":34962
		},
		{
			"buffer":0,
			"byteLength":5184,
			"byteOffset":1112824,
			"target":34963
		},
		{
			"buffer":0,
			"byteLength":7452,
			"byteOffset":1118008,
			"target":34962
		},
		{
			"buffer":0,
			"byteLength":7452,
			"byteOffset":1125460,
			"target":34962
		},
		{
			"buffer":0,
			"byteLength":4968,
			"byteOffset":1132912,
			"target":34962
		},
		{
			"buffer":0,
			"byteLength":6756,
			"byteOffset":1137880,
			"target":34963
		},
		{
			"buffer":0,
			"byteLength":7224,
			"byteOffset":1144636,
			"target":34962
		},
		{
			"buffer":0,
			"byteLength":7224,
			"byteOffset":1151860,
			"target":34962
		},
		{
			"buffer":0,
			"byteLength":4816,
			"byteOffset":1159084,
			"target":34962
		},
		{
			"buffer":0,
			"byteLength":5028,
			"byteOffset":1163900,
			"target":34963
		},
		{
			"buffer":0,
			"byteLength":12780,
			"byteOffset":1168928,
			"target":34962
		},
		{
			"buffer":0,
			"byteLength":12780,
			"byteOffset":1181708,
			"target":34962
		},
		{
			"buffer":0,
			"byteLength":8520,
			"byteOffset":1194488,
			"target":34962
		},
		{
			"buffer":0,
			"byteLength":12192,
			"byteOffset":1203008,
			"target":34963
		},
		{
			"buffer":0,
			"byteLength":21840,
			"byteOffset":1215200,
			"target":34962
		},
		{
			"buffer":0,
			"byteLength":21840,
			"byteOffset":1237040,
			"target":34962
		},
		{
			"buffer":0,
			"byteLength":14560,
			"byteOffset":1258880,
			"target":34962
		},
		{
			"buffer":0,
			"byteLength":16032,
			"byteOffset":1273440,
			"target":34963
		},
		{
			"buffer":0,
			"byteLength":28500,
			"byteOffset":1289472,
			"target":34962
		},
		{
			"buffer":0,
			"byteLength":28500,
			"byteOffset":1317972,
			"target":34962
		},
		{
			"buffer":0,
			"byteLength":19000,
			"byteOffset":1346472,
			"target":34962
		},
		{
			"buffer":0,
			"byteLength":19200,
			"byteOffset":1365472,
			"target":34963
		},
		{
			"buffer":0,
			"byteLength":15564,
			"byteOffset":1384672,
			"target":34962
		},
		{
			"buffer":0,
			"byteLength":15564,
			"byteOffset":1400236,
			"target":34962
		},
		{
			"buffer":0,
			"byteLength":10376,
			"byteOffset":1415800,
			"target":34962
		},
		{
			"buffer":0,
			"byteLength":10932,
			"byteOffset":1426176,
			"target":34963
		},
		{
			"buffer":0,
			"byteLength":2988,
			"byteOffset":1437108,
			"target":34962
		},
		{
			"buffer":0,
			"byteLength":2988,
			"byteOffset":1440096,
			"target":34962
		},
		{
			"buffer":0,
			"byteLength":1992,
			"byteOffset":1443084,
			"target":34962
		},
		{
			"buffer":0,
			"byteLength":2664,
			"byteOffset":1445076,
			"target":34963
		},
		{
			"buffer":0,
			"byteLength":588,
			"byteOffset":1447740,
			"target":34962
		},
		{
			"buffer":0,
			"byteLength":588,
			"byteOffset":1448328,
			"target":34962
		},
		{
			"buffer":0,
			"byteLength":392,
			"byteOffset":1448916,
			"target":34962
		},
		{
			"buffer":0,
			"byteLength":480,
			"byteOffset":1449308,
			"target":34963
		}
	],
	"buffers":[
		{
			"byteLength":1449788,
			"uri":"model.bin"
		}
	]
}
