# by drummyfish, released under CC0 1.0, public domain 
v -0.869183 0.938257 0.144115
v -0.844939 0.576611 0.142969
v -0.299353 0.901194 0.116616
v -0.160806 0.701613 0.109474
v 0.000000 1.026238 0.101593
v 0.000000 6.200078 0.100477
v 0.869183 0.938257 0.144115
v 0.844939 0.576611 0.142969
v 0.299353 0.901194 0.116616
v 0.000000 0.812165 0.101744
v 0.160806 0.701613 0.109474
v 0.000000 -0.557579 0.090818
v 0.000000 -0.905940 0.141791
v -0.299452 0.901194 0.000000
v -0.252759 6.286390 0.000000
v -0.160950 0.701613 -0.000000
v -0.869183 0.938257 -0.144115
v -0.844939 0.576611 -0.142969
v -0.299353 0.901194 -0.116616
v -0.143265 -0.559950 -0.000000
v -0.211273 -0.809142 -0.000000
v -0.160806 0.701613 -0.109474
v 0.299452 0.901194 0.000000
v 0.000000 1.026238 -0.101593
v 0.252759 6.286390 0.000000
v 0.000000 5.696487 -0.100477
v 0.000000 6.902986 0.000000
v 0.160950 0.701613 -0.000000
v 0.869183 0.938257 -0.144115
v 0.844939 0.576611 -0.142969
v 0.299353 0.901194 -0.116616
v 0.143265 -0.559950 -0.000000
v 0.211273 -0.809142 -0.000000
v 0.000000 0.812165 -0.101744
v 0.160806 0.701613 -0.109474
v 0.000000 -0.557579 -0.090818
v 0.000000 -0.905940 -0.141791
vn -0.3263 0.1338 0.9358
vn 0.0649 0.9979 -0.0000
vn -0.1578 0.9875 0.0001
vn -0.1397 0.9902 0.0000
vn -0.3854 0.9227 0.0003
vn -0.1578 0.9875 -0.0001
vn -0.3854 0.9227 -0.0003
vn 0.9978 -0.0669 0.0000
vn 0.0484 -0.0003 0.9988
vn 0.0491 -0.0009 0.9988
vn 0.0482 0.0001 0.9988
vn 0.0492 -0.0016 0.9988
vn 0.0000 -0.0003 1.0000
vn 0.0000 0.0007 1.0000
vn -0.0484 -0.0003 0.9988
vn -0.0482 0.0001 0.9988
vn -0.0491 -0.0009 0.9988
vn -0.0492 -0.0016 0.9988
vn 0.1798 -0.9837 -0.0000
vn 0.3454 -0.9384 0.0000
vn 0.3762 -0.9265 -0.0005
vn 0.5665 -0.8241 -0.0007
vn 0.3762 -0.9265 0.0005
vn 0.5665 -0.8241 0.0007
vn -0.9999 -0.0127 0.0000
vn 0.0000 -0.0080 1.0000
vn -0.0000 -0.0087 1.0000
vn -0.9999 -0.0140 -0.0000
vn 0.9999 -0.0127 0.0000
vn 0.9999 -0.0140 -0.0000
vn -0.0000 -0.0087 -1.0000
vn 0.0000 -0.0080 -1.0000
vn -0.3223 0.0028 0.9466
vn -0.3236 0.0027 0.9462
vn -0.3672 0.0003 0.9302
vn -0.3693 0.0002 0.9293
vn -0.9708 0.2398 0.0000
vn 0.0000 0.1546 0.9880
vn 0.0000 0.1448 0.9895
vn -0.9647 0.2633 -0.0000
vn 0.9708 0.2398 0.0000
vn 0.9647 0.2633 -0.0000
vn 0.0000 0.1448 -0.9895
vn 0.0000 0.1546 -0.9880
vn 0.3263 0.1338 0.9358
vn -0.9978 -0.0669 0.0000
vn -0.0649 0.9979 -0.0000
vn 0.1397 0.9902 0.0000
vn 0.1578 0.9875 0.0001
vn 0.3854 0.9227 0.0003
vn 0.1578 0.9875 -0.0001
vn 0.3854 0.9227 -0.0003
vn -0.1798 -0.9837 -0.0000
vn -0.3454 -0.9384 0.0000
vn -0.3762 -0.9265 -0.0005
vn -0.5665 -0.8241 -0.0007
vn -0.3762 -0.9265 0.0005
vn -0.5665 -0.8241 0.0007
vn 0.3223 0.0028 0.9466
vn 0.3672 0.0003 0.9302
vn 0.3236 0.0027 0.9462
vn 0.3693 0.0002 0.9293
vn -0.1984 0.0813 -0.9767
vn 0.0484 -0.0003 -0.9988
vn 0.0482 0.0001 -0.9988
vn 0.0491 -0.0009 -0.9988
vn 0.0492 -0.0016 -0.9988
vn 0.0000 -0.0003 -1.0000
vn 0.0000 0.0007 -1.0000
vn -0.0484 -0.0003 -0.9988
vn -0.0491 -0.0009 -0.9988
vn -0.0482 0.0001 -0.9988
vn -0.0492 -0.0016 -0.9988
vn -0.3223 0.0028 -0.9466
vn -0.3627 0.0006 -0.9319
vn -0.3236 0.0027 -0.9462
vn -0.3690 0.0002 -0.9294
vn 0.1984 0.0813 -0.9767
vn 0.3223 0.0028 -0.9466
vn 0.3236 0.0027 -0.9462
vn 0.3627 0.0006 -0.9319
vn 0.3690 0.0002 -0.9294
vn -0.4165 -0.9091 0.0000
vn 0.4165 -0.9091 0.0000
s 1
f 15//1 6//1 27//1
s 2
f 1//2 3//3 14//4
f 5//5 14//4 3//3
f 17//2 14//4 19//6
f 24//7 19//6 14//4
f 1//2 14//4 17//2
s 3
f 8//8 29//8 7//8
f 29//8 8//8 30//8
s 4
f 2//9 3//10 1//11
f 3//10 2//9 4//12
f 10//13 3//10 4//12
f 3//10 10//13 5//14
f 8//15 7//16 9//17
f 9//17 11//18 8//15
f 10//13 11//18 9//17
f 9//17 5//14 10//13
s 5
f 2//19 16//20 4//21
f 10//22 4//21 16//20
f 2//19 18//19 16//20
f 18//19 22//23 16//20
f 34//24 16//20 22//23
s 6
f 20//25 12//26 10//27
f 20//25 10//27 16//28
f 32//29 10//27 12//26
f 32//29 28//30 10//27
f 20//25 34//31 36//32
f 20//25 16//28 34//31
f 32//29 36//32 34//31
f 32//29 34//31 28//30
s 7
f 14//33 5//34 15//35
f 5//34 6//36 15//35
s 8
f 20//37 13//38 12//39
f 21//40 13//38 20//37
f 32//41 12//39 13//38
f 33//42 32//41 13//38
f 20//37 36//43 37//44
f 21//40 20//37 37//44
f 32//41 37//44 36//43
f 33//42 37//44 32//41
s 9
f 25//45 27//45 6//45
s 10
f 2//46 1//46 17//46
f 18//46 2//46 17//46
s 11
f 7//47 23//48 9//49
f 5//50 9//49 23//48
f 29//47 31//51 23//48
f 24//52 23//48 31//51
f 7//47 29//47 23//48
s 12
f 8//53 28//54 30//53
f 8//53 11//55 28//54
f 10//56 28//54 11//55
f 30//53 28//54 35//57
f 34//58 35//57 28//54
s 13
f 23//59 25//60 5//61
f 5//61 25//60 6//62
s 14
f 15//63 27//63 26//63
s 15
f 18//64 17//65 19//66
f 19//66 22//67 18//64
f 34//68 22//67 19//66
f 19//66 24//69 34//68
f 30//70 31//71 29//72
f 31//71 30//70 35//73
f 34//68 31//71 35//73
f 31//71 34//68 24//69
s 16
f 14//74 15//75 24//76
f 24//76 15//75 26//77
s 17
f 25//78 26//78 27//78
s 18
f 23//79 24//80 25//81
f 24//80 26//82 25//81
s 19
f 13//83 21//83 37//83
s 20
f 13//84 37//84 33//84
