# by drummyfish, released under CC0 1.0, public domain 
v -17.411287 4.720840 12.477924
v 27.714869 4.100964 14.739006
v -21.554441 -0.202572 15.026492
v 28.717710 -1.733710 18.105179
v 3.156037 4.486276 12.323231
v 19.297264 4.203639 10.664744
v 3.874036 11.991386 9.501513
v 18.179932 11.228249 8.282606
v -1.111972 7.873092 1.348293
v -28.423748 9.102127 1.290554
v -25.642971 -0.007469 18.898790
v 32.769588 -1.864753 17.881838
v -25.574467 -0.164616 10.060929
v 32.774212 -2.082859 10.558478
v -27.860500 -5.132665 19.637314
v -27.929058 -5.146900 9.476167
v -20.222273 -13.788962 20.554235
v -20.222319 -13.822096 8.601970
v 31.104517 -13.858858 19.698025
v 31.104303 -13.960258 9.212541
v 35.627022 -7.517986 18.612604
v 35.627819 -7.466928 9.992393
v 28.755713 -1.954840 10.525082
v -21.550558 -0.197957 10.096324
v 29.900278 -8.614101 9.793182
v -24.130127 -3.263322 9.739388
v -22.202402 -8.496767 9.172153
v -32.989460 9.266152 2.105755
v -17.411287 4.720840 -12.477923
v 27.714869 4.100965 -14.739004
v -21.554441 -0.202572 -15.026490
v 28.717710 -1.733709 -18.105181
v 3.050205 4.514207 -12.364534
v 19.297264 4.203639 -10.664743
v 3.828939 12.004038 -9.516905
v -2.611305 4.542639 0.001867
v 23.987774 4.125592 0.000000
v 18.179932 11.228249 -8.282605
v -0.503803 12.156409 0.026356
v 21.840487 11.043366 0.000000
v -1.313659 9.239368 0.022240
v -2.014050 6.659008 -0.016284
v -1.076350 7.866612 -1.328636
v -28.424046 9.095786 -1.290091
v -28.380640 10.340891 0.002029
v -28.465727 7.942446 0.000377
v -25.642971 -0.007470 -18.898787
v 32.769588 -1.864752 -17.881838
v -25.574467 -0.164616 -10.060927
v 32.774212 -2.082859 -10.558476
v -27.860500 -5.132665 -19.637316
v -27.929058 -5.146900 -9.476166
v -20.222273 -13.788962 -20.554234
v -20.222319 -13.822096 -8.601968
v 31.104517 -13.858858 -19.698025
v 31.104303 -13.960258 -9.212540
v 35.627022 -7.517986 -18.612602
v 35.627819 -7.466928 -9.992394
v 28.755713 -1.954840 -10.525081
v -21.550558 -0.197958 -10.096323
v 29.900278 -8.614101 -9.793181
v -24.130127 -3.263322 -9.739386
v -22.202402 -8.496767 -9.172151
v -32.989460 9.266152 -2.105753
v -32.927490 11.035321 0.000000
v -33.051426 7.496984 0.000000
vn 0.4369 -0.8995 0.0062
vn 0.4439 -0.8960 0.0081
vn 0.9952 -0.0982 0.0028
vn 0.9924 -0.1226 -0.0053
vn 0.5497 0.8352 -0.0184
vn 0.5422 0.8399 -0.0247
vn -0.5557 0.8313 -0.0104
vn 0.0279 0.9995 -0.0146
vn -0.5466 0.8373 -0.0131
vn 0.0083 1.0000 0.0009
vn 0.0311 0.9991 -0.0295
vn 0.0321 0.9991 -0.0290
vn 0.0315 0.9994 -0.0171
vn -0.4044 -0.9146 0.0030
vn -0.4030 -0.9152 0.0036
vn -0.9798 -0.1997 0.0056
vn -0.9827 -0.1852 -0.0003
vn 0.0118 0.9999 0.0011
vn 0.0118 0.9996 0.0274
vn 0.0112 0.9999 0.0005
vn 0.0152 0.9999 -0.0062
vn 0.0127 0.9999 -0.0017
vn 0.0111 0.9999 -0.0012
vn 0.0107 0.9990 -0.0441
vn 0.0160 0.9998 0.0079
vn 0.0130 0.9999 0.0017
vn 0.0087 1.0000 0.0000
vn -0.5055 0.3460 0.7904
vn 0.5438 0.3472 0.7640
vn 0.5637 0.3449 0.7506
vn -0.8816 0.2413 0.4057
vn -0.9626 0.2708 0.0012
vn -0.9635 0.2675 -0.0074
vn -0.4285 0.3525 0.8319
vn -0.9648 0.2631 0.0004
vn -0.9622 0.2713 -0.0240
vn 0.9554 0.2953 0.0000
vn 0.9550 0.2964 0.0000
vn -0.5075 0.3502 -0.7873
vn 0.5640 0.3448 -0.7503
vn 0.5445 0.3476 -0.7633
vn -0.8813 0.2452 -0.4040
vn -0.4318 0.3594 -0.8273
vn 0.0431 0.9991 -0.0007
vn 0.0004 0.0902 0.9959
vn 0.0407 0.9992 -0.0009
vn -0.0032 -0.0120 0.9999
vn -0.0466 -0.9988 -0.0143
vn -0.0485 -0.9988 0.0017
vn 0.0023 0.1061 -0.9944
vn -0.0035 -0.0136 -0.9999
vn 0.0521 0.9986 0.0001
vn 0.0498 0.9988 0.0005
vn 0.0505 0.9987 -0.0041
vn 0.0534 0.9986 0.0013
vn 0.0507 0.9987 0.0049
vn 0.0541 0.9985 -0.0016
vn 0.0269 0.1372 0.9902
vn 0.0351 0.1363 0.9900
vn 0.0199 0.1278 0.9916
vn 0.0226 0.1280 0.9915
vn 0.0288 0.1304 0.9910
vn 0.0340 0.1450 0.9888
vn 0.0517 0.1425 0.9884
vn -0.0386 0.4855 0.8734
vn -0.0369 0.4938 0.8688
vn -0.0367 0.4946 0.8683
vn -0.0387 0.4849 0.8737
vn -0.7651 0.6439 0.0000
vn 0.9855 0.1694 -0.0000
vn 0.0120 0.1111 -0.9937
vn 0.0122 0.1108 -0.9938
vn 0.0118 0.1112 -0.9937
vn 0.0124 0.1109 -0.9938
vn 0.0122 0.1107 -0.9938
vn 0.0117 0.1086 -0.9940
vn 0.0096 0.1077 -0.9941
vn 0.0126 0.1102 -0.9938
vn 0.0134 0.1113 -0.9937
vn 0.0123 0.1112 -0.9937
vn 0.0121 0.1109 -0.9938
vn 0.1637 0.9865 0.0071
vn 0.1690 0.9855 0.0123
vn 0.1605 -0.0117 -0.9870
vn 0.1659 -0.0329 -0.9856
vn 0.1685 -0.0022 0.9857
vn 0.1562 -0.0110 0.9877
vn 0.1054 -0.9944 -0.0047
vn 0.1024 -0.9947 -0.0032
vn -0.9994 0.0350 0.0000
vn 0.4369 -0.8995 -0.0062
vn 0.9952 -0.0982 -0.0028
vn 0.4439 -0.8960 -0.0081
vn 0.9924 -0.1226 0.0053
vn 0.5497 0.8352 0.0184
vn 0.5422 0.8399 0.0247
vn -0.5557 0.8313 0.0104
vn -0.5466 0.8373 0.0131
vn 0.0279 0.9995 0.0146
vn 0.0083 1.0000 -0.0009
vn 0.0311 0.9991 0.0295
vn 0.0321 0.9991 0.0290
vn 0.0315 0.9994 0.0171
vn -0.4044 -0.9146 -0.0030
vn -0.4030 -0.9152 -0.0036
vn -0.9798 -0.1997 -0.0056
vn -0.9827 -0.1852 0.0003
vn 0.0269 0.1372 -0.9902
vn 0.0199 0.1278 -0.9916
vn 0.0351 0.1363 -0.9900
vn 0.0226 0.1280 -0.9915
vn 0.0288 0.1304 -0.9910
vn 0.0340 0.1450 -0.9888
vn 0.0517 0.1425 -0.9884
vn -0.0386 0.4855 -0.8734
vn -0.0367 0.4946 -0.8683
vn -0.0369 0.4938 -0.8688
vn -0.0387 0.4849 -0.8737
vn 0.0120 0.1111 0.9937
vn 0.0118 0.1112 0.9937
vn 0.0122 0.1108 0.9938
vn 0.0124 0.1109 0.9938
vn 0.0122 0.1107 0.9938
vn 0.0117 0.1086 0.9940
vn 0.0126 0.1102 0.9938
vn 0.0096 0.1077 0.9941
vn 0.0134 0.1113 0.9937
vn 0.0123 0.1112 0.9937
vn 0.0121 0.1109 0.9938
vn -0.9384 -0.3456 0.0000
vn -0.0023 -1.0000 0.0000
s 1
f 19//1 20//2 22//3
f 21//4 19//1 22//3
f 21//4 22//3 14//5
f 14//5 12//6 21//4
f 11//7 3//8 13//9
f 24//10 13//9 3//8
f 4//11 12//6 14//5
f 23//12 4//11 14//5
f 4//13 3//8 11//7
f 20//2 19//1 17//14
f 17//14 18//15 20//2
f 18//15 17//14 15//16
f 15//16 16//17 18//15
f 16//17 15//16 11//7
f 11//7 13//9 16//17
s 2
f 1//18 5//19 36//20
f 6//21 5//19 2//22
f 1//18 2//22 5//19
f 29//23 36//20 33//24
f 34//25 30//26 33//24
f 29//23 33//24 30//26
f 36//20 29//23 1//18
f 6//21 2//22 37//27
f 34//25 37//27 30//26
f 37//27 2//22 30//26
s 3
f 7//28 6//29 8//30
f 9//31 39//32 41//33
f 5//34 6//29 7//28
f 39//32 9//31 7//28
f 5//34 7//28 9//31
f 36//35 5//34 9//31
f 36//35 9//31 42//36
f 37//37 8//30 6//29
f 8//30 37//37 40//38
f 35//39 38//40 34//41
f 43//42 41//33 39//32
f 33//43 35//39 34//41
f 39//32 35//39 43//42
f 33//43 43//42 35//39
f 36//35 43//42 33//43
f 36//35 42//36 43//42
f 37//37 34//41 38//40
f 38//40 40//38 37//37
s 4
f 45//44 9//45 41//46
f 10//47 9//45 45//44
f 9//45 10//47 42//48
f 42//48 10//47 46//49
f 45//44 41//46 43//50
f 44//51 45//44 43//50
f 43//50 42//48 44//51
f 42//48 46//49 44//51
s 5
f 40//52 39//53 7//54
f 7//54 8//55 40//52
f 40//52 35//56 39//53
f 35//56 40//52 38//57
s 6
f 19//58 4//59 17//60
f 11//61 17//60 4//59
f 15//62 17//60 11//61
f 21//63 12//64 19//58
f 4//59 19//58 12//64
s 7
f 1//65 4//66 2//67
f 4//66 1//65 3//68
s 8
f 1//69 24//69 3//69
f 29//69 60//69 1//69
f 29//69 31//69 60//69
f 1//69 60//69 24//69
f 60//69 62//69 24//69
f 26//69 24//69 62//69
s 9
f 4//70 23//70 2//70
f 32//70 30//70 59//70
f 59//70 30//70 23//70
f 23//70 30//70 2//70
f 61//70 59//70 25//70
f 25//70 59//70 23//70
s 10
f 14//71 25//72 23//73
f 14//71 22//74 25//72
f 22//74 20//75 25//72
f 13//76 24//77 26//78
f 16//79 13//76 26//78
f 26//78 27//80 16//79
f 18//81 16//79 27//80
f 27//80 25//72 18//81
f 20//75 18//81 25//72
s 11
f 65//82 45//83 64//84
f 44//85 64//84 45//83
f 65//82 28//86 10//87
f 45//83 65//82 10//87
f 46//88 66//89 44//85
f 66//89 64//84 44//85
f 10//87 28//86 46//88
f 28//86 66//89 46//88
s 12
f 66//90 28//90 65//90
f 66//90 65//90 64//90
s 13
f 55//91 58//92 56//93
f 57//94 58//92 55//91
f 57//94 50//95 58//92
f 50//95 57//94 48//96
f 47//97 49//98 31//99
f 60//100 31//99 49//98
f 32//101 50//95 48//96
f 59//102 50//95 32//101
f 32//103 47//97 31//99
f 56//93 53//104 55//91
f 53//104 56//93 54//105
f 54//105 51//106 53//104
f 51//106 54//105 52//107
f 52//107 47//97 51//106
f 47//97 52//107 49//98
s 14
f 55//108 53//109 32//110
f 47//111 32//110 53//109
f 51//112 47//111 53//109
f 57//113 55//108 48//114
f 32//110 48//114 55//108
s 15
f 29//115 30//116 32//117
f 32//117 31//118 29//115
s 16
f 50//119 59//120 61//121
f 50//119 61//121 58//122
f 58//122 61//121 56//123
f 49//124 62//125 60//126
f 52//127 62//125 49//124
f 62//125 52//127 63//128
f 54//129 63//128 52//127
f 63//128 54//129 61//121
f 56//123 61//121 54//129
s 17
f 62//130 63//130 26//130
f 26//130 63//130 27//130
s 18
f 63//131 61//131 27//131
f 27//131 61//131 25//131
