{
	"asset":{
		"generator":"Khronos glTF Blender I/O v5.0.21",
		"version":"2.0"
	},
	"scene":0,
	"scenes":[
		{
			"name":"Scene",
			"nodes":[
				15
			]
		}
	],
	"nodes":[
		{
			"mesh":0,
			"name":"pCube4"
		},
		{
			"children":[
				0
			],
			"name":"group_Bortik"
		},
		{
			"mesh":1,
			"name":"pCube25"
		},
		{
			"children":[
				2
			],
			"name":"group_Cifru"
		},
		{
			"name":"pCylinder5"
		},
		{
			"name":"Provodulik1"
		},
		{
			"children":[
				4,
				5
			],
			"name":"group_Provodulik"
		},
		{
			"mesh":2,
			"name":"Knopka"
		},
		{
			"mesh":3,
			"name":"Lampochka"
		},
		{
			"mesh":4,
			"name":"Lampochka_2"
		},
		{
			"mesh":5,
			"name":"pCube1"
		},
		{
			"mesh":6,
			"name":"pCube2"
		},
		{
			"mesh":7,
			"name":"pCylinder8"
		},
		{
			"mesh":8,
			"name":"Provodulik_2"
		},
		{
			"mesh":9,
			"name":"Skotch"
		},
		{
			"children":[
				1,
				3,
				6,
				7,
				8,
				9,
				10,
				11,
				12,
				13,
				14
			],
			"name":"group_Dinamit"
		}
	],
	"materials":[
		{
			"doubleSided":true,
			"name":"Material.001",
			"pbrMetallicRoughness":{
				"baseColorFactor":[
					0,
					0,
					0,
					1
				],
				"metallicFactor":0,
				"roughnessFactor":0.5
			}
		},
		{
			"doubleSided":true,
			"name":"phong1",
			"pbrMetallicRoughness":{
				"baseColorFactor":[
					1,
					0.18626344203948975,
					0.15695436298847198,
					1
				],
				"metallicFactor":0,
				"roughnessFactor":0.5527864098548889
			}
		},
		{
			"doubleSided":true,
			"name":"phong4",
			"pbrMetallicRoughness":{
				"baseColorFactor":[
					0,
					1,
					0.02146303467452526,
					1
				],
				"metallicFactor":0,
				"roughnessFactor":0.5527864098548889
			}
		},
		{
			"doubleSided":true,
			"name":"phong2",
			"pbrMetallicRoughness":{
				"baseColorFactor":[
					1,
					0.011519981548190117,
					0,
					1
				],
				"metallicFactor":0
			}
		},
		{
			"doubleSided":true,
			"name":"lambert4",
			"pbrMetallicRoughness":{
				"baseColorFactor":[
					0.04716738313436508,
					0.07036878913640976,
					0.04716738313436508,
					1
				],
				"metallicFactor":0,
				"roughnessFactor":0.5
			}
		},
		{
			"doubleSided":true,
			"name":"lambert3",
			"pbrMetallicRoughness":{
				"baseColorFactor":[
					0.6830000281333923,
					0.36836469173431396,
					0,
					1
				],
				"metallicFactor":0,
				"roughnessFactor":0.5
			}
		},
		{
			"doubleSided":true,
			"name":"phong3",
			"pbrMetallicRoughness":{
				"baseColorFactor":[
					0,
					0,
					0.021970462054014206,
					1
				],
				"metallicFactor":0,
				"roughnessFactor":0.5527864098548889
			}
		}
	],
	"meshes":[
		{
			"name":"Mesh.027",
			"primitives":[
				{
					"attributes":{
						"POSITION":0,
						"NORMAL":1,
						"TEXCOORD_0":2
					},
					"indices":3,
					"material":0
				}
			]
		},
		{
			"name":"Mesh.021",
			"primitives":[
				{
					"attributes":{
						"POSITION":4,
						"NORMAL":5,
						"TEXCOORD_0":6
					},
					"indices":7,
					"material":1
				}
			]
		},
		{
			"name":"Mesh",
			"primitives":[
				{
					"attributes":{
						"POSITION":8,
						"NORMAL":9,
						"TEXCOORD_0":10
					},
					"indices":11,
					"material":2
				}
			]
		},
		{
			"name":"Mesh.001",
			"primitives":[
				{
					"attributes":{
						"POSITION":12,
						"NORMAL":13,
						"TEXCOORD_0":14
					},
					"indices":15,
					"material":3
				}
			]
		},
		{
			"name":"Mesh.002",
			"primitives":[
				{
					"attributes":{
						"POSITION":16,
						"NORMAL":17,
						"TEXCOORD_0":18
					},
					"indices":15,
					"material":2
				}
			]
		},
		{
			"name":"Mesh.039",
			"primitives":[
				{
					"attributes":{
						"POSITION":19,
						"NORMAL":20,
						"TEXCOORD_0":21
					},
					"indices":22,
					"material":4
				}
			]
		},
		{
			"name":"Mesh.029",
			"primitives":[
				{
					"attributes":{
						"POSITION":23,
						"NORMAL":24,
						"TEXCOORD_0":25
					},
					"indices":22,
					"material":4
				}
			]
		},
		{
			"name":"Mesh.004",
			"primitives":[
				{
					"attributes":{
						"POSITION":26,
						"NORMAL":27,
						"TEXCOORD_0":28
					},
					"indices":29,
					"material":3
				}
			]
		},
		{
			"name":"Mesh.031",
			"primitives":[
				{
					"attributes":{
						"POSITION":30,
						"NORMAL":31,
						"TEXCOORD_0":32
					},
					"indices":33,
					"material":5
				}
			]
		},
		{
			"name":"Mesh.003",
			"primitives":[
				{
					"attributes":{
						"POSITION":34,
						"NORMAL":35,
						"TEXCOORD_0":36
					},
					"indices":37,
					"material":6
				}
			]
		}
	],
	"accessors":[
		{
			"bufferView":0,
			"componentType":5126,
			"count":96,
			"max":[
				0.01991444081068039,
				0.22335167229175568,
				0.1206103265285492
			],
			"min":[
				-0.08312450349330902,
				0.21458269655704498,
				-0.08964872360229492
			],
			"type":"VEC3"
		},
		{
			"bufferView":1,
			"componentType":5126,
			"count":96,
			"type":"VEC3"
		},
		{
			"bufferView":2,
			"componentType":5126,
			"count":96,
			"type":"VEC2"
		},
		{
			"bufferView":3,
			"componentType":5123,
			"count":144,
			"type":"SCALAR"
		},
		{
			"bufferView":4,
			"componentType":5126,
			"count":252,
			"max":[
				-0.004219457507133484,
				0.22756676375865936,
				0.09856511652469635
			],
			"min":[
				-0.060730960220098495,
				0.21839995682239532,
				-0.04914706572890282
			],
			"type":"VEC3"
		},
		{
			"bufferView":5,
			"componentType":5126,
			"count":252,
			"type":"VEC3"
		},
		{
			"bufferView":6,
			"componentType":5126,
			"count":252,
			"type":"VEC2"
		},
		{
			"bufferView":7,
			"componentType":5123,
			"count":252,
			"type":"SCALAR"
		},
		{
			"bufferView":8,
			"componentType":5126,
			"count":42,
			"max":[
				0.061464160680770874,
				0.23048211634159088,
				0.046332359313964844
			],
			"min":[
				0.036611154675483704,
				0.20948779582977295,
				0.0023666899651288986
			],
			"type":"VEC3"
		},
		{
			"bufferView":9,
			"componentType":5126,
			"count":42,
			"type":"VEC3"
		},
		{
			"bufferView":10,
			"componentType":5126,
			"count":42,
			"type":"VEC2"
		},
		{
			"bufferView":11,
			"componentType":5123,
			"count":96,
			"type":"SCALAR"
		},
		{
			"bufferView":12,
			"componentType":5126,
			"count":130,
			"max":[
				-0.10282701998949051,
				0.22651337087154388,
				-0.013367241248488426
			],
			"min":[
				-0.12251017987728119,
				0.2011270672082901,
				-0.032087042927742004
			],
			"type":"VEC3"
		},
		{
			"bufferView":13,
			"componentType":5126,
			"count":130,
			"type":"VEC3"
		},
		{
			"bufferView":14,
			"componentType":5126,
			"count":130,
			"type":"VEC2"
		},
		{
			"bufferView":15,
			"componentType":5123,
			"count":600,
			"type":"SCALAR"
		},
		{
			"bufferView":16,
			"componentType":5126,
			"count":130,
			"max":[
				-0.10282701998949051,
				0.22651337087154388,
				0.0709049329161644
			],
			"min":[
				-0.12251017987728119,
				0.2011270672082901,
				0.05218513309955597
			],
			"type":"VEC3"
		},
		{
			"bufferView":17,
			"componentType":5126,
			"count":130,
			"type":"VEC3"
		},
		{
			"bufferView":18,
			"componentType":5126,
			"count":130,
			"type":"VEC2"
		},
		{
			"bufferView":19,
			"componentType":5126,
			"count":24,
			"max":[
				0.07687743008136749,
				0.2211809605360031,
				0.1350114345550537
			],
			"min":[
				-0.13420981168746948,
				0.11841805279254913,
				-0.1042276918888092
			],
			"type":"VEC3"
		},
		{
			"bufferView":20,
			"componentType":5126,
			"count":24,
			"type":"VEC3"
		},
		{
			"bufferView":21,
			"componentType":5126,
			"count":24,
			"type":"VEC2"
		},
		{
			"bufferView":22,
			"componentType":5123,
			"count":36,
			"type":"SCALAR"
		},
		{
			"bufferView":23,
			"componentType":5126,
			"count":24,
			"max":[
				0.013234153389930725,
				0.22253751754760742,
				0.11256234347820282
			],
			"min":[
				-0.07580997049808502,
				0.2052668035030365,
				-0.08197231590747833
			],
			"type":"VEC3"
		},
		{
			"bufferView":24,
			"componentType":5126,
			"count":24,
			"type":"VEC3"
		},
		{
			"bufferView":25,
			"componentType":5126,
			"count":24,
			"type":"VEC2"
		},
		{
			"bufferView":26,
			"componentType":5126,
			"count":368,
			"max":[
				0.3030887842178345,
				0.13177087903022766,
				0.24582111835479736
			],
			"min":[
				-0.3320019841194153,
				-0.0013738423585891724,
				-0.23061715066432953
			],
			"type":"VEC3"
		},
		{
			"bufferView":27,
			"componentType":5126,
			"count":368,
			"type":"VEC3"
		},
		{
			"bufferView":28,
			"componentType":5126,
			"count":368,
			"type":"VEC2"
		},
		{
			"bufferView":29,
			"componentType":5123,
			"count":1200,
			"type":"SCALAR"
		},
		{
			"bufferView":30,
			"componentType":5126,
			"count":587,
			"max":[
				-0.13087478280067444,
				0.19732999801635742,
				0.1851312518119812
			],
			"min":[
				-0.4198107123374939,
				0.04194691777229309,
				-0.18662163615226746
			],
			"type":"VEC3"
		},
		{
			"bufferView":31,
			"componentType":5126,
			"count":587,
			"type":"VEC3"
		},
		{
			"bufferView":32,
			"componentType":5126,
			"count":587,
			"type":"VEC2"
		},
		{
			"bufferView":33,
			"componentType":5123,
			"count":3156,
			"type":"SCALAR"
		},
		{
			"bufferView":34,
			"componentType":5126,
			"count":124,
			"max":[
				0.0994538739323616,
				0.1275596171617508,
				0.24117866158485413
			],
			"min":[
				-0.010680392384529114,
				0.006315700709819794,
				-0.22300538420677185
			],
			"type":"VEC3"
		},
		{
			"bufferView":35,
			"componentType":5126,
			"count":124,
			"type":"VEC3"
		},
		{
			"bufferView":36,
			"componentType":5126,
			"count":124,
			"type":"VEC2"
		},
		{
			"bufferView":37,
			"componentType":5123,
			"count":186,
			"type":"SCALAR"
		}
	],
	"bufferViews":[
		{
			"buffer":0,
			"byteLength":1152,
			"byteOffset":0,
			"target":34962
		},
		{
			"buffer":0,
			"byteLength":1152,
			"byteOffset":1152,
			"target":34962
		},
		{
			"buffer":0,
			"byteLength":768,
			"byteOffset":2304,
			"target":34962
		},
		{
			"buffer":0,
			"byteLength":288,
			"byteOffset":3072,
			"target":34963
		},
		{
			"buffer":0,
			"byteLength":3024,
			"byteOffset":3360,
			"target":34962
		},
		{
			"buffer":0,
			"byteLength":3024,
			"byteOffset":6384,
			"target":34962
		},
		{
			"buffer":0,
			"byteLength":2016,
			"byteOffset":9408,
			"target":34962
		},
		{
			"buffer":0,
			"byteLength":504,
			"byteOffset":11424,
			"target":34963
		},
		{
			"buffer":0,
			"byteLength":504,
			"byteOffset":11928,
			"target":34962
		},
		{
			"buffer":0,
			"byteLength":504,
			"byteOffset":12432,
			"target":34962
		},
		{
			"buffer":0,
			"byteLength":336,
			"byteOffset":12936,
			"target":34962
		},
		{
			"buffer":0,
			"byteLength":192,
			"byteOffset":13272,
			"target":34963
		},
		{
			"buffer":0,
			"byteLength":1560,
			"byteOffset":13464,
			"target":34962
		},
		{
			"buffer":0,
			"byteLength":1560,
			"byteOffset":15024,
			"target":34962
		},
		{
			"buffer":0,
			"byteLength":1040,
			"byteOffset":16584,
			"target":34962
		},
		{
			"buffer":0,
			"byteLength":1200,
			"byteOffset":17624,
			"target":34963
		},
		{
			"buffer":0,
			"byteLength":1560,
			"byteOffset":18824,
			"target":34962
		},
		{
			"buffer":0,
			"byteLength":1560,
			"byteOffset":20384,
			"target":34962
		},
		{
			"buffer":0,
			"byteLength":1040,
			"byteOffset":21944,
			"target":34962
		},
		{
			"buffer":0,
			"byteLength":288,
			"byteOffset":22984,
			"target":34962
		},
		{
			"buffer":0,
			"byteLength":288,
			"byteOffset":23272,
			"target":34962
		},
		{
			"buffer":0,
			"byteLength":192,
			"byteOffset":23560,
			"target":34962
		},
		{
			"buffer":0,
			"byteLength":72,
			"byteOffset":23752,
			"target":34963
		},
		{
			"buffer":0,
			"byteLength":288,
			"byteOffset":23824,
			"target":34962
		},
		{
			"buffer":0,
			"byteLength":288,
			"byteOffset":24112,
			"target":34962
		},
		{
			"buffer":0,
			"byteLength":192,
			"byteOffset":24400,
			"target":34962
		},
		{
			"buffer":0,
			"byteLength":4416,
			"byteOffset":24592,
			"target":34962
		},
		{
			"buffer":0,
			"byteLength":4416,
			"byteOffset":29008,
			"target":34962
		},
		{
			"buffer":0,
			"byteLength":2944,
			"byteOffset":33424,
			"target":34962
		},
		{
			"buffer":0,
			"byteLength":2400,
			"byteOffset":36368,
			"target":34963
		},
		{
			"buffer":0,
			"byteLength":7044,
			"byteOffset":38768,
			"target":34962
		},
		{
			"buffer":0,
			"byteLength":7044,
			"byteOffset":45812,
			"target":34962
		},
		{
			"buffer":0,
			"byteLength":4696,
			"byteOffset":52856,
			"target":34962
		},
		{
			"buffer":0,
			"byteLength":6312,
			"byteOffset":57552,
			"target":34963
		},
		{
			"buffer":0,
			"byteLength":1488,
			"byteOffset":63864,
			"target":34962
		},
		{
			"buffer":0,
			"byteLength":1488,
			"byteOffset":65352,
			"target":34962
		},
		{
			"buffer":0,
			"byteLength":992,
			"byteOffset":66840,
			"target":34962
		},
		{
			"buffer":0,
			"byteLength":372,
			"byteOffset":67832,
			"target":34963
		}
	],
	"buffers":[
		{
			"byteLength":68204,
			"uri":"model.bin"
		}
	]
}
