{
	"asset":{
		"generator":"Khronos glTF Blender I/O v5.0.21",
		"version":"2.0"
	},
	"scene":0,
	"scenes":[
		{
			"name":"Scene",
			"nodes":[
				10,
				18
			]
		}
	],
	"nodes":[
		{
			"mesh":0,
			"name":"BottomClaspHigh"
		},
		{
			"mesh":1,
			"name":"BottomHingesHigh",
			"translation":[
				0,
				0,
				0.1974838823080063
			]
		},
		{
			"mesh":2,
			"name":"LeverHigh"
		},
		{
			"mesh":3,
			"name":"HandleHigh"
		},
		{
			"mesh":4,
			"name":"HandleHolderHigh"
		},
		{
			"mesh":5,
			"name":"TopClaspHigh"
		},
		{
			"mesh":6,
			"name":"TopHingesHigh",
			"translation":[
				0,
				0,
				0.19748400151729584
			]
		},
		{
			"children":[
				3,
				4,
				5,
				6
			],
			"mesh":7,
			"name":"LidHigh"
		},
		{
			"name":"LockHigh"
		},
		{
			"mesh":8,
			"name":"ShelfHigh"
		},
		{
			"children":[
				0,
				1,
				2,
				7,
				8,
				9
			],
			"mesh":9,
			"name":"BaseHigh"
		},
		{
			"mesh":10,
			"name":"LockL",
			"translation":[
				-0.0013432577252388,
				-0.007721679285168648,
				0
			]
		},
		{
			"children":[
				11
			],
			"mesh":11,
			"name":"LeverL",
			"translation":[
				0.09141304343938828,
				0.030689699575304985,
				0.10469294339418411
			]
		},
		{
			"mesh":12,
			"name":"LockR",
			"translation":[
				-0.0013432577252388,
				-0.007721679285168648,
				0
			]
		},
		{
			"children":[
				13
			],
			"mesh":13,
			"name":"LeverR",
			"translation":[
				0.09141304343938828,
				0.030689699575304985,
				-0.10469294339418411
			]
		},
		{
			"mesh":14,
			"name":"Handle",
			"translation":[
				0.08920589089393616,
				0.05534576624631882,
				-0.018107576295733452
			]
		},
		{
			"children":[
				15
			],
			"mesh":15,
			"name":"Lid",
			"translation":[
				-0.08920588344335556,
				0.04488488286733627,
				0.0181075781583786
			]
		},
		{
			"mesh":16,
			"name":"Shelf",
			"translation":[
				0,
				0.03743573650717735,
				0
			]
		},
		{
			"children":[
				12,
				14,
				16,
				17
			],
			"mesh":17,
			"name":"Base"
		}
	],
	"materials":[
		{
			"doubleSided":true,
			"name":"WeatheredBareMetal"
		},
		{
			"doubleSided":true,
			"name":"Material"
		},
		{
			"doubleSided":true,
			"name":"TexturedBlackPlastic",
			"pbrMetallicRoughness":{
				"metallicFactor":0
			}
		},
		{
			"doubleSided":true,
			"name":"Material.001",
			"normalTexture":{
				"index":0
			},
			"pbrMetallicRoughness":{
				"baseColorTexture":{
					"index":1
				},
				"metallicRoughnessTexture":{
					"index":2
				}
			}
		}
	],
	"meshes":[
		{
			"name":"Plane.001",
			"primitives":[
				{
					"attributes":{
						"POSITION":0,
						"NORMAL":1,
						"TEXCOORD_0":2
					},
					"indices":3,
					"material":0
				}
			]
		},
		{
			"name":"Cylinder.002",
			"primitives":[
				{
					"attributes":{
						"POSITION":4,
						"NORMAL":5,
						"TEXCOORD_0":6
					},
					"indices":7,
					"material":1
				}
			]
		},
		{
			"name":"Plane.003",
			"primitives":[
				{
					"attributes":{
						"POSITION":8,
						"NORMAL":9,
						"TEXCOORD_0":10
					},
					"indices":11,
					"material":0
				}
			]
		},
		{
			"name":"Cylinder",
			"primitives":[
				{
					"attributes":{
						"POSITION":12,
						"NORMAL":13,
						"TEXCOORD_0":14
					},
					"indices":15,
					"material":2
				}
			]
		},
		{
			"name":"Plane.004",
			"primitives":[
				{
					"attributes":{
						"POSITION":16,
						"NORMAL":17,
						"TEXCOORD_0":18
					},
					"indices":19,
					"material":0
				}
			]
		},
		{
			"name":"Plane",
			"primitives":[
				{
					"attributes":{
						"POSITION":20,
						"NORMAL":21,
						"TEXCOORD_0":22
					},
					"indices":23,
					"material":0
				}
			]
		},
		{
			"name":"Cylinder.001",
			"primitives":[
				{
					"attributes":{
						"POSITION":24,
						"NORMAL":25,
						"TEXCOORD_0":26
					},
					"indices":27,
					"material":1
				}
			]
		},
		{
			"name":"Cube.002",
			"primitives":[
				{
					"attributes":{
						"POSITION":28,
						"NORMAL":29,
						"TEXCOORD_0":30
					},
					"indices":31,
					"material":1
				}
			]
		},
		{
			"name":"Cube.003",
			"primitives":[
				{
					"attributes":{
						"POSITION":32,
						"NORMAL":33,
						"TEXCOORD_0":34
					},
					"indices":35,
					"material":1
				}
			]
		},
		{
			"name":"Cube",
			"primitives":[
				{
					"attributes":{
						"POSITION":36,
						"NORMAL":37,
						"TEXCOORD_0":38
					},
					"indices":39,
					"material":1
				}
			]
		},
		{
			"name":"Cube.006",
			"primitives":[
				{
					"attributes":{
						"POSITION":40,
						"NORMAL":41,
						"TEXCOORD_0":42
					},
					"indices":43,
					"material":3
				}
			]
		},
		{
			"name":"LeverL",
			"primitives":[
				{
					"attributes":{
						"POSITION":44,
						"NORMAL":45,
						"TEXCOORD_0":46
					},
					"indices":47,
					"material":3
				}
			]
		},
		{
			"name":"Cube.007",
			"primitives":[
				{
					"attributes":{
						"POSITION":48,
						"NORMAL":49,
						"TEXCOORD_0":50
					},
					"indices":51,
					"material":3
				}
			]
		},
		{
			"name":"LeverR",
			"primitives":[
				{
					"attributes":{
						"POSITION":52,
						"NORMAL":53,
						"TEXCOORD_0":54
					},
					"indices":55,
					"material":3
				}
			]
		},
		{
			"name":"Handle",
			"primitives":[
				{
					"attributes":{
						"POSITION":56,
						"NORMAL":57,
						"TEXCOORD_0":58
					},
					"indices":59,
					"material":3
				}
			]
		},
		{
			"name":"Lid",
			"primitives":[
				{
					"attributes":{
						"POSITION":60,
						"NORMAL":61,
						"TEXCOORD_0":62
					},
					"indices":63,
					"material":3
				}
			]
		},
		{
			"name":"Shelf",
			"primitives":[
				{
					"attributes":{
						"POSITION":64,
						"NORMAL":65,
						"TEXCOORD_0":66
					},
					"indices":67,
					"material":3
				}
			]
		},
		{
			"name":"Base",
			"primitives":[
				{
					"attributes":{
						"POSITION":68,
						"NORMAL":69,
						"TEXCOORD_0":70
					},
					"indices":71,
					"material":3
				}
			]
		}
	],
	"textures":[
		{
			"sampler":0,
			"source":0
		},
		{
			"sampler":0,
			"source":1
		},
		{
			"sampler":0,
			"source":2
		}
	],
	"images":[
		{
			"mimeType":"image/png",
			"name":"NormalsLow",
			"uri":"NormalsLow.png"
		},
		{
			"mimeType":"image/png",
			"name":"BaseColorLow",
			"uri":"BaseColorLow.png"
		},
		{
			"mimeType":"image/png",
			"name":"MetalnessLow-RoughnessLow",
			"uri":"MetalnessLow-RoughnessLow.png"
		}
	],
	"accessors":[
		{
			"bufferView":0,
			"componentType":5126,
			"count":792,
			"max":[
				0.09504327923059464,
				0.04398759454488754,
				0.12230673432350159
			],
			"min":[
				0.0844104215502739,
				0.007819698192179203,
				0.08707913756370544
			],
			"type":"VEC3"
		},
		{
			"bufferView":1,
			"componentType":5126,
			"count":792,
			"type":"VEC3"
		},
		{
			"bufferView":2,
			"componentType":5126,
			"count":792,
			"type":"VEC2"
		},
		{
			"bufferView":3,
			"componentType":5123,
			"count":4260,
			"type":"SCALAR"
		},
		{
			"bufferView":4,
			"componentType":5126,
			"count":146,
			"max":[
				-0.08481192588806152,
				0.04926126450300217,
				-0.012612090446054935
			],
			"min":[
				-0.09428635239601135,
				0.03914982080459595,
				-0.03823531046509743
			],
			"type":"VEC3"
		},
		{
			"bufferView":5,
			"componentType":5126,
			"count":146,
			"type":"VEC3"
		},
		{
			"bufferView":6,
			"componentType":5126,
			"count":146,
			"type":"VEC2"
		},
		{
			"bufferView":7,
			"componentType":5123,
			"count":444,
			"type":"SCALAR"
		},
		{
			"bufferView":8,
			"componentType":5126,
			"count":92,
			"max":[
				0.09656287729740143,
				0.03614087402820587,
				0.11144047230482101
			],
			"min":[
				0.08694014698266983,
				0.004314247518777847,
				0.09794539958238602
			],
			"type":"VEC3"
		},
		{
			"bufferView":9,
			"componentType":5126,
			"count":92,
			"type":"VEC3"
		},
		{
			"bufferView":10,
			"componentType":5126,
			"count":92,
			"type":"VEC2"
		},
		{
			"bufferView":11,
			"componentType":5123,
			"count":540,
			"type":"SCALAR"
		},
		{
			"bufferView":12,
			"componentType":5126,
			"count":153,
			"max":[
				0.004531653132289648,
				0.14372627437114716,
				0.0712142288684845
			],
			"min":[
				-0.004531641490757465,
				0.09569888561964035,
				-1.3969838619232178e-09
			],
			"type":"VEC3"
		},
		{
			"bufferView":13,
			"componentType":5126,
			"count":153,
			"type":"VEC3"
		},
		{
			"bufferView":14,
			"componentType":5126,
			"count":153,
			"type":"VEC2"
		},
		{
			"bufferView":15,
			"componentType":5123,
			"count":768,
			"type":"SCALAR"
		},
		{
			"bufferView":16,
			"componentType":5126,
			"count":220,
			"max":[
				0.016232725232839584,
				0.10584300011396408,
				0.060482207685709
			],
			"min":[
				-0.016232725232839584,
				0.09489459544420242,
				0.030781589448451996
			],
			"type":"VEC3"
		},
		{
			"bufferView":17,
			"componentType":5126,
			"count":220,
			"type":"VEC3"
		},
		{
			"bufferView":18,
			"componentType":5126,
			"count":220,
			"type":"VEC2"
		},
		{
			"bufferView":19,
			"componentType":5123,
			"count":1146,
			"type":"SCALAR"
		},
		{
			"bufferView":20,
			"componentType":5126,
			"count":464,
			"max":[
				0.0946996733546257,
				0.0589168518781662,
				0.12130016833543777
			],
			"min":[
				0.08442740887403488,
				0.04449122026562691,
				0.08808570355176926
			],
			"type":"VEC3"
		},
		{
			"bufferView":21,
			"componentType":5126,
			"count":464,
			"type":"VEC3"
		},
		{
			"bufferView":22,
			"componentType":5126,
			"count":464,
			"type":"VEC2"
		},
		{
			"bufferView":23,
			"componentType":5123,
			"count":2748,
			"type":"SCALAR"
		},
		{
			"bufferView":24,
			"componentType":5126,
			"count":146,
			"max":[
				-0.08481192588806152,
				0.04989829659461975,
				0.012811615131795406
			],
			"min":[
				-0.09428635239601135,
				0.03978685289621353,
				-0.012811603955924511
			],
			"type":"VEC3"
		},
		{
			"bufferView":25,
			"componentType":5126,
			"count":146,
			"type":"VEC3"
		},
		{
			"bufferView":26,
			"componentType":5126,
			"count":146,
			"type":"VEC2"
		},
		{
			"bufferView":27,
			"componentType":5123,
			"count":444,
			"type":"SCALAR"
		},
		{
			"bufferView":28,
			"componentType":5126,
			"count":72,
			"max":[
				0.08500999957323074,
				0.09500999748706818,
				0.21251000463962555
			],
			"min":[
				-0.08500999957323074,
				0.04418826475739479,
				-0.21251000463962555
			],
			"type":"VEC3"
		},
		{
			"bufferView":29,
			"componentType":5126,
			"count":72,
			"type":"VEC3"
		},
		{
			"bufferView":30,
			"componentType":5126,
			"count":72,
			"type":"VEC2"
		},
		{
			"bufferView":31,
			"componentType":5123,
			"count":228,
			"type":"SCALAR"
		},
		{
			"bufferView":32,
			"componentType":5126,
			"count":177,
			"max":[
				0.07509627938270569,
				0.08771577477455139,
				0.19992558658123016
			],
			"min":[
				-0.07509627938270569,
				0.020910263061523438,
				-0.19992558658123016
			],
			"type":"VEC3"
		},
		{
			"bufferView":33,
			"componentType":5126,
			"count":177,
			"type":"VEC3"
		},
		{
			"bufferView":34,
			"componentType":5126,
			"count":177,
			"type":"VEC2"
		},
		{
			"bufferView":35,
			"componentType":5123,
			"count":696,
			"type":"SCALAR"
		},
		{
			"bufferView":36,
			"componentType":5126,
			"count":232,
			"max":[
				0.08500999957323074,
				0.04955872520804405,
				0.21251177787780762
			],
			"min":[
				-0.08501000702381134,
				-0.09500999748706818,
				-0.21251177787780762
			],
			"type":"VEC3"
		},
		{
			"bufferView":37,
			"componentType":5126,
			"count":232,
			"type":"VEC3"
		},
		{
			"bufferView":38,
			"componentType":5126,
			"count":232,
			"type":"VEC2"
		},
		{
			"bufferView":39,
			"componentType":5123,
			"count":1236,
			"type":"SCALAR"
		},
		{
			"bufferView":40,
			"componentType":5126,
			"count":180,
			"max":[
				0.0019591376185417175,
				0.031124714761972427,
				0.008905820548534393
			],
			"min":[
				-0.0009161233901977539,
				-0.0009098108857870102,
				-0.008905813097953796
			],
			"type":"VEC3"
		},
		{
			"bufferView":41,
			"componentType":5126,
			"count":180,
			"type":"VEC3"
		},
		{
			"bufferView":42,
			"componentType":5126,
			"count":180,
			"type":"VEC2"
		},
		{
			"bufferView":43,
			"componentType":5123,
			"count":960,
			"type":"SCALAR"
		},
		{
			"bufferView":44,
			"componentType":5126,
			"count":206,
			"max":[
				0.005064912140369415,
				0.0053380150347948074,
				0.006641894578933716
			],
			"min":[
				-0.004466630518436432,
				-0.02623360976576805,
				-0.00664190948009491
			],
			"type":"VEC3"
		},
		{
			"bufferView":45,
			"componentType":5126,
			"count":206,
			"type":"VEC3"
		},
		{
			"bufferView":46,
			"componentType":5126,
			"count":206,
			"type":"VEC2"
		},
		{
			"bufferView":47,
			"componentType":5123,
			"count":1068,
			"type":"SCALAR"
		},
		{
			"bufferView":48,
			"componentType":5126,
			"count":180,
			"max":[
				0.0019591376185417175,
				0.031124714761972427,
				0.008905813097953796
			],
			"min":[
				-0.0009161233901977539,
				-0.0009098108857870102,
				-0.008905820548534393
			],
			"type":"VEC3"
		},
		{
			"bufferView":49,
			"componentType":5126,
			"count":180,
			"type":"VEC3"
		},
		{
			"bufferView":50,
			"componentType":5126,
			"count":180,
			"type":"VEC2"
		},
		{
			"bufferView":51,
			"componentType":5123,
			"count":960,
			"type":"SCALAR"
		},
		{
			"bufferView":52,
			"componentType":5126,
			"count":206,
			"max":[
				0.005064912140369415,
				0.0053380150347948074,
				0.00664190948009491
			],
			"min":[
				-0.004466630518436432,
				-0.02623360976576805,
				-0.006641894578933716
			],
			"type":"VEC3"
		},
		{
			"bufferView":53,
			"componentType":5126,
			"count":206,
			"type":"VEC3"
		},
		{
			"bufferView":54,
			"componentType":5126,
			"count":206,
			"type":"VEC2"
		},
		{
			"bufferView":55,
			"componentType":5123,
			"count":1068,
			"type":"SCALAR"
		},
		{
			"bufferView":56,
			"componentType":5126,
			"count":153,
			"max":[
				0.004214142914861441,
				0.04288414120674133,
				0.07083319127559662
			],
			"min":[
				-0.004214141517877579,
				-0.004187576472759247,
				-0.07083319127559662
			],
			"type":"VEC3"
		},
		{
			"bufferView":57,
			"componentType":5126,
			"count":153,
			"type":"VEC3"
		},
		{
			"bufferView":58,
			"componentType":5126,
			"count":153,
			"type":"VEC2"
		},
		{
			"bufferView":59,
			"componentType":5123,
			"count":768,
			"type":"SCALAR"
		},
		{
			"bufferView":60,
			"componentType":5126,
			"count":2610,
			"max":[
				0.18384990096092224,
				0.06077326834201813,
				0.19427132606506348
			],
			"min":[
				-0.005078129470348358,
				-0.0050980448722839355,
				-0.23048648238182068
			],
			"type":"VEC3"
		},
		{
			"bufferView":61,
			"componentType":5126,
			"count":2610,
			"type":"VEC3"
		},
		{
			"bufferView":62,
			"componentType":5126,
			"count":2610,
			"type":"VEC2"
		},
		{
			"bufferView":63,
			"componentType":5123,
			"count":11592,
			"type":"SCALAR"
		},
		{
			"bufferView":64,
			"componentType":5126,
			"count":156,
			"max":[
				0.07509627938270569,
				0.05028003826737404,
				0.19992558658123016
			],
			"min":[
				-0.07509627938270569,
				-0.016525473445653915,
				-0.19992558658123016
			],
			"type":"VEC3"
		},
		{
			"bufferView":65,
			"componentType":5126,
			"count":156,
			"type":"VEC3"
		},
		{
			"bufferView":66,
			"componentType":5126,
			"count":156,
			"type":"VEC2"
		},
		{
			"bufferView":67,
			"componentType":5123,
			"count":486,
			"type":"SCALAR"
		},
		{
			"bufferView":68,
			"componentType":5126,
			"count":2379,
			"max":[
				0.09504327923059464,
				0.049558721482753754,
				0.2125115990638733
			],
			"min":[
				-0.09428635239601135,
				-0.09500999748706818,
				-0.2125115990638733
			],
			"type":"VEC3"
		},
		{
			"bufferView":69,
			"componentType":5126,
			"count":2379,
			"type":"VEC3"
		},
		{
			"bufferView":70,
			"componentType":5126,
			"count":2379,
			"type":"VEC2"
		},
		{
			"bufferView":71,
			"componentType":5123,
			"count":9282,
			"type":"SCALAR"
		}
	],
	"bufferViews":[
		{
			"buffer":0,
			"byteLength":9504,
			"byteOffset":0,
			"target":34962
		},
		{
			"buffer":0,
			"byteLength":9504,
			"byteOffset":9504,
			"target":34962
		},
		{
			"buffer":0,
			"byteLength":6336,
			"byteOffset":19008,
			"target":34962
		},
		{
			"buffer":0,
			"byteLength":8520,
			"byteOffset":25344,
			"target":34963
		},
		{
			"buffer":0,
			"byteLength":1752,
			"byteOffset":33864,
			"target":34962
		},
		{
			"buffer":0,
			"byteLength":1752,
			"byteOffset":35616,
			"target":34962
		},
		{
			"buffer":0,
			"byteLength":1168,
			"byteOffset":37368,
			"target":34962
		},
		{
			"buffer":0,
			"byteLength":888,
			"byteOffset":38536,
			"target":34963
		},
		{
			"buffer":0,
			"byteLength":1104,
			"byteOffset":39424,
			"target":34962
		},
		{
			"buffer":0,
			"byteLength":1104,
			"byteOffset":40528,
			"target":34962
		},
		{
			"buffer":0,
			"byteLength":736,
			"byteOffset":41632,
			"target":34962
		},
		{
			"buffer":0,
			"byteLength":1080,
			"byteOffset":42368,
			"target":34963
		},
		{
			"buffer":0,
			"byteLength":1836,
			"byteOffset":43448,
			"target":34962
		},
		{
			"buffer":0,
			"byteLength":1836,
			"byteOffset":45284,
			"target":34962
		},
		{
			"buffer":0,
			"byteLength":1224,
			"byteOffset":47120,
			"target":34962
		},
		{
			"buffer":0,
			"byteLength":1536,
			"byteOffset":48344,
			"target":34963
		},
		{
			"buffer":0,
			"byteLength":2640,
			"byteOffset":49880,
			"target":34962
		},
		{
			"buffer":0,
			"byteLength":2640,
			"byteOffset":52520,
			"target":34962
		},
		{
			"buffer":0,
			"byteLength":1760,
			"byteOffset":55160,
			"target":34962
		},
		{
			"buffer":0,
			"byteLength":2292,
			"byteOffset":56920,
			"target":34963
		},
		{
			"buffer":0,
			"byteLength":5568,
			"byteOffset":59212,
			"target":34962
		},
		{
			"buffer":0,
			"byteLength":5568,
			"byteOffset":64780,
			"target":34962
		},
		{
			"buffer":0,
			"byteLength":3712,
			"byteOffset":70348,
			"target":34962
		},
		{
			"buffer":0,
			"byteLength":5496,
			"byteOffset":74060,
			"target":34963
		},
		{
			"buffer":0,
			"byteLength":1752,
			"byteOffset":79556,
			"target":34962
		},
		{
			"buffer":0,
			"byteLength":1752,
			"byteOffset":81308,
			"target":34962
		},
		{
			"buffer":0,
			"byteLength":1168,
			"byteOffset":83060,
			"target":34962
		},
		{
			"buffer":0,
			"byteLength":888,
			"byteOffset":84228,
			"target":34963
		},
		{
			"buffer":0,
			"byteLength":864,
			"byteOffset":85116,
			"target":34962
		},
		{
			"buffer":0,
			"byteLength":864,
			"byteOffset":85980,
			"target":34962
		},
		{
			"buffer":0,
			"byteLength":576,
			"byteOffset":86844,
			"target":34962
		},
		{
			"buffer":0,
			"byteLength":456,
			"byteOffset":87420,
			"target":34963
		},
		{
			"buffer":0,
			"byteLength":2124,
			"byteOffset":87876,
			"target":34962
		},
		{
			"buffer":0,
			"byteLength":2124,
			"byteOffset":90000,
			"target":34962
		},
		{
			"buffer":0,
			"byteLength":1416,
			"byteOffset":92124,
			"target":34962
		},
		{
			"buffer":0,
			"byteLength":1392,
			"byteOffset":93540,
			"target":34963
		},
		{
			"buffer":0,
			"byteLength":2784,
			"byteOffset":94932,
			"target":34962
		},
		{
			"buffer":0,
			"byteLength":2784,
			"byteOffset":97716,
			"target":34962
		},
		{
			"buffer":0,
			"byteLength":1856,
			"byteOffset":100500,
			"target":34962
		},
		{
			"buffer":0,
			"byteLength":2472,
			"byteOffset":102356,
			"target":34963
		},
		{
			"buffer":0,
			"byteLength":2160,
			"byteOffset":104828,
			"target":34962
		},
		{
			"buffer":0,
			"byteLength":2160,
			"byteOffset":106988,
			"target":34962
		},
		{
			"buffer":0,
			"byteLength":1440,
			"byteOffset":109148,
			"target":34962
		},
		{
			"buffer":0,
			"byteLength":1920,
			"byteOffset":110588,
			"target":34963
		},
		{
			"buffer":0,
			"byteLength":2472,
			"byteOffset":112508,
			"target":34962
		},
		{
			"buffer":0,
			"byteLength":2472,
			"byteOffset":114980,
			"target":34962
		},
		{
			"buffer":0,
			"byteLength":1648,
			"byteOffset":117452,
			"target":34962
		},
		{
			"buffer":0,
			"byteLength":2136,
			"byteOffset":119100,
			"target":34963
		},
		{
			"buffer":0,
			"byteLength":2160,
			"byteOffset":121236,
			"target":34962
		},
		{
			"buffer":0,
			"byteLength":2160,
			"byteOffset":123396,
			"target":34962
		},
		{
			"buffer":0,
			"byteLength":1440,
			"byteOffset":125556,
			"target":34962
		},
		{
			"buffer":0,
			"byteLength":1920,
			"byteOffset":126996,
			"target":34963
		},
		{
			"buffer":0,
			"byteLength":2472,
			"byteOffset":128916,
			"target":34962
		},
		{
			"buffer":0,
			"byteLength":2472,
			"byteOffset":131388,
			"target":34962
		},
		{
			"buffer":0,
			"byteLength":1648,
			"byteOffset":133860,
			"target":34962
		},
		{
			"buffer":0,
			"byteLength":2136,
			"byteOffset":135508,
			"target":34963
		},
		{
			"buffer":0,
			"byteLength":1836,
			"byteOffset":137644,
			"target":34962
		},
		{
			"buffer":0,
			"byteLength":1836,
			"byteOffset":139480,
			"target":34962
		},
		{
			"buffer":0,
			"byteLength":1224,
			"byteOffset":141316,
			"target":34962
		},
		{
			"buffer":0,
			"byteLength":1536,
			"byteOffset":142540,
			"target":34963
		},
		{
			"buffer":0,
			"byteLength":31320,
			"byteOffset":144076,
			"target":34962
		},
		{
			"buffer":0,
			"byteLength":31320,
			"byteOffset":175396,
			"target":34962
		},
		{
			"buffer":0,
			"byteLength":20880,
			"byteOffset":206716,
			"target":34962
		},
		{
			"buffer":0,
			"byteLength":23184,
			"byteOffset":227596,
			"target":34963
		},
		{
			"buffer":0,
			"byteLength":1872,
			"byteOffset":250780,
			"target":34962
		},
		{
			"buffer":0,
			"byteLength":1872,
			"byteOffset":252652,
			"target":34962
		},
		{
			"buffer":0,
			"byteLength":1248,
			"byteOffset":254524,
			"target":34962
		},
		{
			"buffer":0,
			"byteLength":972,
			"byteOffset":255772,
			"target":34963
		},
		{
			"buffer":0,
			"byteLength":28548,
			"byteOffset":256744,
			"target":34962
		},
		{
			"buffer":0,
			"byteLength":28548,
			"byteOffset":285292,
			"target":34962
		},
		{
			"buffer":0,
			"byteLength":19032,
			"byteOffset":313840,
			"target":34962
		},
		{
			"buffer":0,
			"byteLength":18564,
			"byteOffset":332872,
			"target":34963
		}
	],
	"samplers":[
		{
			"magFilter":9729,
			"minFilter":9987
		}
	],
	"buffers":[
		{
			"byteLength":351436,
			"uri":"model.bin"
		}
	]
}
